<svg width="13" height="15" viewBox="0 0 13 15" fill="none" xmlns="http://www.w3.org/2000/svg">
<path d="M11.3043 8.01735C11.3043 10.1738 11.5562 11.2543 12.7714 12.0208C12.9166 12.1127 13 12.2671 13 12.4284C13 12.7059 12.7538 12.9312 12.45 12.9312H0.549674C0.246152 12.9312 0 12.7059 0 12.4284C0 12.2671 0.0833696 12.1127 0.22863 12.0208C1.44385 11.2543 1.69565 10.1738 1.69565 8.01735V5.94835C1.69565 3.80798 3.36813 2.02658 5.58209 1.63399C5.44926 1.46459 5.36957 1.25872 5.36957 1.0345C5.36957 0.463196 5.87572 0 6.5 0C7.12428 0 7.63043 0.463196 7.63043 1.0345C7.63043 1.25872 7.55074 1.46459 7.4182 1.63399C9.63187 2.02658 11.3043 3.80798 11.3043 5.94835V8.01735Z" fill="white"/>
<path d="M7.63001 13.9655C7.63001 14.5368 7.12386 15 6.49958 15C5.87529 15 5.36914 14.5368 5.36914 13.9655V13.7069H7.63001V13.9655Z" fill="white"/>
</svg>
