<svg width="15" height="15" viewBox="0 0 15 15" fill="none" xmlns="http://www.w3.org/2000/svg">
<path d="M4.58768 6.30351L7.50087 3.39043L10.4156 6.30505L12.1107 4.60995L7.50087 0L2.89258 4.60841L4.58768 6.30351Z" fill="white"/>
<path d="M3.39038 7.50025L1.69531 5.80518L0.000160072 7.50033L1.69523 9.1954L3.39038 7.50025Z" fill="white"/>
<path d="M4.58723 8.69625L7.50043 11.6093L10.415 8.69482L12.1111 10.389L12.1103 10.3899L7.50043 14.9998L2.89202 10.3915L2.88965 10.3891L4.58723 8.69625Z" fill="white"/>
<path d="M13.3048 9.19515L15 7.5L13.3049 5.80493L11.6098 7.50008L13.3048 9.19515Z" fill="white"/>
<path d="M9.22059 7.49793H9.2213L7.5012 5.77783L6.23002 7.04901H6.22991L6.08394 7.19509L5.78264 7.49639L5.78027 7.49876L5.78264 7.50125L7.5012 9.2198L9.2213 7.49971L9.22213 7.49876L9.22059 7.49793Z" fill="white"/>
</svg>
