<svg width="32" height="21" viewBox="0 0 32 21" fill="none" xmlns="http://www.w3.org/2000/svg">
<path d="M11.0132 0H23.1163C23.1091 0.162658 23.0537 0.319324 22.9575 0.449542C22.5478 1.1634 22.1791 1.90639 21.7765 2.62025C21.2029 3.64212 20.6744 4.68897 20.0956 5.70981C19.7289 6.44448 19.3151 7.15625 18.9239 7.87843H11.8685C11.7456 7.87843 11.6237 7.88468 11.5008 7.89196C11.3984 8.16668 11.2283 8.41227 11.0911 8.66513C10.9118 8.96067 10.7664 9.27597 10.5892 9.5715C10.4017 9.96901 10.1426 10.3249 9.9541 10.7162C9.56487 11.3874 9.20124 12.069 8.8202 12.7474C8.42278 13.4412 8.03423 14.1446 7.65456 14.8578C7.49374 15.1107 7.34727 15.3718 7.21104 15.6393C6.41516 17.0514 5.64489 18.4708 4.84799 19.8756C4.78031 20.0267 4.69128 20.1669 4.58372 20.2918C3.22141 20.2825 1.8591 20.2918 0.496783 20.2918C0.328988 20.295 0.162185 20.3188 0 20.3626C0 19.9797 0.251977 19.6737 0.42201 19.3553C0.626869 18.9234 0.900355 18.5228 1.10624 18.0899C2.73896 15.1221 4.35428 12.1439 5.98188 9.17399C6.35063 8.52881 6.66714 7.87011 7.03793 7.23742C7.50091 6.40494 7.93214 5.55372 8.41458 4.7306C8.56823 4.38616 8.77514 4.07085 8.94414 3.73474C9.54438 2.64938 10.1334 1.55779 10.7315 0.472436C10.8021 0.301757 10.897 0.142569 11.0132 0V0Z" fill="#272734"/>
<path d="M25.0376 4.37023C25.8438 2.93939 26.6222 1.49295 27.4396 0.0683594H31.8113C31.875 0.0716319 31.9382 0.0817475 31.9998 0.098537C31.8543 0.322267 31.7324 0.559526 31.6044 0.792622C30.55 2.71497 29.4988 4.63836 28.4506 6.56279C28.0101 7.34636 27.6004 8.14763 27.1538 8.92704L27.1098 8.94265L27.1016 9.04047C25.0462 12.7867 22.9976 16.5356 20.9558 20.2873C16.9426 20.2901 12.9277 20.2915 8.91113 20.2915C9.13955 19.8066 9.40996 19.3435 9.66399 18.8721C10.8112 16.7316 11.984 14.615 13.1107 12.4797C15.5759 12.4755 18.0417 12.4755 20.5082 12.4797C22.0313 9.78138 23.5217 7.06852 25.0335 4.37023H25.0376Z" fill="#272734"/>
</svg>
