<svg width="150" height="126" viewBox="0 0 150 126" fill="none" xmlns="http://www.w3.org/2000/svg">
<path d="M147.069 77.4833C144.418 82.4521 139.618 86.3326 138.288 91.8019C137.712 94.162 137.846 96.6372 137.564 99.0513C136.52 107.511 130.145 114.562 122.541 118.558C122.222 118.731 121.9 118.89 121.577 119.048C116.589 121.473 111.184 122.795 105.674 123.62C102.323 124.118 98.9326 124.427 95.5709 124.701C81.595 125.801 67.5876 126.203 53.549 125.905C46.7712 125.768 39.8592 125.447 33.4836 123.21C33.1576 123.098 32.8351 122.979 32.5128 122.849C27.3397 120.85 22.7499 117.575 18.6853 113.82L18.5006 113.647C12.4364 108.012 7.42638 101.206 4.18418 93.607C-0.448875 82.756 -1.26074 70.6664 1.88023 59.2989C3.79658 52.5431 7.14382 46.101 7.67634 39.1219C8.06397 33.8613 6.82142 28.5361 7.65098 23.3261C9.29202 12.9854 18.957 5.37214 29.1618 2.81037C39.3665 0.248611 50.1074 1.70784 60.5296 3.17069C65.6231 3.8913 71.5822 5.82611 76.6212 4.27683C82.8049 2.3708 88.0214 0.0144122 94.6942 0C97.422 0 100.204 0.284641 102.704 1.37276C105.732 2.68787 108.138 5.07308 110.59 7.26733C117.455 13.3925 125.28 18.3431 132.296 24.2881C139.313 30.233 145.667 37.468 148.236 46.2666C149.5 50.5687 149.812 55.0906 149.946 59.5692C150.141 65.687 149.942 72.0824 147.069 77.4833Z" fill="#555560"/>
</svg>
