<svg width="32" height="14" viewBox="0 0 32 14" fill="none" xmlns="http://www.w3.org/2000/svg">
<path d="M21.4353 1.64111L17.2534 13.6967L17.2273 13.7706L16.4588 12.1294L14.8547 12.9072L19.0627 0.777778L20.6668 0L21.4353 1.64111ZM31.9067 1.94444L27.7249 14L26.9564 12.355L25.3523 13.1328L25.4493 12.8489L29.6312 0.777778L31.2353 0L31.9814 1.64111L31.9067 1.94444ZM22.9536 12.3861L25.4157 5.28889L23.8079 6.06667L23.0618 4.42167L20.5736 11.4994L21.3383 13.1444L22.9536 12.3861ZM9.62835 5.38611H2.27186L3.5253 6.61111L2.27186 7.875H9.62089L10.8706 6.61111L9.62835 5.38611ZM1.25344 10.6283H13.1462L11.8965 11.8844L13.1462 13.1367H1.25344L0 11.8844L1.25344 10.6283ZM4.90184 0.101111H16.7871L15.5412 1.35722L16.7871 2.60944H4.90184L3.6484 1.35722L4.90184 0.101111Z" fill="#272734"/>
</svg>
