<svg width="15" height="23" viewBox="0 0 15 23" fill="none" xmlns="http://www.w3.org/2000/svg">
<path d="M10.1572 7.07443C10.1572 3.77444 8.5494 0.932424 7.3249 0.00998603C7.3249 0.00998603 7.23071 -0.0419823 7.24045 0.0911866C7.13976 6.46705 3.882 8.195 2.09234 10.5206C-2.03915 15.8928 1.80002 21.7815 5.71713 22.8696C7.8998 23.4802 5.21044 21.7912 4.8629 18.2281C4.43741 13.9278 10.1572 10.6408 10.1572 7.07443Z" fill="white"/>
<path d="M12.0346 9.2459C12.0086 9.22966 11.9729 9.21666 11.9502 9.25889C11.882 10.0612 11.0635 11.7761 10.0241 13.3546C6.49999 18.7009 8.50727 21.2798 9.63758 22.6667C10.2937 23.469 9.63758 22.6667 11.2746 21.845C13.2981 20.6172 14.6103 18.493 14.8052 16.1349C15.1267 12.3348 12.8466 9.94097 12.0346 9.2459Z" fill="white"/>
</svg>
