<svg width="32" height="26" viewBox="0 0 32 26" fill="none" xmlns="http://www.w3.org/2000/svg">
<path d="M14.9708 0.0351931C17.751 -0.151941 20.5848 0.409456 23.071 1.66593C26.7602 3.48381 29.7009 6.7453 31.0643 10.5949C31.6792 12.3059 32 14.097 32 15.9149V22.625C32 22.8923 32 23.1864 31.9465 23.4537C31.7861 24.1221 31.3049 24.7369 30.6633 25.031C30.2089 25.2449 29.7009 25.2716 29.2464 25.1914C28.2306 25.0043 27.4286 24.0419 27.4286 22.9993C27.4286 20.9141 27.4286 18.8288 27.4286 16.7436C27.4553 16.1555 27.4553 15.5139 27.1345 15.006C26.6266 14.0435 25.3434 13.5891 24.3542 13.9901C23.4987 14.2841 22.8839 15.1664 22.8571 16.0753C22.8571 18.1872 22.8571 20.2992 22.8571 22.4111C22.8571 22.8121 22.8839 23.2131 22.7502 23.5874C22.5363 24.3359 21.9215 24.9241 21.1729 25.138C20.1838 25.4053 19.061 24.9775 18.5798 24.0686C18.2322 23.5339 18.259 22.8656 18.2857 22.2507C18.2857 20.1388 18.2857 18.0536 18.2857 15.9416C18.259 14.8723 17.3768 13.9099 16.3342 13.7762C15.6391 13.6693 14.9173 13.9099 14.4094 14.3911C13.9549 14.8188 13.7143 15.4337 13.7143 16.0486V22.1705C13.7143 22.6785 13.7678 23.2131 13.5806 23.6943C13.2866 24.5765 12.4043 25.2181 11.4687 25.1914C10.5063 25.2449 9.57059 24.5765 9.27652 23.6943C9.11612 23.2399 9.14286 22.7854 9.14286 22.3042C9.14286 20.1923 9.14286 18.0803 9.14286 15.9684C9.14286 14.9257 8.31412 13.9633 7.29825 13.7762C6.36257 13.5891 5.3467 14.0435 4.8655 14.899C4.67836 15.2465 4.57143 15.6476 4.57143 16.0486V22.9191C4.57143 23.5874 4.27736 24.2557 3.76942 24.6835C2.99415 25.3518 1.73768 25.4053 0.935672 24.7904C0.347535 24.3894 0 23.6943 0 22.9725V16.0218C0 13.4019 0.668338 10.7821 1.92481 8.45625C2.94069 6.55817 4.35756 4.87395 6.04177 3.53728C8.52799 1.45206 11.7093 0.222328 14.9708 0.0351931Z" fill="#272734"/>
</svg>
