<svg width="20" height="20" viewBox="0 0 20 20" fill="none" xmlns="http://www.w3.org/2000/svg">
<path fill-rule="evenodd" clip-rule="evenodd" d="M1.78791 1.46341C1.60869 1.46341 1.46341 1.60869 1.46341 1.78791V6.54086C1.46341 6.72008 1.60869 6.86536 1.78791 6.86536H6.54086C6.72008 6.86536 6.86536 6.72008 6.86536 6.54086V1.78791C6.86536 1.60869 6.72008 1.46341 6.54086 1.46341H1.78791ZM0 1.78791C0 0.800476 0.800476 0 1.78791 0H6.54086C7.52829 0 8.32877 0.800476 8.32877 1.78791V6.54086C8.32877 7.52829 7.52829 8.32877 6.54086 8.32877H1.78791C0.800476 8.32877 0 7.52829 0 6.54086V1.78791Z" fill="white"/>
<path fill-rule="evenodd" clip-rule="evenodd" d="M1.78791 13.1343C1.60869 13.1343 1.46341 13.2796 1.46341 13.4588V18.2118C1.46341 18.391 1.60869 18.5363 1.78791 18.5363H6.54086C6.72008 18.5363 6.86536 18.391 6.86536 18.2118V13.4588C6.86536 13.2796 6.72008 13.1343 6.54086 13.1343H1.78791ZM0 13.4588C0 12.4714 0.800476 11.6709 1.78791 11.6709H6.54086C7.52829 11.6709 8.32877 12.4714 8.32877 13.4588V18.2118C8.32877 19.1992 7.52829 19.9997 6.54086 19.9997H1.78791C0.800476 19.9997 0 19.1992 0 18.2118V13.4588Z" fill="white"/>
<path fill-rule="evenodd" clip-rule="evenodd" d="M13.4598 1.46341C13.2806 1.46341 13.1353 1.60869 13.1353 1.78791V6.54086C13.1353 6.72008 13.2806 6.86536 13.4598 6.86536H18.2127C18.392 6.86536 18.5372 6.72008 18.5372 6.54086V1.78791C18.5372 1.60869 18.392 1.46341 18.2127 1.46341H13.4598ZM11.6719 1.78791C11.6719 0.800476 12.4724 0 13.4598 0H18.2127C19.2002 0 20.0006 0.800476 20.0006 1.78791V6.54086C20.0006 7.52829 19.2002 8.32877 18.2127 8.32877H13.4598C12.4724 8.32877 11.6719 7.52829 11.6719 6.54086V1.78791Z" fill="white"/>
<path d="M3.48047 3.47754H4.85354V4.85061H3.48047V3.47754Z" fill="white"/>
<path d="M3.48047 15.1489H4.85354V16.522H3.48047V15.1489Z" fill="white"/>
<path d="M15.1484 3.47754H16.5215V4.85061H15.1484V3.47754Z" fill="white"/>
<path fill-rule="evenodd" clip-rule="evenodd" d="M19.9974 16.522V19.9998H16.5195V18.5364H18.534V16.522H19.9974Z" fill="white"/>
<path fill-rule="evenodd" clip-rule="evenodd" d="M11.6706 15.1489L11.6706 11.6711L15.1484 11.6711L15.1484 13.1345L13.134 13.1345L13.134 15.1489L11.6706 15.1489Z" fill="white"/>
<path fill-rule="evenodd" clip-rule="evenodd" d="M15.1484 19.9998L11.6706 19.9998L11.6706 16.522L13.134 16.522L13.134 18.5364L15.1484 18.5364L15.1484 19.9998Z" fill="white"/>
<path fill-rule="evenodd" clip-rule="evenodd" d="M16.5195 11.6711L19.9974 11.6711L19.9974 15.1489L18.534 15.1489L18.534 13.1345L16.5195 13.1345L16.5195 11.6711Z" fill="white"/>
</svg>
