<svg width="10" height="10" viewBox="0 0 10 10" fill="none" xmlns="http://www.w3.org/2000/svg">
<path d="M4.1649 0.359375C2.06693 0.359375 0.359985 2.06631 0.359985 4.16429C0.359985 6.26238 2.06693 7.9692 4.1649 7.9692C6.26299 7.9692 7.96981 6.26238 7.96981 4.16429C7.96981 2.06631 6.26299 0.359375 4.1649 0.359375ZM4.1649 7.26677C2.45421 7.26677 1.06243 5.87499 1.06243 4.1643C1.06243 2.45362 2.45421 1.06182 4.1649 1.06182C5.87558 1.06182 7.26736 2.4536 7.26736 4.16429C7.26736 5.87497 5.87558 7.26677 4.1649 7.26677Z" fill="white"/>
<path fill-rule="evenodd" clip-rule="evenodd" d="M0 4.16491C0 1.86812 1.86812 0 4.16491 0C6.46183 0 8.32983 1.86813 8.32983 4.16491C8.32983 6.46183 6.46183 8.32983 4.16491 8.32983C1.86813 8.32983 0 6.46183 0 4.16491ZM4.16491 1.42245C2.65305 1.42245 1.42245 2.65307 1.42245 4.16493C1.42245 5.67679 2.65305 6.90739 4.16491 6.90739C5.67677 6.90739 6.90738 5.67678 6.90738 4.16491C6.90738 2.65305 5.67678 1.42245 4.16491 1.42245Z" fill="white"/>
<path d="M8.89741 8.39979L6.88373 6.38611C6.74651 6.2489 6.5243 6.2489 6.38709 6.38611C6.24988 6.52321 6.24988 6.74565 6.38709 6.88275L8.40077 8.89643C8.46937 8.96503 8.55918 8.99933 8.64909 8.99933C8.73888 8.99933 8.82879 8.96503 8.89741 8.89643C9.03462 8.75933 9.03462 8.53689 8.89741 8.39979Z" fill="white" stroke="white"/>
</svg>
