<svg width="45" height="40" viewBox="0 0 45 40" fill="none" xmlns="http://www.w3.org/2000/svg">
<path fill-rule="evenodd" clip-rule="evenodd" d="M12.8735 36.7664L18.7695 38.3234V36.2874L19.2508 35.8083H22.6198V38.2036V39.8802H19.0101L14.5581 37.964L12.8735 36.7664Z" fill="#CDBDB2"/>
<path fill-rule="evenodd" clip-rule="evenodd" d="M32.1265 36.7664L26.351 38.3234V36.2874L25.8697 35.8083H22.5006V38.2036V39.8802H26.1103L30.5622 37.964L32.1265 36.7664Z" fill="#CDBDB2"/>
<path fill-rule="evenodd" clip-rule="evenodd" d="M19.2528 32.3352L18.7715 36.2872L19.373 35.8082H25.6298L26.3517 36.2872L25.8705 32.3352L24.9079 31.7363L20.0949 31.8562L19.2528 32.3352Z" fill="#393939"/>
<path fill-rule="evenodd" clip-rule="evenodd" d="M16.0024 5.62891L18.8902 12.3355L20.2139 31.8565H24.9064L26.3502 12.3355L28.9974 5.62891H16.0024Z" fill="#F89C35"/>
<path fill-rule="evenodd" clip-rule="evenodd" d="M3.36905 20.3594L0 30.0599L8.42263 29.5808H13.8371V25.3893L13.5964 16.7666L12.3932 17.7247L3.36905 20.3594Z" fill="#F89D35"/>
<path fill-rule="evenodd" clip-rule="evenodd" d="M9.74658 21.437L19.6131 21.6765L18.5303 26.7065L13.8376 25.5089L9.74658 21.437Z" fill="#D87C30"/>
<path fill-rule="evenodd" clip-rule="evenodd" d="M9.74658 21.5571L13.8376 25.3895V29.2218L9.74658 21.5571Z" fill="#EA8D3A"/>
<path fill-rule="evenodd" clip-rule="evenodd" d="M13.8364 25.5088L18.6494 26.7064L20.2137 31.8562L19.1306 32.4549L13.8364 29.3411V25.5088Z" fill="#F89D35"/>
<path fill-rule="evenodd" clip-rule="evenodd" d="M13.8361 29.3413L12.8735 36.7664L19.2508 32.3354L13.8361 29.3413Z" fill="#EB8F35"/>
<path fill-rule="evenodd" clip-rule="evenodd" d="M19.6124 21.6765L20.2141 31.8562L18.4092 26.6466L19.6124 21.6765Z" fill="#EA8E3A"/>
<path fill-rule="evenodd" clip-rule="evenodd" d="M8.30273 29.4612L13.8376 29.3413L12.875 36.7664L8.30273 29.4612Z" fill="#D87C30"/>
<path fill-rule="evenodd" clip-rule="evenodd" d="M2.64711 40.0001L12.8745 36.7664L8.3022 29.4612L0 30.0599L2.64711 40.0001Z" fill="#EB8F35"/>
<path fill-rule="evenodd" clip-rule="evenodd" d="M18.8912 12.3352L13.7174 16.6466L9.74658 21.437L19.6131 21.7964L18.8912 12.3352Z" fill="#E8821E"/>
<path fill-rule="evenodd" clip-rule="evenodd" d="M12.8735 36.7665L19.2508 32.3354L18.7695 36.1678V38.3235L14.4378 37.485L12.8735 36.7665Z" fill="#DFCEC3"/>
<path fill-rule="evenodd" clip-rule="evenodd" d="M32.1265 36.7665L25.8697 32.3354L26.3509 36.1678V38.3235L30.6826 37.485L32.1265 36.7665Z" fill="#DFCEC3"/>
<path fill-rule="evenodd" clip-rule="evenodd" d="M16.9664 23.8323L18.29 26.5876L13.5973 25.3897L16.9664 23.8323Z" fill="#393939"/>
<path fill-rule="evenodd" clip-rule="evenodd" d="M2.52637 0L18.8903 12.3352L16.123 5.62862L2.52637 0Z" fill="#E88F35"/>
<path fill-rule="evenodd" clip-rule="evenodd" d="M2.52568 0L0.359863 6.58681L1.5631 13.7724L0.720833 14.2515L1.92407 15.3293L0.96148 16.1676L2.28504 17.3652L1.44277 18.0838L3.36794 20.479L12.3922 17.7245C16.804 14.2115 18.9699 12.4151 18.8896 12.3353C18.8094 12.2555 13.3548 8.14369 2.52568 0Z" fill="#8E5A30"/>
<path fill-rule="evenodd" clip-rule="evenodd" d="M41.6309 20.3594L45 30.0599L36.5774 29.5808H31.1629V25.3893L31.4036 16.7666L32.6068 17.7247L41.6309 20.3594Z" fill="#F89D35"/>
<path fill-rule="evenodd" clip-rule="evenodd" d="M35.2534 21.437L25.3869 21.6765L26.4697 26.7065L31.1624 25.5089L35.2534 21.437Z" fill="#D87C30"/>
<path fill-rule="evenodd" clip-rule="evenodd" d="M35.2534 21.5571L31.1624 25.3895V29.2218L35.2534 21.5571Z" fill="#EA8D3A"/>
<path fill-rule="evenodd" clip-rule="evenodd" d="M31.1636 25.5088L26.3506 26.7064L24.7863 31.8562L25.8694 32.4549L31.1636 29.3411V25.5088Z" fill="#F89D35"/>
<path fill-rule="evenodd" clip-rule="evenodd" d="M31.1639 29.3413L32.1265 36.7664L25.8697 32.4551L31.1639 29.3413Z" fill="#EB8F35"/>
<path fill-rule="evenodd" clip-rule="evenodd" d="M25.3876 21.6765L24.7859 31.8562L26.5908 26.6466L25.3876 21.6765Z" fill="#EA8E3A"/>
<path fill-rule="evenodd" clip-rule="evenodd" d="M36.6973 29.4612L31.1624 29.3413L32.125 36.7664L36.6973 29.4612Z" fill="#D87C30"/>
<path fill-rule="evenodd" clip-rule="evenodd" d="M42.3529 40.0001L32.1255 36.7664L36.6978 29.4612L45 30.0599L42.3529 40.0001Z" fill="#EB8F35"/>
<path fill-rule="evenodd" clip-rule="evenodd" d="M26.1088 12.3352L31.2826 16.6466L35.2534 21.437L25.3869 21.7964L26.1088 12.3352Z" fill="#E8821E"/>
<path fill-rule="evenodd" clip-rule="evenodd" d="M28.0336 23.8323L26.71 26.5876L31.4027 25.3897L28.0336 23.8323Z" fill="#393939"/>
<path fill-rule="evenodd" clip-rule="evenodd" d="M42.4736 0L26.1097 12.3352L28.877 5.62862L42.4736 0Z" fill="#E88F35"/>
<path fill-rule="evenodd" clip-rule="evenodd" d="M42.4743 0L44.6401 6.58681L43.4369 13.7724L44.2792 14.2515L43.0759 15.3293L44.0385 16.1676L42.715 17.3652L43.5572 18.0838L41.6321 20.479L32.6078 17.7245C28.196 14.2115 26.0301 12.4151 26.1104 12.3353C26.1906 12.2555 31.6452 8.14369 42.4743 0Z" fill="#8E5A30"/>
</svg>
