<svg width="104" height="96" viewBox="0 0 104 96" fill="none" xmlns="http://www.w3.org/2000/svg">
<path d="M52.0808 17.9411C52.0808 18.0354 50.0689 23.5687 50.0689 23.5687L47.0859 22.0568L48.5836 17.4485L52.0808 17.9411Z" fill="#455A64"/>
<path d="M50.1602 23.5269L50.4905 23.5685L52.4655 17.8772L52.1079 17.8308L50.1602 23.5269Z" fill="#263238"/>
<path d="M46.7081 20.7567C46.7058 20.755 46.7041 20.7529 46.7029 20.7504C46.7017 20.7481 46.7012 20.7455 46.7012 20.7428C46.7012 20.7401 46.7017 20.7374 46.7029 20.735C46.7041 20.7325 46.7058 20.7304 46.7081 20.7287C46.8003 20.6322 47.2489 20.1724 47.6513 19.766C47.787 19.6308 47.9497 19.5249 48.1288 19.4553C48.308 19.3859 48.4999 19.354 48.6922 19.362L49.2382 19.3876C49.3717 19.3933 49.5026 19.4267 49.6223 19.4854C49.7422 19.5442 49.8485 19.6269 49.9343 19.7284C50.0201 19.8299 50.0836 19.9481 50.121 20.0751C50.1581 20.2023 50.1683 20.3358 50.1508 20.4672L50.0457 21.1911C50.0363 21.2524 50.0055 21.3086 49.9587 21.3498C49.9118 21.3912 49.8519 21.4148 49.7894 21.4171L48.3794 21.4019L48.1641 21.6559L46.7081 20.7567Z" fill="#E3A392"/>
<path d="M57.2358 26.6287C57.7359 26.7996 58.264 26.8609 58.7875 26.8083C59.31 26.7585 59.8364 26.8041 60.3442 26.9429C60.5978 27.0167 60.8273 27.1616 61.0087 27.3621C61.19 27.5626 61.3161 27.8112 61.3736 28.0813C61.4364 28.5435 61.2179 29.0162 61.2982 29.4758C61.3785 29.9352 61.7828 30.3923 61.6648 30.865C61.5668 31.2611 61.1451 31.4618 60.761 31.5385C60.1616 31.6577 59.543 31.6065 58.9686 31.3906C58.3941 31.1747 57.8848 30.8017 57.4931 30.31C57.1012 29.8182 56.8411 29.2254 56.7395 28.5928C56.6377 27.9601 56.6982 27.3104 56.9144 26.7106" fill="#407BFF"/>
<g opacity="0.3">
<path opacity="0.3" d="M58.0472 27.9815L59.0692 28.5629C59.2149 28.6584 59.3758 28.7288 59.5451 28.7708C59.6298 28.792 59.7184 28.793 59.8036 28.7738C59.8889 28.7546 59.9684 28.7158 60.0359 28.6605C60.106 28.5717 60.1565 28.469 60.1839 28.3593C60.2111 28.2496 60.2149 28.1352 60.1945 28.024C60.1998 27.782 60.137 27.5433 60.0132 27.3348C59.7866 27.0215 59.3461 26.9589 58.9585 26.9815C58.5457 27.0072 58.1401 27.1004 57.7578 27.2571" fill="black"/>
</g>
<path d="M69.2176 26.3529C68.4583 25.3478 67.0941 24.967 65.8311 24.6474L62.9912 23.9323C62.4202 23.7507 61.8195 23.6725 61.2194 23.7013C61.0746 23.7181 60.9323 23.7493 60.7942 23.7946C60.8996 23.5681 60.9918 23.3358 61.0701 23.0991C61.2443 22.6865 61.2595 22.2268 61.1132 21.8041C60.9612 21.5209 60.7395 21.2784 60.4677 21.0987C59.8249 20.6072 59.144 19.8528 58.3315 19.7544C57.9393 19.7153 57.5437 19.7806 57.1868 19.9434C56.8302 20.1063 56.5257 20.3603 56.3066 20.6784L56.3724 21.133C57.1925 20.1895 57.4076 20.2336 58.0404 19.9043C58.2732 20.6415 58.9819 22.3349 59.6299 22.8042C59.7017 22.8459 59.7616 22.9042 59.8045 22.9738C59.8249 23.045 59.8279 23.1197 59.8135 23.1922C59.799 23.2648 59.7673 23.333 59.7211 23.3917C59.5017 23.7522 59.3266 24.1365 59.1997 24.5369C59.0984 24.9029 58.7769 25.8566 58.8377 26.3186C58.791 26.5063 58.7993 26.7031 58.8619 26.8863C58.9246 27.0697 59.039 27.2323 59.1921 27.3557C59.5383 27.6168 59.945 27.7922 60.3765 27.8668C60.8071 27.9393 61.2253 28.0692 61.6194 28.2527C61.9377 28.426 62.2007 28.6813 62.3793 28.9906C62.558 29.2996 62.6454 29.6507 62.6319 30.005C62.7833 29.952 62.915 29.8559 63.0093 29.7291C63.1037 29.6024 63.1565 29.4511 63.1607 29.2946L63.8189 29.7861C63.9282 29.3852 63.9464 28.9658 63.8719 28.5574C64.1707 28.7712 64.4618 28.9948 64.7681 29.1939C65.4742 29.6585 66.3474 30.0171 67.1751 29.7985L67.1523 29.157L68.509 30.0712C68.7021 29.8347 68.8313 29.555 68.8849 29.2575C68.9383 28.9601 68.9143 28.6544 68.8151 28.3682L69.5036 29.0907C69.7086 28.6503 69.7901 28.1653 69.7398 27.6845C69.6896 27.2037 69.5095 26.7444 69.2176 26.3529Z" fill="#263238"/>
<path d="M58.2285 19.4775C58.4133 19.3088 58.6306 19.178 58.8678 19.0926C59.1051 19.0072 59.3573 18.969 59.6097 18.9805C59.8622 18.992 60.1098 19.0527 60.338 19.1592C60.566 19.2656 60.7702 19.4156 60.9383 19.6003C61.2223 19.941 61.3733 20.3743 61.6879 20.6823C62.7115 21.6842 64.7151 20.7976 65.7642 21.772C66.5011 22.4557 66.386 23.7608 67.2023 24.3569C67.9367 24.8954 69.1137 24.6073 69.7611 25.236C70.0034 25.5179 70.1672 25.856 70.2372 26.2179C70.3094 26.5769 70.4556 26.9178 70.6669 27.2198C70.7772 27.3686 70.9343 27.4778 71.1141 27.5309C71.2939 27.5837 71.4866 27.5775 71.6624 27.5128C71.7571 27.9412 71.3475 28.347 70.9074 28.432C70.461 28.4737 70.0107 28.4128 69.5923 28.2543C69.1623 28.1339 68.6942 28.0312 68.2769 28.1866C67.7116 28.3945 67.3942 29.0157 66.8338 29.2336C66.5778 29.3135 66.305 29.3278 66.0416 29.2752C65.7782 29.2225 65.5329 29.1048 65.3293 28.9331C64.928 28.586 64.5829 28.1815 64.3057 27.7332C64.0251 27.2836 63.6478 26.899 63.2004 26.6061C62.6246 26.2779 61.921 26.2505 61.2632 26.2379C60.6056 26.2255 59.9019 26.2104 59.3133 25.9048C58.7249 25.5993 58.29 24.9029 58.5253 24.2918" fill="#263238"/>
<path d="M58.4167 26.0353C58.4259 26.0981 58.4592 26.1549 58.5095 26.1939C58.5599 26.233 58.6234 26.2511 58.6869 26.2448C58.8129 26.2335 58.9332 26.1874 59.0341 26.1118C59.8655 25.5822 60.5664 24.8739 61.0851 24.039C61.5216 23.3316 61.8291 22.4787 61.6158 21.6777C61.4836 21.2271 61.2255 20.823 60.8718 20.512C60.518 20.2031 60.1222 19.945 59.6964 19.7453C59.2818 19.5087 58.8152 19.3766 58.3372 19.3608C57.5387 19.3806 56.0805 19.8538 55.9219 21.7911" fill="#263238"/>
<path d="M60.9179 21.8922C60.9179 21.8922 59.6162 22.9178 59.5771 22.8305L59.0045 23.8484C58.8534 24.1166 58.8167 24.4306 58.9021 24.7243C58.9875 25.0178 59.1884 25.2683 59.4626 25.4228L57.6897 28.7763C57.2811 29.49 55.1828 29.4052 54.3887 28.9784C53.5843 28.5468 54.2169 27.8058 54.649 27.1496C54.9737 26.6455 55.2572 26.1182 55.4978 25.5725C55.4978 25.5725 54.5632 24.8839 55.063 23.4917C55.4427 22.6012 55.91 21.7474 56.4584 20.9417C56.9347 20.1931 57.7601 19.4045 58.5227 19.896L60.9179 21.8922Z" fill="#E3A392"/>
<path d="M56.3285 21.7468C56.3055 21.792 56.3003 21.844 56.3145 21.8928C56.3287 21.9413 56.3609 21.9827 56.4047 22.0084C56.4258 22.0222 56.4495 22.0316 56.4741 22.0361C56.499 22.0405 56.5245 22.0399 56.5491 22.0344C56.5736 22.0287 56.5967 22.0183 56.6172 22.0033C56.6375 21.9886 56.6547 21.9699 56.6675 21.9483C56.6916 21.9038 56.6973 21.8515 56.6835 21.8028C56.6699 21.7541 56.6377 21.7124 56.5939 21.6867C56.5726 21.673 56.5489 21.6635 56.5239 21.659C56.4988 21.6545 56.4732 21.6551 56.4485 21.6608C56.4236 21.6663 56.4002 21.6769 56.3796 21.6916C56.3591 21.7065 56.3418 21.7252 56.3285 21.7468Z" fill="#263238"/>
<path d="M56.3071 21.706C56.3071 21.7366 56.5181 21.706 56.7207 21.8028C56.9234 21.8996 57.0061 22.039 57.0517 22.039C57.0973 22.039 57.0688 21.987 57.029 21.9184C56.9724 21.8299 56.8848 21.7574 56.7777 21.7106C56.6732 21.6638 56.553 21.6464 56.4354 21.6611C56.347 21.6657 56.3013 21.6918 56.3071 21.706Z" fill="#263238"/>
<path d="M58.2287 22.4706C58.2287 22.5013 58.3333 22.4706 58.435 22.5675C58.5365 22.6644 58.5781 22.8039 58.601 22.8039C58.6239 22.8039 58.6096 22.7542 58.5895 22.6857C58.5629 22.5959 58.5198 22.5224 58.4662 22.4757C58.4127 22.4291 58.3517 22.4115 58.2918 22.4257C58.2488 22.4303 58.226 22.4564 58.2287 22.4706Z" fill="#263238"/>
<path d="M56.6728 23.5686C56.6013 23.485 56.5215 23.412 56.4348 23.351C56.3962 23.3194 56.3624 23.2847 56.3692 23.2477C56.3758 23.2105 56.4166 23.1681 56.4621 23.1231L56.7498 22.8341C57.0034 22.5904 57.2406 22.3244 57.4593 22.0386C57.1899 22.2556 56.9353 22.4966 56.6978 22.7598L56.4144 23.0594C56.3622 23.101 56.3244 23.1631 56.3079 23.2344C56.3052 23.2553 56.3069 23.2766 56.3128 23.2963C56.3188 23.3162 56.3288 23.3341 56.3419 23.3484C56.362 23.3697 56.384 23.3885 56.4076 23.4042C56.4895 23.4725 56.5786 23.5278 56.6728 23.5686Z" fill="#263238"/>
<path d="M55.6688 25.4812C56.2161 25.8368 56.8362 26.0061 57.4602 25.9706C57.4602 25.9706 56.6508 26.683 55.5391 25.8172L55.6688 25.4812Z" fill="#E3A392"/>
<path d="M56.7251 23.9735C56.7649 23.9552 56.8086 23.9479 56.8518 23.9525C56.8951 23.957 56.9364 23.9732 56.972 23.9995C56.9985 24.0174 57.021 24.0409 57.0384 24.0685C57.0556 24.096 57.0674 24.1271 57.0727 24.1598C57.0788 24.1913 57.0753 24.224 57.063 24.2534C57.0507 24.2827 57.03 24.3074 57.0038 24.3237C56.9716 24.3356 56.9367 24.3374 56.9035 24.3288C56.8703 24.3202 56.8402 24.3016 56.8168 24.2752C56.7699 24.2206 56.7329 24.1576 56.7074 24.0889C56.6994 24.07 56.6941 24.0499 56.6915 24.0293C56.691 24.0197 56.6929 24.01 56.6973 24.0013C56.7017 23.9928 56.7083 23.9857 56.7163 23.9809" fill="#E3A392"/>
<path d="M57.0751 23.9524C57.0469 23.9332 56.9505 24.1445 56.7272 24.1995C56.585 24.2121 56.4421 24.1915 56.3066 24.1391C56.3066 24.1391 56.3301 24.2078 56.4125 24.2599C56.5176 24.3276 56.6399 24.35 56.7579 24.323C56.8706 24.2968 56.9703 24.22 57.035 24.1089C57.0751 24.0237 57.0751 23.9606 57.0751 23.9524Z" fill="#263238"/>
<path d="M58.2285 22.0923C58.2285 22.171 58.4046 22.2668 58.5954 22.4551C58.7862 22.6431 58.9232 22.8417 58.9722 22.7973C59.0211 22.7528 58.9893 22.6945 58.9476 22.5817C58.8887 22.4345 58.8048 22.3099 58.703 22.219C58.6044 22.1245 58.4913 22.0636 58.3729 22.041C58.2897 22.0307 58.2335 22.0546 58.2285 22.0923Z" fill="#263238"/>
<path d="M56.6914 20.9758C56.6914 21.032 56.8767 21.054 57.0533 21.1273C57.2299 21.2007 57.3526 21.296 57.4215 21.2692C57.4903 21.2422 57.4514 21.2057 57.4215 21.1396C57.3629 21.0548 57.2746 20.9861 57.1679 20.9426C57.0614 20.899 56.9412 20.8823 56.8231 20.895C56.7213 20.917 56.6914 20.9488 56.6914 20.9758Z" fill="#263238"/>
<path d="M58.2986 19.7434C58.211 20.1387 58.2055 20.548 58.2824 20.9456C58.3596 21.3432 58.5176 21.7205 58.7466 22.0541C58.968 22.3062 59.1473 22.5923 59.278 22.9013C59.3945 23.3047 59.2579 23.7613 59.4274 24.1468C59.6199 24.5857 60.1361 24.7683 60.6043 24.8418C61.0725 24.9153 61.5762 24.9306 61.9634 25.2071C62.4897 25.5851 62.7075 26.3815 63.3301 26.5491C64.0185 26.7342 64.7575 26.001 65.4029 26.2954C65.7926 26.4805 65.9572 26.9726 66.3267 27.1958C66.6961 27.4189 67.2302 27.2973 67.6807 27.1958C68.1312 27.0943 68.6931 27.0411 68.9866 27.3936" fill="#263238"/>
<path d="M68.9866 27.3936C68.8381 27.2541 68.6469 27.1692 68.4441 27.1528C68.207 27.1338 67.9687 27.157 67.7398 27.2213C67.432 27.3171 67.1129 27.3708 66.7908 27.381C66.5946 27.3782 66.4038 27.3165 66.2431 27.2034C66.0834 27.0742 65.9422 26.9232 65.8242 26.7547C65.7088 26.5824 65.5515 26.4427 65.3673 26.3491C65.1632 26.2752 64.9402 26.2752 64.7363 26.3491C64.514 26.4048 64.2946 26.4985 64.0547 26.5695C63.8062 26.662 63.5351 26.6736 63.2798 26.6026C63.0244 26.501 62.8053 26.3241 62.6513 26.0955C62.4872 25.8825 62.346 25.6567 62.1667 25.4616C61.997 25.2685 61.7751 25.1294 61.5281 25.0608C61.2797 24.9953 61.0266 24.9504 60.7709 24.9264C60.5174 24.8994 60.2686 24.8379 60.0313 24.7439C59.7935 24.6529 59.5902 24.4888 59.4509 24.2748C59.3384 24.0621 59.2861 23.8228 59.2993 23.5824C59.3101 23.3711 59.2957 23.159 59.2565 22.9511C59.158 22.5605 58.85 22.2868 58.6683 21.9774C58.3691 21.4904 58.2166 20.9267 58.2292 20.3545C58.2336 20.2011 58.2512 20.0484 58.2821 19.898C58.2901 19.8449 58.3045 19.7931 58.3251 19.7434C58.2995 19.9469 58.2853 20.1519 58.2821 20.357C58.2874 20.9144 58.4483 21.4592 58.7466 21.9292C58.9234 22.2234 59.2514 22.4897 59.3624 22.9232C59.4054 23.1392 59.4232 23.3597 59.4155 23.5799C59.4035 23.7992 59.4517 24.0176 59.5544 24.2114C59.6819 24.4016 59.8655 24.547 60.0793 24.6272C60.307 24.7159 60.5456 24.773 60.7885 24.7972C61.0502 24.8221 61.3095 24.8687 61.5634 24.9365C61.8338 25.0106 62.0767 25.1621 62.2626 25.3726C62.4495 25.5781 62.5933 25.8088 62.7523 26.0142C62.8923 26.2187 63.0888 26.3774 63.3177 26.4707C63.5483 26.533 63.7924 26.5223 64.0168 26.4402C64.2466 26.3717 64.4687 26.278 64.7033 26.2196C64.9347 26.1457 65.184 26.1539 65.4101 26.2424C65.6134 26.3445 65.7872 26.4974 65.9149 26.6862C66.0248 26.8497 66.1575 26.9965 66.3087 27.1223C66.4527 27.2255 66.624 27.283 66.8008 27.2872C67.1152 27.2819 67.4277 27.235 67.7297 27.1477C67.9673 27.0892 68.2135 27.0738 68.4566 27.1022C68.6118 27.1195 68.7592 27.1791 68.8832 27.2744C68.9248 27.3074 68.9599 27.3477 68.9866 27.3936Z" fill="#455A64"/>
<path d="M69.3714 25.381C69.3281 25.3983 69.2837 25.4125 69.2383 25.4236C68.7584 25.5253 68.2586 25.4914 67.7976 25.3262C67.3367 25.161 66.9337 24.871 66.636 24.4904C66.4231 24.1838 66.1497 23.9217 65.8316 23.7195C65.4514 23.5494 65.0305 23.4848 64.615 23.5323C64.1554 23.5868 63.6919 23.6043 63.2293 23.5848C62.9895 23.5664 62.7547 23.5084 62.5351 23.4126C62.3153 23.3162 62.1288 23.1603 61.9972 22.9635C61.7411 22.5668 61.7411 22.1227 61.5721 21.7808C61.4905 21.6154 61.3592 21.478 61.1956 21.3867C61.0337 21.3053 60.8614 21.2448 60.6833 21.2071C60.3452 21.1573 60.0153 21.0642 59.7022 20.9301C59.2574 20.7031 58.9105 20.3288 58.7238 19.8748C58.6736 19.7536 58.6375 19.6272 58.6163 19.4981C58.6123 19.4524 58.6123 19.4065 58.6163 19.3608C58.6582 19.5309 58.713 19.6976 58.7801 19.8598C58.979 20.2912 59.3234 20.6435 59.756 20.8578C60.0645 20.9794 60.3872 21.0631 60.7166 21.1073C60.9075 21.1438 61.0921 21.2067 61.2648 21.2944C61.4494 21.3957 61.5984 21.5486 61.6925 21.7334C61.8871 22.1077 61.8923 22.5494 62.1176 22.9011C62.2511 23.0719 62.4224 23.2109 62.6189 23.3078C62.8157 23.4046 63.0322 23.4567 63.2524 23.46C63.7081 23.4784 64.1646 23.4617 64.6177 23.41C65.0559 23.3638 65.4988 23.4353 65.8983 23.6172C66.2281 23.8311 66.511 24.1068 66.7308 24.428C66.9287 24.6869 67.1767 24.9055 67.4607 25.0718C67.8773 25.3129 68.3541 25.4372 68.8387 25.4311C69.182 25.4236 69.3664 25.3661 69.3714 25.381Z" fill="#455A64"/>
<path d="M57.9419 27.9859C58.6946 28.3489 59.3654 28.8628 59.9136 29.496C60.2789 29.5791 64.5501 34.1321 66.3792 36.0977C66.7032 36.446 66.924 36.8785 67.0164 37.3465C67.1088 37.8143 67.0692 38.2988 66.9022 38.7453C66.6871 39.2925 66.2945 39.7503 65.7878 40.0447C65.2814 40.3389 64.6908 40.4523 64.1122 40.3661L58.0194 39.5432L58.4399 36.3972L62.4582 36.9408L57.9794 33.0222C55.75 36.3719 52.0617 41.1917 51.2861 41.9291L45.4535 35.5212L48.8814 32.7151L50.2001 29.4155C49.0591 29.2921 44.0073 29.9691 43.0139 28.5624C42.0205 27.1554 46.1416 20.5085 46.1416 20.5085L48.1558 21.8097L46.4418 26.1436C46.4418 26.1436 49.5921 25.9775 52.0266 26.0229C52.5137 26.0333 52.9963 26.1181 53.4579 26.2746C53.7456 26.3702 54.8893 26.7175 54.8893 26.7175L54.9116 26.8735C54.9605 27.2467 55.1513 27.5863 55.4438 27.8209C55.7365 28.0556 56.1081 28.1671 56.4806 28.1319L57.9419 27.9859Z" fill="#407BFF"/>
<path d="M51.3104 38.8689C51.1486 38.7545 51.0055 38.6191 50.8853 38.4666C50.5731 38.1179 50.2972 37.7424 50.0609 37.345C49.7729 36.8674 49.5479 36.3591 49.3906 35.8308L49.4584 35.8088C49.5007 35.8969 49.5271 35.9908 49.5367 36.0869C49.4758 36.0126 49.4267 35.9304 49.3906 35.8431L49.4584 35.8211C49.6603 36.3245 49.9007 36.8134 50.1784 37.2841C50.7314 38.2008 51.3442 38.8373 51.3104 38.8689Z" fill="#263238"/>
<path d="M52.0796 35.4265C51.9244 35.372 51.7775 35.2989 51.6433 35.2092C51.3848 35.055 51.0339 34.8312 50.6617 34.5576C50.2893 34.2837 49.9669 34.0362 49.7392 33.8451C49.6082 33.749 49.491 33.6379 49.3906 33.5148C49.4143 33.4908 49.9954 33.9493 50.7375 34.4684C51.4797 34.9876 52.101 35.4004 52.0796 35.4265Z" fill="#263238"/>
<path d="M54.386 34.6553C54.1417 34.6719 53.8964 34.6542 53.656 34.6025C52.4853 34.4127 51.3631 33.9492 50.362 33.2414C50.1492 33.1054 49.9521 32.9403 49.7754 32.7499C49.7878 32.7332 50.0229 32.9055 50.409 33.1526C50.9153 33.4781 51.4441 33.7567 51.9905 33.9859C52.5375 34.2084 53.0995 34.3819 53.6709 34.5053C53.9115 34.5416 54.15 34.5917 54.386 34.6553Z" fill="#263238"/>
<path d="M61.6879 31.2188C61.5184 31.0498 61.3599 30.8727 61.213 30.6879C60.8345 30.2605 60.4151 29.8627 59.9594 29.499C59.5019 29.1366 59.0109 28.8088 58.4915 28.519C58.2684 28.4101 58.0529 28.2898 57.8457 28.1587C58.0916 28.2258 58.3263 28.3219 58.543 28.4445C59.6306 28.9871 60.5701 29.7351 61.2943 30.6351C61.4536 30.8138 61.5858 31.01 61.6879 31.2188Z" fill="#263238"/>
<g opacity="0.3">
<path opacity="0.3" d="M57.9771 33.0513C58.3496 31.9362 56.5824 34.9611 55.6486 35.6777C55.1937 35.9745 54.7841 36.3348 54.4326 36.7479C53.9896 37.3594 53.8964 38.1438 53.8184 38.8932C53.8057 38.8932 57.7254 33.7881 57.9771 33.0513Z" fill="black"/>
</g>
<path d="M33.6385 58.1692L33.752 56.4644L37.0953 56.6473L36.9568 59.1419H36.7476C35.8204 59.1419 32.0411 59.0722 31.4339 58.8578C30.7613 58.6242 33.6385 58.1692 33.6385 58.1692Z" fill="white"/>
<g opacity="0.4">
<path opacity="0.4" d="M35.8262 59.028C35.8904 58.7501 36.0566 58.5062 36.2918 58.3437C36.523 58.1815 36.8067 58.1107 37.0873 58.1457L37.0346 59.0756L35.8262 59.028Z" fill="black"/>
</g>
<path opacity="0.4" d="M32.2586 58.377C32.2586 58.377 31.2273 58.6128 31.3407 58.7888C31.4542 58.9651 35.3655 59.1881 37.0953 59.1336V59.0558L32.5371 58.8355C32.5371 58.8355 32.4572 58.395 32.2586 58.377Z" fill="black"/>
<path d="M37.0953 59.1425H36.8683H36.2508C35.7406 59.1425 35.011 59.0977 34.2098 59.0436C33.4088 58.9892 32.6996 58.9159 32.1688 58.8584L31.5565 58.7818L31.3882 58.7595H31.332H31.3908H31.5565L32.1715 58.8201C32.6818 58.868 33.4088 58.932 34.2125 58.9892C35.016 59.0467 35.7228 59.0786 36.2535 59.1042L36.8708 59.1296H37.0392L37.0953 59.1425Z" fill="#263238"/>
<path d="M33.6381 58.3774C33.6381 58.3774 33.5077 58.3042 33.4067 58.1976C33.3061 58.0912 33.2349 58.0013 33.2584 57.9948C33.2825 57.988 33.3831 58.068 33.4899 58.1711C33.5633 58.2335 33.6136 58.3037 33.6381 58.3774Z" fill="#263238"/>
<path d="M34.0209 58.3774C34.0209 58.3774 33.9089 58.3194 33.802 58.2132C33.6951 58.1071 33.6225 58.0107 33.6418 57.9962C33.6611 57.9817 33.7535 58.0542 33.8604 58.1604C33.9673 58.2665 34.0355 58.3629 34.0209 58.3774Z" fill="#263238"/>
<path d="M34.0229 57.6161C33.965 57.8894 33.898 58.0188 33.8309 57.9839C33.7644 58.0319 33.6976 57.9243 33.6387 57.6742C33.7027 57.635 33.7668 57.635 33.8309 57.6742C33.8946 57.6219 33.9588 57.603 34.0229 57.6161Z" fill="#263238"/>
<path d="M33.6376 58.3064C33.5496 58.3192 33.4596 58.3192 33.3714 58.3064C33.2757 58.2914 33.1814 58.2701 33.0895 58.2431C33.034 58.2261 32.9804 58.205 32.9298 58.1797C32.9148 58.1723 32.9016 58.1622 32.8915 58.1506C32.8812 58.1388 32.8741 58.1255 32.8703 58.1114C32.8673 58.0949 32.8701 58.0781 32.8786 58.0629C32.8868 58.0477 32.9002 58.0346 32.9174 58.0252C33.0218 57.9897 33.1384 57.9847 33.2468 58.0111C33.3554 58.0374 33.4492 58.0935 33.5125 58.1696C33.551 58.2136 33.5779 58.2636 33.5908 58.3167C33.5976 58.3365 33.5976 58.3576 33.5908 58.3774C33.568 58.3095 33.5308 58.2451 33.481 58.1873C33.4253 58.1274 33.3491 58.0815 33.2618 58.0557C33.1612 58.0239 33.0493 58.0239 32.9486 58.0557C32.9049 58.081 32.9174 58.1215 32.9644 58.1468C33.0105 58.1708 33.0599 58.1904 33.1116 58.2052C33.1988 58.2345 33.2889 58.2583 33.3808 58.2762C33.5374 58.2963 33.6376 58.3015 33.6376 58.3064Z" fill="#263238"/>
<path d="M33.2827 57.995C33.2537 57.951 33.2463 57.8998 33.2618 57.8515C33.2751 57.7987 33.3027 57.7489 33.3427 57.7056C33.3662 57.6759 33.3993 57.6519 33.4379 57.6355C33.4767 57.6192 33.5201 57.6111 33.5639 57.6122C33.5892 57.6183 33.6106 57.6319 33.6238 57.6501C33.6371 57.6682 33.6413 57.6898 33.6357 57.7103C33.6265 57.7422 33.6092 57.7724 33.585 57.7988C33.549 57.8425 33.5057 57.882 33.4563 57.9162C33.415 57.9521 33.3622 57.9785 33.3038 57.9927C33.3038 57.9927 33.3575 57.9593 33.4323 57.8969C33.4754 57.8607 33.5145 57.8215 33.549 57.7798C33.585 57.739 33.6148 57.6625 33.549 57.6504C33.4832 57.6386 33.4174 57.6887 33.3754 57.7295C33.3361 57.767 33.3074 57.8112 33.2917 57.8587C33.2838 57.904 33.2809 57.9496 33.2827 57.995Z" fill="#263238"/>
<path d="M37.096 58.0303C37.096 58.0303 37.0076 58.0113 36.8633 58.0303C36.6804 58.0431 36.5037 58.1266 36.3543 58.2707C36.2048 58.4148 36.0882 58.6136 36.0185 58.8442C35.9626 59.0216 35.9534 59.1419 35.9464 59.1419C35.9424 59.1136 35.9424 59.0846 35.9464 59.0566C35.9535 58.9795 35.9677 58.9039 35.9883 58.8316C36.053 58.5881 36.1707 58.3777 36.3259 58.2281C36.4812 58.0788 36.6662 57.9975 36.8563 57.9953C36.9133 57.9918 36.9704 57.9982 37.0261 58.0144C37.0501 58.0132 37.0738 58.0186 37.096 58.0303Z" fill="#263238"/>
<path d="M27.7749 48.3125L28.5533 46.9016L31.3336 48.2762L30.219 50.3442L30.0421 50.2717C29.2535 49.931 26.0612 48.4937 25.629 48.0974C25.1487 47.6505 27.7749 48.3125 27.7749 48.3125Z" fill="white"/>
<g opacity="0.4">
<path opacity="0.4" d="M29.2148 49.938C29.3766 49.7277 29.6106 49.5841 29.872 49.5346C30.1315 49.4833 30.401 49.5305 30.6272 49.6675L30.2269 50.4368L29.2148 49.938Z" fill="black"/>
</g>
<path opacity="0.4" d="M26.4728 48.1262C26.4728 48.1262 25.5414 47.9532 25.571 48.1262C25.6008 48.2991 28.7181 49.7956 30.1537 50.3444L30.1809 50.2867L26.5323 48.569C26.5323 48.569 26.6292 48.2093 26.4728 48.1262Z" fill="black"/>
<path d="M30.1809 50.3444C30.1809 50.3444 30.1637 50.3444 30.1317 50.3278L29.9936 50.2682L29.5005 50.0421C29.0765 49.8493 28.4945 49.566 27.861 49.2564C27.2274 48.947 26.6578 48.6397 26.2486 48.4184L25.7431 48.1517L25.6124 48.0779C25.5828 48.0613 25.568 48.0516 25.5706 48.0493L25.6174 48.0731L25.7505 48.1398L26.2436 48.397C26.6553 48.6136 27.2298 48.9089 27.861 49.2254C28.4921 49.5422 29.0739 49.8207 29.4931 50.0183L29.9862 50.2564L30.1217 50.3231L30.1809 50.3444Z" fill="#263238"/>
<path d="M26.4815 48.4323C26.5466 48.3687 26.5808 48.3041 26.5821 48.2392C26.539 48.1741 26.4568 48.1104 26.3379 48.0493C26.5732 48.0998 26.706 48.1664 26.7086 48.2357C26.7566 48.3047 26.6757 48.3747 26.4815 48.4323Z" fill="#263238"/>
<path d="M28.2592 48.4278C28.1873 48.4454 28.1147 48.4112 28.0517 48.3299C27.9407 48.2256 27.8696 48.0758 27.8753 48.0493C27.9413 48.1012 28.0051 48.1668 28.0658 48.2452C28.1328 48.2902 28.1977 48.3514 28.2592 48.4278Z" fill="#263238"/>
<path d="M27.4896 48.3781C27.4345 48.3482 27.3831 48.3002 27.3381 48.2365C27.2854 48.1762 27.2367 48.1058 27.193 48.0263C27.1657 47.9795 27.1411 47.9281 27.1193 47.8732C27.108 47.837 27.1034 47.7957 27.1063 47.7546C27.1104 47.7325 27.1177 47.7124 27.1276 47.6969C27.1376 47.6814 27.1496 47.6711 27.1626 47.6667C27.2356 47.6702 27.3057 47.7182 27.361 47.8023C27.4163 47.8867 27.4533 48.0024 27.4659 48.1294C27.475 48.2038 27.475 48.2807 27.4659 48.3551C27.4659 48.4088 27.4507 48.4318 27.4485 48.4318C27.4573 48.3341 27.4573 48.2348 27.4485 48.1371C27.4342 48.0355 27.4042 47.9427 27.362 47.8695C27.3374 47.8244 27.3081 47.7885 27.2758 47.7635C27.2436 47.7385 27.2088 47.7253 27.1735 47.7239C27.1389 47.7239 27.1345 47.7928 27.1519 47.8465C27.1717 47.8971 27.1943 47.9444 27.2189 47.9881C27.2615 48.0662 27.3072 48.1389 27.3555 48.2061C27.442 48.3169 27.4919 48.3706 27.4896 48.3781Z" fill="#263238"/>
<path d="M27.4922 48.4218C27.4913 48.3558 27.5067 48.2913 27.5361 48.2382C27.5666 48.1792 27.6071 48.1305 27.6542 48.0962C27.6835 48.0696 27.7173 48.0538 27.7525 48.0501C27.7876 48.0465 27.8229 48.0551 27.8548 48.0754C27.8687 48.0964 27.8764 48.1235 27.8764 48.1516C27.8764 48.1797 27.8687 48.207 27.8548 48.2278C27.8353 48.2642 27.8098 48.2939 27.7803 48.3144C27.7366 48.3537 27.689 48.3841 27.6388 48.4047C27.5942 48.4294 27.5453 48.4377 27.4974 48.4289C27.4974 48.4289 27.5488 48.4114 27.6285 48.3698C27.6756 48.3456 27.7204 48.3142 27.7623 48.2764C27.8059 48.2418 27.86 48.1586 27.8189 48.117C27.7928 48.1035 27.765 48.0982 27.7372 48.1019C27.7096 48.1053 27.683 48.1178 27.6594 48.1378C27.6156 48.168 27.577 48.2106 27.5463 48.2627C27.5256 48.3139 27.5075 48.3672 27.4922 48.4218Z" fill="#263238"/>
<path d="M30.5648 49.7409C30.5648 49.7409 30.5021 49.7023 30.3912 49.6616C30.2483 49.6079 30.0926 49.5947 29.9423 49.6235C29.7919 49.6522 29.653 49.7218 29.5418 49.8241C29.4561 49.9033 29.4184 49.9643 29.4121 49.9623C29.4181 49.9461 29.4264 49.931 29.4372 49.9176C29.4619 49.8777 29.4921 49.8415 29.5272 49.81C29.64 49.6974 29.7864 49.6221 29.9456 49.5947C30.0465 49.5745 30.1504 49.5742 30.2514 49.5938C30.3523 49.6134 30.4482 49.6523 30.5335 49.7084C30.5456 49.7176 30.5561 49.7285 30.5648 49.7409Z" fill="#263238"/>
<path d="M30.9481 48.4316C30.8421 48.6307 30.7219 48.8251 30.5873 49.0141C30.4641 49.2075 30.3282 49.3961 30.1797 49.5792C30.2829 49.3794 30.4034 49.1847 30.5402 48.9965C30.6609 48.8022 30.7971 48.6136 30.9481 48.4316Z" fill="#263238"/>
<path d="M29.0282 49.5798C28.8884 49.5439 28.7533 49.4925 28.6262 49.4262C28.4951 49.3638 28.3723 49.2867 28.2598 49.1968C28.2598 49.1968 28.431 49.2817 28.6428 49.3848C28.8544 49.488 29.0305 49.5706 29.0282 49.5798Z" fill="#263238"/>
<path d="M39.3937 36.827C39.4194 37.0524 39.3774 37.2804 39.2729 37.4821C39.1684 37.6839 39.0062 37.8503 38.8069 37.9602C38.6074 38.0702 38.3799 38.1188 38.1527 38.0999C37.9255 38.081 37.7089 37.9956 37.5306 37.8543C37.3523 37.713 37.22 37.5221 37.1504 37.306C37.0811 37.0899 37.0775 36.858 37.1405 36.6399C37.2033 36.4218 37.3297 36.227 37.5038 36.0805C37.6778 35.9339 37.8916 35.8418 38.1181 35.8162C38.2685 35.7991 38.4208 35.8117 38.5663 35.8534C38.7119 35.895 38.8477 35.9648 38.9662 36.0585C39.0846 36.1524 39.1833 36.2686 39.2566 36.4004C39.3301 36.5323 39.3766 36.6772 39.3937 36.827Z" fill="white"/>
<path d="M34.7895 42.6759C34.7941 42.7728 34.7617 42.8677 34.6987 42.9416C34.6358 43.0155 34.5471 43.0628 34.4504 43.074C34.3538 43.0852 34.2563 43.0596 34.1781 43.0022C34.0996 42.9447 34.046 42.8598 34.028 42.7647C34.0184 42.713 34.0194 42.66 34.0312 42.6089C34.0428 42.5577 34.065 42.5096 34.0963 42.4674C34.1274 42.425 34.1672 42.3896 34.2127 42.3633C34.2583 42.3369 34.3088 42.3201 34.3612 42.3141C34.4134 42.308 34.4665 42.3127 34.517 42.3278C34.5673 42.343 34.6141 42.3684 34.6544 42.4024C34.6945 42.4364 34.7272 42.478 34.7506 42.5251C34.7738 42.5723 34.787 42.6236 34.7895 42.6759Z" fill="white"/>
<path d="M50.5422 41.0726H50.5972L45.6413 35.7661C45.6413 35.7661 34.4514 33.8587 33.5911 35.0565C32.7309 36.2542 27.875 48.0948 27.875 48.0948L31.2907 49.7457L33.1285 46.13C33.2586 50.3159 33.7413 57.612 33.7413 57.612H37.5369L37.7046 46.4736L47.7066 44.87C49.2445 44.621 50.5972 43.3561 51.3123 41.9791L50.5422 41.0726ZM35.159 42.1384L36.3417 39.8126L40.9603 40.221C38.8797 40.8236 36.6818 41.5134 35.159 42.1384Z" fill="#26262D"/>
<path d="M46.7023 38.4863C46.4175 38.7122 46.1072 38.9162 45.7751 39.096C45.4664 39.3011 45.1337 39.4812 44.7812 39.6339C45.0669 39.4088 45.3773 39.2046 45.7085 39.0242C46.0172 38.8191 46.3499 38.639 46.7023 38.4863Z" fill="#455A64"/>
<path d="M48.833 40.0166C48.8456 40.0166 48.7679 40.1547 48.7217 40.3927C48.6891 40.546 48.6821 40.7059 48.7014 40.8624C48.7206 41.0192 48.7655 41.1696 48.8336 41.3044C48.9016 41.4395 48.9912 41.5563 49.0973 41.6481C49.2032 41.7399 49.3233 41.8045 49.4502 41.8385C49.6455 41.8973 49.7737 41.8717 49.7757 41.8896C49.6668 41.9353 49.5494 41.9416 49.4376 41.9074C49.3002 41.878 49.1692 41.8139 49.053 41.7192C48.937 41.6243 48.8385 41.5011 48.7638 41.3573C48.6929 41.2105 48.6475 41.0476 48.6306 40.8785C48.6136 40.7095 48.6254 40.538 48.6651 40.3749C48.6905 40.2375 48.749 40.1128 48.833 40.0166Z" fill="#455A64"/>
<path d="M44.3957 39.6391L44.3475 39.6538L44.2054 39.6936L43.6521 39.8299C43.1726 39.9491 42.4721 40.1053 41.622 40.3259C39.9243 40.807 37.5618 41.432 34.976 42.1885C34.6677 42.3061 34.3719 42.4532 34.0929 42.6273C33.8173 42.783 33.5688 42.9805 33.357 43.2127C33.1716 43.4519 33.0495 43.7321 33.0017 44.0285C32.9529 44.3136 32.9394 44.6033 32.9611 44.8915C33.0474 46.0324 33.1158 47.0614 33.1642 47.927C33.2124 48.7926 33.2377 49.4919 33.2427 49.9754C33.2427 50.2234 33.2427 50.407 33.2301 50.5334C33.2301 50.598 33.2301 50.6451 33.2149 50.6773C33.2173 50.6937 33.2173 50.7104 33.2149 50.7268C33.2114 50.6624 33.2114 50.5978 33.2149 50.5334C33.2149 50.4045 33.2149 50.2186 33.2149 49.9754C33.1996 49.4794 33.1615 48.795 33.1032 47.9294C33.0447 47.064 32.9712 46.0397 32.8824 44.8989C32.8561 44.6027 32.8689 44.3043 32.9205 44.0112C32.9693 43.7003 33.0966 43.4063 33.2911 43.1555C33.5088 42.9129 33.766 42.7068 34.0524 42.5456C34.336 42.3676 34.6369 42.2171 34.9506 42.0967C36.2524 41.7146 37.4883 41.3724 38.615 41.0699L41.6144 40.2615C42.4721 40.0358 43.1726 39.8919 43.6445 39.7828L44.2029 39.6638L44.3475 39.634C44.378 39.6391 44.3957 39.6365 44.3957 39.6391Z" fill="#455A64"/>
<path d="M36.7109 45.7542C36.9709 45.8667 37.2272 45.9944 37.4794 46.1371C37.1983 46.1382 36.9262 46.0024 36.7109 45.7542Z" fill="#455A64"/>
<path d="M36.7109 45.3716C36.8803 45.4708 37.0255 45.5911 37.1407 45.7274C37.2857 45.8471 37.4005 45.9858 37.4794 46.1366C37.3092 46.0383 37.1637 45.9177 37.0494 45.7808C36.9046 45.6611 36.7899 45.5223 36.7109 45.3716Z" fill="#455A64"/>
<path d="M35.5586 38.8689C35.7059 38.9845 35.8374 39.1099 35.951 39.2436C36.0936 39.3647 36.2196 39.4955 36.327 39.6339C36.1402 39.5466 35.9829 39.4306 35.8665 39.2943C35.72 39.1711 35.6147 39.0257 35.5586 38.8689Z" fill="#455A64"/>
<path d="M35.957 38.4863C36.1121 38.6672 36.204 38.8585 36.2297 39.0531C36.3193 39.2436 36.3476 39.4394 36.3137 39.6339C36.1616 39.4528 36.0697 39.2617 36.0414 39.0672C35.9518 38.8766 35.9235 38.681 35.957 38.4863Z" fill="#455A64"/>
<path d="M46.7421 38.7002C46.7421 38.7002 46.692 38.6313 46.7705 38.5409C46.7941 38.515 46.8252 38.4972 46.8594 38.49C46.8935 38.4827 46.9291 38.4863 46.9611 38.5004C47.0033 38.5161 47.0385 38.5459 47.0607 38.585C47.0829 38.6241 47.0904 38.6697 47.0821 38.7138C47.0739 38.7579 47.0503 38.7977 47.0155 38.8261C46.9808 38.8545 46.937 38.8698 46.8921 38.8691C46.8572 38.8707 46.8225 38.8622 46.7925 38.8445C46.7624 38.8266 46.7383 38.8006 46.7229 38.7691C46.6729 38.6645 46.7229 38.5979 46.7372 38.6075C46.7515 38.617 46.7372 38.6716 46.7801 38.7359C46.7914 38.7527 46.8071 38.7661 46.8257 38.7745C46.8442 38.7829 46.8647 38.7861 46.8849 38.7834C46.9087 38.7816 46.9314 38.772 46.9493 38.7561C46.9672 38.7402 46.9793 38.7188 46.984 38.6954C46.9885 38.6718 46.9852 38.6475 46.9747 38.6261C46.9641 38.6047 46.9468 38.5872 46.9253 38.5765C46.9075 38.5677 46.8874 38.5641 46.8678 38.5663C46.8479 38.5682 46.829 38.5761 46.8134 38.5884C46.7492 38.6359 46.7564 38.7002 46.7421 38.7002Z" fill="#455A64"/>
<path d="M43.7108 35.8088C43.7281 35.8088 43.6811 35.9623 43.6984 36.2065C43.706 36.3632 43.7425 36.516 43.8056 36.6553C43.8685 36.7945 43.9566 36.9166 44.064 37.0137C44.1713 37.1107 44.2954 37.1802 44.4279 37.2179C44.5605 37.2554 44.6985 37.2601 44.8327 37.2318C44.9445 37.2023 45.0551 37.1663 45.1638 37.1237C45.0777 37.2232 44.9659 37.2881 44.8451 37.3083C44.7004 37.3477 44.5499 37.349 44.4047 37.3121C44.2596 37.2753 44.1234 37.2013 44.0065 37.0957C43.8896 36.99 43.795 36.8555 43.7297 36.702C43.6644 36.5487 43.6301 36.3802 43.6292 36.2092C43.6184 36.0692 43.647 35.9289 43.7108 35.8088Z" fill="#455A64"/>
<path d="M45.5508 35.4098C45.5702 35.0352 45.6528 34.6673 45.7947 34.3223C45.8655 34.1486 45.9697 33.9918 46.101 33.8613C46.2323 33.7309 46.3877 33.6295 46.5582 33.5636C47.2337 33.3436 47.9214 33.8898 48.3264 34.4943C48.9434 35.4198 49.2263 36.535 49.5849 37.5971C49.9434 38.6593 50.4335 39.7416 51.3141 40.3991" fill="#407BFF"/>
<g opacity="0.3">
<path opacity="0.3" d="M45.4297 35.3823C45.4497 35.0111 45.535 34.6464 45.6814 34.3045C45.7546 34.1324 45.8621 33.977 45.9976 33.8477C46.1331 33.7185 46.2936 33.618 46.4695 33.5527C47.1667 33.3346 47.8766 33.8759 48.2946 34.475C48.9315 35.3923 49.2235 36.4975 49.5935 37.55C49.9636 38.6027 51.0335 40.0437 50.812 41.3243" fill="black"/>
</g>
<path d="M45.5508 35.5828L46.913 35.0439L50.2063 39.4596L50.5328 40.3775L51.3141 41.9291L45.5508 35.5828Z" fill="#E3A392"/>
<path d="M58.3109 38.869C57.5816 38.869 56.1983 38.8509 55.7581 38.7935C54.8541 38.671 54.8645 38.5902 54.8958 38.4886C54.9816 38.2096 56.4952 38.6397 56.2243 38.3583C55.9535 38.0767 54.3122 38.0481 54.4139 37.764C54.5467 37.3912 56.1226 37.8683 56.2582 37.8994C56.3937 37.9307 56.4432 37.7352 56.3208 37.7145C56.141 37.6832 54.2652 37.3182 54.3929 36.9533C54.4634 36.75 54.815 36.9091 54.815 36.9091C54.815 36.9091 56.5447 37.3781 56.5995 37.2036C56.6542 37.0288 55.6486 36.7161 55.2969 36.6353C54.9453 36.5545 54.8541 36.3746 55.0129 36.2392C55.125 36.1557 56.1905 36.3772 56.5318 36.4633C56.8731 36.5494 57.803 36.8073 57.4461 36.3095C57.0892 35.8117 57.0059 35.2904 57.0814 35.134C57.1025 35.1003 57.1336 35.0741 57.1701 35.0589C57.2067 35.0436 57.2472 35.0399 57.2859 35.0485C57.3248 35.0571 57.3599 35.0773 57.3867 35.1066C57.4134 35.136 57.4307 35.1727 57.4357 35.2121C57.4962 35.4109 57.5838 35.6005 57.6962 35.7753C57.7809 35.9183 57.8883 36.0469 58.0141 36.1557C58.1625 36.2809 58.4985 36.5416 58.6131 36.6249L58.3109 38.869Z" fill="#E3A392"/>
<path d="M100.618 5.0149C100.618 5.0149 93.7482 2.29075 78.4916 17.502C78.4916 17.502 62.6085 31.1129 71.0986 36.8307C78.3237 41.6973 87.8585 34.7284 92.894 30.1664C95.7723 27.4809 98.3257 24.469 100.502 21.1925C103.98 15.8342 106.049 8.75529 100.618 5.0149Z" fill="#407BFF"/>
<path d="M100.618 5.0149C100.618 5.0149 93.7482 2.29075 78.4916 17.502C78.4916 17.502 62.6085 31.1129 71.0986 36.8307C78.3237 41.6973 87.8585 34.7284 92.894 30.1664C95.7723 27.4809 98.3257 24.469 100.502 21.1925C103.98 15.8342 106.049 8.75529 100.618 5.0149Z" fill="#252525"/>
<path d="M100.038 4.75009C100.038 4.75009 91.4885 0.0222282 76.1494 15.3262C76.1494 15.3262 61.3383 31.1 70.3658 36.0415C76.5493 39.4278 85.559 32.6576 90.6133 28.0679C93.2687 25.6638 96.8396 21.8955 98.7909 18.881C102.289 13.4874 104.22 7.41047 100.038 4.75009Z" fill="#464657"/>
<path d="M89.871 25.2345C96.5905 18.545 99.9122 11.006 97.2906 8.39598C94.6688 5.7859 87.0963 9.09301 80.3769 15.7825C73.6575 22.4721 70.3357 30.011 72.9573 32.6211C75.5791 35.2311 83.1515 31.9241 89.871 25.2345Z" fill="#9FA7B4"/>
<path opacity="0.4" d="M72.5679 31.9838C72.5679 31.9838 68.0397 26.4667 79.4091 14.7931C90.7783 3.11954 97.0361 8.23786 97.0361 8.23786C97.0361 8.23786 91.8496 4.02233 79.9272 15.904C69.5467 26.251 72.5679 31.9838 72.5679 31.9838Z" fill="#9FA7B4"/>
<path d="M78.2023 38.4865C78.1829 38.4672 78.1654 38.445 78.1505 38.4203L78.018 38.2315C77.9082 38.0632 77.757 37.8285 77.6037 37.5659C77.393 37.2599 77.209 36.9274 77.0547 36.574C77.2942 36.846 77.507 37.1516 77.6886 37.4843C78.0014 38.002 78.2459 38.4584 78.2023 38.4865Z" fill="#263238"/>
<path d="M74.7421 38.4863C74.722 38.4712 74.7039 38.4533 74.6887 38.4332L74.5536 38.279C74.444 38.1474 74.2987 37.9603 74.133 37.7529C73.9209 37.5112 73.741 37.2435 73.5977 36.9563C73.8449 37.1627 74.0604 37.4038 74.2375 37.6721C74.5586 38.0894 74.7982 38.4584 74.7421 38.4863Z" fill="#263238"/>
<path d="M81.281 37.7213C80.9741 37.384 80.6987 37.0135 80.4589 36.6153C80.1852 36.2464 79.9456 35.8481 79.7441 35.4263C80.0492 35.7648 80.3237 36.1352 80.5638 36.5323C80.8379 36.9014 81.078 37.2997 81.281 37.7213Z" fill="#263238"/>
<path d="M84.3547 36.5739C83.9748 36.2351 83.6331 35.8643 83.3344 35.4665C82.9932 35.0962 82.6916 34.6988 82.4336 34.2788C82.8126 34.6182 83.1543 34.989 83.4539 35.3862C83.794 35.7571 84.0956 36.1547 84.3547 36.5739Z" fill="#263238"/>
<path d="M87.0466 34.6613C86.743 34.3219 86.4689 33.9515 86.2281 33.5551C85.955 33.185 85.7144 32.7869 85.5098 32.3662C85.8118 32.7073 86.0851 33.0785 86.326 33.4749C86.5988 33.845 86.8399 34.242 87.0466 34.6613Z" fill="#263238"/>
<path d="M89.7361 32.7487C89.4316 32.4097 89.1574 32.0387 88.9174 31.6413C88.6446 31.2714 88.4041 30.8738 88.1992 30.4536C88.5016 30.7939 88.7749 31.1646 89.0155 31.561C89.2881 31.9315 89.5293 32.3289 89.7361 32.7487Z" fill="#263238"/>
<path d="M92.423 30.8363C92.0427 30.4974 91.7 30.1263 91.3999 29.7289C91.0589 29.3591 90.7582 28.9614 90.502 28.5413C90.8799 28.8816 91.2216 29.2522 91.5223 29.6487C91.8624 30.0195 92.1639 30.4171 92.423 30.8363Z" fill="#263238"/>
<path d="M94.7297 28.1586C94.3498 27.876 94.0074 27.567 93.7078 27.2358C93.3656 26.9281 93.0644 26.5966 92.8086 26.2461C93.1872 26.5295 93.5293 26.8386 93.8305 27.1689C94.1701 27.4781 94.471 27.8093 94.7297 28.1586Z" fill="#263238"/>
<path d="M96.6521 25.8637C96.3498 25.523 96.0763 25.1528 95.8347 24.7576C95.5604 24.388 95.3195 23.9898 95.1152 23.5686C95.4177 23.9099 95.6914 24.281 95.9327 24.6774C96.2064 25.0463 96.4473 25.4434 96.6521 25.8637Z" fill="#263238"/>
<path d="M98.9548 23.186C98.652 22.9024 98.3783 22.5935 98.1374 22.2631C97.8642 21.9551 97.6233 21.6236 97.418 21.2734C97.721 21.557 97.9945 21.8659 98.2354 22.1963C98.5086 22.5045 98.7495 22.8359 98.9548 23.186Z" fill="#263238"/>
<path d="M100.877 20.5085C100.568 20.2264 100.289 19.9173 100.045 19.5856C99.7765 19.2768 99.5404 18.9454 99.3398 18.5959C99.6445 18.8796 99.9199 19.1886 100.162 19.5188C100.432 19.8283 100.672 20.1597 100.877 20.5085Z" fill="#263238"/>
<path d="M33.5993 23.1459C38.7759 17.9923 38.7759 9.63673 33.5993 4.48313C28.4227 -0.670482 20.0297 -0.670482 14.8531 4.48313C9.67655 9.63673 9.67655 17.9923 14.8531 23.1459C20.0297 28.2995 28.4227 28.2995 33.5993 23.1459Z" fill="#407BFF"/>
<path d="M33.5993 23.1459C38.7759 17.9923 38.7759 9.63673 33.5993 4.48313C28.4227 -0.670482 20.0297 -0.670482 14.8531 4.48313C9.67655 9.63673 9.67655 17.9923 14.8531 23.1459C20.0297 28.2995 28.4227 28.2995 33.5993 23.1459Z" fill="#252525"/>
<path d="M27.1055 1.00049C27.2874 1.16354 27.4362 1.34965 27.546 1.55164C27.6946 1.73425 27.8053 1.93575 27.8739 2.14802C27.6929 1.98747 27.5441 1.80419 27.4334 1.6051C27.2838 1.41997 27.1731 1.21563 27.1055 1.00049Z" fill="#263238"/>
<path d="M29.4121 1.76538C29.5954 1.92628 29.7455 2.11099 29.8564 2.31212C30.0049 2.49572 30.1144 2.69888 30.1805 2.91291C29.9971 2.752 29.847 2.5673 29.7361 2.36615C29.5871 2.18278 29.4775 1.97956 29.4121 1.76538Z" fill="#263238"/>
<path d="M31.332 2.53052C31.5167 2.74333 31.6665 2.98998 31.7748 3.25952C31.9242 3.50381 32.0344 3.7748 32.1005 4.06056C31.9158 3.84774 31.766 3.60109 31.6577 3.33156C31.509 3.08677 31.3989 2.81593 31.332 2.53052Z" fill="#263238"/>
<path d="M24.8027 0.61792C24.9839 0.833535 25.1325 1.07967 25.2432 1.34704C25.3919 1.59226 25.5026 1.86289 25.5712 2.14796C25.3902 1.93233 25.2414 1.68619 25.1307 1.41884C24.9816 1.17385 24.871 0.903161 24.8027 0.61792Z" fill="#263238"/>
<path d="M22.8789 0.61792C23.061 0.832727 23.2094 1.07907 23.3184 1.34704C23.4662 1.59299 23.5774 1.86338 23.6473 2.14796C23.4637 1.93359 23.3135 1.6872 23.203 1.41884C23.0569 1.17254 22.9475 0.902166 22.8789 0.61792Z" fill="#263238"/>
<path d="M20.5742 1.00049C20.7548 1.21583 20.9041 1.4621 21.0161 1.73016C21.1637 1.97467 21.274 2.24517 21.3427 2.53053C21.1617 2.31657 21.0124 2.07115 20.9007 1.80368C20.7533 1.55803 20.643 1.28664 20.5742 1.00049Z" fill="#263238"/>
<path d="M18.6543 1.76538C18.8366 1.97996 18.9854 2.22632 19.095 2.4945C19.2423 2.74045 19.353 3.01084 19.4227 3.29542C19.2399 3.07974 19.0903 2.83251 18.9798 2.56355C18.8336 2.31826 18.7236 2.04884 18.6543 1.76538Z" fill="#263238"/>
<path d="M16.7324 2.91309C17.0066 3.12719 17.2301 3.37366 17.3933 3.64218C17.6159 3.88743 17.7822 4.15805 17.8851 4.44313C17.6148 4.22774 17.3919 3.98268 17.2242 3.71677C17.0021 3.47036 16.8359 3.19889 16.7324 2.91309Z" fill="#263238"/>
<path d="M15.1973 4.06055C15.3779 4.27761 15.5265 4.52456 15.6378 4.79242C15.786 5.03684 15.8967 5.30649 15.9657 5.59059C15.7845 5.37495 15.6359 5.12882 15.5252 4.86147C15.3766 4.61622 15.2659 4.34562 15.1973 4.06055Z" fill="#263238"/>
<path d="M14.043 5.59058C14.2237 5.75338 14.3723 5.9386 14.4836 6.13948C14.6318 6.32279 14.7425 6.52503 14.8114 6.73811C14.6303 6.5764 14.4817 6.39179 14.3708 6.19127C14.2224 6.00735 14.1117 5.80438 14.043 5.59058Z" fill="#263238"/>
<path d="M12.8906 7.12061C13.0707 7.33749 13.2199 7.58384 13.3325 7.85098C13.4791 8.09652 13.5893 8.36648 13.6591 8.65065C13.4807 8.4334 13.3333 8.18707 13.222 7.92028C13.0738 7.67509 12.9618 7.40511 12.8906 7.12061Z" fill="#263238"/>
<path d="M12.1211 9.0332C12.301 9.24955 12.4494 9.49548 12.561 9.76218C12.7059 10.0096 12.8168 10.2796 12.8895 10.5632C12.7088 10.3477 12.5603 10.1016 12.4498 9.83427C12.302 9.58858 12.1909 9.31805 12.1211 9.0332Z" fill="#263238"/>
<path d="M11.3535 10.9458C11.5148 11.1675 11.6557 11.4121 11.7735 11.6746C11.9268 11.9124 12.0448 12.184 12.122 12.4758C11.953 12.2607 11.8067 12.0185 11.6866 11.7553C11.5328 11.5179 11.4194 11.2422 11.3535 10.9458Z" fill="#263238"/>
<path d="M10.9707 13.2407C11.235 13.4637 11.4537 13.7132 11.6202 13.982C11.8369 14.2267 12.0063 14.4921 12.1234 14.7708C11.8598 14.5521 11.6409 14.3063 11.4739 14.0414C11.2564 13.7927 11.087 13.5234 10.9707 13.2407Z" fill="#263238"/>
<path d="M11.3535 16.3008C11.6085 16.5793 11.8241 16.8885 11.9947 17.2205C12.2111 17.528 12.383 17.862 12.5062 18.2133C12.2508 17.9344 12.0342 17.6254 11.8618 17.2938C11.6473 16.9857 11.4762 16.6517 11.3535 16.3008Z" fill="#263238"/>
<path d="M28.956 27.6721C36.0028 25.7326 40.113 18.5555 38.1363 11.6415C36.1593 4.72756 28.8442 0.694999 21.7973 2.6345C14.7503 4.57403 10.6401 11.7512 12.6171 18.665C14.5938 25.5791 21.909 29.6117 28.956 27.6721Z" fill="#464657"/>
<path opacity="0.2" d="M26.0176 24.6781C31.5152 24.2074 35.6002 19.4758 35.1415 14.1098C34.6827 8.74363 29.8541 4.77519 24.3563 5.24591C18.8586 5.71663 14.7737 10.4483 15.2324 15.8144C15.6911 21.1805 20.5198 25.1488 26.0176 24.6781Z" fill="white"/>
<path opacity="0.3" d="M24.3923 5.4277C26.9857 5.20441 29.564 5.9986 31.5782 7.64114C33.5924 9.2837 34.8836 11.6448 35.1766 14.2217C35.1766 14.1272 35.1764 14.0325 35.159 13.938C34.9329 11.3056 33.6663 8.87039 31.638 7.16826C29.6097 5.46612 26.9859 4.63644 24.3437 4.86175C21.7013 5.08706 19.2571 6.34891 17.5488 8.36968C15.8404 10.3905 15.0075 13.0046 15.2337 15.6372C15.2337 15.7317 15.2536 15.8262 15.2637 15.9182C15.1132 13.3293 15.983 10.7841 17.6881 8.82465C19.3932 6.86523 21.7986 5.64638 24.3923 5.4277Z" fill="black"/>
<path d="M1.59518 46.0128C1.59518 46.0128 5.02139 43.2196 16.399 49.2928C16.399 49.2928 27.845 54.3359 24.0188 59.1536C20.7648 63.2537 14.1048 60.9218 10.4329 59.1792C8.31907 58.1353 6.33304 56.8454 4.51493 55.3354C1.59518 52.8677 -0.845959 49.1442 1.59518 46.0128Z" fill="#407BFF"/>
<path d="M1.59518 46.0128C1.59518 46.0128 5.02139 43.2196 16.399 49.2928C16.399 49.2928 27.845 54.3359 24.0188 59.1536C20.7648 63.2537 14.1048 60.9218 10.4329 59.1792C8.31907 58.1353 6.33304 56.8454 4.51493 55.3354C1.59518 52.8677 -0.845959 49.1442 1.59518 46.0128Z" fill="#252525"/>
<path d="M1.69137 46.0113C1.69137 46.0113 5.68696 41.8681 16.9751 47.8134C16.9751 47.8134 28.0598 54.112 23.8431 58.4533C20.9505 61.4283 14.6984 59.1876 11.0546 57.4833C9.14232 56.5886 6.47352 55.0896 4.85267 53.7236C1.94267 51.3124 -0.19585 48.242 1.69137 46.0113Z" fill="#464657"/>
<path opacity="0.2" d="M21.9253 56.871C22.9317 54.9879 19.7891 51.3955 14.9061 48.8472C10.0231 46.2988 5.2487 45.7594 4.24232 47.6424C3.23591 49.5255 6.37854 53.1179 11.2615 55.6662C16.1446 58.2146 20.9189 58.754 21.9253 56.871Z" fill="white"/>
<path opacity="0.4" d="M21.9927 56.4644C21.9927 56.4644 23.5898 52.5597 15.1408 47.9702C6.69213 43.3807 4.05469 47.3432 4.05469 47.3432C4.05469 47.3432 6.24587 44.0655 15.0407 48.68C22.6997 52.7075 21.9927 56.4644 21.9927 56.4644Z" fill="black"/>
<path d="M19.8315 61.0545C19.7505 61.0545 19.8758 60.7749 20.0861 60.4598C20.1833 60.2602 20.3493 60.0727 20.5751 59.907C20.5417 60.112 20.4434 60.3126 20.284 60.4995C20.1763 60.694 20.0242 60.8805 19.8315 61.0545Z" fill="#263238"/>
<path d="M22.1327 60.6719C22.0825 60.6719 22.1327 60.3845 22.246 60.0723C22.3591 59.7604 22.4697 59.5114 22.4975 59.5249C22.4932 59.7323 22.4467 59.9361 22.3618 60.1217C22.3119 60.3169 22.2347 60.5024 22.1327 60.6719Z" fill="#263238"/>
<path d="M18.2695 61.0545C18.2859 60.8492 18.3352 60.6481 18.4152 60.4599C18.4645 60.2629 18.545 60.0759 18.6537 59.907C18.637 60.1122 18.5878 60.3132 18.508 60.5016C18.4592 60.6987 18.3785 60.8858 18.2695 61.0545Z" fill="#263238"/>
<path d="M16.3477 61.0545C16.3671 60.7833 16.4173 60.5183 16.4964 60.2696C16.5455 60.0048 16.625 59.7532 16.7319 59.5244C16.6626 60.0583 16.5331 60.5732 16.3477 61.0494V61.0545Z" fill="#263238"/>
<path d="M14.4277 60.6721C14.447 60.401 14.4973 60.136 14.5765 59.8872C14.6265 59.623 14.706 59.3715 14.812 59.1421C14.7919 59.413 14.7416 59.6778 14.6632 59.927C14.6137 60.1914 14.5341 60.4431 14.4277 60.6721Z" fill="#263238"/>
<path d="M12.5059 59.907C12.5444 59.6359 12.6449 59.3709 12.8034 59.1221C12.9034 58.8579 13.0624 58.6065 13.2743 58.377C13.2339 58.6479 13.1336 58.9127 12.9768 59.1618C12.8776 59.4263 12.7186 59.678 12.5059 59.907Z" fill="#263238"/>
<path d="M10.584 59.1421C10.6225 58.871 10.723 58.606 10.8813 58.3572C10.9815 58.093 11.1405 57.8414 11.3524 57.6121C11.2136 58.1474 10.9544 58.664 10.584 59.1421Z" fill="#263238"/>
<path d="M9.04688 58.377C9.06623 58.106 9.11603 57.8412 9.19453 57.5921C9.24526 57.328 9.32496 57.0767 9.43109 56.8469C9.41174 57.1177 9.36194 57.3827 9.28344 57.6318C9.23271 57.8959 9.15301 58.1472 9.04688 58.377Z" fill="#263238"/>
<path d="M7.51172 57.2295C7.58124 56.694 7.71094 56.1776 7.89594 55.6995C7.87653 55.971 7.82642 56.2364 7.74719 56.4856C7.69701 56.7493 7.61753 57.0003 7.51172 57.2295Z" fill="#263238"/>
<path d="M5.5918 56.082C5.63255 55.8113 5.73288 55.5465 5.88926 55.2972C5.98932 55.0329 6.14827 54.7814 6.36023 54.552C6.31988 54.823 6.21952 55.0878 6.06277 55.3369C5.96361 55.6013 5.80461 55.8529 5.5918 56.082Z" fill="#263238"/>
<path d="M4.05469 54.9343C4.19375 54.399 4.45314 53.8824 4.82312 53.4043C4.78237 53.6757 4.68204 53.9409 4.52567 54.1906C4.42616 54.4545 4.26715 54.7057 4.05469 54.9343Z" fill="#263238"/>
<path d="M2.51562 53.7869C2.65469 53.2516 2.91408 52.7352 3.28406 52.2568C3.24333 52.5282 3.14298 52.7934 2.9866 53.0431C2.8871 53.3071 2.72809 53.5583 2.51562 53.7869Z" fill="#263238"/>
<path d="M1.74805 51.8743C1.7635 51.6024 1.81173 51.336 1.89064 51.0869C1.9397 50.8213 2.02148 50.5698 2.13226 50.3442C2.11625 50.6134 2.06805 50.8767 1.98966 51.1232C1.94178 51.3919 1.85993 51.6464 1.74805 51.8743Z" fill="#263238"/>
<path d="M0.595703 49.9617C0.6266 49.7573 0.723067 49.5573 0.880882 49.37C0.978419 49.1711 1.14206 48.9827 1.36414 48.8142C1.33369 49.0185 1.23722 49.2187 1.07893 49.4058C0.982464 49.605 0.818761 49.7934 0.595703 49.9617Z" fill="#263238"/>
<path d="M78.212 89.8436C85.5246 82.5634 85.5246 70.7601 78.212 63.4799C70.8993 56.1997 59.0432 56.1997 51.7306 63.4799C44.4179 70.7601 44.4179 82.5634 51.7306 89.8436C59.0432 97.1237 70.8993 97.1237 78.212 89.8436Z" fill="#407BFF"/>
<path d="M78.212 89.8436C85.5246 82.5634 85.5246 70.7601 78.212 63.4799C70.8993 56.1997 59.0432 56.1997 51.7306 63.4799C44.4179 70.7601 44.4179 82.5634 51.7306 89.8436C59.0432 97.1237 70.8993 97.1237 78.212 89.8436Z" fill="#252525"/>
<path d="M77.2256 87.8811C84.5383 80.6009 84.5383 68.7976 77.2256 61.5174C69.9129 54.2374 58.0569 54.2374 50.7442 61.5174C43.4316 68.7976 43.4316 80.6009 50.7442 87.8811C58.0569 95.1613 69.9129 95.1613 77.2256 87.8811Z" fill="#464657"/>
<path opacity="0.2" d="M65.1694 89.0186C73.0261 88.2395 78.7915 81.2704 78.0471 73.4524C77.3026 65.6345 70.3302 59.9284 62.4736 60.7074C54.6171 61.4864 48.8516 68.4557 49.5959 76.2736C50.3404 84.0914 57.313 89.7976 65.1694 89.0186Z" fill="white"/>
<path opacity="0.3" d="M62.5367 60.8417C66.2425 60.4912 69.9425 61.5633 72.8507 63.8304C75.7589 66.0974 77.6463 69.3807 78.1118 72.9827C78.1011 72.8502 78.0946 72.7197 78.0816 72.5851C77.7145 68.9019 75.8619 65.5118 72.9315 63.1604C70.0011 60.8092 66.2329 59.6895 62.4557 60.0474C58.6786 60.4054 55.2021 62.2118 52.7909 65.0695C50.3796 67.927 49.2313 71.6016 49.5984 75.2847C49.6135 75.4194 49.6329 75.5499 49.6502 75.6804C49.3951 72.058 50.5986 68.4813 53.0049 65.7105C55.4112 62.9397 58.8307 61.193 62.5367 60.8417Z" fill="black"/>
<path d="M61.357 94.9765C60.8436 94.3613 60.4033 93.7039 60.043 93.0142C60.5554 93.63 60.9956 94.2872 61.357 94.9765Z" fill="#263238"/>
<path d="M58.0696 93.9955C57.8627 93.7 57.6831 93.3809 57.5333 93.0436C57.3545 92.7252 57.2052 92.3867 57.0879 92.0332C57.4759 92.6461 57.8062 93.3039 58.0734 93.9955H58.0696Z" fill="#263238"/>
<path d="M55.443 92.6872C55.1674 92.3912 54.9279 92.0723 54.7278 91.7352C54.4877 91.4169 54.287 91.0783 54.1289 90.7249C54.4059 91.0205 54.6464 91.3394 54.8466 91.6768C55.0862 91.9951 55.2859 92.3337 55.443 92.6872Z" fill="#263238"/>
<path d="M64.3137 95.3036C64.1081 95.0062 63.9287 94.6865 63.7782 94.3494C63.5986 94.0315 63.4479 93.6937 63.3281 93.3413C63.5341 93.6377 63.7135 93.9566 63.8637 94.2934C64.0435 94.6118 64.1943 94.9503 64.3137 95.3036Z" fill="#263238"/>
<path d="M67.5992 94.9765C67.0868 94.3607 66.6466 93.7034 66.2852 93.0142C66.7986 93.6295 67.2389 94.2866 67.5992 94.9765Z" fill="#263238"/>
<path d="M70.5543 94.3224C70.2796 94.026 70.04 93.7071 69.8391 93.3704C69.6022 93.0506 69.4017 92.7123 69.2402 92.3601C69.5153 92.6572 69.7549 92.9767 69.9554 93.3144C70.1925 93.6332 70.393 93.9708 70.5543 94.3224Z" fill="#263238"/>
<path d="M73.1828 93.3412C72.9766 93.0442 72.7969 92.7245 72.6465 92.387C72.4689 92.0679 72.3185 91.7303 72.1973 91.3789C72.4039 91.6748 72.5836 91.9939 72.7337 92.331C72.9114 92.6506 73.0618 92.9889 73.1828 93.3412Z" fill="#263238"/>
<path d="M75.8098 92.0331C75.604 91.7361 75.4245 91.4169 75.2734 91.0801C75.0957 90.7607 74.9453 90.4228 74.8242 90.0708C75.0305 90.3675 75.2102 90.6869 75.3606 91.024C75.5387 91.3432 75.6891 91.6811 75.8098 92.0331Z" fill="#263238"/>
<path d="M78.1109 90.0707C77.8366 89.7736 77.5971 89.4545 77.3958 89.1177C77.1589 88.7983 76.9581 88.4604 76.7969 88.1084C77.0718 88.4051 77.3114 88.7245 77.512 89.0616C77.7495 89.3806 77.9502 89.7187 78.1109 90.0707Z" fill="#263238"/>
<path d="M79.7531 88.1085C79.548 87.811 79.3686 87.4918 79.2177 87.1553C79.0377 86.8373 78.8869 86.499 78.7676 86.1462C78.9732 86.4433 79.1525 86.7627 79.303 87.0994C79.4834 87.4173 79.6342 87.7554 79.7531 88.1085Z" fill="#263238"/>
<path d="M81.3957 85.819C81.0119 85.2029 80.6818 84.5456 80.4102 83.8567C80.6159 84.1539 80.7955 84.4731 80.9466 84.8099C81.1252 85.1288 81.2756 85.4667 81.3957 85.819Z" fill="#263238"/>
<path d="M82.7101 83.2028C82.5038 82.9062 82.3242 82.5869 82.1738 82.2496C81.9956 81.9305 81.8453 81.5926 81.7246 81.2405C81.9303 81.5377 82.11 81.8569 82.261 82.1937C82.4387 82.513 82.5891 82.851 82.7101 83.2028Z" fill="#263238"/>
<path d="M83.6949 80.5863C83.4198 80.2903 83.1804 79.9716 82.9798 79.6352C82.7419 79.3155 82.5414 78.9768 82.3809 78.624C82.6552 78.9204 82.8946 79.2391 83.0959 79.5751C83.3333 79.8951 83.5338 80.2337 83.6949 80.5863Z" fill="#263238"/>
<path d="M84.025 77.3157C83.7598 76.963 83.5239 76.5891 83.32 76.1979C83.0848 75.8248 82.8809 75.433 82.7109 75.0264C83.2097 75.7534 83.6491 76.519 84.025 77.3157Z" fill="#263238"/>
<path d="M83.6953 73.064C83.3652 72.7105 83.0714 72.3365 82.8168 71.9452C82.5235 71.5718 82.2679 71.1804 82.0527 70.7747C82.385 71.1274 82.6798 71.5018 82.9338 71.8935C83.2263 72.2671 83.4809 72.6585 83.6953 73.064Z" fill="#263238"/>
<g opacity="0.2">
<path opacity="0.2" d="M51.8087 68.5457L67.0195 67.0608L69.273 69.4028L69.286 69.4178H69.3076L73.9179 68.9421L75.1555 68.8093L75.474 68.7707H75.5343C75.5379 68.7899 75.5437 68.8085 75.5516 68.8264C75.5833 68.8954 75.6356 68.9528 75.7017 68.9908C75.7676 69.0286 75.8439 69.0452 75.9197 69.0378C75.9956 69.0305 76.0672 68.9998 76.1248 68.9499C76.1823 68.9002 76.2227 68.8338 76.2403 68.76C76.2542 68.7011 76.2524 68.6395 76.2355 68.5814C76.2185 68.5231 76.1868 68.4704 76.1435 68.4279C76.0857 68.3723 76.0086 68.3407 75.9283 68.3399C75.8745 68.3399 75.8486 68.355 75.8486 68.3615C75.8486 68.3679 75.9712 68.3615 76.0638 68.49C76.0907 68.5231 76.1089 68.5624 76.1172 68.6042C76.1254 68.6461 76.1235 68.6892 76.1112 68.73C76.097 68.778 76.0689 68.8206 76.0301 68.8525C75.9913 68.8843 75.9439 68.9039 75.894 68.9088C75.8441 68.9136 75.7938 68.9034 75.7495 68.8796C75.7054 68.8557 75.6696 68.8193 75.6463 68.7749C75.6267 68.7373 75.6164 68.6953 75.6164 68.6528C75.6164 68.6103 75.6267 68.5685 75.6463 68.5307C75.7216 68.3936 75.8465 68.3829 75.84 68.3615C75.8336 68.3401 75.8121 68.3463 75.7583 68.3615C75.681 68.3788 75.6133 68.4247 75.5689 68.49C75.5413 68.5307 75.5225 68.5767 75.514 68.6251C75.5054 68.6734 75.5073 68.7231 75.5193 68.7707H75.459L75.1405 68.7965L73.9008 68.9078L69.3076 69.3364L67.0626 66.9793L67.0453 66.96H67.0218L51.7958 68.4236L46.049 68.9828C46.0338 69.0257 46.021 69.0685 46.0059 69.1115L51.8087 68.5457Z" fill="white"/>
<path opacity="0.2" d="M75.681 64.9822L78.0831 67.4229L78.1003 67.44H78.1261L81.0598 67.1378C81.0598 67.1164 81.0404 67.095 81.0318 67.0714L78.1434 67.3307L75.75 64.8771L75.7283 64.8557H75.6982L73.7849 65.0401L66.7035 65.745L64.5511 65.9722L63.9699 66.0407C63.9017 66.0458 63.834 66.0566 63.7676 66.0729C63.8356 66.0785 63.9041 66.0785 63.9722 66.0729L64.5576 66.0278L66.71 65.8414L73.7955 65.175L75.681 64.9822Z" fill="white"/>
<path opacity="0.2" d="M61.6926 72.4735L60.2871 72.045H60.2742H60.2614L59.3617 72.1371C59.3121 71.5628 59.2647 71.0143 59.2196 70.4956V70.4399H59.1636L55.0419 70.8942L53.8902 71.0292L53.7632 71.0464C53.7555 71.0009 53.7307 70.9602 53.6941 70.9319C53.6574 70.9037 53.6115 70.8904 53.5653 70.8942C53.516 70.8991 53.4706 70.9234 53.4391 70.9615C53.4076 70.9996 53.3925 71.0487 53.3974 71.0977C53.4006 71.1466 53.4231 71.1923 53.4599 71.2247C53.4969 71.257 53.5452 71.2734 53.5944 71.2704C53.6435 71.2671 53.6892 71.2448 53.7217 71.2079C53.7542 71.1713 53.7708 71.1232 53.7676 71.0743L53.8946 71.0635L55.0504 70.9586L59.1141 70.5664C59.1543 71.0878 59.198 71.6363 59.2455 72.2121V72.2721H59.3079L60.257 72.1778L61.6625 72.6064H61.6755H61.6884L63.4383 72.437L71.3245 71.655L72.7861 72.4542H72.7967H72.8076L74.2884 72.2935L74.6801 72.2464H74.6995C74.7308 72.3162 74.7835 72.3744 74.8499 72.4127C74.9165 72.451 74.9934 72.4676 75.0698 72.46C75.1462 72.4524 75.2183 72.4211 75.2758 72.3704C75.3334 72.3197 75.3734 72.2523 75.3904 72.1778C75.4041 72.1191 75.4025 72.058 75.3856 72.0001C75.3686 71.9423 75.3369 71.8899 75.2935 71.8477C75.2363 71.7913 75.159 71.7589 75.0782 71.7578C75.0244 71.7578 74.9987 71.7728 74.9987 71.7813C74.9987 71.79 75.1214 71.7813 75.214 71.91C75.2411 71.943 75.2597 71.9821 75.2684 72.0239C75.277 72.0657 75.2754 72.109 75.2634 72.1498C75.2497 72.1984 75.2214 72.2419 75.1824 72.2742C75.1437 72.3065 75.0958 72.3265 75.0453 72.3313C74.9948 72.3361 74.9441 72.3257 74.8997 72.3014C74.8552 72.2771 74.8192 72.2399 74.7964 72.1949C74.777 72.1571 74.767 72.1153 74.767 72.0728C74.767 72.0303 74.777 71.9885 74.7964 71.9507C74.8717 71.8135 74.9965 71.8006 74.99 71.7813C74.9835 71.7621 74.9599 71.7642 74.9082 71.7813C74.8311 71.7979 74.7634 71.8431 74.7188 71.9077C74.687 71.9544 74.6668 72.0078 74.66 72.0638C74.6534 72.1198 74.6602 72.1764 74.6801 72.2292H74.665L74.2711 72.257L72.799 72.3834L71.3612 71.5628H71.3482H71.3332L63.4297 72.3106L61.6926 72.4735Z" fill="white"/>
<path opacity="0.2" d="M73.0812 81.1712C73.1279 81.1662 73.1712 81.1438 73.202 81.1084C73.2328 81.0731 73.2488 81.0272 73.2469 80.9804L73.7914 80.9397L75.8061 80.7661H75.8191H75.8297L77.9391 79.0326L82.203 78.6254C82.203 78.5805 82.2224 78.5376 82.233 78.4927L77.9091 78.9212H77.8918L77.8767 78.9341L75.7824 80.6911L73.7872 80.9054L73.2427 80.9719C73.2364 80.9233 73.211 80.8792 73.1721 80.8493C73.1331 80.8192 73.0837 80.806 73.0349 80.8123C72.9861 80.8184 72.9418 80.8438 72.9117 80.8826C72.8817 80.9214 72.8683 80.9704 72.8746 81.019C72.8825 81.066 72.9085 81.1083 72.9471 81.1366C72.9856 81.1649 73.0337 81.1773 73.0812 81.1712Z" fill="white"/>
<path opacity="0.2" d="M54.6551 65.7086C54.657 65.7342 54.6645 65.759 54.6766 65.7816C54.6887 65.8041 54.7055 65.8238 54.7257 65.8395C54.7459 65.8553 54.7693 65.8666 54.7942 65.8729C54.8191 65.8792 54.845 65.8803 54.8703 65.8759C54.9064 65.8705 54.9401 65.8544 54.9671 65.83C54.9943 65.8056 55.0137 65.7738 55.0227 65.7385C55.0319 65.7033 55.0306 65.6661 55.0188 65.6316C55.007 65.5971 54.9855 65.5668 54.9566 65.5445C54.9279 65.5221 54.8931 65.5085 54.8568 65.5055C54.8202 65.5026 54.7839 65.5103 54.7517 65.5277C54.7197 65.5453 54.6934 65.5717 54.6763 65.6037C54.6591 65.6359 54.6517 65.6723 54.6551 65.7086Z" fill="white"/>
<path opacity="0.2" d="M69.5252 82.641L69.8975 82.6024H69.9622C69.961 82.6147 69.961 82.6269 69.9622 82.6389C69.9643 82.6634 69.9712 82.6872 69.9828 82.7088C69.9943 82.7305 70.01 82.7498 70.0291 82.7652C70.0481 82.7808 70.0701 82.7924 70.0937 82.7995C70.1173 82.8064 70.1422 82.8087 70.1666 82.8061C70.2157 82.8006 70.2608 82.7763 70.2921 82.7384C70.3235 82.7002 70.3387 82.6515 70.3345 82.6024C70.3322 82.5567 70.3128 82.5136 70.2802 82.4813C70.2477 82.449 70.2042 82.4298 70.1583 82.4277C70.1123 82.4256 70.0672 82.4406 70.0318 82.4697C69.9963 82.4988 69.973 82.54 69.9664 82.5854H69.8975L69.523 82.6024L68.1262 82.6904L63.4448 83.0225C63.3801 82.5025 63.3142 81.9668 63.2466 81.4154C63.2273 81.2632 63.208 81.1111 63.1907 80.9697L64.8697 79.1332L64.8889 79.1139V79.0861C64.8265 78.4883 64.7685 77.9227 64.7168 77.4125V77.3912L64.6995 77.3762L64.1399 76.9219L64.1228 76.909H64.1034L61.9767 77.1362L61.3956 77.207H61.3247C61.3177 77.1252 61.2809 77.049 61.2213 76.9927C61.1641 76.9359 61.0868 76.9036 61.006 76.9026C60.9522 76.9026 60.9264 76.9175 60.9264 76.9262C60.9264 76.9348 61.0492 76.9262 61.1416 77.0548C61.1817 77.1045 61.2024 77.1669 61.1998 77.2304H61.1804H61.1977C61.2008 77.2481 61.2008 77.2663 61.1977 77.284C61.1844 77.3328 61.1565 77.3764 61.1179 77.409C61.0791 77.4415 61.0313 77.4616 60.9808 77.4664C60.9303 77.4714 60.8795 77.4608 60.8352 77.4362C60.791 77.4117 60.7551 77.3743 60.7328 77.3291C60.7131 77.2913 60.7029 77.2494 60.7029 77.207C60.7029 77.1643 60.7131 77.1225 60.7328 77.0847C60.8081 76.9497 60.9328 76.9369 60.9264 76.9175C60.9199 76.8984 60.8984 76.9005 60.8446 76.9175C60.7672 76.9332 60.6992 76.9787 60.6552 77.044C60.6211 77.0939 60.6004 77.1515 60.5951 77.2116C60.5898 77.2716 60.6001 77.332 60.6252 77.387C60.6557 77.4571 60.7079 77.5157 60.7742 77.5546C60.8404 77.5934 60.9172 77.6103 60.9938 77.6029C61.0702 77.5955 61.1424 77.5643 61.1999 77.5134C61.2575 77.4627 61.2972 77.3952 61.3139 77.3205C61.3169 77.2913 61.3169 77.2618 61.3139 77.2325H61.3848L61.9681 77.1897L64.0796 77.0055L64.6027 77.4341C64.648 77.9312 64.6995 78.4798 64.7533 79.0604L63.0658 80.8946L63.0466 80.9162V80.9461C63.0637 81.096 63.0852 81.2567 63.1046 81.4197L63.3198 83.0868V83.1489H63.3801L68.1153 82.7675L69.5252 82.641Z" fill="white"/>
<path opacity="0.2" d="M66.4615 75.1648C66.5026 75.5311 66.5627 76.0498 66.6359 76.699V76.714L66.6511 76.7248L69.8194 79.1697L69.8365 79.1826H69.8559L74.0616 78.7818L81.3367 78.0661L82.3482 77.959L82.3612 77.884L81.3281 77.9739L74.053 78.6597L69.8732 79.069L66.7091 76.6818C66.623 76.039 66.5541 75.5311 66.4938 75.1669C66.4703 74.9997 66.4488 74.8648 66.4336 74.762C66.4299 74.7153 66.4203 74.6692 66.4056 74.6248C66.4013 74.6711 66.4013 74.7177 66.4056 74.7641C66.4315 74.8519 66.4444 74.9933 66.4615 75.1648Z" fill="white"/>
<path opacity="0.2" d="M70.0347 70.3371H70.0175L70.0024 70.3477L68.9111 71.1128L65.4782 71.4685L64.4946 71.5798L64.2577 71.612C64.2481 71.5377 64.2131 71.4688 64.1588 71.417C64.1016 71.3601 64.0243 71.3277 63.9435 71.3271C63.8897 71.3271 63.8616 71.342 63.8639 71.3506C63.866 71.3591 63.9865 71.3506 64.0791 71.4791C64.114 71.5224 64.1337 71.5758 64.135 71.6313C64.1392 71.6598 64.1392 71.6885 64.135 71.717C64.12 71.7642 64.0917 71.8061 64.0536 71.8382C64.0156 71.87 63.9691 71.8904 63.9198 71.897C63.8697 71.9014 63.8196 71.8909 63.7755 71.8668C63.7314 71.8428 63.6955 71.8063 63.6722 71.7621C63.6525 71.7243 63.6422 71.6824 63.6422 71.6398C63.6422 71.5973 63.6525 71.5553 63.6722 71.5177C63.7454 71.3806 63.8724 71.3678 63.866 71.3485C63.8595 71.3292 63.8359 71.3313 63.7821 71.3485C63.7052 71.3654 63.6375 71.4104 63.5926 71.4749C63.5585 71.5251 63.5378 71.583 63.5326 71.6435C63.5273 71.7038 63.5376 71.7645 63.5625 71.8198C63.5943 71.8888 63.647 71.9463 63.7131 71.9839C63.7792 72.0217 63.8556 72.038 63.9314 72.0304C64.0074 72.0228 64.079 71.992 64.1363 71.9419C64.1937 71.8917 64.2338 71.8251 64.2512 71.7513C64.2588 71.713 64.2588 71.6738 64.2512 71.6356L64.4881 71.6228L65.4738 71.5434L68.9176 71.2328H68.9349H68.9478L70.0411 70.4741L71.8665 70.3327L77.51 69.8699L79.219 69.7135L79.6624 69.6685C79.6659 69.7155 79.6877 69.7592 79.723 69.7906C79.7583 69.8218 79.8044 69.8384 79.8517 69.8366C79.8989 69.8348 79.9437 69.8147 79.9765 69.7808C80.0093 69.747 80.0277 69.7016 80.0277 69.6545C80.0277 69.6075 80.0093 69.5621 79.9765 69.5282C79.9437 69.4943 79.8989 69.4743 79.8517 69.4725C79.8044 69.4708 79.7583 69.4872 79.723 69.5186C79.6877 69.5499 79.6659 69.5937 79.6624 69.6407L79.219 69.6641L77.4971 69.7777L71.8535 70.2063L70.0347 70.3371Z" fill="white"/>
<path opacity="0.2" d="M67.9174 76.4074V76.4375L67.9432 76.4546L68.6061 76.9238L70.4635 78.2332L70.4829 78.246H70.5002L75.272 77.7618L76.6604 77.6096L76.9768 77.5689C76.9831 77.6175 77.0084 77.6616 77.0474 77.6915C77.0863 77.7214 77.1356 77.7348 77.1844 77.7285C77.2332 77.7222 77.2775 77.697 77.3077 77.6582C77.3377 77.6194 77.351 77.5704 77.3447 77.5218C77.3426 77.4975 77.3356 77.474 77.3243 77.4524C77.3129 77.4309 77.2973 77.4117 77.2786 77.3961C77.2599 77.3807 77.238 77.3689 77.2148 77.3619C77.1913 77.3546 77.1668 77.3522 77.1424 77.3546C77.0955 77.3595 77.052 77.3818 77.0209 77.4172C76.9898 77.4524 76.9732 77.4983 76.9745 77.5453L76.656 77.5667L75.2634 77.6825L70.5109 78.1111L68.6751 76.8102L68.0294 76.3603C67.8851 74.9247 67.7516 73.5918 67.6354 72.4432V72.3896H67.5816L64.5683 72.7046L63.7267 72.8012L63.6126 72.8161C63.5976 72.7925 63.5795 72.7708 63.5588 72.7518C63.5305 72.7238 63.4969 72.7016 63.4599 72.6866C63.4231 72.6715 63.3835 72.6638 63.3436 72.6639C63.2898 72.6639 63.2618 72.6791 63.2639 72.6855C63.266 72.6918 63.3866 72.6853 63.4791 72.814C63.4835 72.8192 63.4871 72.825 63.49 72.8311L63.4168 72.8462C63.4168 72.8462 63.4426 72.8462 63.4942 72.8462C63.5136 72.8779 63.526 72.9134 63.5309 72.9503C63.5357 72.9873 63.5328 73.0248 63.5221 73.0605C63.5084 73.1089 63.4803 73.1523 63.4413 73.1847C63.4024 73.217 63.3546 73.237 63.3041 73.2418C63.2537 73.2466 63.2028 73.2363 63.1584 73.2119C63.1141 73.1876 63.0781 73.1504 63.0551 73.1054C63.0354 73.0677 63.0251 73.0257 63.0251 72.9833C63.0251 72.9408 63.0354 72.8988 63.0551 72.8612C63.1304 72.7239 63.2553 72.7133 63.2489 72.6918C63.2424 72.6704 63.2187 72.6747 63.1649 72.6918C63.0884 72.7096 63.021 72.7547 62.9755 72.8182C62.9414 72.8684 62.9207 72.9265 62.9154 72.9868C62.9102 73.0473 62.9205 73.1079 62.9454 73.1633C62.9769 73.2323 63.0294 73.2897 63.0955 73.3277C63.1615 73.3655 63.2377 73.3819 63.3135 73.3747C63.3895 73.3673 63.461 73.3367 63.5186 73.2868C63.5759 73.237 63.6163 73.1705 63.6341 73.0968C63.654 73.015 63.6425 72.9286 63.6018 72.8547H63.7073L64.551 72.7883L67.5192 72.5225C67.6527 73.6604 67.7774 74.9847 67.9174 76.4074Z" fill="white"/>
<path opacity="0.2" d="M60.9584 59.5329L60.9434 59.5522V59.5759C61.0789 60.8616 61.193 61.9587 61.2769 62.7558C61.32 63.1329 61.3565 63.4371 61.3824 63.6643C61.3914 63.7733 61.4087 63.8815 61.4341 63.988C61.4383 63.8792 61.4341 63.7703 61.4212 63.6622C61.4039 63.4329 61.3803 63.1265 61.3501 62.7494C61.2791 61.9565 61.1801 60.8658 61.0639 59.5888L62.8094 57.4866L63.7435 56.3509L63.7608 56.3316V56.3058L63.7285 55.9888H63.6123L63.6403 56.2909L62.7191 57.4052L60.9584 59.5329Z" fill="white"/>
<path opacity="0.2" d="M63.1049 59.4559C63.1265 59.4221 63.137 59.3824 63.1349 59.3424C63.1301 59.2931 63.1058 59.2479 63.0675 59.2167C63.0291 59.1853 62.9799 59.1704 62.9305 59.1752C62.9061 59.1773 62.8825 59.1842 62.8609 59.1956C62.8392 59.2069 62.82 59.2223 62.8045 59.241C62.7888 59.2598 62.777 59.2814 62.7699 59.3047C62.7628 59.3279 62.7602 59.3523 62.7626 59.3766C62.7642 59.4117 62.776 59.4455 62.7967 59.4739C62.8172 59.5024 62.8458 59.5243 62.8788 59.5368C62.9118 59.5494 62.9476 59.552 62.982 59.5444C63.0165 59.537 63.048 59.5196 63.0725 59.4945L63.2642 59.6659C63.4686 59.848 63.7614 60.0944 64.1036 60.3837C64.1293 60.6559 64.1574 60.9474 64.1854 61.2408C64.2499 61.9158 64.3166 62.5265 64.3727 62.9702C64.389 63.2103 64.4279 63.4484 64.4889 63.6815C64.5016 63.4412 64.4929 63.2004 64.463 62.9615C64.433 62.5159 64.3791 61.9029 64.3145 61.2279C64.2822 60.9152 64.2499 60.6152 64.2219 60.3388V60.3131L64.2025 60.2981C63.8432 60.0087 63.5353 59.7666 63.3136 59.5994L63.1049 59.4559Z" fill="white"/>
<path opacity="0.2" d="M67.7014 66.2805L66.3497 66.392L61.89 66.8119C61.8727 66.6192 61.8533 66.4176 61.8318 66.2141V66.167V66.1327L61.8016 66.1177L60.0605 65.1363L60.0432 65.1255H60.0238L56.4465 65.4963L55.4112 65.6141L55.1357 65.6506C55.1036 65.653 55.0717 65.6596 55.041 65.6699C55.0732 65.675 55.1058 65.675 55.138 65.6699L55.4156 65.6527L56.453 65.5713L60.0173 65.2478L61.7092 66.2077V66.2226C61.7328 66.4477 61.7543 66.6728 61.7759 66.8848V66.9491H61.8383L66.3583 66.4905L67.7056 66.3406L68.0694 66.2934C68.112 66.2904 68.154 66.2817 68.1943 66.2677C68.1521 66.262 68.1094 66.262 68.0673 66.2677L67.7014 66.2805Z" fill="white"/>
<path opacity="0.2" d="M51.3438 60.7929L52.534 61.9757L52.5557 61.9951H52.5836L55.8122 61.6672C55.8875 62.3572 55.9499 62.9251 55.9951 63.3364C56.0145 63.4907 56.0316 63.6215 56.0446 63.7286C56.0446 63.7286 56.0295 63.7286 56.0295 63.7415C56.0295 63.7543 56.0295 63.7415 56.0489 63.7521V63.8036C56.052 63.8587 56.0614 63.9134 56.0769 63.9664C56.083 63.9117 56.083 63.8563 56.0769 63.8015V63.7608C56.1446 63.7778 56.205 63.8161 56.2491 63.87C56.276 63.9032 56.2944 63.9422 56.3031 63.9841C56.3117 64.0257 56.3101 64.069 56.2986 64.11C56.2848 64.1586 56.2566 64.2019 56.2178 64.2342C56.1788 64.2666 56.131 64.2865 56.0806 64.2913C56.03 64.2963 55.9793 64.2859 55.9348 64.2616C55.8904 64.2371 55.8544 64.2001 55.8316 64.1551C55.8117 64.1173 55.8014 64.0754 55.8014 64.0328C55.8014 63.9903 55.8117 63.9484 55.8316 63.9107C55.9069 63.7736 56.0316 63.7608 56.0253 63.7415C56.0189 63.7222 55.9951 63.7243 55.9413 63.7415C55.9033 63.7492 55.8671 63.7643 55.835 63.786C55.8028 63.8078 55.7754 63.8356 55.754 63.8679C55.719 63.9176 55.6976 63.9755 55.692 64.036C55.6863 64.0965 55.6965 64.1575 55.7217 64.2128C55.7535 64.2818 55.8062 64.3393 55.8723 64.3769C55.9386 64.4147 56.0148 64.431 56.0908 64.4234C56.1666 64.4159 56.2381 64.385 56.2955 64.3348C56.3529 64.2847 56.3931 64.2181 56.4106 64.1443C56.4248 64.0856 56.4233 64.0243 56.4064 63.9664C56.3894 63.9085 56.3574 63.856 56.3136 63.8144C56.2566 63.7572 56.1793 63.7251 56.0984 63.7243C56.0877 63.7227 56.0769 63.7227 56.0662 63.7243C56.0662 63.615 56.0489 63.4865 56.0381 63.3322C56.0016 62.9037 55.9521 62.325 55.8896 61.618V61.5665H55.8401L52.6116 61.8665L51.4493 60.7073L51.3438 60.7929Z" fill="white"/>
</g>
<path d="M60.7368 73.2113L63.9696 69.9942L67.2037 73.2139L69.0837 71.341L63.9696 66.2483L58.8555 71.3397L60.7368 73.2113Z" fill="white"/>
<path d="M55.6445 74.5346L57.5245 72.6616L59.4058 74.5346L57.5245 76.4062L55.6445 74.5346Z" fill="white"/>
<path d="M60.7368 75.8563L63.9696 79.0747L67.2037 75.855L69.085 77.7253L63.9709 82.818L58.8555 77.7292L60.7368 75.8563Z" fill="white"/>
<path d="M68.5293 74.5346L70.4093 72.6616L72.2906 74.5333L70.4093 76.4075L68.5293 74.5346Z" fill="white"/>
<path d="M65.8757 74.5332L63.9681 72.6328L62.5575 74.0372L62.3945 74.1982L62.0605 74.5306L63.9681 76.4284L65.8757 74.5346V74.5332Z" fill="white"/>
<path d="M22.6129 13.8176L25.0724 11.3701L27.5329 13.8196L28.9632 12.3947L25.0724 8.52026L21.1816 12.3937L22.6129 13.8176Z" fill="white"/>
<path d="M18.7383 14.8243L20.1686 13.3994L21.5998 14.8243L20.1686 16.2483L18.7383 14.8243Z" fill="white"/>
<path d="M22.6129 15.8301L25.0724 18.2786L27.5329 15.8291L28.9642 17.252L25.0734 21.1265L21.1816 17.255L22.6129 15.8301Z" fill="white"/>
<path d="M28.5391 14.8243L29.9693 13.3994L31.4006 14.8233L29.9693 16.2492L28.5391 14.8243Z" fill="white"/>
<path d="M26.5217 14.8233L25.0704 13.3774L23.9972 14.4459L23.8732 14.5684L23.6191 14.8213L25.0704 16.2651L26.5217 14.8243V14.8233Z" fill="white"/>
<path d="M11.9891 52.5319L10.6663 50.7355L12.9231 50.8388L12.1527 49.7935L8.58317 49.6299L10.677 52.4723L11.9891 52.5319Z" fill="white"/>
<path d="M12.0587 54.2618L11.2857 53.2119L12.6028 53.2722L13.3749 54.3221L12.0587 54.2618Z" fill="white"/>
<path d="M13.5318 53.3875L15.7877 53.4906L14.4636 51.6931L15.7749 51.7524L17.8695 54.5952L14.302 54.4331L13.5318 53.3875Z" fill="white"/>
<path d="M13.8516 50.9554L13.0786 49.9055L14.3951 49.9655L15.1686 51.0161L13.8516 50.9554Z" fill="white"/>
<path d="M13.501 51.6109L12.1647 51.5494L12.7441 52.3369L12.8104 52.4275L12.9475 52.6139L14.2824 52.6747L13.5017 51.6113L13.501 51.6109Z" fill="white"/>
<path d="M84.8126 17.601L88.6063 16.1681L87.2996 19.9955L89.5074 19.1605L91.5748 13.1072L85.5717 15.3757L84.8126 17.601Z" fill="white"/>
<path d="M81.8066 16.7898L84.0139 15.955L83.254 18.1809L81.0472 19.0141L81.8066 16.7898Z" fill="white"/>
<path d="M82.726 19.7529L81.4198 23.5787L85.2161 22.1442L84.458 24.3684L78.4539 26.638L80.5176 20.5874L82.726 19.7529Z" fill="white"/>
<path d="M86.7716 21.564L88.9787 20.7292L88.2199 22.954L86.0112 23.7893L86.7716 21.564Z" fill="white"/>
<path d="M85.7471 20.5775L86.5187 18.3195L84.8633 18.9451L84.673 19.0163L84.2811 19.1644L83.5116 21.4202L85.746 20.5786L85.7471 20.5775Z" fill="white"/>
</svg>
