<svg width="293" height="190" viewBox="0 0 293 190" fill="none" xmlns="http://www.w3.org/2000/svg">
<path d="M132.795 157.836C124.116 157.767 115.44 158.162 106.805 159.019C103.542 159.378 100.345 160.167 97.0783 160.485C90.5468 161.121 84.1314 162.308 77.5769 162.854C72.2982 163.295 66.9974 163.555 61.7342 164.114C56.6395 164.656 51.4936 164.5 46.4419 163.652C42.8167 163.01 39.1751 162.65 35.6113 161.62C31.569 160.385 27.3688 159.73 23.1386 159.674C17.2155 159.716 11.4445 159.722 5.77734 161.755C3.58734 162.476 1.56769 163.628 -0.159691 165.141C-3.61887 168.572 -4.085 177.131 -0.633183 180.688C5.18445 186.673 17.6031 189.025 25.7563 189.137C34.6921 189.258 43.3728 188.602 52.3217 188.216C60.6368 187.858 68.9322 187.348 77.2637 187.366C94.2734 187.402 111.29 187.366 128.271 186.242C144.225 185.186 160.219 185.549 176.208 185.549C192.605 185.549 208.89 185.676 225.168 187.831C232.26 188.77 239.486 189.098 246.614 189.756C252.998 190.346 259.132 189.745 265.49 189.201C270.862 188.759 276.109 187.369 280.984 185.095C284.827 183.28 291.668 177.644 292.846 173.312C296.147 161.17 246.326 161.462 238.676 161.489C230.119 161.52 221.494 161.798 212.943 161.476C209.352 161.258 205.788 160.725 202.292 159.883C198.795 159.125 195.273 159.317 191.726 158.999C176.939 157.669 162.123 157.866 147.286 157.866C142.454 157.863 137.624 157.821 132.795 157.836Z" fill="#5C5C6A"/>
<path d="M221.692 58.5561L223.116 61.6655L217.932 63.895L213.133 60.6093L215.661 56.3047L221.692 58.5561Z" fill="#AA6755"/>
<path d="M231.073 53.0112L31.5703 65.5234L36.306 140.936L235.809 128.424L231.073 53.0112Z" fill="#EDEDEF"/>
<path d="M41.4565 135.601L37.3047 70.1784L225.986 58.4727L230.137 123.896L41.4565 135.601ZM38.3097 71.0558L42.3422 134.605L229.131 123.014L225.101 59.4665L38.3097 71.0558Z" fill="white"/>
<path d="M71.0771 90.0666L76.9103 89.7051L68.2893 112.056L63.691 112.341L52.3125 91.2343L58.3305 90.8607L65.5833 105.056L71.0771 90.0666Z" fill="#3B455A"/>
<path d="M83.4319 110.028C81.7286 109.245 80.3037 107.972 79.3431 106.376C78.2976 104.597 77.7081 102.593 77.6258 100.538C77.4446 98.4963 77.7819 96.4427 78.6071 94.563C79.3732 92.8767 80.6246 91.4509 82.2053 90.4638C83.9654 89.4579 85.9371 88.8688 87.966 88.7425C89.9948 88.6162 92.0257 88.9563 93.8994 89.7359C95.5874 90.5161 97.0002 91.7786 97.9556 93.3605C98.993 95.1304 99.577 97.1243 99.6565 99.1685C99.8342 101.216 99.5079 103.276 98.7055 105.171C97.965 106.87 96.7224 108.308 95.1408 109.296C93.3776 110.302 91.4029 110.892 89.371 111.018C87.3392 111.144 85.3054 110.804 83.4287 110.024L83.4319 110.028ZM92.8682 104.678C93.7307 103.46 94.0916 101.742 93.9509 99.5243C93.8114 97.3268 93.237 95.6825 92.2279 94.5913C91.7094 94.0807 91.0874 93.6843 90.4028 93.4285C89.7183 93.1727 88.9867 93.0631 88.2563 93.1071C87.5259 93.151 86.8131 93.3474 86.1649 93.6834C85.5168 94.0194 84.948 94.4873 84.4959 95.0563C83.6427 96.2537 83.2864 97.9611 83.427 100.179C83.5693 102.417 84.1396 104.082 85.1378 105.174C85.6559 105.687 86.2789 106.085 86.965 106.341C87.6511 106.597 88.3846 106.705 89.1164 106.658C89.8482 106.611 90.5614 106.41 91.2084 106.069C91.8554 105.728 92.4213 105.254 92.8682 104.679V104.678Z" fill="#3B455A"/>
<path d="M105.995 107.586C104.247 106.091 103.275 103.797 103.079 100.704L102.281 88.1299L107.929 87.7789L108.74 100.567C108.734 101.859 109.192 103.112 110.033 104.102C110.437 104.502 110.928 104.806 111.468 104.99C112.009 105.174 112.585 105.234 113.152 105.165C113.718 105.162 114.276 105.029 114.782 104.776C115.288 104.524 115.727 104.158 116.066 103.709C116.759 102.623 117.048 101.332 116.883 100.058L116.072 87.2702L121.782 86.916L122.58 99.4903C122.774 102.542 122.083 104.929 120.509 106.65C118.935 108.372 116.574 109.33 113.426 109.526C110.219 109.728 107.742 109.081 105.995 107.586Z" fill="#3B455A"/>
<path d="M131.591 107.01C129.865 106.217 128.414 104.938 127.421 103.332C126.361 101.581 125.761 99.5955 125.676 97.5568C125.504 95.5368 125.85 93.5067 126.68 91.6534C127.466 89.9442 128.743 88.5013 130.352 87.504C132.13 86.4302 134.157 85.8247 136.24 85.7451C137.658 85.6541 139.083 85.7829 140.462 86.1268C141.681 86.398 142.829 86.9217 143.828 87.6633L142.327 91.8313C140.656 90.715 138.665 90.1617 136.65 90.2535C135.885 90.2542 135.13 90.427 134.442 90.7589C133.755 91.0908 133.153 91.5731 132.681 92.1693C131.805 93.337 131.436 95.0083 131.574 97.1832C131.713 99.3807 132.292 101.009 133.309 102.069C133.85 102.607 134.508 103.015 135.232 103.262C135.957 103.509 136.729 103.589 137.49 103.495C139.5 103.338 141.405 102.544 142.923 101.231L144.94 105.18C144.042 106.04 142.97 106.701 141.795 107.121C140.47 107.633 139.073 107.936 137.653 108.021C135.579 108.202 133.492 107.854 131.591 107.01Z" fill="#3B455A"/>
<path d="M161.286 84.4698L166.964 84.1172L168.343 105.847L162.665 106.2L162.107 97.4104L153.218 97.9619L153.776 106.752L148.098 107.104L146.719 85.3739L152.397 85.0213L152.934 93.4753L161.819 92.9238L161.286 84.4698Z" fill="#3B455A"/>
<path d="M172.293 105.603L170.914 83.8728L186.592 82.9023L186.871 87.2967L176.841 87.9195L177.1 92.009L186.483 91.4267L186.762 95.822L177.379 96.4042L177.662 100.86L187.692 100.237L187.971 104.633L172.293 105.603Z" fill="#3B455A"/>
<path d="M210.034 103.26L203.893 103.641L200.595 96.5844C200.213 95.7913 199.416 95.4323 198.203 95.5072L196.104 95.6374L196.641 104.091L190.931 104.446L189.555 82.7146L199.77 82.0806C202.425 81.9156 204.456 82.3563 205.865 83.4028C206.585 83.9655 207.166 84.6816 207.567 85.4977C207.968 86.3137 208.177 87.2087 208.179 88.1158C208.311 89.4826 207.973 90.8536 207.22 92.0069C206.466 93.1602 205.341 94.0282 204.027 94.4705C204.659 94.5587 205.253 94.8188 205.744 95.2218C206.305 95.6888 206.747 96.28 207.035 96.9475L210.034 103.26ZM202.062 90.4109C202.329 90.1963 202.535 89.9174 202.662 89.601C202.788 89.2846 202.83 88.9414 202.784 88.6043C202.793 88.258 202.712 87.9152 202.549 87.6088C202.386 87.3024 202.145 87.0426 201.852 86.8543C200.994 86.4744 200.046 86.3421 199.116 86.4726L195.475 86.699L195.771 91.3684L199.412 91.1427C200.349 91.1561 201.27 90.902 202.065 90.4109H202.062Z" fill="#3B455A"/>
<path d="M247.747 39.3652L272.813 66.2371L253.759 82.233L250.941 78.8737L258.403 63.5402L243.789 50.7985L247.747 39.3652Z" fill="#ED6C6C"/>
<path d="M253.988 106.331L255.119 132.28L251.802 176.402L246.84 176.75L240.81 136.678L232.469 102.768L253.988 106.331Z" fill="#586078"/>
<path d="M247.015 178.817L252.575 181.094L255.068 178.252L252.194 175.787L246.828 176.164L247.015 178.817Z" fill="#3B455A"/>
<path d="M218.855 97.1498L217.766 116.764L220.997 175.085L225.965 175.327L233.413 137.076L239.981 95.1289L218.855 97.1498Z" fill="#586078"/>
<path d="M225.833 177.401L220.326 179.792L217.773 177.002L220.595 174.479L225.968 174.744L225.833 177.401Z" fill="#3B455A"/>
<path d="M247.752 39.3671L232.246 37.7246C232.246 37.7246 223.62 38.636 217.768 58.8936C214.511 70.1643 213.52 87.9255 213.281 101.459C213.648 103.39 215.775 111.849 224.772 110.414C240.22 107.95 248.444 105.486 255.171 106.719C260.902 107.95 260.417 100.148 259.787 94.1929L257.504 75.7685L247.752 39.3671Z" fill="#ED6C6C"/>
<path d="M244.752 20.2791C240.844 19.4275 236.819 18.6617 232.909 19.4299C232.474 19.4706 232.051 19.5972 231.666 19.8022C231.281 20.0073 230.941 20.2865 230.667 20.6236C230.5 20.9154 230.378 21.2302 230.304 21.5576C229.317 25.187 228.064 30.5664 230.48 33.9103C230.953 34.5363 231.546 35.0647 232.224 35.4654C233.111 36.0098 234.091 36.3899 235.115 36.5871C234.905 37.4899 234.612 38.372 234.24 39.2226C235.135 40.5561 239.31 40.7162 240.08 39.4377C240.123 38.3309 240.166 37.224 240.21 36.1172C240.72 35.9158 241.209 35.6646 241.67 35.3676C243.402 34.183 244.684 32.4589 245.311 30.4701C246.055 28.3223 247.101 26.2811 247.779 24.092C247.948 23.7098 248.036 23.2978 248.039 22.8808C248.043 22.4638 247.96 22.0506 247.797 21.666C247.517 21.3191 247.168 21.032 246.772 20.8219C246.376 20.6119 245.942 20.4834 245.494 20.444L244.752 20.2791Z" fill="#ECE5E0"/>
<path d="M231.742 22.3577C233.755 21.1983 236.061 20.6337 238.389 20.7306C243.88 21.1244 245.892 25.1121 246.185 30.1049C247.698 28.2037 250.537 25.8116 250.708 23.3653C250.849 21.363 250.568 18.6321 249.434 16.9023C248.371 15.2849 245.658 14.3953 244.043 13.4573L239.478 10.8056C239.156 10.5625 238.774 10.4076 238.372 10.3565C237.97 10.3054 237.562 10.3599 237.188 10.5145L226.398 13.2721C225.707 13.4484 224.92 13.7063 224.665 14.3662C224.551 14.7828 224.561 15.2231 224.693 15.6343C225.102 17.4805 225.886 19.368 226.083 21.2385C226.303 22.3253 226.959 27.8948 228.904 27.2519C229.476 26.3283 229.558 25.1897 230.006 24.2007C230.392 23.4329 230.995 22.7926 231.742 22.3577Z" fill="#5C5C6A"/>
<path d="M232.243 37.7246L226.512 39.4495L205.581 61.1337L204.336 68.2793L214.342 84.6148L217.041 78.6264L212.805 66.5527L219.533 61.8712L228.503 41.912L232.243 37.7246Z" fill="#ED6C6C"/>
<path d="M219.278 60.5506L220.761 63.7854L215.364 66.1063L210.367 62.6888L212.999 58.207L219.278 60.5506Z" fill="#AA6755"/>
<path d="M149.663 178.261L149.927 180.968L155.468 183.313L157.844 180.427L154.94 177.902L149.398 175.557L149.663 178.261Z" fill="#3B455A"/>
<path d="M145.039 123.399L149.306 177.407L154.645 178.125L159.061 132.092L162.715 117.488L145.039 123.399Z" fill="#586078"/>
<path d="M132.263 109.225L129.062 173.401L133.933 174.308L144.082 125.747L149.666 111.685L132.263 109.225Z" fill="#586078"/>
<path d="M133.502 176.433L127.716 178.183L125.602 174.963L128.755 172.723L134.022 173.699L133.502 176.433Z" fill="#3B455A"/>
<path d="M186.096 10.4699L187.132 4.17586L184.433 3.62109L182.759 7.77613L181.605 6.92782L181.383 12.4204L184.112 13.3723L186.096 10.4699Z" fill="#ECE5E0"/>
<path d="M152.297 46.8097L170.212 31.904L181.377 12.4219L185.082 13.4004L179.499 37.5858L160.569 60.1692L152.297 46.8097Z" fill="#65BE69"/>
<path d="M139.156 39.9105C143.1 36.6814 152.608 38.5357 157.612 38.5357C157.13 38.5357 173.179 100.924 174.317 104.491C176.204 110.403 176.198 117.368 175.665 123.488C170.296 124.943 165.267 127.68 159.745 128.388C155.202 128.971 150.615 128.146 146.052 127.741C140.654 127.269 135.222 127.395 129.821 126.984C124.421 126.574 118.96 125.592 114.18 123.073C116.278 118.963 118.002 114.676 119.332 110.263C120.692 105.896 122.439 101.05 122.939 96.4977C123.388 92.3855 123.461 88.2013 124.066 84.0317C124.77 79.1796 125.615 74.3469 126.791 69.5845C128.135 64.136 129.905 58.7986 132.083 53.6202C133.74 49.6795 135.717 43.2261 138.831 40.196C138.935 40.0979 139.043 40.0027 139.156 39.9105Z" fill="#65BE69"/>
<path d="M147.533 24.9809C145.035 25.4305 141.954 27.542 141.352 30.1476C141.062 31.4027 141.476 32.5591 141.111 33.8902C140.403 36.5177 143.617 40.388 140.435 42.2141C138.8 43.1529 136.755 42.8489 134.895 42.5157C134.666 42.4936 134.446 42.4155 134.255 42.2885C134.119 42.1576 134.025 41.9906 133.984 41.8078C133.943 41.625 133.957 41.4343 134.023 41.259C134.162 40.9107 134.35 40.5839 134.583 40.2886C136.769 37.0368 136.239 32.3731 137.09 28.671C137.94 24.9688 139.946 21.2941 143.648 19.7754C145.51 20.9813 146.82 22.8609 147.297 25.0108L147.533 24.9809Z" fill="#5C5C6A"/>
<path d="M144.394 40.8914C143.216 40.3216 142.192 39.4833 141.406 38.4454C140.621 37.4074 140.096 36.1997 139.874 34.9217C139.457 32.3578 139.662 29.7326 140.473 27.2626C142.828 18.9808 153.34 21.3527 155.791 28.4352C157.927 34.6071 151.384 43.8471 144.394 40.8914Z" fill="#ECE5E0"/>
<path d="M156.632 45.4484C155.369 44.8095 154.32 43.8236 153.611 42.6091C152.506 40.4191 152.972 37.017 152.841 34.6411C152.702 32.1341 152.472 29.4089 150.736 27.5804C149.635 26.5219 148.166 25.9205 146.631 25.9C145.553 25.7916 145.476 26.1919 144.612 25.5417C143.922 24.8161 143.486 23.8896 143.37 22.8997C143.324 22.236 143.429 21.5705 143.677 20.9522C143.925 20.3339 144.31 19.7785 144.804 19.3269C145.454 18.6418 146.252 18.1106 147.138 17.7728C148.024 17.4351 148.976 17.2995 149.922 17.3764C156.974 17.8163 161.901 22.3902 163.298 29.3571C163.97 32.7059 162.95 36.2859 163.696 39.5166C164.156 41.5117 165.303 42.9131 165.635 45.023C166.495 50.5011 168.901 57.6167 168.194 63.1465C168.193 63.2497 168.171 63.3517 168.131 63.4466C168.09 63.5416 168.03 63.6276 167.956 63.6997C167.615 63.9504 167.17 63.5719 166.921 63.2314L162.566 57.2674C161.96 56.5126 161.462 55.6778 161.089 54.7871C160.266 52.5317 161.031 49.7684 159.612 47.8243C158.787 46.8453 157.774 46.0378 156.632 45.4484Z" fill="#5C5C6A"/>
<path d="M106.18 15.9407L104.438 9.80191L107.054 8.95117L109.19 12.8935L110.24 11.9231L111.084 17.3559L108.481 18.6045L106.18 15.9407Z" fill="#ECE5E0"/>
<path d="M143.887 48.2992L124.394 35.4759L111.088 17.3516L107.516 18.7385L115.808 42.1516L137.18 62.4917L143.887 48.2992Z" fill="#65BE69"/>
<path d="M62.6016 44.0332L68.8477 46.152L78.9537 61.1305L91.8958 52.5665L96.0084 57.3935L89.4842 66.9724L77.732 75.2712L62.6032 59.6158L62.6016 44.0332Z" fill="#5774DB"/>
<path d="M77.291 87.1341L77.7358 125.155L73.638 174.101H68.0665L61.4 128.945L53.7734 83.7109L77.291 87.1341Z" fill="#586078"/>
<path d="M68.1016 176.424L74.1261 179.404L77.1388 176.424L74.1261 173.445H68.1016V176.424Z" fill="#3B455A"/>
<path d="M39.094 87.1338L38.9844 109.13L42.742 174.1H48.3119L57.6345 130.986L62.6098 83.709L39.094 87.1338Z" fill="#586078"/>
<path d="M48.2794 176.425L42.2549 179.404L39.2422 176.425L42.2549 173.445H48.2794V176.425Z" fill="#3B455A"/>
<path d="M33.2963 100.378C33.1769 103.869 33.2538 108.537 34.7397 108.708C35.018 108.715 35.2925 108.643 35.5313 108.502C38.1146 107.26 39.957 105.506 42.5044 104.306C45.2643 103.11 48.1836 102.313 51.1728 101.938C55.5939 101.224 60.0625 100.837 64.5417 100.78C68.3673 100.747 72.3449 102.472 75.9611 103.422C77.3513 103.787 78.4856 104.79 79.6411 105.577C81.3486 106.739 82.0944 107.199 81.8646 104.825C81.4843 100.95 81.0902 97.0774 80.6077 93.2134C79.7424 85.4882 78.2429 77.8454 76.1238 70.3607C75.2783 67.5109 74.3027 64.6999 73.3271 61.8921L69.764 51.6307C68.2879 47.3794 65.7962 44.3848 61.4334 42.8969C57.6626 41.6118 52.9801 41.2601 49.3124 43.0586C45.2358 45.0585 43.2968 51.8733 41.317 55.5124C39.5817 58.7027 37.3917 67.4041 36.744 70.8443C35.9622 74.984 35.2401 79.1043 34.671 83.2173C34.0236 87.7261 33.6223 92.2662 33.4688 96.8178C33.4549 97.3183 33.3552 98.7125 33.2963 100.378Z" fill="#5774DB"/>
<path d="M57.9966 43.8097C57.9068 43.8877 57.8019 43.9469 57.6883 43.9836C57.4474 44.0432 57.1961 44.0498 56.9523 44.003L53.965 43.6536C54.2921 40.638 52.511 39.9555 50.7757 38.0163C49.015 36.0495 49.5572 33.3986 49.6553 30.992C49.6397 30.3196 49.758 29.6508 50.0037 29.0236C50.3082 28.5169 50.7147 28.0773 51.198 27.7323C51.6814 27.3873 52.2313 27.1442 52.8136 27.0181C54.2593 26.5433 55.7917 26.3826 57.306 26.5468C58.8203 26.7111 60.281 27.1965 61.5883 27.9699C62.2888 28.3771 62.8689 28.9591 63.2704 29.6577C63.7226 30.8143 63.8149 32.0782 63.5354 33.287C63.3337 35.1771 62.6898 36.9948 61.6545 38.5961C60.6535 40.0719 58.7449 40.7795 58.5257 42.5498C58.5038 43.018 58.3165 43.4638 57.9966 43.8097Z" fill="#ECE5E0"/>
<path d="M63.4486 31.1036C63.1627 31.8281 63.0461 32.6071 63.1076 33.3824C63.7073 33.1112 64.2381 32.7107 64.661 32.2103C65.084 31.7099 65.3884 31.1224 65.5519 30.4906C65.7688 29.9266 65.8667 29.3247 65.8398 28.722C65.8259 28.4241 65.7482 28.1326 65.6117 27.8667C65.4753 27.6008 65.2832 27.3667 65.0482 27.1798C64.8836 27.0547 64.6917 26.9693 64.4879 26.9303C64.2841 26.8913 64.0739 26.8998 63.8739 26.9551C63.674 27.0105 63.4899 27.1111 63.3361 27.2491C63.1824 27.387 63.0633 27.5585 62.9882 27.7499C62.7944 28.6152 63.7062 29.9633 63.4486 31.1036Z" fill="#3B455A"/>
<path d="M69.9175 24.448C69.9226 24.002 69.8157 23.5617 69.6065 23.1665C69.3973 22.7713 69.0922 22.4337 68.7186 22.1837C67.9497 21.8016 67.2811 21.2479 66.7658 20.5663C66.4321 19.9833 66.3831 19.2619 66.0527 18.6773C65.4541 17.6179 64.1546 17.3065 63.0269 16.9475C60.1999 16.0498 58.678 15.0131 55.6833 16.1622C53.5571 16.9798 50.8037 17.089 48.828 18.281C47.9708 18.8465 47.2523 19.5941 46.7246 20.4693C45.7334 22.0428 45.1131 23.8167 44.9097 25.6596C44.7063 27.5025 44.9249 29.367 45.5495 31.1149C45.8419 31.8177 46.1955 32.4941 46.6061 33.1366C47.3969 34.4054 48.2416 35.967 49.6425 36.5873C49.7308 35.9896 50.1805 35.6597 50.322 35.0718C50.399 34.6423 50.4144 34.2043 50.3678 33.7706C50.2819 32.078 49.7569 29.4037 51.4661 28.5627C53.6275 27.5017 57.6811 28.4583 59.7632 29.3568C61.6056 30.1517 64.714 31.186 66.6775 30.3345C68.497 29.5387 69.9796 26.3873 69.9175 24.448Z" fill="#5C5C6A"/>
<path d="M34.2206 8.35231L38.6783 1.7793L42.4057 3.37402L40.6459 8.48494L42.7917 8.60624L38.0887 13.8118L33.9688 12.5583L34.2206 8.35231Z" fill="#ECE5E0"/>
<path d="M51.0187 42.6767L31.9057 37.1065L38.9802 13.4766L33.1503 9.3418L19.0781 36.6965L22.9699 46.1694L41.2307 55.4904L51.0187 42.6767Z" fill="#5774DB"/>
<path d="M229.852 49.4872L15.3281 59.9492L19.3025 141.037L233.826 130.575L229.852 49.4872Z" fill="#5C5C6A"/>
<path d="M227.915 125.701L24.7645 135.522L21.2734 64.9133L224.424 55.0918L227.915 125.701ZM25.9863 134.192L226.567 124.495L223.202 56.4278L22.6211 66.1223L25.9863 134.192Z" fill="#9FA7B4"/>
<path d="M173.006 94.57L35.4062 101.223L36.4007 121.337L174.001 114.684L173.006 94.57Z" fill="#9FA7B4"/>
<path d="M172.444 83.1032L34.8438 89.7559L34.9722 92.3543L172.572 85.7017L172.444 83.1032Z" fill="#9FA7B4"/>
<path d="M171.832 70.7798L34.2344 77.4902L34.3617 80.0887L171.959 73.3783L171.832 70.7798Z" fill="#9FA7B4"/>
<path d="M204.31 89.1472C202.632 88.2633 200.901 87.4802 199.128 86.802C197.467 86.2536 195.904 85.4511 194.494 84.4237C194.135 84.1041 193.847 83.7146 193.647 83.2796C193.447 82.8446 193.341 82.3734 193.334 81.8957C193.294 81.3557 193.376 80.8137 193.574 80.3089C193.772 79.8041 194.081 79.3492 194.479 78.9771C195.357 78.1369 196.528 77.6629 197.75 77.6533C199.945 77.5474 201.746 78.6755 203.258 81.1024C203.291 81.1564 203.335 81.2033 203.387 81.2405C203.439 81.2776 203.498 81.3042 203.56 81.3187C203.623 81.3332 203.688 81.3354 203.751 81.325C203.814 81.3147 203.875 81.2921 203.929 81.2585L208.672 78.3286C208.781 78.2611 208.859 78.1535 208.888 78.0295C208.917 77.9054 208.895 77.7751 208.827 77.6671C207.821 75.9501 206.488 74.4425 204.901 73.2282C203.487 72.2825 201.862 71.6891 200.166 71.4984L199.946 67.0563C199.939 66.9291 199.882 66.8096 199.787 66.7241C199.691 66.6386 199.566 66.594 199.437 66.6002L195.063 66.812C194.934 66.8183 194.813 66.8748 194.727 66.9692C194.64 67.0635 194.595 67.1879 194.602 67.3151L194.823 71.7936C193.658 72.172 192.545 72.6922 191.51 73.3422C190.48 73.9874 189.568 74.799 188.811 75.7432C188.097 76.6445 187.551 77.665 187.201 78.7564C186.667 80.51 186.611 82.372 187.04 84.1537C187.468 85.9354 188.365 87.5735 189.639 88.9022C190.776 90.1217 192.984 91.3541 196.386 92.669C197.721 93.183 199.026 93.7691 200.296 94.4247C201.1 94.8314 201.861 95.3152 202.57 95.869C203.062 96.3175 203.454 96.8621 203.721 97.4684C203.989 98.0747 204.126 98.7294 204.124 99.3909C204.194 100.156 204.098 100.926 203.845 101.652C203.591 102.377 203.184 103.041 202.652 103.6C202.113 104.166 201.466 104.619 200.747 104.933C200.029 105.247 199.254 105.415 198.468 105.428C196.949 105.579 195.429 105.153 194.216 104.237C193.146 103.278 192.176 101.585 191.333 99.2033C191.293 99.0893 191.211 98.9944 191.103 98.9376C190.995 98.8808 190.87 98.8662 190.752 98.8967L185.308 100.3C185.246 100.316 185.187 100.344 185.136 100.383C185.085 100.422 185.042 100.47 185.01 100.525C184.978 100.581 184.957 100.642 184.949 100.705C184.941 100.769 184.946 100.833 184.963 100.894C185.975 104.469 187.432 107.129 189.293 108.798C191.421 110.546 194.038 111.609 196.793 111.845L197.019 116.409C197.025 116.536 197.082 116.656 197.178 116.741C197.273 116.827 197.399 116.871 197.528 116.865L201.902 116.654C201.966 116.651 202.028 116.635 202.086 116.608C202.143 116.581 202.195 116.543 202.238 116.497C202.281 116.45 202.314 116.395 202.335 116.336C202.357 116.276 202.366 116.213 202.363 116.15L202.128 111.397C204.723 110.552 206.976 108.909 208.558 106.707C210.203 104.427 211.005 101.658 210.83 98.8628C210.746 96.0409 209.554 93.3625 207.507 91.3946C206.554 90.4995 205.478 89.7428 204.31 89.1472Z" fill="#9FA7B4"/>
<path d="M92.2804 51.5117L98.6591 53.878L100.242 60.5706L96.5427 61.4036L93.5447 57.348L91.0799 57.1968L88.7656 53.5003L92.2804 51.5117Z" fill="#ECE5E0"/>
<path d="M220.614 149.391L210.133 144.523L207.756 149.529L218.237 154.397L220.614 149.391Z" fill="#5C5C6A"/>
<path d="M262.151 73.7647L242.5 64.6387L240.556 68.7313L260.208 77.8573L262.151 73.7647Z" fill="#586078"/>
<path d="M279.194 1.29167L288.056 5.42143C288.791 5.76401 289.359 6.3816 289.635 7.13836C289.911 7.89513 289.872 8.72906 289.527 9.45671L288.595 11.4234L274.189 4.71033L275.121 2.7436C275.466 2.01595 276.089 1.45419 276.853 1.1819C277.617 0.909614 278.459 0.949098 279.194 1.29167V1.29167Z" fill="#5C5C6A"/>
<path d="M284.307 9.4073L278.484 6.70312L253.121 60.1123L258.944 62.8164L284.307 9.4073Z" fill="#586078"/>
<path d="M262.152 73.773L242.5 64.6348L271.507 5.78014C271.77 5.27217 272.225 4.88699 272.773 4.7077C273.321 4.52841 273.919 4.56941 274.436 4.82184L288.343 11.2857C288.869 11.5188 289.282 11.9475 289.493 12.4792C289.703 13.0108 289.693 13.6028 289.465 14.1274L262.152 73.773Z" fill="#9FA7B4"/>
<path d="M223.011 150.509L207.727 143.405L242.5 64.6387L262.152 73.7768L223.011 150.509Z" fill="#9FA7B4"/>
<path d="M216.495 153.596L212.993 151.968L209.49 150.34L201.312 158.028L203.125 172.724L215.725 164.726L216.495 153.596Z" fill="#5774DB"/>
<path d="M207.103 158.128C207.311 157.64 207.663 157.225 208.111 156.936C208.56 156.647 209.087 156.497 209.622 156.506C210.158 156.515 210.678 156.682 211.117 156.986C211.556 157.29 211.893 157.717 212.084 158.212C212.276 158.706 212.314 159.246 212.193 159.762C212.071 160.278 211.797 160.747 211.404 161.107C211.012 161.468 210.519 161.704 209.99 161.786C209.461 161.867 208.919 161.79 208.434 161.565C207.797 161.284 207.299 160.763 207.049 160.119C206.8 159.475 206.819 158.758 207.103 158.128Z" fill="#5C5C6A"/>
<path d="M257.265 75.252L260.767 74.457L261.994 80.1486L257.615 84.3133L253.695 80.8731L257.265 75.252Z" fill="#ECE5E0"/>
</svg>
