<svg width="45" height="45" viewBox="0 0 45 45" fill="none" xmlns="http://www.w3.org/2000/svg">
<circle cx="22.5" cy="22.5" r="22.5" fill="#3A99FB"/>
<path d="M15.5982 18.4801C19.4486 14.7094 25.69 14.7094 29.5453 18.4801L30.0086 18.9334C30.2029 19.1227 30.2029 19.4266 30.0086 19.6158L28.4246 21.1699C28.33 21.2646 28.1706 21.2646 28.0759 21.1699L27.4383 20.5473C24.7535 17.9173 20.395 17.9173 17.7102 20.5473L17.0278 21.2148C16.9331 21.3094 16.7737 21.3094 16.6791 21.2148L15.0901 19.6607C14.8958 19.4714 14.8958 19.1675 15.0901 18.9783L15.5982 18.4801ZM32.8229 21.688L34.2326 23.0678C34.4269 23.257 34.4269 23.5609 34.2326 23.7502L27.8717 29.9816C27.6774 30.1709 27.3686 30.1709 27.1743 29.9816L22.6564 25.5583C22.6066 25.5135 22.5319 25.5135 22.4821 25.5583L17.9692 29.9816C17.7749 30.1709 17.4661 30.1709 17.2718 29.9816L10.906 23.7552C10.7117 23.5659 10.7117 23.262 10.906 23.0727L12.3156 21.693C12.5099 21.5037 12.8187 21.5037 13.013 21.693L17.5309 26.1162C17.5807 26.161 17.6554 26.161 17.7052 26.1162L22.2181 21.693C22.4124 21.5037 22.7212 21.5037 22.9155 21.693L27.4333 26.1162C27.4832 26.161 27.5579 26.161 27.6077 26.1162L32.1256 21.693C32.3149 21.4987 32.6287 21.4987 32.8229 21.688Z" fill="white"/>
</svg>
