<svg width="29" height="32" viewBox="0 0 29 32" fill="none" xmlns="http://www.w3.org/2000/svg">
<path d="M17.7325 3.20243C17.7325 3.48626 17.6989 3.77009 17.615 4.03723L23.4755 7.35976C24.7182 6.09085 26.75 6.07416 28.0263 7.30967C29.3025 8.54518 29.3193 10.5654 28.0766 11.8343C27.6736 12.2517 27.1531 12.5523 26.5821 12.7025V19.2975C28.3117 19.7316 29.3361 21.4847 28.8995 23.2044C28.4629 24.9241 26.6997 25.9425 24.97 25.5084C24.3991 25.3582 23.8785 25.0576 23.4587 24.6402L17.5982 27.9628C18.0684 29.6658 17.044 31.4189 15.3312 31.8864C13.6184 32.3538 11.8552 31.3354 11.385 29.6324C11.3178 29.3652 11.2675 29.0814 11.2675 28.7976C11.2675 28.5137 11.3011 28.2299 11.385 27.9628L5.52448 24.6402C4.28184 25.9091 2.24996 25.9258 0.973742 24.6903C-0.302479 23.4548 -0.31927 21.4346 0.923365 20.1657C1.32638 19.7483 1.84694 19.4477 2.41789 19.2975V12.7025C0.688271 12.2684 -0.336063 10.5153 0.100539 8.79563C0.53714 7.07592 2.30034 6.05746 4.02995 6.49156C4.6009 6.64183 5.12146 6.94236 5.54127 7.35976L11.4018 4.03723C10.9316 2.33423 11.956 0.581135 13.6688 0.113644C15.3816 -0.353848 17.1448 0.664615 17.615 2.36762C17.6989 2.65145 17.7325 2.93529 17.7325 3.20243ZM13.7024 6.3079C13.1314 6.15764 12.6109 5.85711 12.2078 5.4397L6.36409 8.76223C6.83428 10.4652 5.82674 12.2183 4.11392 12.6858C4.09712 12.6858 4.08033 12.6858 4.08033 12.7025V19.2975C4.65127 19.4477 5.17184 19.7483 5.57485 20.1657L11.4354 16.8265C10.9652 15.1235 11.9727 13.3704 13.6856 12.9029C13.7024 12.9029 13.7192 12.9029 13.7359 12.8862L13.7024 6.3079ZM15.3144 6.3079V12.9029C16.7418 13.2702 17.7325 14.5391 17.7325 16.0083C17.7325 16.2922 17.6989 16.576 17.615 16.8432L23.4755 20.1824C23.8785 19.765 24.3991 19.4644 24.97 19.3142V12.7025C23.5427 12.3352 22.5519 11.0663 22.5519 9.59704C22.5519 9.31321 22.5855 9.02937 22.6695 8.76223L16.8257 5.42301C16.4059 5.87381 15.8854 6.17433 15.3144 6.3079ZM14.5084 19.214C13.6352 19.214 12.8124 18.8634 12.2078 18.2456L6.36409 21.5682C6.51523 22.1191 6.51523 22.7035 6.36409 23.2545L12.2246 26.577C13.4673 25.3081 15.5159 25.2914 16.7754 26.5269C16.7922 26.5436 16.809 26.5603 16.8257 26.577L22.6863 23.2545C22.5352 22.7035 22.5352 22.1191 22.6863 21.5682L16.8257 18.2456C16.2212 18.8634 15.3816 19.214 14.5084 19.214Z" fill="#050505"/>
</svg>
