<svg width="32" height="32" viewBox="0 0 32 32" fill="none" xmlns="http://www.w3.org/2000/svg">
<path d="M9.78865 13.446L16.0036 7.23355L22.2212 13.4511L25.8354 9.83429L16.0036 0L6.17188 9.83177L9.78865 13.446Z" fill="#F3BA2F"/>
<path d="M0 16.0011L3.61425 12.3843L7.23103 16.0011L3.61425 19.6153L0 16.0011Z" fill="#F3BA2F"/>
<path d="M9.78865 18.5538L16.0036 24.7688L22.2212 18.5513L25.8379 22.163L16.0062 31.9973L6.17188 22.1706L9.78865 18.5538Z" fill="#F3BA2F"/>
<path d="M24.7686 16.0011L28.3828 12.3843L31.9996 15.9985L28.3828 19.6178L24.7686 16.0011Z" fill="#F3BA2F"/>
<path d="M19.6716 15.9985L16.0042 12.3286L13.2923 15.0406L12.9789 15.3514L12.3369 15.9934L16.0042 19.6582L19.6716 16.001V15.9985Z" fill="#F3BA2F"/>
</svg>
