<svg width="32" height="32" viewBox="0 0 32 32" fill="none" xmlns="http://www.w3.org/2000/svg">
<path d="M1.21296 27.4678C2.68678 29.0461 10.7913 36.6082 23.5111 27.8313C32.711 20.5985 32.4802 4.91812 31.5972 0.180149C31.2895 0.869873 20.6158 24.4945 1.21296 27.4678ZM31.5972 0.177042C31.4833 0.130439 19.6496 -1.49756 7.95133 6.11116C0.686817 10.8336 -0.276257 17.7495 0.0560464 22.3694C17.062 20.4369 31.2095 0.720744 31.5972 0.177042Z" fill="#03CA9B"/>
<path d="M31.5972 0.177042C31.4833 0.130439 19.6496 -1.49756 7.95133 6.11116C0.686817 10.8336 -0.276257 17.7495 0.0560464 22.3694C17.062 20.4369 31.2095 0.720744 31.5972 0.177042V0.177042Z" fill="#03CA9B"/>
</svg>
