<svg width="32" height="32" viewBox="0 0 32 32" fill="none" xmlns="http://www.w3.org/2000/svg">
<rect width="32" height="32" fill="white"/>
<path d="M11.0132 6H23.1163C23.1091 6.16266 23.0537 6.31932 22.9575 6.44954C22.5478 7.1634 22.1791 7.90639 21.7765 8.62025C21.2029 9.64212 20.6744 10.689 20.0956 11.7098C19.7289 12.4445 19.3151 13.1563 18.9239 13.8784H11.8685C11.7456 13.8784 11.6237 13.8847 11.5008 13.892C11.3984 14.1667 11.2283 14.4123 11.0911 14.6651C10.9118 14.9607 10.7664 15.276 10.5892 15.5715C10.4017 15.969 10.1426 16.3249 9.9541 16.7162C9.56487 17.3874 9.20124 18.069 8.8202 18.7474C8.42278 19.4412 8.03423 20.1446 7.65456 20.8578C7.49374 21.1107 7.34727 21.3718 7.21104 21.6393C6.41516 23.0514 5.64489 24.4708 4.84799 25.8756C4.78031 26.0267 4.69128 26.1669 4.58372 26.2918C3.22141 26.2825 1.8591 26.2918 0.496783 26.2918C0.328988 26.295 0.162185 26.3188 0 26.3626C0 25.9797 0.251977 25.6737 0.42201 25.3553C0.626869 24.9234 0.900355 24.5228 1.10624 24.0899C2.73896 21.1221 4.35428 18.1439 5.98188 15.174C6.35063 14.5288 6.66714 13.8701 7.03793 13.2374C7.50091 12.4049 7.93214 11.5537 8.41458 10.7306C8.56823 10.3862 8.77514 10.0709 8.94414 9.73474C9.54438 8.64938 10.1334 7.55779 10.7315 6.47244C10.8021 6.30176 10.897 6.14257 11.0132 6V6Z" fill="#EB4A60"/>
<path d="M25.0376 10.3702C25.8438 8.93939 26.6222 7.49295 27.4396 6.06836H31.8113C31.875 6.07163 31.9382 6.08175 31.9998 6.09854C31.8543 6.32227 31.7324 6.55953 31.6044 6.79262C30.55 8.71497 29.4988 10.6384 28.4506 12.5628C28.0101 13.3464 27.6004 14.1476 27.1538 14.927L27.1098 14.9427L27.1016 15.0405C25.0462 18.7867 22.9976 22.5356 20.9558 26.2873C16.9426 26.2901 12.9277 26.2915 8.91113 26.2915C9.13955 25.8066 9.40996 25.3435 9.66399 24.8721C10.8112 22.7316 11.984 20.615 13.1107 18.4797C15.5759 18.4755 18.0417 18.4755 20.5082 18.4797C22.0313 15.7814 23.5217 13.0685 25.0335 10.3702H25.0376Z" fill="#595FB5"/>
</svg>
