<svg width="32" height="32" viewBox="0 0 32 32" fill="none"
  xmlns="http://www.w3.org/2000/svg">
  <path d="M6.51915 25.0557C6.62285 25.3271 6.72472 25.5987 6.82477 25.8705C7.06903 26.445 7.36538 26.9954 7.71001 27.5145C7.20418 26.0639 6.665 24.6254 6.09252 23.199C6.17734 23.8298 6.32001 24.4512 6.51872 25.055L6.51915 25.0557ZM6.07609 23.0948C6.72866 24.6581 7.34477 26.2367 7.92438 27.8308C8.09308 28.0619 8.27099 28.2877 8.45813 28.5078C7.70901 26.3823 6.89321 24.282 6.01074 22.207C6.02212 22.504 6.04616 22.7991 6.08221 23.0948" fill="#F6A700"/>
  <path fill-rule="evenodd" clip-rule="evenodd" d="M6.00708 22.1592C6.99416 24.3832 7.88515 26.5956 8.68393 28.7575C8.83319 28.9205 8.98727 29.0785 9.14617 29.2311C8.19644 26.6076 7.14993 24.0231 6.00667 21.4775C5.99908 21.7041 5.99908 21.9307 6.00667 22.1592" fill="#F6A700"/>
  <path fill-rule="evenodd" clip-rule="evenodd" d="M6.00977 21.4447C7.23228 24.0686 8.35638 26.7367 9.38216 29.4485C9.52134 29.574 9.6628 29.6948 9.80652 29.8113C8.6783 26.7773 7.42466 23.7949 6.0458 20.8643C6.0281 21.0567 6.01608 21.2487 6.00977 21.4402" fill="#F6A700"/>
  <path fill-rule="evenodd" clip-rule="evenodd" d="M6.04711 20.8466C7.50988 23.8419 8.84623 26.8951 10.0562 30.0063C10.1877 30.1054 10.3206 30.2004 10.4551 30.2917C9.15708 26.9079 7.7078 23.5906 6.10718 20.3398C6.08252 20.5081 6.06355 20.6777 6.04395 20.8479" fill="#F6A700"/>
  <path fill-rule="evenodd" clip-rule="evenodd" d="M6.10966 20.327C7.88022 23.7863 9.41109 27.2205 10.7206 30.4659C10.8472 30.5453 10.9736 30.6219 11.1 30.6957C9.63554 27.0092 7.99713 23.4008 6.18491 19.8701C6.15519 20.0218 6.12991 20.1747 6.1084 20.327" fill="#F6A700"/>
  <path fill-rule="evenodd" clip-rule="evenodd" d="M6.1875 19.8621C8.08961 23.439 9.82109 27.1009 11.3822 30.8478C11.5029 30.9117 11.6237 30.9726 11.7464 31.0314C10.1166 27.0779 8.29122 23.21 6.27728 19.4424C6.24441 19.5818 6.21405 19.7214 6.18876 19.8621" fill="#F6A700"/>
  <path fill-rule="evenodd" clip-rule="evenodd" d="M6.27832 19.4375C8.38736 23.2507 10.3084 27.1609 12.0414 31.1681C12.1582 31.2193 12.2762 31.2681 12.3956 31.3146C10.5991 27.1233 8.59053 23.0282 6.37781 19.0459C6.34268 19.1738 6.30959 19.3038 6.27853 19.4356" fill="#F6A700"/>
  <path fill-rule="evenodd" clip-rule="evenodd" d="M6.37793 19.0454C8.68771 23.0658 10.7955 27.1951 12.7013 31.4331C12.8137 31.4729 12.9273 31.5104 13.0421 31.5458C11.0786 27.1454 8.89017 22.8516 6.48543 18.6816C6.44685 18.8038 6.41165 18.9255 6.37793 19.0471" fill="#F6A700"/>
  <path fill-rule="evenodd" clip-rule="evenodd" d="M6.4873 18.678C8.99221 22.8803 11.2877 27.2067 13.3652 31.6412C13.4753 31.6719 13.5865 31.6995 13.6985 31.7266C11.5645 27.141 9.19623 22.6706 6.60366 18.334C6.56256 18.4479 6.52398 18.5617 6.48773 18.677" fill="#F6A700"/>
  <path fill-rule="evenodd" clip-rule="evenodd" d="M14.0299 31.7998C14.1378 31.8216 14.2459 31.8419 14.3543 31.8605C12.0488 27.1172 9.50422 22.4967 6.73062 18.0174L6.7243 18.0078C6.68214 18.1154 6.64209 18.2242 6.60352 18.3329C9.29807 22.6938 11.7733 27.1824 14.029 31.7985" fill="#F6A700"/>
  <path d="M14.6954 31.9113C14.8008 31.926 14.9062 31.9395 15.0116 31.9491C12.5298 27.0672 9.80726 22.3146 6.85446 17.7091L6.84815 17.7002C6.80388 17.8021 6.76173 17.9047 6.72168 18.0079L6.72737 18.0175C9.60452 22.5146 12.2603 27.1456 14.6948 31.9106L14.6954 31.9113Z" fill="#F6A700"/>
  <path d="M15.3641 31.9784C15.466 31.9854 15.5691 31.989 15.6699 31.9938C12.9153 26.829 10.0015 21.9362 6.99228 17.4177L6.98469 17.4062C6.93917 17.5035 6.8949 17.6021 6.85254 17.7006L6.85759 17.7095C9.91429 22.3269 12.7494 27.0843 15.3631 31.9816" fill="#F6A700"/>
  <path d="M16.0335 32.0001C16.1328 32.0001 16.2321 31.997 16.332 31.9938C13.3923 26.7335 10.3015 21.7431 7.12711 17.1317C7.12689 17.1297 7.12689 17.1278 7.12711 17.126C7.07968 17.2187 7.03351 17.3128 6.98926 17.4069L6.99683 17.4183C10.5696 22.6184 13.6105 27.6691 16.0393 31.9997" fill="#F6A700"/>
  <path d="M16.6982 31.9755C16.795 31.9678 16.8925 31.9601 16.9898 31.95C13.9672 26.7781 10.724 21.7492 7.26004 16.8633C7.21325 16.9503 7.1671 17.0379 7.12305 17.1256V17.1309C10.528 21.936 13.7198 26.8841 16.6985 31.9751" fill="#F6A700"/>
  <path fill-rule="evenodd" clip-rule="evenodd" d="M17.6425 31.8618C14.4387 26.6355 11.0268 21.5495 7.40693 16.6035C7.35823 16.6867 7.31082 16.7712 7.26465 16.8557C10.8298 21.7317 14.1946 26.7486 17.3593 31.9063C17.4535 31.8928 17.549 31.8787 17.6438 31.8622" fill="#F6A700"/>
  <path fill-rule="evenodd" clip-rule="evenodd" d="M18.2903 31.7319C14.9074 26.471 11.3305 21.3459 7.55963 16.3564C7.50955 16.4371 7.46032 16.5183 7.41211 16.5997C11.1331 21.5285 14.6679 26.5937 18.0164 31.7952C18.108 31.7754 18.1998 31.7549 18.2903 31.7312" fill="#F6A700"/>
  <path fill-rule="evenodd" clip-rule="evenodd" d="M18.9325 31.5542C15.3691 26.2778 11.63 21.1298 7.71545 16.1104C7.66366 16.1876 7.61258 16.2662 7.5625 16.3459C11.9389 21.9446 15.7195 27.2765 18.6643 31.6313L18.9325 31.5506" fill="#F6A700"/>
  <path fill-rule="evenodd" clip-rule="evenodd" d="M19.3015 31.4305C19.3877 31.4005 19.4729 31.3665 19.5583 31.3359L19.4003 31.1119C15.7112 25.9187 11.8702 20.8413 7.87721 15.8799C7.82415 15.9546 7.77165 16.0305 7.71973 16.1076C11.7333 21.0958 15.5941 26.2038 19.302 31.4318" fill="#F6A700"/>
  <path fill-rule="evenodd" clip-rule="evenodd" d="M19.9246 31.186C20.0081 31.1502 20.0897 31.1125 20.1731 31.0753L19.8539 30.6472C16.0433 25.5476 12.1056 20.5497 8.04049 15.6533C7.98615 15.7263 7.93238 15.8005 7.87988 15.8747C12.0267 20.8705 16.0416 25.9743 19.9246 31.186Z" fill="#F6A700"/>
  <path fill-rule="evenodd" clip-rule="evenodd" d="M20.7607 30.7742C17.1836 26.2117 12.9115 20.9289 8.20629 15.4355C8.15067 15.5066 8.09562 15.5783 8.04199 15.6507C12.3105 20.6425 16.471 25.7263 20.523 30.9017C20.6021 30.8608 20.6817 30.8192 20.7607 30.7738" fill="#F6A700"/>
  <path d="M21.3357 30.4286C17.1046 25.2855 12.7861 20.2168 8.38034 15.2225C8.32345 15.2915 8.26655 15.361 8.21094 15.4317C12.5951 20.4036 16.895 25.4507 21.1105 30.5728C21.1869 30.5263 21.2622 30.4789 21.3362 30.4308L21.3357 30.4286ZM21.8928 30.0468C17.5085 24.9814 13.063 19.9713 8.55613 15.0164C8.49668 15.0803 8.43922 15.1514 8.38233 15.2205C13.319 20.6417 17.8604 25.7969 21.6765 30.2014C21.7485 30.1515 21.8206 30.0996 21.8921 30.0465L21.8928 30.0468ZM22.4208 29.6229C18.4801 25.2951 13.797 20.2042 8.7383 14.8152C8.67828 14.8791 8.61813 14.9471 8.55996 15.013C13.6081 20.389 18.2822 25.4712 22.2184 29.7931C22.2874 29.7381 22.3554 29.6818 22.4226 29.6225L22.4208 29.6229ZM22.9234 29.1638C18.2708 24.3023 13.606 19.4533 8.92927 14.6166C8.86599 14.6805 8.80285 14.7446 8.74582 14.8086C13.8889 20.1269 18.6855 25.1171 22.7332 29.3449C22.7963 29.2853 22.8596 29.2233 22.9229 29.1612L22.9234 29.1638ZM23.3926 28.6705C19.242 24.5489 14.3414 19.6638 9.11896 14.4254C9.05568 14.4894 8.99255 14.5496 8.92927 14.6129C14.1573 19.8558 19.0592 24.7429 23.2143 28.867C23.2776 28.8029 23.3345 28.739 23.3946 28.6711L23.3926 28.6705ZM23.8309 28.1484C18.9594 23.548 14.1216 18.9122 9.31745 14.2411C9.25431 14.3006 9.19103 14.3615 9.12407 14.4225C14.416 19.5738 19.4146 24.3424 23.6639 28.3571C23.7208 28.288 23.7766 28.2185 23.8309 28.1491V28.1484ZM24.233 27.5987C19.2735 23.1472 14.369 18.6339 9.51991 14.0589L9.32128 14.2362C14.185 18.8253 19.1044 23.3527 24.0793 27.8187L24.2324 27.5992L24.233 27.5987ZM24.5973 27.0232C19.5677 22.7292 14.6118 18.3495 9.72974 13.884C9.66093 13.939 9.59283 13.9979 9.52558 14.0562C14.4279 18.5413 19.4057 22.9401 24.4593 27.253C24.506 27.1767 24.5528 27.1006 24.5977 27.0232H24.5973ZM24.9215 26.4235C19.8396 22.2955 14.8476 18.0577 9.94568 13.71C9.87602 13.7655 9.80466 13.8207 9.7357 13.8783C14.6636 18.2502 19.6838 22.5121 24.7965 26.6635C24.8387 26.5835 24.8808 26.5028 24.9229 26.4222" fill="#F6A700"/>
  <path fill-rule="evenodd" clip-rule="evenodd" d="M25.0943 26.0649C25.1316 25.9818 25.1681 25.8972 25.2031 25.8127L24.8325 25.5267C19.8441 21.6606 14.9562 17.667 10.1687 13.5459C10.0949 13.5992 10.0225 13.654 9.95117 13.7092C14.8897 17.9625 19.9374 22.0812 25.0943 26.0649Z" fill="#F6A700"/>
  <path fill-rule="evenodd" clip-rule="evenodd" d="M25.3489 25.4382C25.3818 25.3517 25.4122 25.2654 25.4418 25.1771C25.3882 25.138 25.3344 25.0996 25.2812 25.0586C20.2061 21.3182 15.2446 17.426 10.3967 13.3818C10.3217 13.4344 10.2471 13.4875 10.1729 13.5412C15.0393 17.6052 20.025 21.5179 25.1301 25.2795L25.3489 25.4413" fill="#F6A700"/>
  <path fill-rule="evenodd" clip-rule="evenodd" d="M25.6393 24.5285C21.3628 21.5302 16.1289 17.6805 10.6295 13.2236C10.5531 13.2735 10.4759 13.3253 10.3994 13.3784C15.3219 17.3614 20.3762 21.1683 25.5621 24.7992C25.5893 24.7096 25.6149 24.6194 25.6387 24.5285" fill="#F6A700"/>
  <path fill-rule="evenodd" clip-rule="evenodd" d="M25.796 23.8715C20.6896 20.4616 15.7164 16.8612 10.876 13.0703C10.7957 13.1176 10.716 13.1688 10.6377 13.2195C15.5307 17.0564 20.5629 20.6998 25.7347 24.1497C25.7568 24.0563 25.7768 23.9635 25.7978 23.8693" fill="#F6A700"/>
  <path fill-rule="evenodd" clip-rule="evenodd" d="M25.9077 23.2018C20.8458 19.9796 15.9202 16.5526 11.1307 12.9209C11.0464 12.9683 10.9638 13.0168 10.8828 13.0668C16.302 17.1941 21.5174 20.7224 25.8653 23.4881C25.8805 23.3928 25.8951 23.2961 25.9076 23.2001" fill="#F6A700"/>
  <path fill-rule="evenodd" clip-rule="evenodd" d="M25.9748 22.5277C20.979 19.4942 16.1205 16.2447 11.3995 12.7793H11.3938C11.3071 12.8248 11.2212 12.8721 11.1357 12.9202C15.9274 16.4397 20.8658 19.7411 25.9508 22.8241C25.9613 22.7249 25.9691 22.6257 25.9761 22.5264" fill="#F6A700"/>
  <path fill-rule="evenodd" clip-rule="evenodd" d="M25.9944 22.1518L25.9995 21.8479C21.0899 19.0023 16.3171 15.9339 11.6808 12.6425L11.6703 12.6348C11.5771 12.6804 11.4852 12.7272 11.3945 12.7749H11.4002C15.9278 16.0083 20.8277 19.1564 25.9945 22.1503" fill="#F6A700"/>
  <path d="M25.9956 21.481C25.9918 21.3768 25.9867 21.2724 25.9797 21.1681C21.174 18.5066 16.5007 15.6172 11.9596 12.5C11.8636 12.5426 11.7699 12.5883 11.6719 12.635L11.6834 12.6427C16.1202 15.7077 20.9243 18.674 25.9944 21.481" fill="#F6A700"/>
  <path fill-rule="evenodd" clip-rule="evenodd" d="M25.9527 20.8097C25.942 20.7021 25.9306 20.594 25.9165 20.4864C21.2402 18.0121 16.6924 15.3084 12.2731 12.3755L12.2635 12.3691C12.1624 12.4118 12.0619 12.4544 11.9619 12.4971L11.9709 12.5023C16.4897 15.5088 21.1562 18.2815 25.9527 20.8097Z" fill="#F6A700"/>
  <path d="M25.8632 20.1385C25.8454 20.0275 25.8259 19.9174 25.8044 19.8078C21.2747 17.512 16.8613 14.988 12.5809 12.2451C12.4735 12.2849 12.3673 12.3258 12.2617 12.3693L12.2711 12.3758C16.6679 15.1984 21.2057 17.7896 25.8663 20.139" fill="#F6A700"/>
  <path fill-rule="evenodd" clip-rule="evenodd" d="M25.6465 19.1324C21.2892 17.0155 17.04 14.6772 12.9155 12.127C12.803 12.1647 12.6903 12.2038 12.5791 12.2454C16.8357 14.8845 21.226 17.2963 25.7317 19.471C25.7051 19.3572 25.677 19.2439 25.6474 19.1311" fill="#F6A700"/>
  <path fill-rule="evenodd" clip-rule="evenodd" d="M25.4445 18.4553C21.2848 16.5163 17.224 14.367 13.2772 12.0156C13.157 12.0501 13.0363 12.0866 12.9189 12.1263C17.012 14.5737 21.229 16.8022 25.5528 18.8028C25.5173 18.6863 25.4807 18.5704 25.4414 18.4553" fill="#F6A700"/>
  <path fill-rule="evenodd" clip-rule="evenodd" d="M25.1859 17.7815C21.2525 16.0189 17.4116 14.0631 13.6636 11.9141C13.5371 11.9454 13.4106 11.978 13.2842 12.0152C17.1921 14.2672 21.2125 16.3127 25.3295 18.1438C25.2835 18.0221 25.2355 17.9018 25.1854 17.7828" fill="#F6A700"/>
  <path fill-rule="evenodd" clip-rule="evenodd" d="M24.8705 17.1116C21.1926 15.5231 17.5961 13.7597 14.0809 11.8213C13.9432 11.8486 13.8061 11.8789 13.6699 11.9122C17.3685 13.9618 21.1675 15.8201 25.052 17.4802C24.9945 17.3522 24.9338 17.2319 24.8712 17.1096" fill="#F6A700"/>
  <path fill-rule="evenodd" clip-rule="evenodd" d="M24.4976 16.4386C21.1104 15.0267 17.792 13.4613 14.5427 11.7422C14.3916 11.7636 14.2418 11.7909 14.0918 11.8197C17.5528 13.663 21.0965 15.332 24.7226 16.827C24.6505 16.696 24.5755 16.5665 24.4976 16.4386Z" fill="#F6A700"/>
  <path fill-rule="evenodd" clip-rule="evenodd" d="M24.0412 15.7631C20.9877 14.5314 17.9899 13.1706 15.0481 11.6807C14.8815 11.6969 14.7154 11.7171 14.5498 11.7414C17.738 13.3692 20.9953 14.8453 24.3218 16.1695C24.2317 16.0323 24.1381 15.8967 24.0412 15.7631Z" fill="#F6A700"/>
  <path fill-rule="evenodd" clip-rule="evenodd" d="M23.4958 15.0758C20.8342 14.0316 18.2144 12.8862 15.6365 11.6396C15.4468 11.6473 15.2571 11.6595 15.0674 11.6774C17.9403 13.0798 20.8682 14.3559 23.8512 15.5059C23.7366 15.3587 23.6181 15.2148 23.4958 15.0745" fill="#F6A700"/>
  <path fill-rule="evenodd" clip-rule="evenodd" d="M23.0714 14.6145C22.988 14.5301 22.9029 14.4475 22.8185 14.3657C20.6298 13.5272 18.4695 12.6183 16.3377 11.6386C16.1151 11.6309 15.8925 11.6309 15.6699 11.6386C18.1664 12.8013 20.7042 13.868 23.2833 14.8386C23.2146 14.7639 23.1446 14.6901 23.0734 14.6171" fill="#F6A700"/>
  <path d="M21.9061 13.5967C20.3426 13.0066 18.7931 12.3785 17.2578 11.7126C16.9685 11.6754 16.6785 11.6511 16.3877 11.6396C18.4225 12.5416 20.484 13.3766 22.5719 14.1446C22.3582 13.9534 22.1366 13.7719 21.9073 13.5999L21.9061 13.5967ZM19.9832 12.4758C19.7162 12.373 19.4491 12.2689 19.1821 12.1635C18.5894 11.9615 17.9789 11.8166 17.359 11.731C18.7593 12.312 20.1716 12.8615 21.5956 13.3795C21.0864 13.0281 20.546 12.7255 19.9812 12.4758" fill="#F6A700"/>
  <path d="M25.4803 6.94337C25.3774 6.672 25.2755 6.40043 25.1747 6.12864C24.9303 5.55406 24.6341 5.00365 24.2893 4.48449C24.7977 5.93516 25.3371 7.37359 25.9075 8.79995C25.8233 8.16941 25.6812 7.54806 25.4832 6.94401L25.4803 6.94337ZM25.9208 8.90434C25.2682 7.34056 24.6523 5.76192 24.0731 4.16833C23.9044 3.93494 23.7261 3.70924 23.5381 3.49121C24.291 5.61601 25.1092 7.71564 25.9929 9.79006C25.9815 9.49396 25.9577 9.19858 25.9214 8.90363" fill="#F6A700"/>
  <path fill-rule="evenodd" clip-rule="evenodd" d="M25.9913 9.83987C25.0297 7.66982 24.1371 5.47038 23.3134 3.24148C23.1641 3.07792 23.0099 2.91963 22.8506 2.7666C23.8007 5.38973 24.8475 7.97468 25.9911 10.5212C25.998 10.2941 25.998 10.0675 25.9911 9.8403" fill="#F6A700"/>
  <path fill-rule="evenodd" clip-rule="evenodd" d="M25.9912 10.5543C24.7686 7.93019 23.6436 5.2623 22.6163 2.55042C22.4794 2.42626 22.3384 2.30594 22.1934 2.18945C23.3223 5.22306 24.5759 8.20389 25.9544 11.1321C25.9716 10.9401 25.9829 10.7482 25.9905 10.5562" fill="#F6A700"/>
  <path fill-rule="evenodd" clip-rule="evenodd" d="M25.9528 11.1525C24.4903 8.15819 23.1538 5.10513 21.9432 1.99345C21.8124 1.8949 21.6797 1.80146 21.5449 1.70801C22.8437 5.09233 24.2934 8.40992 25.8941 11.6607C25.918 11.4911 25.9378 11.3221 25.9541 11.1486" fill="#F6A700"/>
  <path fill-rule="evenodd" clip-rule="evenodd" d="M25.8889 11.672C24.2025 8.36451 22.6655 4.9849 21.2778 1.53318C21.1514 1.45446 21.0249 1.37765 20.8984 1.30469C22.3638 4.99109 24.0027 8.59958 25.8155 12.1302C25.8446 11.978 25.87 11.8251 25.892 11.6716" fill="#F6A700"/>
  <path fill-rule="evenodd" clip-rule="evenodd" d="M25.8141 12.138C23.9119 8.56045 22.1806 4.89855 20.6201 1.15243C20.4999 1.08842 20.3784 1.02719 20.2559 0.96875C21.8849 4.92319 23.71 8.79193 25.7244 12.5602C25.7573 12.4215 25.7877 12.2828 25.8142 12.1416" fill="#F6A700"/>
  <path fill-rule="evenodd" clip-rule="evenodd" d="M25.7221 12.5623C23.6144 8.74909 21.6935 4.83834 19.9596 0.829805C19.8427 0.777966 19.7244 0.72933 19.6055 0.682617C21.4021 4.87383 23.4106 8.96865 25.6232 12.9508C25.658 12.8228 25.6922 12.6947 25.7226 12.5623" fill="#F6A700"/>
  <path fill-rule="evenodd" clip-rule="evenodd" d="M25.6212 12.9546C23.312 8.93497 21.2041 4.80609 19.2978 0.568018C19.1855 0.527911 19.0718 0.489929 18.957 0.454102C20.9209 4.85408 23.1092 9.14793 25.5134 13.318C25.5513 13.1958 25.5879 13.0742 25.6215 12.9527" fill="#F6A700"/>
  <path fill-rule="evenodd" clip-rule="evenodd" d="M25.5146 13.3237C23.0097 9.12074 20.7144 4.79328 18.6373 0.357801C18.5259 0.327086 18.4147 0.298912 18.3027 0.272461C20.4369 4.85801 22.8051 9.32824 25.3975 13.665C25.4396 13.5499 25.4772 13.436 25.5146 13.322" fill="#F6A700"/>
  <path fill-rule="evenodd" clip-rule="evenodd" d="M17.9712 0.198193C17.8637 0.176855 17.7557 0.157024 17.6475 0.138672C19.9527 4.88162 22.4969 9.50169 25.2702 13.9805L25.2758 13.9913C25.3195 13.883 25.3587 13.7743 25.3973 13.6649C22.7032 9.30396 20.2278 4.816 17.9712 0.200749" fill="#F6A700"/>
  <path fill-rule="evenodd" clip-rule="evenodd" d="M17.3045 0.0865943C17.1991 0.0718611 17.0937 0.0597128 16.9883 0.0488281C19.4702 4.93065 22.1927 9.68326 25.1454 14.2887L25.1511 14.2995C25.1948 14.1964 25.2384 14.0947 25.2775 13.9911L25.2718 13.982C22.3955 9.48179 19.7399 4.85002 17.3045 0.0865943Z" fill="#F6A700"/>
  <path fill-rule="evenodd" clip-rule="evenodd" d="M16.6374 0.0189553C16.535 0.0125509 16.4325 0.00828608 16.3301 0.00488281C19.0863 5.16966 21.9983 10.0599 25.0088 14.5802L25.0159 14.5908C25.0626 14.4936 25.1062 14.3988 25.1492 14.2977L25.1436 14.2871C22.0868 9.67058 19.2515 4.91452 16.6374 0.0189553Z" fill="#F6A700"/>
  <path d="M15.9676 0C15.8677 0 15.7674 2.88201e-07 15.668 0.00575856C18.609 5.26655 21.6978 10.2565 24.8728 14.8684L24.8773 14.873C24.924 14.7801 24.9702 14.686 25.0142 14.592L25.0073 14.5813C21.4335 9.38167 18.3933 4.33066 15.9662 0H15.9676Z" fill="#F6A700"/>
  <path d="M15.3019 0.0224609C15.2046 0.0295116 15.1071 0.0384719 15.0098 0.0480643C18.0323 5.22096 21.2755 10.2503 24.7395 15.1361C24.7863 15.0481 24.8323 14.9602 24.8774 14.8723L24.8729 14.8679C21.4722 10.0619 18.2823 5.11345 15.3032 0.0224609" fill="#F6A700"/>
  <path fill-rule="evenodd" clip-rule="evenodd" d="M14.3576 0.138581C17.5613 5.36481 20.9731 10.4509 24.5925 15.3967C24.6419 15.3142 24.6899 15.2297 24.7354 15.1446C21.1703 10.2691 17.8054 5.25282 14.6405 0.0957031C14.5456 0.108498 14.4508 0.123217 14.3564 0.138366" fill="#F6A700"/>
  <path fill-rule="evenodd" clip-rule="evenodd" d="M13.708 0.268807C17.0911 5.53045 20.668 10.656 24.4388 15.6455C24.4906 15.5648 24.54 15.4835 24.588 15.4022C20.8661 10.4738 17.3313 5.40906 13.9837 0.208008C13.8915 0.227207 13.7997 0.247052 13.708 0.272009" fill="#F6A700"/>
  <path fill-rule="evenodd" clip-rule="evenodd" d="M13.0693 0.443654C16.0356 4.83661 19.8575 10.2274 24.2838 15.8882C24.3358 15.8099 24.3867 15.7312 24.4369 15.6519C20.5658 10.6868 16.8654 5.59145 13.3361 0.366211C13.2468 0.391168 13.1583 0.416772 13.0698 0.443654" fill="#F6A700"/>
  <path fill-rule="evenodd" clip-rule="evenodd" d="M12.6968 0.567383C12.6107 0.598098 12.5247 0.631384 12.4395 0.662745L12.5981 0.886097C15.6643 5.19904 19.5999 10.5124 24.123 16.118L24.2792 15.8895C20.3082 10.9545 16.4864 5.90169 12.8137 0.731213L12.6968 0.567383Z" fill="#F6A700"/>
  <path fill-rule="evenodd" clip-rule="evenodd" d="M12.0737 0.814453C11.991 0.849663 11.9087 0.886784 11.8271 0.925182L12.1434 1.35333C15.9534 6.45285 19.8909 11.451 23.956 16.3479C24.0104 16.2732 24.0647 16.2007 24.1167 16.1264C19.9713 11.1298 15.9571 6.02576 12.0737 0.814453Z" fill="#F6A700"/>
  <path fill-rule="evenodd" clip-rule="evenodd" d="M11.2383 1.22471C14.8142 5.78854 19.0874 11.0717 23.7914 16.5633C23.8483 16.4923 23.9026 16.4206 23.9564 16.3484C19.6881 11.3573 15.5283 6.27408 11.4766 1.09863C11.397 1.13959 11.3179 1.18119 11.2388 1.22662" fill="#F6A700"/>
  <path d="M10.6602 1.57016C14.8938 6.71403 19.2135 11.7832 23.6192 16.7778C23.6761 16.7086 23.733 16.6391 23.7888 16.5685C19.4044 11.5965 15.1047 6.54998 10.889 1.42871C10.8126 1.47415 10.7379 1.5215 10.6627 1.57016H10.6602ZM10.1074 1.95415C13.9312 6.37206 18.4903 11.5434 23.4421 16.9845L23.6148 16.7819C18.68 11.3589 14.1368 6.20438 10.3212 1.79926C10.2485 1.84983 10.1764 1.90166 10.105 1.95415H10.1074ZM9.57439 2.37782C13.5145 6.70678 18.1976 11.7964 23.2556 17.1848C23.3189 17.1209 23.3765 17.0568 23.4348 16.9878C18.8457 12.0953 14.2928 7.16857 9.77628 2.20759C9.70747 2.26263 9.63937 2.32022 9.5734 2.37825L9.57439 2.37782ZM9.07129 2.83692C13.727 7.697 18.3935 12.5454 23.0711 17.3822C23.1344 17.3182 23.1946 17.2541 23.2546 17.1901C18.5807 12.3563 13.9184 7.51046 9.26779 2.65239C9.20451 2.71255 9.13811 2.77399 9.07483 2.83607L9.07129 2.83692ZM8.60508 3.32822C12.7557 7.44987 17.6569 12.3336 22.8787 17.5734C22.942 17.5093 23.0052 17.4492 23.0684 17.3851C17.8428 12.1435 12.9372 7.25658 8.78526 3.13175L8.60508 3.32822ZM8.16752 3.85089C12.4117 7.85855 17.3995 12.6188 22.6815 17.7587C22.7447 17.6992 22.8118 17.639 22.8756 17.5774C17.5836 12.4267 12.5856 7.65736 8.33508 3.64267C8.27819 3.71115 8.22243 3.78028 8.16752 3.85067V3.85089ZM7.767 4.40172C12.7241 8.85224 17.6283 13.3649 22.4794 17.9395L22.6778 17.7623C17.8138 13.1742 12.8943 8.64704 7.91966 4.1807C7.86773 4.25302 7.81651 4.32663 7.76657 4.40087L7.767 4.40172ZM7.40234 4.97687C12.4337 9.27083 17.3895 13.6506 22.2698 18.116L22.4747 17.9438C17.5715 13.4583 12.5938 9.05902 7.54141 4.74582C7.49402 4.82326 7.44721 4.89943 7.40234 4.97687Z" fill="#F6A700"/>
  <path fill-rule="evenodd" clip-rule="evenodd" d="M7.08001 5.57688C12.1622 9.70444 17.1539 13.9414 22.055 18.2879C22.1265 18.2329 22.1973 18.1779 22.2658 18.1203C17.3385 13.7477 12.318 9.48603 7.20458 5.33496C7.16243 5.41496 7.12028 5.4956 7.07812 5.57688" fill="#F6A700"/>
  <path d="M6.90972 5.93457C6.87178 6.01777 6.83596 6.10225 6.80033 6.18673L7.16919 6.47217C11.3059 9.68046 16.4158 13.7803 21.835 18.453C21.9076 18.3996 21.9804 18.3441 22.0525 18.2892C17.1127 14.0366 12.0645 9.91941 6.90805 5.93713L6.90972 5.93457ZM6.65511 6.56178C6.62286 6.64817 6.59187 6.73585 6.56152 6.82289L6.72339 6.94129C11.7998 10.6818 16.7617 14.574 21.6093 18.6181C21.6838 18.5663 21.7591 18.5132 21.8337 18.4587C16.9637 14.3939 11.9766 10.4809 6.87242 6.71963L6.65258 6.5573" fill="#F6A700"/>
  <path fill-rule="evenodd" clip-rule="evenodd" d="M6.35938 7.46958C10.6359 10.4692 15.8703 14.3176 21.3691 18.7762L21.5987 18.6214C16.6763 14.6386 11.6225 10.8315 6.43735 7.2002C6.41017 7.2898 6.38466 7.37941 6.36085 7.46958" fill="#F6A700"/>
  <path fill-rule="evenodd" clip-rule="evenodd" d="M6.20498 8.1281C11.3105 11.5358 16.2836 15.1354 21.1242 18.9268C21.2052 18.8781 21.285 18.8276 21.3646 18.7763C16.4703 14.9402 11.4369 11.2973 6.26441 7.84766C6.24227 7.94056 6.22226 8.0339 6.20117 8.1281" fill="#F6A700"/>
  <path fill-rule="evenodd" clip-rule="evenodd" d="M6.09208 8.79817C11.1533 12.0212 16.079 15.4488 20.8691 19.0808C20.9519 19.0335 21.0355 18.9849 21.1169 18.9349C16.2678 15.252 11.2737 11.778 6.13446 8.5127C6.11864 8.60804 6.1041 8.70469 6.09082 8.80003" fill="#F6A700"/>
  <path fill-rule="evenodd" clip-rule="evenodd" d="M6.02344 9.47217C11.0197 12.5058 15.8785 15.7553 20.5995 19.2206L20.6044 19.225C20.6911 19.1784 20.7765 19.1323 20.8618 19.083C16.0708 15.5609 11.1332 12.2585 6.04873 9.17578C6.03819 9.27573 6.02977 9.37423 6.02344 9.47274" fill="#F6A700"/>
  <path fill-rule="evenodd" clip-rule="evenodd" d="M6.00569 9.84711C6.00569 9.94835 6.00064 10.0499 6 10.1511C10.9094 12.9966 15.6821 16.065 20.3179 19.3564L20.3286 19.3648C20.4215 19.32 20.5132 19.2726 20.6043 19.224L20.5999 19.2207C16.0717 15.9875 11.1703 12.8421 6.00548 9.84668" fill="#F6A700"/>
  <path d="M6.00684 10.5176C6.00684 10.6233 6.01507 10.7269 6.02202 10.8312C10.8278 13.4915 15.498 16.3794 20.0327 19.4949L20.0415 19.5C20.1382 19.4558 20.2312 19.4117 20.3299 19.3644L20.3193 19.3573C15.8807 16.2924 11.0782 13.3253 6.00684 10.5176Z" fill="#F6A700"/>
  <path d="M6.04883 11.1904C6.05937 11.298 6.07159 11.4048 6.08614 11.5104C10.7625 13.9851 15.3103 16.6892 19.7293 19.6231L19.7388 19.6281C19.8394 19.5879 19.9406 19.5444 20.0412 19.5001L20.0322 19.4937C15.5129 16.4892 10.846 13.7179 6.05009 11.1904" fill="#F6A700"/>
  <path fill-rule="evenodd" clip-rule="evenodd" d="M6.13564 11.8605C6.15461 11.9712 6.1742 12.0806 6.19887 12.1901C10.7259 14.4865 15.1329 17.0073 19.4198 19.7528C19.5252 19.7144 19.6329 19.6734 19.7359 19.6286L19.7271 19.6235C15.3306 16.8004 10.7927 14.2092 6.13184 11.8604" fill="#F6A700"/>
  <path d="M6.3503 12.8688C10.7072 14.985 14.9556 17.3226 19.0792 19.8729C19.1917 19.8351 19.3049 19.7955 19.4164 19.7533C15.1597 17.1144 10.7694 14.7028 6.26367 12.5283C6.29086 12.6422 6.31805 12.7549 6.34904 12.8675" fill="#F6A700"/>
  <path fill-rule="evenodd" clip-rule="evenodd" d="M6.55625 13.5441C10.7145 15.4833 14.7739 17.6325 18.7193 19.9838C18.8394 19.9479 18.9595 19.9114 19.0791 19.873C14.9854 17.4254 10.7681 15.1965 6.44434 13.1953C6.47975 13.3118 6.51642 13.4275 6.55625 13.5428" fill="#F6A700"/>
  <path fill-rule="evenodd" clip-rule="evenodd" d="M6.81479 14.2165C10.7487 15.98 14.5892 17.9362 18.3359 20.0853C18.4623 20.0539 18.5889 20.0213 18.7184 19.9835C14.8104 17.7312 10.7894 15.6858 6.67188 13.8555C6.71614 13.9778 6.7642 14.0969 6.81479 14.2165Z" fill="#F6A700"/>
  <path fill-rule="evenodd" clip-rule="evenodd" d="M7.12857 14.8876C10.8071 16.4757 14.4049 18.2386 17.9219 20.1763C18.0598 20.1502 18.1976 20.1188 18.3342 20.0854C14.6354 18.0363 10.8366 16.1779 6.95215 14.5176C7.01032 14.6455 7.07039 14.7664 7.13236 14.8894" fill="#F6A700"/>
  <path fill-rule="evenodd" clip-rule="evenodd" d="M7.50609 15.5613C10.6937 16.8957 14.0646 18.4535 17.4608 20.2571C17.6114 20.2348 17.7615 20.209 17.9112 20.1795C14.4506 18.3359 10.9069 16.667 7.28027 15.1729C7.353 15.3008 7.42692 15.4328 7.50609 15.5568" fill="#F6A700"/>
  <path fill-rule="evenodd" clip-rule="evenodd" d="M7.95723 16.2365C11.011 17.4678 14.0089 18.8287 16.9509 20.3191C17.1173 20.3037 17.2829 20.2826 17.4492 20.2582C14.261 18.6305 11.0038 17.1545 7.67773 15.8301C7.76754 15.9676 7.86175 16.1028 7.95794 16.2365" fill="#F6A700"/>
  <path fill-rule="evenodd" clip-rule="evenodd" d="M8.50489 16.9254C11.0608 17.9301 13.7052 19.0713 16.3648 20.3599C16.5532 20.3529 16.7429 20.3407 16.9339 20.3235C14.0618 18.9207 11.1349 17.6442 8.15332 16.4941C8.26626 16.6402 8.3843 16.7839 8.50745 16.9255" fill="#F6A700"/>
  <path fill-rule="evenodd" clip-rule="evenodd" d="M8.92821 17.3844C9.01107 17.4699 9.09691 17.5527 9.18118 17.6347C11.302 18.4488 13.4778 19.355 15.6608 20.3611C15.8837 20.3688 16.1067 20.3688 16.3297 20.3611C13.8324 19.1976 11.2945 18.131 8.71582 17.1611C8.78463 17.2358 8.85429 17.3096 8.92651 17.3826" fill="#F6A700"/>
  <path d="M10.0926 18.4031C11.6567 18.9933 13.2063 19.6211 14.7415 20.2865C15.0305 20.323 15.3212 20.3474 15.6122 20.3582C13.577 19.4597 11.5152 18.6277 9.42676 17.8623C9.64298 18.0543 9.86374 18.2355 10.0926 18.4057V18.4031ZM12.0162 19.5301L12.8171 19.8405C13.4097 20.0427 14.0199 20.1874 14.6395 20.2732C13.2387 19.6925 11.8265 19.1433 10.4029 18.6258C10.9119 18.9771 11.4525 19.2795 12.0173 19.5288" fill="#F6A700"/>
</svg>
