<svg width="32" height="32" viewBox="0 0 32 32" fill="none" xmlns="http://www.w3.org/2000/svg">
<path d="M16 32C24.8366 32 32 24.8366 32 16C32 7.16344 24.8366 0 16 0C7.16345 0 0 7.16344 0 16C0 24.8366 7.16345 32 16 32Z" fill="#0052FE"/>
<path d="M21.5186 17.0438C21.0298 19.634 18.7571 21.5925 16.0252 21.5925C12.9364 21.5925 10.433 19.0892 10.433 16.0003C10.433 12.9115 12.9364 10.4081 16.0252 10.4081C18.7571 10.4081 21.0298 12.3678 21.5186 14.9568H27.1613C26.6352 9.26903 21.8503 4.81592 16.0252 4.81592C9.84755 4.81592 4.84082 9.82375 4.84082 16.0003C4.84082 22.178 9.84865 27.1847 16.0252 27.1847C21.8503 27.1847 26.6352 22.7316 27.1613 17.0438H21.5186Z" fill="white"/>
</svg>
