<svg width="31" height="32" viewBox="0 0 31 32" fill="none" xmlns="http://www.w3.org/2000/svg">
<path d="M27.2844 16L30.9997 10.8816C29.7924 7.28706 27.3538 4.24078 24.1191 2.28638C20.8844 0.33199 17.0641 -0.403337 13.3401 0.211635C9.616 0.826607 6.23048 2.75186 3.78772 5.6438C1.34496 8.53573 0.00390625 12.2062 0.00390625 16C0.00390625 19.7939 1.34496 23.4643 3.78772 26.3563C6.23048 29.2482 9.616 31.1735 13.3401 31.7884C17.0641 32.4034 20.8844 31.6681 24.1191 29.7137C27.3538 27.7593 29.7924 24.713 30.9997 21.1185L27.2844 16ZM24.1012 20.7238C22.4732 23.3798 19.2506 25.2953 15.9158 25.2953C14.3272 25.2942 12.7657 24.8818 11.3818 24.0977C9.99796 23.3136 8.83835 22.1843 8.01484 20.8187C7.19133 19.4531 6.73168 17.8973 6.68022 16.3012C6.62875 14.7051 6.9872 13.1226 7.72101 11.7062C8.45482 10.2899 9.53923 9.0875 10.8697 8.21496C12.2002 7.34242 13.7318 6.82918 15.317 6.72471C16.9021 6.62024 18.4873 6.92808 19.9197 7.61854C21.3521 8.309 22.5834 9.35879 23.4949 10.6667L27.1328 16L24.1012 20.7238Z" fill="url(#paint0_linear_2336_25017)"/>
<defs>
<linearGradient id="paint0_linear_2336_25017" x1="12.3294" y1="0.717749" x2="19.424" y2="30.9489" gradientUnits="userSpaceOnUse">
<stop stop-color="#01AEFF"/>
<stop offset="1" stop-color="#0157FF"/>
</linearGradient>
</defs>
</svg>
