<svg width="28" height="32" viewBox="0 0 28 32" fill="none" xmlns="http://www.w3.org/2000/svg">
<path d="M13.9493 0L0 7.98744V23.9623L14 31.9498L28 23.9623V7.98744L13.9493 0ZM13.9493 0L0 7.98744V23.9623L14 31.9498L28 23.9623V7.98744L13.9493 0Z" fill="white"/>
<path d="M13.9493 0L0 7.98744V23.9623L14 31.9498L28 23.9623V7.98744L13.9493 0ZM8.47101 6.93249H19.4783L20.7971 12.4584H7.2029L8.47101 6.93249ZM12.8841 23.5604L10.5 25.7708H8.47101L3.44927 17.1303L7.15218 14.4176L10.3986 16.4772V20.1444L12.8333 22.5055L12.8841 23.5604ZM11.2609 19.8932L11.6159 16.427L10.3986 13.3124H17.5L16.3333 16.427L16.6884 19.8932H13.9493H11.2609ZM19.4783 25.7206H17.5L15.1159 23.5604V22.4553L17.5507 20.0942V16.427L20.7464 14.3673L24.3986 17.0801L19.4783 25.7206Z" fill="#002D74"/>
<path d="M14.001 0V6.93249H19.4792L20.7981 12.4584H14.001V13.3124H17.5517L16.385 16.427L16.7401 19.8932H14.001V32L27.9503 24.0126V7.98744L14.001 0ZM19.4792 25.7206H17.501L15.1169 23.5604V22.4553L17.5517 20.0942V16.427L20.7474 14.3673L24.3995 17.0801L19.4792 25.7206Z" fill="url(#paint0_linear_2336_24936)"/>
<path d="M11.2609 19.8932L11.6159 16.427L10.3986 13.3124H13.9493V12.4584H7.2029L8.47101 6.93249H14V0L0 7.98744V23.9623L14 31.9498V19.8932H11.2609ZM12.8841 23.5604L10.5 25.7708H8.47101L3.44927 17.1303L7.15218 14.4176L10.3986 16.4772V20.1444L12.8333 22.5055L12.8841 23.5604Z" fill="url(#paint1_linear_2336_24936)"/>
<defs>
<linearGradient id="paint0_linear_2336_24936" x1="20.9427" y1="28.5137" x2="20.9427" y2="3.36578" gradientUnits="userSpaceOnUse">
<stop stop-color="#002D74"/>
<stop offset="1" stop-color="#002D74" stop-opacity="0"/>
</linearGradient>
<linearGradient id="paint1_linear_2336_24936" x1="6.98478" y1="28.5137" x2="6.98478" y2="3.36578" gradientUnits="userSpaceOnUse">
<stop stop-color="#002D74" stop-opacity="0"/>
<stop offset="1" stop-color="#002D74"/>
</linearGradient>
</defs>
</svg>
