<svg width="20" height="32" viewBox="0 0 20 32" fill="none" xmlns="http://www.w3.org/2000/svg">
<path d="M13.5597 9.84574C13.5597 5.25181 11.3461 1.29787 9.66046 0.0142131C9.66046 0.0142131 9.52939 -0.0593487 9.54396 0.128234C9.40561 8.99978 4.91656 11.4016 2.45178 14.6383C-3.23871 22.1122 2.04766 30.3069 7.44324 31.8186C10.4505 32.6683 6.74422 30.318 6.26728 25.3599C5.68112 19.3793 13.5597 14.8075 13.5597 9.84574Z" fill="#1B2143"/>
<path d="M16.1445 12.8654C16.1081 12.8433 16.0608 12.8249 16.028 12.8838C15.9334 13.9982 14.8084 16.3853 13.3739 18.5811C8.52443 26.0219 11.2878 29.608 12.8424 31.539C13.7453 32.6535 12.8424 31.539 15.096 30.3952C17.8812 28.6885 19.6906 25.7313 19.9564 22.4505C20.4042 17.1651 17.2622 13.8327 16.1445 12.8654Z" fill="#2CA6E0"/>
</svg>
