<?xml version="1.0" encoding="utf-8"?><svg viewBox="0 0 502.66 502.66" xmlns="http://www.w3.org/2000/svg" xmlns:xlink="http://www.w3.org/1999/xlink"><style>:root>svg{display:none}:root>svg:target{display:block}</style><svg viewBox="0 0 13 15" id="bell" xmlns="http://www.w3.org/2000/svg"><path d="M11.304 8.017c0 2.157.252 3.237 1.467 4.004a.483.483 0 01.229.407c0 .278-.246.503-.55.503H.55c-.304 0-.55-.225-.55-.503 0-.16.083-.315.229-.407 1.215-.767 1.467-1.847 1.467-4.004V5.948c0-2.14 1.672-3.921 3.886-4.314a.966.966 0 01-.212-.6C5.37.465 5.876 0 6.5 0c.624 0 1.13.463 1.13 1.034 0 .225-.08.43-.212.6 2.214.393 3.886 2.174 3.886 4.314v2.07zM7.63 13.966c0 .57-.506 1.034-1.13 1.034-.625 0-1.13-.463-1.13-1.034v-.26h2.26v.26z"/></svg><svg viewBox="0 0 15 15" id="binance" xmlns="http://www.w3.org/2000/svg"><path d="M4.588 6.304L7.5 3.39l2.915 2.915L12.11 4.61 7.5 0 2.893 4.608l1.695 1.696zM3.39 7.5L1.695 5.805 0 7.5l1.695 1.695L3.39 7.5zm1.197 1.196L7.5 11.61l2.915-2.914 1.696 1.694L7.5 15l-4.609-4.607-.002-.003 1.697-1.693zm8.718.499L15 7.5l-1.695-1.695L11.61 7.5l1.695 1.695z"/><path d="M9.22 7.498h.001l-1.72-1.72L6.23 7.049l-.146.146-.301.301-.003.003.003.002L7.5 9.22 9.22 7.5l.001-.001-.001-.001z"/></svg><svg viewBox="0 0 11 11" id="bscscan" xmlns="http://www.w3.org/2000/svg"><path d="M4.407 2.149a.574.574 0 00-.578.578.59.59 0 00.585.585l2.433.013L3.593 6.58a.582.582 0 00.005.822c.228.228.596.23.822.004l3.254-3.254.014 2.434a.59.59 0 00.584.585.573.573 0 00.579-.579L8.83 2.755a.59.59 0 00-.585-.585l-3.838-.02z"/><path fill-rule="evenodd" clip-rule="evenodd" d="M1.81 8.716a.542.542 0 00.543.543H7.29a.542.542 0 00.543-.543v-.091a.555.555 0 011.11 0v.091a1.652 1.652 0 01-1.653 1.652H2.353A1.652 1.652 0 01.701 8.716V3.78a1.652 1.652 0 011.652-1.652h.091a.555.555 0 110 1.11h-.091a.543.543 0 00-.542.542v4.937z"/></svg><svg viewBox="0 0 13 14" id="calendar" xmlns="http://www.w3.org/2000/svg"><path d="M10.778 2.2H2.222A1.21 1.21 0 001 3.4v8.4c0 .663.547 1.2 1.222 1.2h8.556A1.21 1.21 0 0012 11.8V3.4c0-.663-.547-1.2-1.222-1.2zM8.945 1v2.4M4.055 1v2.4M1 5.8h11" stroke="#728094" stroke-width="1.2" stroke-linecap="round" stroke-linejoin="round"/></svg><svg viewBox="0 0 9 9" id="close-icon" xmlns="http://www.w3.org/2000/svg"><path d="M1.942 5.68L5.68 1.942l.934.934-3.738 3.738z"/><path d="M2.877 1.942L6.615 5.68l-.934.934-3.738-3.738z"/></svg><svg viewBox="0 0 14 14" id="comment" xmlns="http://www.w3.org/2000/svg"><path d="M13.933 9.311a1.54 1.54 0 01-1.54 1.541H3.147L.066 13.934V1.608A1.54 1.54 0 011.607.067h10.785a1.54 1.54 0 011.541 1.54v7.704z"/></svg><svg viewBox="0 0 11 11" id="copy" xmlns="http://www.w3.org/2000/svg"><path fill-rule="evenodd" clip-rule="evenodd" d="M5.288 5.054a.234.234 0 00-.234.234v3.424c0 .13.104.234.234.234h3.424c.13 0 .234-.104.234-.234V5.288a.234.234 0 00-.234-.234H5.288zM4 5.288C4 4.577 4.577 4 5.288 4h3.424C9.423 4 10 4.577 10 5.288v3.424C10 9.423 9.423 10 8.712 10H5.288A1.288 1.288 0 014 8.712V5.288z"/><path fill-rule="evenodd" clip-rule="evenodd" d="M2.288 2.054a.234.234 0 00-.234.234v3.424a.234.234 0 00.234.234h.38a.527.527 0 010 1.054h-.38A1.288 1.288 0 011 5.712V2.288A1.288 1.288 0 012.288 1h3.424A1.288 1.288 0 017 2.288v.38a.527.527 0 01-1.054 0v-.38a.234.234 0 00-.234-.234H2.288z"/></svg><svg viewBox="0 0 150 126" id="dex-bg" xmlns="http://www.w3.org/2000/svg"><path d="M147.069 77.483c-2.651 4.97-7.451 8.85-8.781 14.319-.576 2.36-.442 4.835-.724 7.25-1.044 8.459-7.419 15.51-15.023 19.506-.319.173-.641.332-.964.49-4.988 2.425-10.393 3.747-15.903 4.572-3.351.498-6.741.807-10.103 1.081a421.28 421.28 0 01-42.022 1.204c-6.778-.137-13.69-.458-20.065-2.695a19.694 19.694 0 01-.971-.361c-5.173-1.999-9.763-5.274-13.828-9.029l-.184-.173c-6.065-5.635-11.075-12.441-14.317-20.04A52.046 52.046 0 011.88 59.299C3.797 52.543 7.144 46.1 7.676 39.122c.388-5.26-.855-10.586-.025-15.796C9.292 12.986 18.957 5.372 29.161 2.81 39.368.25 50.108 1.708 60.53 3.17c5.093.721 11.052 2.656 16.091 1.107C82.805 2.37 88.021.014 94.694 0c2.728 0 5.51.285 8.01 1.373 3.028 1.315 5.434 3.7 7.886 5.894 6.865 6.125 14.69 11.076 21.706 17.021 7.017 5.945 13.371 13.18 15.94 21.979 1.264 4.302 1.576 8.824 1.71 13.302.195 6.118-.004 12.513-2.877 17.914z"/></svg><svg viewBox="0 0 6 8" id="fill-next" xmlns="http://www.w3.org/2000/svg"><path d="M6 4L0 7.464V.536L6 4z"/></svg><svg viewBox="0 0 6 8" id="fill-prev" xmlns="http://www.w3.org/2000/svg"><path d="M0 4l6 3.464V.536L0 4z"/></svg><svg viewBox="0 0 502.664 502.664" id="icon" xmlns="http://www.w3.org/2000/svg"><path d="M153.821 358.226L0 274.337v-46.463l153.821-83.414v54.574L46.636 250.523l107.185 53.431v54.272zm26.273 29.358L282.103 115.08h32.227L212.084 387.584h-31.99zm168.749-29.358v-54.272l107.164-52.999-107.164-52.59v-53.927l153.821 83.522v46.183l-153.821 84.083z" fill="#010002"/></svg><svg viewBox="0 0 14 13" id="like" xmlns="http://www.w3.org/2000/svg"><path d="M12.92 1.56a3.69 3.69 0 00-1.195-.784 3.74 3.74 0 00-4.015.785L7 2.259l-.71-.698A3.718 3.718 0 003.685.5C2.707.5 1.77.88 1.079 1.56A3.59 3.59 0 000 4.12c0 .96.388 1.882 1.08 2.56l.71.698L7 12.5l5.21-5.12.71-.698c.343-.337.614-.736.8-1.175a3.565 3.565 0 000-2.771 3.617 3.617 0 00-.8-1.175z"/></svg><svg viewBox="0 0 15 3" id="post-more" xmlns="http://www.w3.org/2000/svg"><circle cx="1.5" cy="1.5" r="1.5"/><circle cx="7.5" cy="1.5" r="1.5"/><circle cx="13.5" cy="1.5" r="1.5"/></svg><svg viewBox="0 0 14 12" id="post-send" xmlns="http://www.w3.org/2000/svg"><path d="M13.887 6.886a.436.436 0 00-.284-.394L.625.938a.367.367 0 00-.463.094.416.416 0 00-.018.482L3.2 6.35.15 10.94c-.08.143-.056.335.069.487-.013 0 .015.016.03.031a.433.433 0 00.445.11L13.659 7.27c.157-.065.237-.207.228-.384z"/></svg><svg viewBox="0 0 18 8" id="profile-settings" xmlns="http://www.w3.org/2000/svg"><path d="M8.755 6.667a2.833 2.833 0 100-5.667 2.833 2.833 0 000 5.667zM1 3.833h4.215m7.09 0h4.214" stroke="#728094" stroke-width="1.2" stroke-linecap="round" stroke-linejoin="round"/></svg><svg viewBox="0 0 20 20" id="qr-code" xmlns="http://www.w3.org/2000/svg"><path fill-rule="evenodd" clip-rule="evenodd" d="M1.788 1.463a.324.324 0 00-.325.325V6.54c0 .18.146.324.325.324H6.54c.18 0 .324-.145.324-.324V1.788a.324.324 0 00-.324-.325H1.788zM0 1.788C0 .8.8 0 1.788 0H6.54c.987 0 1.788.8 1.788 1.788V6.54c0 .987-.8 1.788-1.788 1.788H1.788A1.786 1.786 0 010 6.54V1.788zm1.788 11.346a.325.325 0 00-.325.325v4.753c0 .179.146.324.325.324H6.54c.18 0 .324-.145.324-.324v-4.753a.325.325 0 00-.324-.325H1.788zM0 13.46c0-.988.8-1.788 1.788-1.788H6.54c.987 0 1.788.8 1.788 1.788v4.753c0 .987-.8 1.788-1.788 1.788H1.788A1.789 1.789 0 010 18.212v-4.753zM13.46 1.463a.325.325 0 00-.325.325V6.54c0 .18.146.324.325.324h4.753a.324.324 0 00.324-.324V1.788a.324.324 0 00-.324-.325H13.46zm-1.788.325C11.672.8 12.472 0 13.46 0h4.753C19.2 0 20 .8 20 1.788V6.54c0 .987-.8 1.788-1.788 1.788H13.46c-.988 0-1.788-.8-1.788-1.788V1.788z"/><path d="M3.48 3.478h1.374V4.85H3.48V3.478zm0 11.671h1.374v1.373H3.48v-1.373zM15.148 3.478h1.373V4.85h-1.373V3.478z"/><path fill-rule="evenodd" clip-rule="evenodd" d="M19.997 16.522V20H16.52v-1.464h2.014v-2.014h1.463zm-8.327-1.373V11.67h3.478v1.463h-2.014v2.015h-1.463zM15.148 20h-3.477v-3.478h1.463v2.014h2.014V20zm1.372-8.329h3.477v3.478h-1.463v-2.014H16.52V11.67z"/></svg><svg viewBox="0 0 14 14" id="search-icon" xmlns="http://www.w3.org/2000/svg"><path d="M6.165 0A6.173 6.173 0 000 6.165c0 3.4 2.766 6.166 6.165 6.166 3.4 0 6.166-2.766 6.166-6.166A6.173 6.173 0 006.165 0zm0 11.193a5.033 5.033 0 01-5.027-5.028 5.033 5.033 0 015.027-5.027 5.033 5.033 0 015.028 5.027 5.033 5.033 0 01-5.028 5.028z"/><path d="M13.834 13.029l-3.263-3.263a.569.569 0 10-.805.805l3.263 3.263a.567.567 0 00.805 0 .569.569 0 000-.805z"/></svg><svg viewBox="0 0 17 17" id="settings" xmlns="http://www.w3.org/2000/svg"><path d="M16.735 7.434c-.136-.087-1.209-.728-1.634-.923l-.527-1.275c.156-.422.457-1.603.51-1.809a.569.569 0 00-.153-.527l-.831-.826a.564.564 0 00-.527-.153c-.157.036-1.36.34-1.809.51l-1.275-.527C10.304 1.496 9.679.45 9.566.27A.564.564 0 009.085 0h-1.17a.57.57 0 00-.48.265c-.089.136-.73 1.209-.925 1.635l-1.275.527c-.422-.157-1.603-.457-1.809-.51a.568.568 0 00-.527.153l-.826.831a.564.564 0 00-.153.527c.036.157.34 1.36.51 1.809l-.527 1.275c-.408.185-1.454.81-1.634.923a.564.564 0 00-.27.481v1.168a.57.57 0 00.265.481c.136.087 1.209.728 1.634.923l.527 1.275c-.157.422-.457 1.603-.51 1.81a.568.568 0 00.153.526l.826.826a.565.565 0 00.527.153c.156-.035 1.36-.34 1.809-.51l1.275.527c.185.408.81 1.454.923 1.634a.565.565 0 00.486.272h1.168a.57.57 0 00.481-.265c.087-.136.728-1.209.923-1.634l1.275-.527c.422.156 1.603.457 1.81.51a.569.569 0 00.526-.153l.826-.826a.564.564 0 00.153-.527c-.035-.156-.34-1.36-.51-1.809l.527-1.275c.408-.185 1.454-.81 1.634-.923A.565.565 0 0017 9.085v-1.17a.562.562 0 00-.265-.48zM8.5 12.201a3.704 3.704 0 11.007-7.409 3.704 3.704 0 01-.007 7.409z"/></svg><svg viewBox="0 0 8 11" id="share" xmlns="http://www.w3.org/2000/svg"><path fill-rule="evenodd" clip-rule="evenodd" d="M.522 5.081a.52.52 0 01.521.518v3.426c0 .089.036.175.101.238a.353.353 0 00.247.101H6.61a.352.352 0 00.247-.1c.065-.064.1-.15.1-.239V5.6a.52.52 0 01.522-.518A.52.52 0 018 5.6v3.426c0 .366-.148.716-.409.973a1.4 1.4 0 01-.982.401H1.39a1.4 1.4 0 01-.98-.4A1.366 1.366 0 010 9.024V5.6a.52.52 0 01.522-.518zM4 .8c.144 0 .282.059.38.163l1.74 1.835a.515.515 0 01-.023.732.525.525 0 01-.738-.022L4 2.073 2.641 3.508a.525.525 0 01-.737.022.515.515 0 01-.023-.732L3.62.963A.524.524 0 014 .8z"/><path fill-rule="evenodd" clip-rule="evenodd" d="M4 .8a.52.52 0 01.522.517v6.119A.52.52 0 014 7.954a.52.52 0 01-.521-.518V1.317A.52.52 0 014 .8z"/></svg><svg viewBox="0 0 12 9" id="show" xmlns="http://www.w3.org/2000/svg"><path fill-rule="evenodd" clip-rule="evenodd" d="M1.07 4.5a9.337 9.337 0 001.232 1.658C3.198 7.113 4.45 8 6 8c1.55 0 2.802-.887 3.698-1.842A9.338 9.338 0 0010.929 4.5a9.338 9.338 0 00-1.232-1.658C8.803 1.887 7.55 1 6 1c-1.55 0-2.802.887-3.698 1.842A9.337 9.337 0 001.07 4.5zm10.43 0l.447-.224-.001-.002-.002-.003-.005-.011a9.208 9.208 0 00-.386-.656 10.333 10.333 0 00-1.126-1.446C9.447 1.113 7.95 0 6 0 4.05 0 2.552 1.113 1.573 2.158A10.338 10.338 0 00.08 4.221a3.8 3.8 0 00-.02.039l-.006.011-.001.003-.001.002L.5 4.5l-.447-.224a.502.502 0 000 .448L.5 4.5c-.447.224-.448.223-.447.224v.002l.002.003.006.011a3.8 3.8 0 00.096.177 10.338 10.338 0 001.416 1.925C2.552 7.887 4.05 9 6 9c1.95 0 3.448-1.113 4.427-2.158a10.333 10.333 0 001.491-2.063.369.369 0 00.02-.039l.006-.011.002-.003v-.002L11.5 4.5zm0 0l.447.224a.502.502 0 000-.448L11.5 4.5z"/><path fill-rule="evenodd" clip-rule="evenodd" d="M6 3.5a1 1 0 100 2 1 1 0 000-2zm-2 1a2 2 0 114 0 2 2 0 01-4 0z"/></svg><svg viewBox="0 0 18 8" id="table-arrow" xmlns="http://www.w3.org/2000/svg"><path fill-rule="evenodd" clip-rule="evenodd" d="M14.172.464l3.182 3.182a.5.5 0 010 .707l-3.182 3.182a.5.5 0 11-.708-.707L15.793 4.5H0v-1h15.793l-2.329-2.33a.5.5 0 11.708-.707z"/></svg></svg>