<svg width="582" height="349" viewBox="0 0 582 349" fill="none" xmlns="http://www.w3.org/2000/svg">
<path d="M234.927 7.0375C264.536 19.3032 360.377 70.1522 365.831 72.4898H462.841C478.165 68.0744 518.553 69.451 557.513 110.281C606.213 161.318 582.837 252.484 482.321 318.325C401.908 370.999 314.275 331.442 280.51 305.079C231.291 290.015 127.554 262.691 106.36 273.911C79.8672 287.937 49.4787 282.093 37.4012 276.249C-45.583 178.071 58.829 56.9059 97.7887 26.1277C136.748 -4.6504 207.683 -4.24816 234.927 7.0375Z" fill="#EDECF5"/>
<rect x="95.2822" y="45.627" width="393.83" height="265.263" rx="4" fill="white" stroke="#B1B1B1" stroke-width="2"/>
<path d="M96 49.002C96 47.3451 97.3431 46.002 99 46.002H485C486.657 46.002 488 47.3451 488 49.002V69.002H96V49.002Z" fill="#E7E7E7"/>
<path d="M321.027 151.376L305.833 156.83V86.7028L309.339 84.3652H464.009L467.126 87.0924V97.6115L453.101 103.455L464.009 130.727L436.348 142.026L425.05 113.975L381.025 129.948L386.869 143.194L370.506 150.207L376.74 164.622L349.468 175.141L342.845 160.726L327.261 166.96L321.027 151.376Z" fill="#FCB537"/>
<rect x="306.443" y="85.3652" width="160.072" height="185.786" rx="4" stroke="#B1B1B1" stroke-width="2"/>
<path d="M567.885 174.362V182.544H559.703V179.038C557.833 178.726 555.547 176.57 554.638 175.531L554.249 170.466C553.21 169.947 551.522 168.752 553.08 168.129C554.638 167.506 556.327 162.934 556.976 160.727L565.937 162.285L571.391 169.687L567.885 174.362Z" fill="#FAB483"/>
<path d="M574.148 167.174C575.097 171.757 570.062 176.213 567.426 177.869C567.294 175.831 567.11 171.757 567.426 171.757C567.821 171.757 568.612 170.611 568.612 169.465C568.612 168.32 566.24 168.32 565.845 167.556C564.579 163.278 558.464 161.954 555.564 161.826L556.355 158.389C561.891 159.407 573.199 162.59 574.148 167.174Z" fill="#46160C"/>
<path d="M419.205 279.555H384.531L389.206 314.229H414.92L419.205 279.555Z" fill="#406AFF"/>
<path d="M443.361 331.725V327.475H437.127L437.958 332.15L443.361 331.725Z" fill="#FAB483"/>
<path d="M460.503 331.725V327.475H454.27L455.101 332.15L460.503 331.725Z" fill="#FAB483"/>
<path d="M463.341 234.75C453.601 235.399 434.355 237.477 433.731 237.477C432.692 249.425 430.381 276.203 429.446 287.735C428.511 299.267 433.731 317.474 436.458 325.136H434.9V329.032C438.147 328.773 444.718 328.175 445.029 327.864C446.198 325.526 443.082 290.852 443.082 290.073C444.328 288.826 447.497 275.008 448.925 268.255C449.315 266.957 450.328 264.827 451.263 266.697C452.432 269.035 446.588 290.462 446.588 292.41C448.77 297.085 451.393 317.994 452.432 327.864C454.899 327.734 460.224 327.396 461.782 327.084C462.561 309.553 460.224 290.852 460.224 290.073C469.574 268.255 466.068 243.841 463.341 234.75Z" fill="#406AFF"/>
<path d="M435.958 182.545L441.023 178.26L447.256 185.273C444.919 188 440.166 193.454 439.854 193.454C439.464 193.454 438.378 191.837 437.906 189.948C437.516 188.389 437.387 185.532 438.296 183.714H437.127C436.192 183.714 435.958 182.935 435.958 182.545Z" fill="#FAB483"/>
<path d="M430.116 208.258C433.233 199.22 436.35 198.259 437.518 198.908L444.141 202.024L444.53 237.088L434.011 237.477V232.413C433.752 232.023 433.076 231.556 432.453 232.802C431.83 234.049 419.207 252.802 412.973 262.022L406.74 257.737C406.74 257.737 407.13 256.957 408.688 255.399C414.533 249.556 426.22 219.557 430.116 208.258Z" fill="#FCB537"/>
<path d="M437.906 240.984V207.479H440.244V240.984H437.906Z" fill="#406AFF"/>
<path d="M463.894 207.478C458.595 203.426 457.531 192.024 457.66 186.829C452.855 181.635 442.778 171.791 440.908 173.973C438.57 176.7 442.076 182.544 444.024 183.323C445.972 184.102 445.583 186.829 444.024 187.609C442.466 188.388 442.076 189.167 438.181 195.401C434.285 201.634 437.401 207.478 440.128 212.932C442.856 218.387 441.297 222.283 439.349 226.568C437.401 230.854 435.064 238.646 447.141 239.815C459.219 240.983 465.842 233.191 467.79 230.854C469.738 228.516 470.517 212.543 463.894 207.478Z" fill="#46160C"/>
<path d="M443.494 172.51C460.73 164.18 463.134 179.285 458.324 187.22L438.686 172.926L440.69 170.541L443.494 172.51Z" fill="#E29B1D"/>
<path d="M557.66 155.757C572.77 144.004 578.282 158.272 575.239 167.038L553.044 157.17L554.505 154.418L557.66 155.757Z" fill="#E29B1D"/>
<path d="M443.539 172.39C460.934 164.177 460.53 180.184 454.057 184.104L438.686 172.8L440.708 170.448L443.539 172.39Z" fill="#FCB537"/>
<path d="M557.678 155.63C572.969 143.958 575.923 159.696 570.415 164.883L553.018 157.047L554.504 154.324L557.678 155.63Z" fill="#FCB537"/>
<path d="M39.3488 191.505V199.687H47.5304C47.5304 198.648 49.0888 194.933 49.0888 194.622C50.9589 194.31 51.2965 194.102 52.2056 193.063L52.9847 187.609C54.0236 187.09 55.7119 185.895 54.1535 185.271C52.5951 184.648 50.9068 180.077 50.2575 177.869L41.2968 179.428L35.8424 186.83L39.3488 191.505Z" fill="#FAB483"/>
<path d="M44.8027 194.621H49.0883L48.3091 196.569L44.8027 194.621Z" fill="#EFA383"/>
<path d="M52.2052 182.542L48 180.498L46.8312 181.279C49.5584 188.291 38.5693 191.115 39.3485 191.894C39.9718 192.518 40.3874 198.128 40.5173 200.855L36.6213 211.764C34.6733 211.114 30.7773 209.66 30.7773 209.036C33.8941 201.868 33.3747 192.803 32.7253 189.167C37.4005 185.141 47.2962 177.01 49.478 176.699C51.6597 176.387 52.2052 180.465 52.2052 182.542Z" fill="#46160C"/>
<path d="M47.444 175.725C30.039 167.755 27.9494 182.907 32.9239 190.741L52.2605 176.041L50.2072 173.698L47.444 175.725Z" fill="#E29B1D"/>
<path d="M47.3969 175.606C29.8345 167.757 30.5723 183.752 37.1249 187.536L52.2579 175.915L50.1867 173.606L47.3969 175.606Z" fill="#FCB537"/>
<path d="M439.465 147.481L434.79 136.183L446.867 124.495L444.14 116.703L441.803 117.482L444.14 124.495L432.063 135.404H416.089L413.752 129.949L411.024 131.118L414.141 137.352H430.894L436.348 149.04L439.465 147.481Z" fill="#406AFF"/>
<rect x="131.625" y="127.943" width="134.917" height="45.31" rx="3.5" stroke="#B1B1B1" stroke-width="3" stroke-dasharray="7 7"/>
<rect x="78.6982" y="126.443" width="137.917" height="48.31" rx="3" fill="#406AFF"/>
<rect x="130.125" y="82.8086" width="137.917" height="20.259" rx="3" fill="#E7E7E7"/>
<rect x="130.125" y="250.336" width="137.917" height="7.79194" rx="3" fill="#E7E7E7"/>
<rect x="130.125" y="264.361" width="137.917" height="7.79194" rx="3" fill="#E7E7E7"/>
<circle cx="106.36" cy="150.987" r="13.6359" fill="white"/>
<rect x="130.125" y="141.248" width="34.2845" height="3.11677" rx="1.55839" fill="white"/>
<rect x="130.125" y="150.598" width="72.465" height="3.11677" rx="1.55839" fill="white"/>
<rect x="130.125" y="159.17" width="72.465" height="3.11677" rx="1.55839" fill="white"/>
<path d="M75.9714 161.896C76.5947 163.143 75.7116 175.402 75.1922 181.376L67.0107 180.597C68.699 175.792 71.9975 165.636 71.6858 163.455C71.3741 161.273 71.8157 155.533 72.0754 152.936C73.1143 155.403 75.348 160.65 75.9714 161.896Z" fill="#EFA383"/>
<path d="M79.8669 161.896C80.4902 163.143 79.6072 175.402 79.0877 181.376L70.9062 180.597C72.5945 175.792 75.893 165.636 75.5813 163.455C75.2696 161.273 75.7112 155.533 75.9709 152.936C77.0098 155.403 79.2435 160.65 79.8669 161.896Z" fill="#FAB483"/>
<rect x="130.125" y="188.779" width="137.917" height="48.31" rx="3" fill="#406AFF"/>
<circle cx="157.786" cy="213.323" r="13.6359" fill="white"/>
<rect x="181.552" y="203.584" width="34.2845" height="3.11677" rx="1.55839" fill="white"/>
<rect x="181.552" y="212.934" width="72.465" height="3.11677" rx="1.55839" fill="white"/>
<rect x="181.552" y="221.506" width="72.465" height="3.11677" rx="1.55839" fill="white"/>
<rect x="411.169" y="125.713" width="31.9025" height="11.9536" rx="5.9768" transform="rotate(-23.2002 411.169 125.713)" fill="#E29B1D"/>
<rect x="411.414" y="126.543" width="31.9025" height="9.35415" rx="4.67707" transform="rotate(-23.2002 411.414 126.543)" fill="#FCB537"/>
<circle cx="401.674" cy="280.333" r="15.2527" stroke="#406AFF" stroke-width="3"/>
<path d="M404.689 260.048C402.213 261.941 403.281 265.048 404.125 266.365L404.791 266.308L408.687 268.256L412.389 258.573L409.331 256.498L404.689 260.048Z" fill="#FAB483"/>
<path d="M442.192 148.649C442.192 145.532 439.076 144.493 437.517 144.363L437.128 145.142L434.011 148.649L438.686 155.662L442.192 154.493V148.649Z" fill="#FAB483"/>
<path d="M443.361 153.324L437.127 155.662L445.698 174.752L451.932 172.804L443.361 153.324Z" fill="#FCB539"/>
<path d="M454.338 331.757L457.065 331.367L458.624 331.757L456.676 338.77L449.274 339.938C447.455 339.159 444.676 337.367 448.105 336.432C451.533 335.497 453.689 332.926 454.338 331.757Z" fill="#FCB537"/>
<path d="M462.842 334.839C462.842 340.137 453.751 340.423 449.206 339.903C455.128 339.279 456.868 333.929 456.998 331.332C458.946 330.293 462.842 329.54 462.842 334.839Z" fill="#406AFF"/>
<path d="M437.974 331.757L440.701 331.367L442.259 331.757L440.311 338.77L432.909 339.938C431.091 339.159 428.312 337.367 431.741 336.432C435.169 335.497 437.325 332.926 437.974 331.757Z" fill="#FCB537"/>
<path d="M446.478 334.839C446.478 340.137 437.387 340.423 432.842 339.903C438.764 339.279 440.504 333.929 440.634 331.332C442.582 330.293 446.478 329.54 446.478 334.839Z" fill="#406AFF"/>
<rect x="107.528" y="50.8594" width="337.391" height="12.4671" rx="6.23355" fill="white"/>
<circle cx="456.218" cy="58.2622" r="3.50637" fill="#FCB537"/>
<circle cx="478.036" cy="58.2622" r="3.50637" fill="#406AFF"/>
<path d="M550.111 330.589V325.135L544.656 325.631L545.495 330.589H550.111Z" fill="#FAB483"/>
<path d="M551.188 336.698C550.929 334.49 550.331 329.997 550.019 329.685C548.721 329.296 545.812 328.672 544.565 329.296C543.007 330.075 529.76 335.14 528.202 335.529C526.955 335.841 527.683 336.958 528.202 337.477L551.188 336.698Z" fill="#406AFF"/>
<circle cx="467.126" cy="58.2622" r="3.50637" fill="#EF493D"/>
<rect x="483.88" y="333.707" width="49.0892" height="6.23355" fill="#EF493D"/>
<path d="M525.956 334.486L523.619 324.746H494.789L492.451 334.486H525.956Z" fill="#EF493D"/>
<path d="M522.06 315.786L520.112 304.098H498.684L496.347 315.786H522.06Z" fill="#EF493D"/>
<path d="M518.165 294.748L515.437 279.164H502.97L500.243 294.748H518.165Z" fill="#EF493D"/>
<rect x="132.463" y="333.707" width="49.0892" height="6.23355" fill="#EF493D"/>
<path d="M174.54 334.486L172.202 324.746H143.372L141.034 334.486H174.54Z" fill="#EF493D"/>
<path d="M170.643 315.786L168.695 304.098H147.267L144.93 315.786H170.643Z" fill="#EF493D"/>
<path d="M166.748 294.748L164.02 279.164H151.553L148.826 294.748H166.748Z" fill="#EF493D"/>
<path d="M568.811 330.979V326.693L563.746 327.083L564.525 330.979H568.811Z" fill="#FAB483"/>
<path d="M569.98 337.602C569.721 335.395 569.123 330.901 568.811 330.59C567.513 330.2 564.604 329.577 563.357 330.2C561.799 330.979 548.552 336.044 546.994 336.434C545.747 336.745 546.475 337.862 546.994 338.382L569.98 337.602Z" fill="#406AFF"/>
<path d="M568.422 182.544C578.396 182.856 576.993 200.335 575.045 209.036L573.876 209.426L547.384 202.803L548.163 193.453L549.332 190.336L552.059 185.271L558.682 182.154C561.539 182.284 567.487 182.544 568.422 182.544Z" fill="#FCB537"/>
<path d="M534.917 209.425L548.163 192.672L546.994 201.243L550.111 212.152L543.098 219.164L509.203 201.243L511.541 196.568L534.917 209.425Z" fill="#F1A724"/>
<path d="M501.411 193.452C504.528 192.829 509.462 195.79 511.54 197.348L509.592 202.413L505.696 199.686C502.969 197.868 498.294 194.075 501.411 193.452Z" fill="#FAB483"/>
<path d="M492.06 184.102C498.683 190.335 512.164 203.036 513.099 203.971L511.151 207.867L502.579 205.919L483.1 187.608L492.06 184.102Z" fill="#406AFF"/>
<path d="M502.58 200.465C503.203 200.154 508.294 203.972 510.762 205.92C513.099 207.348 515.67 210.361 507.255 210.985C498.84 211.608 497.255 204.231 497.515 200.465L504.138 205.141C503.359 203.712 501.957 200.777 502.58 200.465Z" fill="#FAB483"/>
<path d="M570.37 327.084L562.578 327.474C563.201 325.292 556.864 295.917 553.617 281.501C553.487 280.463 553.072 278.229 552.448 277.606C551.825 276.982 551.669 277.346 551.669 277.606C551.409 278.515 551.046 281.034 551.669 283.839C552.293 286.644 551.929 313.319 551.669 326.305H543.488C543.228 320.591 542.397 308.072 541.15 303.709C536.787 285.008 537.254 269.684 538.033 264.359L546.604 210.205V200.465C546.916 185.817 554.786 182.154 558.682 182.154C558.552 182.414 558.214 183.011 557.903 183.323C550.111 184.258 548.163 195.401 548.163 200.855H550.111C551.02 195.79 555.409 185.661 565.695 185.661C575.98 185.661 575.175 201.245 573.487 209.036H575.045C572.967 215.01 569.123 229.218 570.37 238.256C571.928 249.555 567.253 280.722 567.643 283.06C570.759 290.852 570.759 315.656 570.37 327.084Z" fill="#406AFF"/>
<path d="M552.838 228.518C545.046 238.18 536.604 232.543 533.358 228.518L510.372 212.932L509.203 214.101L506.476 211.764C508.164 208.257 512.086 201.322 514.268 201.634C516.449 201.946 534.397 212.413 543.098 217.607C544.266 212.413 549.175 200.077 559.461 192.285C572.317 182.545 570.369 198.129 569.59 202.804C568.811 207.479 562.578 216.44 552.838 228.518Z" fill="#FCB537"/>
<path d="M63.1145 189.166L65.4521 183.322L71.6856 185.27L57.6602 202.802L50.2578 200.465L63.1145 189.166Z" fill="#E29B1D"/>
<path d="M44.4855 199.685C37.317 199.685 36.304 208.775 36.6936 213.321L44.8751 217.217C47.3426 217.606 53.68 218.074 59.2902 216.827C64.9004 215.58 74.8741 202.282 79.1597 195.789L78.7701 186.828H80.718L81.4972 181.763L65.5238 179.426L64.355 184.101L70.1989 185.27L67.8613 190.334L54.6151 202.022C54.2255 201.243 51.6541 199.685 44.4855 199.685Z" fill="#FCB537"/>
<path d="M47.9206 199.296L43.635 198.906C40.2066 200.465 40.1287 210.724 40.5183 215.659L44.8038 217.607C42.6221 203.893 45.9726 199.685 47.9206 199.296Z" fill="#406AFF"/>
<path d="M4.6748 322.41L5.8436 319.293L9.73956 321.631L8.57077 325.527L4.6748 322.41Z" fill="#FAB483"/>
<path d="M1.14746 324.357L4.65383 320.461C8.1602 324.227 15.4846 332.227 16.7313 334.097C17.978 335.967 17.7703 336.954 17.5105 337.214L1.14746 324.357Z" fill="#FCB537"/>
<path d="M0.36808 326.695C-0.566953 326.072 0.497946 324.877 1.14727 324.357L17.5102 336.825C17.3803 337.084 17.0427 337.682 16.731 337.993C16.3414 338.383 1.53687 327.474 0.36808 326.695Z" fill="#406AFF"/>
<path d="M58.6034 332.647L57.8378 329.408L62.3755 329.179L63.5751 333.065L58.6034 332.647Z" fill="#FAB483"/>
<path d="M56.7591 336.23L57.5009 331.041C62.5107 332.215 73.0497 334.779 75.1268 335.638C77.2039 336.496 77.5811 337.432 77.5101 337.792L56.7591 336.23Z" fill="#FCB537"/>
<path d="M57.4145 338.605C56.2907 338.609 56.5095 337.023 56.7594 336.23L77.2933 337.469C77.3301 337.757 77.3824 338.441 77.2972 338.874C77.1907 339.414 58.8192 338.601 57.4145 338.605Z" fill="#406AFF"/>
<path d="M34.2843 244.489C35.2193 241.06 36.2322 221.503 36.6218 212.152C43.7644 212.152 58.4391 213.009 59.9975 216.438C61.9455 220.723 58.4391 229.295 56.8807 232.801C55.3223 236.307 59.6079 248.385 65.8415 267.475C70.8283 282.747 65.8415 313.318 62.7247 326.694L63.8935 327.473V330.2H56.8807L56.1015 327.473L57.6599 326.694L56.1015 292.799C54.9327 291.241 49.4784 276.825 48.6992 277.994C42.154 294.201 21.0378 313.058 11.2979 320.46L10.5187 322.798L4.28516 319.291L5.45395 316.954C5.84354 316.694 6.77858 316.175 7.40193 316.175C13.2459 302.149 29.6089 288.124 30.7779 286.955C29.2195 257.346 33.1155 248.774 34.2843 244.489Z" fill="#406AFF"/>
<rect x="316.36" y="237.086" width="2.52385" height="105.371" rx="1.26193" transform="rotate(8.96372 316.36 237.086)" fill="#406AFF"/>
<rect x="284.486" y="237.145" width="2.52385" height="105.371" rx="1.26193" transform="rotate(9.29839 284.486 237.145)" fill="#406AFF"/>
<rect x="285.265" y="245.627" width="32.1791" height="1.89289" fill="#406AFF"/>
<rect x="280.849" y="272.125" width="32.1791" height="1.89289" fill="#406AFF"/>
<rect x="274.539" y="298.627" width="32.1791" height="1.89289" fill="#406AFF"/>
<rect x="278.324" y="285.377" width="32.1791" height="1.89289" fill="#406AFF"/>
<rect x="282.741" y="258.875" width="32.1791" height="1.89289" fill="#406AFF"/>
<rect x="272.015" y="311.855" width="33.441" height="1.89289" fill="#406AFF"/>
<rect x="269.491" y="325.104" width="33.441" height="1.89289" fill="#406AFF"/>
</svg>
