<svg width="603" height="321" viewBox="0 0 603 321" fill="none" xmlns="http://www.w3.org/2000/svg">
<path d="M567.286 293.22C563.704 286.398 549.134 280.914 542.619 279.669C507.828 273.046 471.391 273.96 436.161 274.079C397.787 274.198 361.165 280.331 323.109 283.166C303.311 284.636 282.399 281.987 262.562 281.298C229.894 280.172 197.238 278.848 164.583 277.324C136.426 276.013 107.208 278.954 82.3681 294.452C79.5418 296.213 76.689 298.346 75.4151 301.499C67.3475 321.355 167.887 318.851 180.984 319.195C247.064 320.917 313.184 321.805 379.264 320.017C428.399 318.692 479.604 318.772 528.342 311.844C539.116 310.307 553.778 309.764 563.093 303.433C568.228 299.936 568.972 296.439 567.286 293.22Z" fill="#F5F5F5"/>
<path d="M524.515 22.252C525.377 22.252 526.266 22.2652 527.168 22.3048" stroke="#72A3CA" stroke-miterlimit="10"/>
<path d="M532.494 22.6777C549.624 24.413 570.549 31.6454 568.108 46.4414C564.207 70.0329 459.195 61.3301 434.117 61.5686C383.681 62.0587 332.701 62.2441 283.247 73.2649C271.226 75.9407 254.002 81.8485 255.303 97.1611C255.754 102.513 258.925 107.347 262.932 110.977C277.369 123.998 297.498 125.243 316.181 127.535C344.431 130.992 478.833 126.382 522.767 140.768C531.419 143.602 542.233 147.245 542.591 159.59C543.507 190.957 465.458 189.421 442.052 190.017C379.568 191.606 317.017 190.984 254.533 189.752C204.031 188.758 153.383 187.871 102.974 184.626C84.1848 183.407 53.4403 183.049 39.1097 168.969C31.0952 161.1 30.0469 146.781 42.7189 139.469C51.649 134.317 77.8421 136.569 87.9266 135.708C118.419 133.085 109.197 114.62 84.4899 112.262" stroke="#72A3CA" stroke-miterlimit="10" stroke-dasharray="4.01 4.01"/>
<path d="M81.8237 112.037C80.9612 111.997 80.0722 111.971 79.1699 111.971" stroke="#72A3CA" stroke-miterlimit="10"/>
<path d="M526.302 45.1896L518.261 2.73559C517.783 0.192323 514.731 -0.867368 512.767 0.814898L479.953 29.0028C477.989 30.6851 478.599 33.8641 481.041 34.7119L521.896 48.9781C524.338 49.8258 526.779 47.7197 526.302 45.1896Z" fill="#AAD4F0"/>
<path d="M520.104 44.5432C519.878 44.5432 519.639 44.5034 519.414 44.424L485.816 32.6878C485.113 32.4494 484.596 31.8401 484.45 31.1115C484.317 30.383 484.569 29.628 485.14 29.1511L512.129 5.97026C512.686 5.48015 513.469 5.33445 514.172 5.58613C514.876 5.82456 515.393 6.43389 515.539 7.16243L522.16 42.0794C522.293 42.8079 522.041 43.563 521.47 44.0531C521.086 44.371 520.595 44.5432 520.104 44.5432ZM487.621 30.5155L519.374 41.6025L513.124 8.60626L487.621 30.5155Z" fill="#FBFBFF"/>
<path d="M505.506 30.2923C504.869 30.0671 504.525 29.3916 504.71 28.7425L508.041 17.0726C508.359 15.9997 509.527 15.4036 510.588 15.7745C511.65 16.1454 512.194 17.3243 511.769 18.3707L507.085 29.5638C506.847 30.1996 506.143 30.5175 505.506 30.2923Z" fill="#FBFBFF"/>
<path d="M505.759 33.469C505.52 34.1313 504.79 34.4889 504.127 34.2505C503.463 34.0121 503.105 33.2835 503.344 32.6212C503.583 31.9589 504.312 31.6012 504.976 31.8397C505.639 32.0649 505.998 32.7934 505.759 33.469Z" fill="#FBFBFF"/>
<path d="M76.6132 97.6824L50.1547 84.5422C48.5756 83.7606 46.7312 84.9793 46.8374 86.7278L48.6552 116.174C48.7614 117.936 50.7385 118.916 52.2114 117.936L76.8388 101.643C78.3249 100.663 78.1922 98.4639 76.6132 97.6824Z" fill="#AAD4F0"/>
<path d="M73.7074 100.785C73.6145 100.904 73.4951 101.023 73.3624 101.116L53.1006 114.521C52.676 114.799 52.1319 114.839 51.6808 114.614C51.2296 114.389 50.9244 113.938 50.8979 113.435L49.3985 89.221C49.3719 88.7176 49.6108 88.2275 50.0354 87.9493C50.46 87.6711 51.004 87.6314 51.4552 87.8566L73.2165 98.6655C73.6676 98.8907 73.9728 99.341 73.9994 99.8576C74.0126 100.176 73.9065 100.52 73.7074 100.785ZM52.6627 112.64L71.8099 99.9769L51.2562 89.7641L52.6627 112.64Z" fill="#FBFBFF"/>
<path d="M59.9229 102.821C59.5381 103.073 59.0206 102.98 58.7552 102.609L53.766 95.9863C53.3149 95.3637 53.4741 94.4895 54.111 94.0656C54.7479 93.6417 55.6237 93.8404 56.0085 94.4894L60.175 101.656C60.4138 102.053 60.3077 102.57 59.9229 102.821Z" fill="#FBFBFF"/>
<path d="M61.7559 104.001C62.0213 104.398 61.9151 104.941 61.5038 105.219C61.1057 105.484 60.5617 105.378 60.283 104.968C60.0177 104.57 60.1238 104.027 60.5351 103.749C60.9465 103.484 61.4905 103.603 61.7559 104.001Z" fill="#FBFBFF"/>
<path d="M94.9429 157.062C96.1594 157.062 97.1456 156.077 97.1456 154.863C97.1456 153.649 96.1594 152.664 94.9429 152.664C93.7264 152.664 92.7402 153.649 92.7402 154.863C92.7402 156.077 93.7264 157.062 94.9429 157.062Z" stroke="#D2E8F9" stroke-miterlimit="10"/>
<path d="M421.921 116.37C423.138 116.37 424.124 115.386 424.124 114.172C424.124 112.957 423.138 111.973 421.921 111.973C420.705 111.973 419.719 112.957 419.719 114.172C419.719 115.386 420.705 116.37 421.921 116.37Z" stroke="#D2E8F9" stroke-miterlimit="10"/>
<path d="M248.442 54.7493C249.658 54.7493 250.645 53.7648 250.645 52.5504C250.645 51.336 249.658 50.3516 248.442 50.3516C247.225 50.3516 246.239 51.336 246.239 52.5504C246.239 53.7648 247.225 54.7493 248.442 54.7493Z" stroke="#D2E8F9" stroke-miterlimit="10"/>
<path d="M245.798 221.976C247.015 221.976 248.001 220.991 248.001 219.777C248.001 218.563 247.015 217.578 245.798 217.578C244.582 217.578 243.596 218.563 243.596 219.777C243.596 220.991 244.582 221.976 245.798 221.976Z" stroke="#D2E8F9" stroke-miterlimit="10"/>
<path d="M297.14 90.3027V95.2701" stroke="#D2E8F9" stroke-miterlimit="10" stroke-linecap="round" stroke-linejoin="round"/>
<path d="M299.618 92.7988H294.642" stroke="#D2E8F9" stroke-miterlimit="10" stroke-linecap="round" stroke-linejoin="round"/>
<path d="M386.585 26.7324V31.713" stroke="#D2E8F9" stroke-miterlimit="10" stroke-linecap="round" stroke-linejoin="round"/>
<path d="M389.063 29.2285H384.087" stroke="#D2E8F9" stroke-miterlimit="10" stroke-linecap="round" stroke-linejoin="round"/>
<path d="M524.97 160.93V165.91" stroke="#D2E8F9" stroke-miterlimit="10" stroke-linecap="round" stroke-linejoin="round"/>
<path d="M527.448 163.426H522.472" stroke="#D2E8F9" stroke-miterlimit="10" stroke-linecap="round" stroke-linejoin="round"/>
<path d="M341.871 303.143C341.871 303.143 332.596 307.09 332.596 309.064C332.596 310.203 345.347 308.574 346.117 307.805C347.351 306.573 345.613 303.302 345.613 303.302L341.871 303.143Z" fill="#42424E"/>
<path d="M341.276 297.626L341.873 303.322C341.873 303.322 342.179 304.236 343.479 304.342C344.779 304.448 345.629 303.322 345.629 303.322L345.164 296.195" fill="#FFB288"/>
<path d="M357.47 167.055C360.84 180.632 359.593 187.52 354.644 197.759C351.645 232.186 349.562 266.467 345.528 300.033L341.269 300.272C331.582 267.593 322.679 218.741 323.82 174.088" fill="#586078"/>
<path d="M355.383 171.717C356.617 174.869 356.922 178.419 356.816 181.771C356.657 186.923 354.561 191.586 353.194 196.461C351.389 202.978 351.243 209.455 350.752 216.131C349.983 226.583 349.187 237.021 348.39 247.472C347.09 264.506 345.776 281.541 344.449 298.576C344.41 299.079 344.37 299.582 344.33 300.099" stroke="#42424E" stroke-width="0.5" stroke-miterlimit="10"/>
<path d="M378.868 304.475C378.868 304.475 369.593 308.422 369.593 310.396C369.593 311.535 382.344 309.906 383.114 309.137C384.348 307.905 382.61 304.634 382.61 304.634L378.868 304.475Z" fill="#42424E"/>
<path d="M378.272 298.948L378.87 304.644C378.87 304.644 379.175 305.558 380.475 305.664C381.776 305.77 382.625 304.644 382.625 304.644L382.16 297.518" fill="#FFB288"/>
<path d="M388.33 165.906C392.602 179.219 391.806 186.186 387.547 196.73C386.843 231.276 384.455 267.346 382.664 301.11H378.285C366.462 269.147 353.79 219.792 351.959 175.152" fill="#586078"/>
<path d="M386.222 171.42C386.222 171.42 391.172 182.971 382.812 199.197C381.843 214.51 381.353 301.1 381.353 301.1" stroke="#42424E" stroke-width="0.5" stroke-miterlimit="10"/>
<path d="M373.989 175.092C374.838 176.403 376.179 177.33 377.612 177.913C379.058 178.496 380.597 178.748 382.136 178.933C383.968 179.158 385.812 179.304 387.656 179.211" stroke="#42424E" stroke-width="0.5" stroke-miterlimit="10"/>
<path d="M374.589 177.25C376.168 178.681 378.185 179.555 380.255 180.032C382.325 180.509 384.461 180.601 386.584 180.628" stroke="#42424E" stroke-width="0.5" stroke-miterlimit="10"/>
<path d="M337.694 101.525C322.939 127.157 307.056 150.364 297.648 178.38L294.849 176.896C295.565 150.88 304.018 113.049 315.11 89.4844" fill="#FFB288"/>
<path d="M330.486 74.7656C330.486 74.7656 325.921 76.0505 320.547 79.6137C315.492 82.965 311.67 87.9588 309.083 93.4295C306.482 98.9002 305.062 104.861 304.146 110.848C304.146 110.848 310.317 113.935 317.402 114.809C324.475 115.696 332.012 114.809 332.012 114.809" fill="#AAD4F0"/>
<path d="M319.486 89.924C317.921 117.635 319.115 146.154 319.818 173.11C319.818 173.11 329.505 175.68 353.017 175.68C376.451 175.68 391.79 168.553 391.79 168.553C387.252 140.842 383.642 106.853 372.523 84.0427C372.523 84.0427 359.97 70.5316 347.604 69.9753C345.109 69.8693 342.628 70.77 340.253 71.8695C338.501 72.6775 330.473 74.6379 330.473 74.6379L319.486 89.924Z" fill="#AAD4F0"/>
<path d="M319.359 92.3887C318.749 97.7136 318.749 114.165 318.749 114.165" stroke="#5A8DC6" stroke-width="0.5" stroke-miterlimit="10"/>
<path d="M342.747 181.826C382.05 177.482 398.53 227.194 407.474 246.481C428.624 292.074 508.425 286.988 544.795 286.988C592.431 286.988 613.33 303.016 591.104 311.414" stroke="#9FA7B4" stroke-width="5" stroke-miterlimit="10" stroke-linecap="round" stroke-linejoin="round"/>
<path d="M356.298 184.075C356.298 204.262 340.999 216.436 327.915 216.436H306.473V151.715H327.915C340.999 151.715 356.298 163.888 356.298 184.075Z" fill="#FDAE2B"/>
<path d="M345.243 184.077C345.243 203.801 333.54 219.775 319.116 219.775H295.444V148.365H319.116C333.54 148.365 345.243 164.353 345.243 184.077Z" fill="#EF8417"/>
<path opacity="0.5" d="M350.483 164.566C345.361 171.534 340.372 178.581 335.528 185.734C336.218 185.601 336.855 185.27 337.359 184.78C337.359 185.323 336.497 186.25 337.267 186.595C338.023 186.939 338.819 186.052 339.615 186.29C340.358 186.118 341.048 185.191 341.592 184.648C341.353 185.204 341.3 185.601 341.261 185.893C346.475 183.866 351.146 179.005 355.206 175.097C354.211 171.137 352.566 167.6 350.483 164.566Z" fill="#FDAE2B"/>
<path d="M297.14 219.778C311.57 219.778 323.267 203.795 323.267 184.079C323.267 164.364 311.57 148.381 297.14 148.381C282.711 148.381 271.014 164.364 271.014 184.079C271.014 203.795 282.711 219.778 297.14 219.778Z" fill="#FFC840"/>
<path d="M299.324 196.724C299.324 199.651 297.321 202.036 294.839 202.036C292.358 202.036 290.354 199.664 290.354 196.724C290.354 193.796 292.358 191.412 294.839 191.412C297.321 191.412 299.324 193.796 299.324 196.724Z" fill="#EF8417"/>
<path d="M299.324 171.413C299.324 174.341 297.321 176.725 294.839 176.725C292.358 176.725 290.354 174.354 290.354 171.413C290.354 168.486 292.358 166.102 294.839 166.102C297.321 166.102 299.324 168.486 299.324 171.413Z" fill="#EF8417"/>
<path d="M379.675 110.377C379.675 110.377 381.334 127.239 373.784 141.267C367.322 153.254 354.491 168.779 344.127 177.336L341.633 176.727C345.242 162.898 356.627 138.353 357.343 129.16C358.047 119.954 357.887 109.29 358.047 104.164" fill="#FFB288"/>
<path d="M347.605 69.9609C347.605 69.9609 361.511 70.9147 369.579 77.71C381.097 87.4194 382.795 106.441 382.795 110.852C379.319 114.601 371.702 114.799 366.156 114.799C360.609 114.799 356.562 112.15 356.562 112.15L355.434 91.1813" fill="#AAD4F0"/>
<path d="M342.644 174.67C341.065 174.829 339.526 175.597 338.199 176.63C336.978 177.584 335.479 179.174 335.638 179.902C335.797 180.67 337.801 179.2 338.04 179.492C338.279 179.783 334.616 185.307 335.306 185.717C335.996 186.128 339.115 181.134 339.115 181.134C339.115 181.134 336.089 186.472 337.257 186.591C338.239 186.684 340.919 181.637 340.919 181.637C340.919 181.637 338.65 186.154 339.433 186.327C340.216 186.499 342.312 181.995 342.312 181.995C342.312 181.995 340.601 185.836 341.251 185.903C341.583 185.929 343.268 184.022 343.984 181.704C344.674 179.425 345.497 177.438 344.86 175.663" fill="#FFB288"/>
<path d="M357.149 93.3945V112.496" stroke="#5A8DC6" stroke-width="0.5" stroke-miterlimit="10"/>
<path d="M318.785 52.3458C318.719 53.1803 318.679 54.0016 318.679 54.8361C318.692 56.6376 318.931 58.5185 319.966 60.0021C320.682 61.0088 321.757 61.7638 322.951 62.095C323.801 62.3202 324.902 62.2275 325.273 61.4327C325.406 61.1545 325.406 60.8366 325.406 60.5187C325.393 57.4323 324.796 54.3592 323.641 51.498" fill="#26387A"/>
<path d="M339.774 54.0783C338.579 49.4422 334.824 42.9383 328.72 44.2364C324.886 45.0577 321.356 47.6672 320.228 51.3099C318.875 55.6679 321.064 60.7412 323.678 64.2911C324.647 65.6025 325.788 66.8477 327.274 67.6292C330.804 69.4572 335.581 67.9603 337.982 64.9137C340.384 61.8671 340.716 57.7475 339.774 54.0783Z" fill="#FFB288"/>
<path d="M331.21 66.2106L333.201 73.4827L330.48 74.7676C330.48 74.7676 332.55 77.5228 336.651 76.9267C344.984 75.7213 347.598 69.9592 347.598 69.9592L342.9 69.4691L337.699 60.6074" fill="#FFB288"/>
<path d="M343.836 49.0073C343.252 45.8149 340.97 43.1127 338.196 41.4304C333.26 38.4368 326.241 38.1984 321.862 42.3179C319.368 44.6625 314.869 52.9811 320.243 54.6236C321.929 55.1402 323.654 54.1203 325.113 53.1401C326.599 52.1466 328.085 51.1532 329.572 50.1597C330.102 49.802 330.673 49.4312 331.31 49.4047C332.358 49.3649 333.234 50.2657 333.605 51.2459C333.977 52.2261 334.003 53.299 334.256 54.319C334.428 55.0343 334.747 55.7761 335.37 56.1867C335.994 56.5841 336.989 56.4649 337.307 55.8026C337.533 55.339 337.374 54.7959 337.361 54.2793C337.347 53.7627 337.639 53.1268 338.157 53.1533C338.342 53.1666 338.515 53.2593 338.661 53.3653C339.961 54.372 339.537 56.3987 339.961 57.975C340.014 58.1869 339.59 61.3925 339.722 61.5514C343.862 60.6242 344.247 51.2989 343.836 49.0073Z" fill="#5C5C6A"/>
<path d="M337.709 53.5782C337.617 52.9954 338.174 52.4523 338.771 52.386C339.368 52.3198 339.939 52.6245 340.39 53.0086C341.173 53.6577 341.73 54.6114 341.743 55.6181C341.756 56.4129 341.438 57.1812 341 57.8435C340.708 58.2938 340.323 58.731 339.806 58.8899C339.142 59.1018 338.413 58.7972 337.935 58.2938" fill="#FFB288"/>
<path d="M189.954 302.957C189.954 302.957 198.897 304.441 199.149 306.414C199.295 307.54 186.61 308.878 185.747 308.216C184.367 307.156 186.066 303.195 186.066 303.195L189.954 302.957Z" fill="#42424E"/>
<path d="M189.238 297.472L189.968 303.115C189.968 303.115 189.783 304.069 188.509 304.334C187.235 304.599 186.24 303.592 186.24 303.592L185.191 296.545" fill="#FFB288"/>
<path d="M155.789 168.801C154.183 182.696 154.104 189.372 160.327 198.883C163.273 212.328 167.797 226.077 171.221 239.84C169.748 256.279 180.071 282.453 185.618 301.143L189.625 300.455C195.026 266.809 197.016 215.202 192.173 170.033" fill="#586078"/>
<path d="M158.405 187.625C158.405 187.625 173.797 236.411 173.797 239.06C173.797 241.709 174.222 250.823 174.899 256.717C176.146 267.539 185.965 299.423 185.965 299.423" stroke="#42424E" stroke-width="0.5" stroke-miterlimit="10"/>
<path d="M185.487 301.912L184.863 299.474L190.038 299.289L190.118 301.528L185.487 301.912Z" fill="#42424E"/>
<path d="M120.361 303.23C120.361 303.23 127.367 308.277 126.743 310.052C126.385 311.072 115 306.86 114.549 305.933C113.819 304.449 116.95 301.773 116.95 301.773L120.361 303.23Z" fill="#42424E"/>
<path d="M122.07 298.266L120.305 303.392C120.305 303.392 119.748 304.12 118.541 303.816C117.346 303.511 116.922 302.226 116.922 302.226L119.005 295.775" fill="#FFB288"/>
<path d="M125.721 165.91C121.448 179.223 122.244 186.19 126.503 196.734C126.756 209.358 126.888 222.114 127.034 234.883C118.025 257.388 116.605 277.576 117.746 299.008L122.085 300.611C122.085 300.611 147.946 255.613 152.697 237.837C158.15 217.438 161.242 195.621 162.091 175.156" fill="#586078"/>
<path d="M126.781 168.799C126.781 168.799 122.071 182.548 128.241 195.795C128.241 199.49 130.364 230.235 129.528 234.977C129.13 237.255 124.897 248.117 122.071 258.701C118.953 270.397 118.289 297.989 118.289 297.989" stroke="#42424E" stroke-width="0.5" stroke-miterlimit="10"/>
<path d="M116.922 299.008L117.612 296.107L123.172 298.69L122.07 301.167L116.922 299.008Z" fill="#42424E"/>
<path d="M198.031 63.0385L194.541 60.0714C194.541 60.0714 194.541 54.8789 194.541 53.9252C194.541 52.9714 193.241 47.2491 192.073 47.2491C190.905 47.2491 190.64 45.8185 190.056 46.4013C189.472 46.9842 190.534 53.4483 190.056 53.9252C189.578 54.402 188.955 50.852 188.517 51.2892C188.079 51.7263 188.039 54.3358 188.039 55.6604C188.039 56.985 189.101 59.4488 190.162 60.4953C191.224 61.555 195.894 66.6018 195.894 66.6018L198.031 63.0385Z" fill="#EF9467"/>
<path d="M196.29 61.084L193.384 64.3955C193.384 64.3955 204.889 79.6022 208.538 84.6887C205.22 83.523 200.443 80.6089 197.683 78.8074C192.27 75.2706 186.843 73.3897 183.101 73.3897C175.126 73.3897 179.306 99.6039 188.541 103.445C206.069 106.081 225.734 104.412 228.733 98.2528C233.191 89.1262 207.489 67.6541 196.29 61.084Z" fill="#AAD4F0"/>
<path d="M208.523 84.6699C208.523 84.6699 210.713 90.7897 214.614 92.7766" stroke="#94C1F2" stroke-width="0.5" stroke-miterlimit="10"/>
<path d="M142.818 80.31C121.919 103.743 122.238 144.037 122.238 171.431C122.238 171.431 137.577 181.882 161.01 181.882C184.536 181.882 194.209 176.12 194.209 176.12C194.912 148.369 189.95 136.408 194.541 90.5096C194.541 90.5096 187.057 73.3823 183.076 73.3823C179.082 73.3823 163.491 71.8457 163.491 71.8457L142.818 80.31Z" fill="#AAD4F0"/>
<path d="M193.396 104.053C193.396 104.053 193.873 96.039 195.824 94.0918" stroke="#5A8DC6" stroke-width="0.5" stroke-miterlimit="10"/>
<path d="M170.397 54.2724C171.18 49.5435 174.551 42.788 180.747 43.5563C184.635 44.0331 187.647 46.7221 189.823 49.8614C191.694 52.5504 190.991 55.1334 188.324 61.9552C187.475 63.3461 185.644 65.8364 184.237 66.7371C180.88 68.8697 175.997 67.7968 173.33 64.9754C170.663 62.1539 169.787 58.0079 170.397 54.2724Z" fill="#FFB288"/>
<path d="M171.243 53.6921C172.132 53.5596 171.243 52.9768 171.641 53.7848C171.893 54.3014 171.973 54.4603 172.477 54.6193C172.968 54.7915 172.981 55.2419 173.392 55.5465C174.043 56.0234 174.587 55.3743 174.852 54.818C175.356 53.798 175.343 52.5529 175.223 51.4535C175.131 50.5792 174.839 49.2016 175.688 48.5923C176.391 48.1022 177.93 48.8175 178.647 49.0294C179.761 49.3473 180.863 49.705 181.964 50.0494C184.631 50.8574 187.458 51.5727 190.257 51.2018C192.712 50.8706 195.246 49.599 196.427 47.3207C197.834 44.6052 195.021 41.042 192.155 41.042C191.398 41.042 190.695 41.3466 189.952 41.4923C189.687 41.5453 189.395 41.5851 189.129 41.5056C188.506 41.3201 188.227 40.6181 187.869 40.075C186.807 38.4192 184.989 37.9159 183.119 38.1278C180.996 38.3662 179.178 39.3729 177.147 39.9293C176.073 40.2207 175.144 39.9425 174.082 39.9823C172.981 40.022 171.84 40.7373 171.349 41.7573C170.486 40.8565 168.549 43.0686 168.058 43.6647C165.935 46.2345 165.272 49.9434 165.219 53.202C165.166 56.0499 165.643 60.1827 168.761 61.3351C170.088 61.8252 170.911 62.0769 170.977 60.8715C170.394 59.6131 170.261 57.1361 170.141 56.0896C170.022 55.0432 170.327 53.798 171.296 53.3874" fill="#5C5C6A"/>
<path d="M181.401 65.5562L180.724 72.6959L183.072 73.3582C183.072 73.3582 181.825 76.5638 177.725 77.1069C169.379 78.2195 163.487 71.8216 163.487 71.8216L166.274 71.2785L170.493 58.0059" fill="#FFB288"/>
<path d="M172.628 53.6388C172.668 53.0428 172.057 52.5527 171.473 52.5394C170.876 52.5262 170.332 52.8706 169.908 53.2945C167.572 55.6125 170.505 61.2687 172.814 58.3413" fill="#FFB288"/>
<path d="M188.36 61.821C187.988 62.6952 186.502 63.0529 185.693 63.1324C181.765 63.5695 178.514 61.0262 174.759 60.5626C174.016 60.4699 173.167 60.4036 172.609 60.907C172.079 61.3838 172.039 62.1786 172.026 62.8807C172.012 63.7549 171.999 64.6424 172.079 65.5034C172.145 66.2584 172.291 67.0267 172.689 67.6758C174.388 70.4972 180.053 70.9741 182.92 70.8019C184.074 70.7357 185.281 70.5105 186.197 69.8217C187.484 68.8547 187.763 67.1459 188.254 65.6491C188.824 63.8344 188.36 61.821 188.36 61.821Z" fill="#5C5C6A"/>
<path d="M185.568 64.889C185.448 64.8095 185.303 64.7433 185.157 64.7433C183.325 64.7433 182.304 64.3062 180.884 64.187C180.645 64.1737 180.393 64.1472 180.154 64.2267C179.65 64.3857 179.358 64.9023 179.252 65.4189C179.146 65.9355 179.411 66.3329 179.875 66.558C180.725 66.9819 181.68 67.1276 182.622 67.1541C183.445 67.1806 184.52 67.2468 185.196 66.6905C185.568 66.3858 186.138 65.3129 185.568 64.889Z" fill="#FFB288"/>
<path d="M168.306 168.335C122.647 165.951 96.056 189.476 77.1741 232.327C52.6662 287.935 18.4187 292.372 3 292.068" stroke="#9FA7B4" stroke-width="5" stroke-miterlimit="10" stroke-linecap="round" stroke-linejoin="round"/>
<path d="M150.789 172.04C152.474 192.148 168.729 203.023 181.759 201.937L203.135 200.162L197.748 135.666L176.372 137.441C163.341 138.527 149.104 151.932 150.789 172.04Z" fill="#FDAE2B"/>
<path d="M161.805 171.13C163.45 190.787 176.427 205.742 190.811 204.537L214.39 202.577L208.446 131.418L184.867 133.378C170.496 134.584 160.16 151.486 161.805 171.13Z" fill="#EF8417"/>
<path d="M212.693 202.714C227.071 201.517 237.397 184.62 235.756 164.973C234.115 145.326 221.128 130.37 206.749 131.567C192.37 132.764 182.044 149.661 183.686 169.308C185.327 188.955 198.314 203.911 212.693 202.714Z" fill="#FFC840"/>
<path d="M208.616 179.926C208.855 182.84 211.058 185.052 213.526 184.84C215.994 184.628 217.785 182.098 217.546 179.184C217.307 176.27 215.105 174.058 212.637 174.27C210.169 174.482 208.377 177.012 208.616 179.926Z" fill="#FDAE2B"/>
<path d="M206.504 154.721C206.742 157.635 208.945 159.847 211.413 159.635C213.881 159.437 215.673 156.893 215.434 153.979C215.195 151.065 212.992 148.853 210.524 149.065C208.069 149.264 206.265 151.794 206.504 154.721Z" fill="#FDAE2B"/>
<path d="M211.721 158.014C214.401 157.788 245.053 155.232 245.053 155.232C247.083 155.06 248.596 153.258 248.423 151.218C248.251 149.165 246.459 147.642 244.429 147.814C244.429 147.814 213.645 150.384 211.097 150.596C208.549 150.808 209.027 158.239 211.721 158.014Z" fill="#E2E8ED"/>
<path d="M213.816 183.234C216.496 183.009 247.148 180.453 247.148 180.453C249.178 180.28 250.691 178.479 250.518 176.439C250.346 174.386 248.554 172.863 246.524 173.035C246.524 173.035 215.74 175.605 213.192 175.816C210.645 176.015 211.136 183.459 213.816 183.234Z" fill="#E2E8ED"/>
<path d="M131.691 110.378C131.691 110.378 130.032 127.241 137.582 141.269C144.044 153.256 156.875 168.781 167.239 177.338L169.733 176.729C166.124 162.9 154.739 138.354 154.023 129.162C153.319 119.955 153.478 109.292 153.319 104.166" fill="#FFB288"/>
<path d="M163.51 71.834C163.51 71.834 148.861 72.6818 140.435 79.0267C125.865 90.0078 128.732 119.52 132.964 133.932C137.21 148.357 157.605 170.001 164.2 174.664C165.275 174.664 168.446 174.399 168.34 171.909C164.691 160.663 154.301 131.084 154.301 131.084L155.946 91.1734" fill="#AAD4F0"/>
<path d="M168.732 174.678C170.311 174.837 171.85 175.605 173.177 176.638C174.398 177.592 175.897 179.181 175.738 179.91C175.579 180.678 173.575 179.208 173.336 179.499C173.097 179.791 176.76 185.314 176.07 185.725C175.38 186.136 172.262 181.142 172.262 181.142C172.262 181.142 175.287 186.48 174.119 186.599C173.137 186.692 170.457 181.645 170.457 181.645C170.457 181.645 172.726 186.162 171.943 186.334C171.16 186.507 169.064 182.003 169.064 182.003C169.064 182.003 170.775 185.844 170.125 185.911C169.793 185.937 168.108 184.03 167.392 181.711C166.702 179.433 165.879 177.446 166.516 175.671" fill="#FFB288"/>
<path d="M158.405 142.86C156.069 136.145 154.305 131.111 154.305 131.111L157.383 97.6113" stroke="#5A8DC6" stroke-width="0.5" stroke-miterlimit="10"/>
<path d="M129.607 105.742C129.527 114.829 130.615 126.022 132.95 133.957C134.994 140.898 140.779 149.521 146.963 157.098" stroke="#5A8DC6" stroke-width="0.5" stroke-miterlimit="10"/>
<path d="M442.968 56.3948L445.316 54.792C445.316 54.792 446.404 49.679 447.015 48.7517C447.652 47.7848 448.859 45.7714 450.239 44.8441C450.81 44.46 453.437 42.9764 454.101 43.6387C454.432 43.9699 453.318 46.9238 452.813 47.4271C452.309 47.9305 450.81 50.2088 451.049 50.9109C451.288 51.6262 452.522 50.0631 452.813 49.7717C453.105 49.4803 453.503 49.1094 453.636 49.4935C453.862 50.1293 452.535 53.6926 451.5 54.7258C450.465 55.759 448.78 56.7392 447.612 56.7392L443.95 59.958" fill="#FFB288"/>
<path d="M471.338 39.5595C475.239 41.8511 477.641 46.1693 478.583 50.4876C478.755 51.2691 478.888 52.1036 479.432 52.6865C479.857 53.1501 480.467 53.3885 481.051 53.6534C484.275 55.1503 486.757 58.0644 487.884 61.4157C488.375 62.8463 487.991 64.8597 488.548 66.0784C489.238 67.5752 491.786 67.9063 493.152 68.37C497.252 69.7211 500.251 73.8406 500.304 78.1457C500.344 82.4507 497.425 86.6232 493.365 88.0671C494.453 89.5904 494.612 91.6568 494.108 93.4715C493.603 95.2862 492.502 96.8758 491.255 98.2799C486.093 104.095 478.145 107.208 470.369 106.877C468.127 106.784 465.884 106.413 463.801 105.565C461.452 104.612 459.382 103.062 457.405 101.485C455.017 99.578 452.629 97.4851 451.341 94.7034C450.054 91.935 450.134 88.3055 452.323 86.1596C449.802 86.6895 447.109 85.3118 445.689 83.166C444.269 81.0201 444.017 78.2516 444.587 75.7348C445.158 73.2313 446.485 70.953 448.024 68.8866C449.112 67.4427 450.346 65.9724 450.585 64.1842C450.97 61.1905 449.298 58.5281 448.86 55.5477C448.183 50.9247 448.396 46.9376 452.363 44.4871C453.637 41.1888 455.176 38.6455 458.825 37.6785C463.151 36.5261 467.463 37.2679 471.338 39.5595Z" fill="#5C5C6A"/>
<path d="M461.792 74.7126C448.549 71.2554 433.409 76.7128 430.026 76.6996C434.643 72.0899 443.136 61.8108 446.068 58.2608C446.068 55.8235 444.582 55.1348 444.582 55.1348C444.582 55.1348 408.278 73.8781 411.927 86.1176C415.735 98.8869 451.309 92.6215 454.149 96.2907" fill="#AAD4F0"/>
<path d="M464.385 193.654C464.345 194.74 459.608 218.001 459.25 220.504C458.228 227.776 462.076 235.075 461.705 246.348C461.253 260.057 455.415 296.882 454.672 298.524C453.929 300.154 450.373 298.657 450.373 298.657C450.373 298.657 440.116 249.248 439.532 229.021C439.054 212.371 441.483 176.328 441.483 176.328" fill="#FFB288"/>
<path d="M455.045 299.152C455.045 299.152 455.642 300.397 455.616 300.967C455.536 302.504 455.496 303.55 455.496 303.55L454.833 303.59L454.607 302.331C454.607 302.331 452.829 302.636 451.025 303.828C450.149 304.398 445.743 304.345 445.067 303.987C444.31 303.59 444.523 302.861 444.775 302.57C445.027 302.278 449.791 300.199 449.791 300.199" fill="#42424E"/>
<path d="M450.388 298.647C450.003 299.574 446.248 301.614 446.593 301.892C446.938 302.171 449.127 302.184 451.555 301.376C453.771 300.647 455.019 299.826 455.085 299.243L454.66 297.693" fill="#FFB288"/>
<path d="M497.327 194.618C497.313 195.704 493.293 219.097 493.014 221.614C492.218 228.912 496.292 236.092 496.265 247.364C496.225 261.074 491.515 298.071 490.825 299.727C490.135 301.382 486.526 299.992 486.526 299.992C486.526 299.992 474.756 250.914 473.562 230.727C472.58 214.09 473.893 177.994 473.893 177.994" fill="#FFB288"/>
<path d="M491.21 300.346C491.21 300.346 491.847 301.578 491.834 302.147C491.807 303.684 491.781 304.73 491.781 304.73L491.117 304.796L490.852 303.551C490.852 303.551 489.087 303.909 487.322 305.154C486.46 305.75 482.068 305.843 481.378 305.498C480.608 305.128 480.807 304.399 481.046 304.094C481.285 303.79 485.982 301.578 485.982 301.578" fill="#42424E"/>
<path d="M486.53 299.991C486.171 300.931 482.482 303.091 482.827 303.355C483.186 303.62 485.362 303.567 487.764 302.693C489.953 301.898 491.174 301.037 491.227 300.455L490.762 298.918" fill="#FFB288"/>
<path d="M485.364 134.774C485.364 134.774 495.886 141.649 499.894 158.153C505.294 180.407 497.333 223.974 497.333 223.974C497.333 223.974 480.852 228.782 462.939 228.623C445.026 228.477 434.411 222.424 434.371 221.351C434.331 220.265 431.704 187.282 435.34 164.909C439.426 139.794 449.843 133.025 449.843 133.025" fill="#2858AD"/>
<path d="M471.085 74.2954C472.717 73.6861 476.95 75.1696 484.871 78.203C488.348 81.9649 489.874 90.1908 490.63 97.4895C488.573 115.226 486.278 124.922 487.392 130.91C487.658 132.327 488.958 133.4 488.746 135.387C488.321 139.48 481.607 140.102 468.869 141.546C456.13 142.99 444.666 137.215 445.343 135.413C446.033 133.612 448.209 132.022 448.554 130.83C448.899 129.638 449.934 114.431 448.567 112.63C447.187 110.828 443.631 105.636 443.631 100.576C443.631 93.4626 447.559 90.2703 450.119 86.3627C454.405 79.8455 457.643 75.7657 461.796 74.7325C468.417 73.0767 471.085 74.2954 471.085 74.2954Z" fill="#AAD4F0"/>
<path d="M449.642 83.2891C449.642 83.2891 450.106 86.3357 448.541 88.8922C448.063 89.6737 445.17 92.6144 444.6 94.4953" stroke="#5A8DC6" stroke-width="0.5" stroke-miterlimit="10"/>
<path d="M468.042 65.6286C471.519 62.1846 472.076 55.6409 470.484 51.2167C468.706 46.2361 461.593 42.5139 456.71 45.6268C447.117 51.7465 456.856 76.7289 468.042 65.6286Z" fill="#FFB288"/>
<path d="M461.425 65.0236L461.611 75.6736C461.611 75.6736 461.213 78.0446 465.379 78.1904C471.098 78.389 471.098 74.296 471.098 74.296L467.794 63.3281" fill="#FFB288"/>
<path d="M465.75 40.928C464.569 40.1597 463.322 40.12 462.101 40.8353C461.358 41.2724 460.84 42.001 460.044 42.3586C459.487 42.6103 458.81 42.65 458.226 42.809C455.453 43.564 452.826 45.6702 451.658 48.3062C450.477 50.9554 450.862 55.2737 453.065 57.1679C452.972 55.1147 453.582 52.174 454.683 50.4255C455.254 49.5116 456.169 48.6108 457.231 48.7433C458.438 48.8758 459.089 50.1606 459.951 51.0084C461.265 52.28 463.149 52.5449 464.887 52.8099C466.851 53.1013 468.364 53.4457 469.332 55.3796C469.757 56.2141 469.983 57.1414 470.208 58.0421C470.474 59.1283 470.739 60.2145 470.805 61.3139C470.845 62.0027 470.805 62.718 471.018 63.3671C471.455 64.6785 472.782 65.4732 474.096 65.9103C475.104 66.2547 476.803 66.5594 477.44 65.4202C477.971 64.4665 478.422 63.1286 478.608 62.0557C479.218 58.4792 478.077 54.7703 476.139 51.6972C474.016 48.3327 471.004 46.0676 468.271 43.2594C467.475 42.4249 466.652 41.5241 465.75 40.928Z" fill="#5C5C6A"/>
<path d="M468.428 57.3084C468.64 56.5004 469.237 55.6659 470.073 55.5466C472.793 55.136 472.382 59.1893 471.334 60.6067C470.723 61.4412 469.144 62.5141 468.428 60.2225" fill="#FFB288"/>
<path d="M497.231 140.214L495.957 142.943C495.957 142.943 491.141 144.082 490.623 144.93C489.814 146.268 488.606 148.122 488.606 149.169C488.606 150.229 488.713 154.838 490.026 154.838C490.849 154.838 492.799 151.063 493.197 150.546C494.14 149.301 497.961 148.401 497.961 145.115L500.296 140.201" fill="#FFB288"/>
<path d="M471.093 74.1453C471.093 74.1453 482.345 71.2841 491.129 76.821C497.963 81.126 515.544 102.532 515.544 114.798C515.544 123.063 499.104 143.542 499.104 143.542L496.37 141.595C496.37 141.595 497.963 125.501 502.739 116.626C499.21 113.102 485.476 102.174 482.013 98.7302" fill="#AAD4F0"/>
<path d="M480.236 97.6191C482.691 99.8048 489.166 104.997 489.166 104.997" stroke="#5A8DC6" stroke-width="0.5" stroke-miterlimit="10"/>
<path d="M148.526 55.195L134.938 44.2537C134.938 44.2537 141.055 21.7219 132.961 13.8536C128.662 9.66784 123.208 6.80667 117.595 4.67404C105.083 -0.0681005 90.1417 -1.14104 78.9957 6.25034C70.7689 11.6945 65.7797 21.0331 63.5373 30.6233C61.5734 39.0744 61.7327 48.6779 67.027 55.5527C69.4022 58.639 72.6531 60.9704 76.1163 62.7718C86.8776 68.4015 115.313 70.5209 127.667 62.2685C131.09 59.9769 130.785 56.8905 132.218 52.0557L148.526 55.195Z" fill="#E7F5FE"/>
<path d="M83.4713 28.752V31.875C83.3658 32.0312 83.1978 32.207 82.9673 32.4023C82.7369 32.5938 82.4185 32.7617 82.0123 32.9062C81.6099 33.0469 81.0904 33.1172 80.4537 33.1172C79.9341 33.1172 79.4556 33.0273 79.0181 32.8477C78.5845 32.6641 78.2076 32.3984 77.8873 32.0508C77.5709 31.6992 77.3248 31.2734 77.149 30.7734C76.9771 30.2695 76.8912 29.6992 76.8912 29.0625V28.4004C76.8912 27.7637 76.9654 27.1953 77.1138 26.6953C77.2662 26.1953 77.4888 25.7715 77.7818 25.4238C78.0748 25.0723 78.4341 24.8066 78.8599 24.627C79.2857 24.4434 79.774 24.3516 80.3248 24.3516C80.9771 24.3516 81.522 24.4648 81.9595 24.6914C82.4009 24.9141 82.7447 25.2227 82.9908 25.6172C83.2408 26.0117 83.4009 26.4609 83.4713 26.9648H82.3404C82.2896 26.6562 82.1881 26.375 82.0357 26.1211C81.8873 25.8672 81.6744 25.6641 81.397 25.5117C81.1197 25.3555 80.7623 25.2773 80.3248 25.2773C79.9302 25.2773 79.5884 25.3496 79.2994 25.4941C79.0103 25.6387 78.772 25.8457 78.5845 26.1152C78.397 26.3848 78.2564 26.7109 78.1627 27.0938C78.0728 27.4766 78.0279 27.9082 78.0279 28.3887V29.0625C78.0279 29.5547 78.0845 29.9941 78.1978 30.3809C78.315 30.7676 78.481 31.0977 78.6959 31.3711C78.9107 31.6406 79.1666 31.8457 79.4634 31.9863C79.7642 32.127 80.0963 32.1973 80.4595 32.1973C80.8619 32.1973 81.1881 32.1641 81.4381 32.0977C81.6881 32.0273 81.8834 31.9453 82.024 31.8516C82.1646 31.7539 82.272 31.6621 82.3463 31.5762V29.666H80.3716V28.752H83.4713ZM86.3599 26.6602V33H85.2701V26.6602H86.3599ZM85.1881 24.9785C85.1881 24.8027 85.2408 24.6543 85.3463 24.5332C85.4556 24.4121 85.6158 24.3516 85.8267 24.3516C86.0338 24.3516 86.192 24.4121 86.3013 24.5332C86.4146 24.6543 86.4713 24.8027 86.4713 24.9785C86.4713 25.1465 86.4146 25.291 86.3013 25.4121C86.192 25.5293 86.0338 25.5879 85.8267 25.5879C85.6158 25.5879 85.4556 25.5293 85.3463 25.4121C85.2408 25.291 85.1881 25.1465 85.1881 24.9785ZM90.0279 32.0215L91.7623 26.6602H92.8697L90.5904 33H89.8638L90.0279 32.0215ZM88.5806 26.6602L90.3677 32.0508L90.4908 33H89.7642L87.4673 26.6602H88.5806ZM96.4615 33.1172C96.0201 33.1172 95.6197 33.043 95.2603 32.8945C94.9048 32.7422 94.5982 32.5293 94.3404 32.2559C94.0865 31.9824 93.8912 31.6582 93.7545 31.2832C93.6177 30.9082 93.5494 30.498 93.5494 30.0527V29.8066C93.5494 29.291 93.6256 28.832 93.7779 28.4297C93.9302 28.0234 94.1373 27.6797 94.399 27.3984C94.6607 27.1172 94.9576 26.9043 95.2896 26.7598C95.6216 26.6152 95.9654 26.543 96.3209 26.543C96.774 26.543 97.1646 26.6211 97.4927 26.7773C97.8248 26.9336 98.0963 27.1523 98.3072 27.4336C98.5181 27.7109 98.6744 28.0391 98.7759 28.418C98.8775 28.793 98.9283 29.2031 98.9283 29.6484V30.1348H94.1939V29.25H97.8443V29.168C97.8287 28.8867 97.7701 28.6133 97.6685 28.3477C97.5709 28.082 97.4146 27.8633 97.1998 27.6914C96.9849 27.5195 96.692 27.4336 96.3209 27.4336C96.0748 27.4336 95.8482 27.4863 95.6412 27.5918C95.4341 27.6934 95.2564 27.8457 95.108 28.0488C94.9595 28.252 94.8443 28.5 94.7623 28.793C94.6802 29.0859 94.6392 29.4238 94.6392 29.8066V30.0527C94.6392 30.3535 94.6802 30.6367 94.7623 30.9023C94.8482 31.1641 94.9713 31.3945 95.1314 31.5938C95.2955 31.793 95.4927 31.9492 95.7232 32.0625C95.9576 32.1758 96.2232 32.2324 96.5201 32.2324C96.9029 32.2324 97.2271 32.1543 97.4927 31.998C97.7584 31.8418 97.9908 31.6328 98.19 31.3711L98.8463 31.8926C98.7095 32.0996 98.5357 32.2969 98.3248 32.4844C98.1138 32.6719 97.8541 32.8242 97.5455 32.9414C97.2408 33.0586 96.8795 33.1172 96.4615 33.1172ZM104.249 27.9199V33H103.159V26.6602H104.19L104.249 27.9199ZM104.026 29.5898L103.522 29.5723C103.526 29.1387 103.583 28.7383 103.692 28.3711C103.801 28 103.963 27.6777 104.178 27.4043C104.393 27.1309 104.661 26.9199 104.981 26.7715C105.301 26.6191 105.672 26.543 106.094 26.543C106.391 26.543 106.665 26.5859 106.915 26.6719C107.165 26.7539 107.381 26.8848 107.565 27.0645C107.749 27.2441 107.891 27.4746 107.993 27.7559C108.094 28.0371 108.145 28.377 108.145 28.7754V33H107.061V28.8281C107.061 28.4961 107.004 28.2305 106.891 28.0312C106.782 27.832 106.626 27.6875 106.422 27.5977C106.219 27.5039 105.981 27.457 105.708 27.457C105.387 27.457 105.12 27.5137 104.905 27.627C104.69 27.7402 104.518 27.8965 104.389 28.0957C104.26 28.2949 104.167 28.5234 104.108 28.7812C104.053 29.0352 104.026 29.3047 104.026 29.5898ZM108.133 28.9922L107.407 29.2148C107.411 28.8672 107.467 28.5332 107.577 28.2129C107.69 27.8926 107.852 27.6074 108.063 27.3574C108.278 27.1074 108.542 26.9102 108.854 26.7656C109.167 26.6172 109.524 26.543 109.926 26.543C110.266 26.543 110.567 26.5879 110.829 26.6777C111.094 26.7676 111.317 26.9062 111.497 27.0938C111.68 27.2773 111.819 27.5137 111.913 27.8027C112.006 28.0918 112.053 28.4355 112.053 28.834V33H110.963V28.8223C110.963 28.4668 110.907 28.1914 110.794 27.9961C110.684 27.7969 110.528 27.6582 110.325 27.5801C110.126 27.498 109.887 27.457 109.61 27.457C109.372 27.457 109.161 27.498 108.977 27.5801C108.794 27.6621 108.639 27.7754 108.514 27.9199C108.389 28.0605 108.294 28.2227 108.227 28.4062C108.165 28.5898 108.133 28.7852 108.133 28.9922ZM116.325 33.1172C115.883 33.1172 115.483 33.043 115.124 32.8945C114.768 32.7422 114.461 32.5293 114.204 32.2559C113.95 31.9824 113.754 31.6582 113.618 31.2832C113.481 30.9082 113.413 30.498 113.413 30.0527V29.8066C113.413 29.291 113.489 28.832 113.641 28.4297C113.794 28.0234 114.001 27.6797 114.262 27.3984C114.524 27.1172 114.821 26.9043 115.153 26.7598C115.485 26.6152 115.829 26.543 116.184 26.543C116.637 26.543 117.028 26.6211 117.356 26.7773C117.688 26.9336 117.96 27.1523 118.17 27.4336C118.381 27.7109 118.538 28.0391 118.639 28.418C118.741 28.793 118.792 29.2031 118.792 29.6484V30.1348H114.057V29.25H117.708V29.168C117.692 28.8867 117.633 28.6133 117.532 28.3477C117.434 28.082 117.278 27.8633 117.063 27.6914C116.848 27.5195 116.555 27.4336 116.184 27.4336C115.938 27.4336 115.711 27.4863 115.504 27.5918C115.297 27.6934 115.12 27.8457 114.971 28.0488C114.823 28.252 114.708 28.5 114.626 28.793C114.544 29.0859 114.503 29.4238 114.503 29.8066V30.0527C114.503 30.3535 114.544 30.6367 114.626 30.9023C114.711 31.1641 114.835 31.3945 114.995 31.5938C115.159 31.793 115.356 31.9492 115.586 32.0625C115.821 32.1758 116.086 32.2324 116.383 32.2324C116.766 32.2324 117.09 32.1543 117.356 31.998C117.622 31.8418 117.854 31.6328 118.053 31.3711L118.71 31.8926C118.573 32.0996 118.399 32.2969 118.188 32.4844C117.977 32.6719 117.717 32.8242 117.409 32.9414C117.104 33.0586 116.743 33.1172 116.325 33.1172ZM85.5923 45.916V42.6523C85.5923 42.4023 85.5416 42.1855 85.44 42.002C85.3423 41.8145 85.1939 41.6699 84.9947 41.5684C84.7955 41.4668 84.5494 41.416 84.2564 41.416C83.983 41.416 83.7427 41.4629 83.5357 41.5566C83.3326 41.6504 83.1724 41.7734 83.0552 41.9258C82.942 42.0781 82.8853 42.2422 82.8853 42.418H81.8013C81.8013 42.1914 81.8599 41.9668 81.9771 41.7441C82.0943 41.5215 82.2623 41.3203 82.481 41.1406C82.7037 40.957 82.9693 40.8125 83.2779 40.707C83.5904 40.5977 83.9381 40.543 84.3209 40.543C84.7818 40.543 85.1881 40.6211 85.5396 40.7773C85.8951 40.9336 86.1724 41.1699 86.3716 41.4863C86.5748 41.7988 86.6763 42.1914 86.6763 42.6641V45.6172C86.6763 45.8281 86.6939 46.0527 86.7291 46.291C86.7681 46.5293 86.8248 46.7344 86.899 46.9062V47H85.7681C85.7134 46.875 85.6705 46.709 85.6392 46.502C85.608 46.291 85.5923 46.0957 85.5923 45.916ZM85.7798 43.1562L85.7916 43.918H84.6959C84.3873 43.918 84.1119 43.9434 83.8697 43.9941C83.6275 44.041 83.4244 44.1133 83.2603 44.2109C83.0963 44.3086 82.9713 44.4316 82.8853 44.5801C82.7994 44.7246 82.7564 44.8945 82.7564 45.0898C82.7564 45.2891 82.8013 45.4707 82.8912 45.6348C82.981 45.7988 83.1158 45.9297 83.2955 46.0273C83.4791 46.1211 83.7037 46.168 83.9693 46.168C84.3013 46.168 84.5943 46.0977 84.8482 45.957C85.1021 45.8164 85.3033 45.6445 85.4517 45.4414C85.6041 45.2383 85.6861 45.041 85.6978 44.8496L86.1607 45.3711C86.1334 45.5352 86.0591 45.7168 85.9381 45.916C85.817 46.1152 85.6548 46.3066 85.4517 46.4902C85.2525 46.6699 85.0142 46.8203 84.7369 46.9414C84.4634 47.0586 84.1548 47.1172 83.8111 47.1172C83.3814 47.1172 83.0045 47.0332 82.6802 46.8652C82.3599 46.6973 82.1099 46.4727 81.9302 46.1914C81.7545 45.9062 81.6666 45.5879 81.6666 45.2363C81.6666 44.8965 81.733 44.5977 81.8658 44.3398C81.9986 44.0781 82.19 43.8613 82.44 43.6895C82.69 43.5137 82.9908 43.3809 83.3423 43.291C83.6939 43.2012 84.0865 43.1562 84.5201 43.1562H85.7798ZM94.0123 40.6602V41.4922H90.5845V40.6602H94.0123ZM91.7447 39.1191H92.8287V45.4297C92.8287 45.6445 92.8619 45.8066 92.9283 45.916C92.9947 46.0254 93.0806 46.0977 93.1861 46.1328C93.2916 46.168 93.4048 46.1855 93.5259 46.1855C93.6158 46.1855 93.7095 46.1777 93.8072 46.1621C93.9088 46.1426 93.9849 46.127 94.0357 46.1152L94.0416 47C93.9556 47.0273 93.8423 47.0527 93.7017 47.0762C93.565 47.1035 93.399 47.1172 93.2037 47.1172C92.9381 47.1172 92.6939 47.0645 92.4713 46.959C92.2486 46.8535 92.0709 46.6777 91.9381 46.4316C91.8091 46.1816 91.7447 45.8457 91.7447 45.4238V39.1191ZM96.4615 40.6602V47H95.3716V40.6602H96.4615ZM95.2896 38.9785C95.2896 38.8027 95.3423 38.6543 95.4478 38.5332C95.5572 38.4121 95.7173 38.3516 95.9283 38.3516C96.1353 38.3516 96.2935 38.4121 96.4029 38.5332C96.5162 38.6543 96.5728 38.8027 96.5728 38.9785C96.5728 39.1465 96.5162 39.291 96.4029 39.4121C96.2935 39.5293 96.1353 39.5879 95.9283 39.5879C95.7173 39.5879 95.5572 39.5293 95.4478 39.4121C95.3423 39.291 95.2896 39.1465 95.2896 38.9785ZM99.2798 41.9199V47H98.19V40.6602H99.2213L99.2798 41.9199ZM99.0572 43.5898L98.5533 43.5723C98.5572 43.1387 98.6138 42.7383 98.7232 42.3711C98.8326 42 98.9947 41.6777 99.2095 41.4043C99.4244 41.1309 99.692 40.9199 100.012 40.7715C100.333 40.6191 100.704 40.543 101.126 40.543C101.422 40.543 101.696 40.5859 101.946 40.6719C102.196 40.7539 102.413 40.8848 102.596 41.0645C102.78 41.2441 102.922 41.4746 103.024 41.7559C103.126 42.0371 103.176 42.377 103.176 42.7754V47H102.092V42.8281C102.092 42.4961 102.036 42.2305 101.922 42.0312C101.813 41.832 101.657 41.6875 101.454 41.5977C101.251 41.5039 101.012 41.457 100.739 41.457C100.419 41.457 100.151 41.5137 99.9361 41.627C99.7213 41.7402 99.5494 41.8965 99.4205 42.0957C99.2916 42.2949 99.1978 42.5234 99.1392 42.7812C99.0845 43.0352 99.0572 43.3047 99.0572 43.5898ZM103.165 42.9922L102.438 43.2148C102.442 42.8672 102.499 42.5332 102.608 42.2129C102.721 41.8926 102.883 41.6074 103.094 41.3574C103.309 41.1074 103.573 40.9102 103.885 40.7656C104.198 40.6172 104.555 40.543 104.958 40.543C105.297 40.543 105.598 40.5879 105.86 40.6777C106.126 40.7676 106.348 40.9062 106.528 41.0938C106.711 41.2773 106.85 41.5137 106.944 41.8027C107.038 42.0918 107.085 42.4355 107.085 42.834V47H105.995V42.8223C105.995 42.4668 105.938 42.1914 105.825 41.9961C105.715 41.7969 105.559 41.6582 105.356 41.5801C105.157 41.498 104.919 41.457 104.641 41.457C104.403 41.457 104.192 41.498 104.008 41.5801C103.825 41.6621 103.67 41.7754 103.545 41.9199C103.42 42.0605 103.325 42.2227 103.258 42.4062C103.196 42.5898 103.165 42.7852 103.165 42.9922ZM111.356 47.1172C110.915 47.1172 110.514 47.043 110.155 46.8945C109.799 46.7422 109.493 46.5293 109.235 46.2559C108.981 45.9824 108.786 45.6582 108.649 45.2832C108.512 44.9082 108.444 44.498 108.444 44.0527V43.8066C108.444 43.291 108.52 42.832 108.672 42.4297C108.825 42.0234 109.032 41.6797 109.294 41.3984C109.555 41.1172 109.852 40.9043 110.184 40.7598C110.516 40.6152 110.86 40.543 111.215 40.543C111.669 40.543 112.059 40.6211 112.387 40.7773C112.719 40.9336 112.991 41.1523 113.202 41.4336C113.413 41.7109 113.569 42.0391 113.67 42.418C113.772 42.793 113.823 43.2031 113.823 43.6484V44.1348H109.088V43.25H112.739V43.168C112.723 42.8867 112.665 42.6133 112.563 42.3477C112.465 42.082 112.309 41.8633 112.094 41.6914C111.879 41.5195 111.586 41.4336 111.215 41.4336C110.969 41.4336 110.743 41.4863 110.536 41.5918C110.329 41.6934 110.151 41.8457 110.003 42.0488C109.854 42.252 109.739 42.5 109.657 42.793C109.575 43.0859 109.534 43.4238 109.534 43.8066V44.0527C109.534 44.3535 109.575 44.6367 109.657 44.9023C109.743 45.1641 109.866 45.3945 110.026 45.5938C110.19 45.793 110.387 45.9492 110.618 46.0625C110.852 46.1758 111.118 46.2324 111.415 46.2324C111.797 46.2324 112.122 46.1543 112.387 45.998C112.653 45.8418 112.885 45.6328 113.085 45.3711L113.741 45.8926C113.604 46.0996 113.43 46.2969 113.219 46.4844C113.008 46.6719 112.749 46.8242 112.44 46.9414C112.135 47.0586 111.774 47.1172 111.356 47.1172ZM116.378 38.4688L116.301 44.5918H115.323L115.241 38.4688H116.378ZM115.206 46.4551C115.206 46.2793 115.258 46.1309 115.364 46.0098C115.473 45.8887 115.633 45.8281 115.844 45.8281C116.051 45.8281 116.21 45.8887 116.319 46.0098C116.432 46.1309 116.489 46.2793 116.489 46.4551C116.489 46.623 116.432 46.7676 116.319 46.8887C116.21 47.0098 116.051 47.0703 115.844 47.0703C115.633 47.0703 115.473 47.0098 115.364 46.8887C115.258 46.7676 115.206 46.623 115.206 46.4551Z" fill="#42424E"/>
</svg>
