<svg width="12" height="12" viewBox="0 0 12 12" fill="none" xmlns="http://www.w3.org/2000/svg">
<path d="M6 0C2.69162 0 0 2.69154 0 5.99997C0 9.30839 2.69162 12 6 12C9.30838 12 12 9.30839 12 5.99997C12 2.69154 9.30844 0 6 0ZM9.44531 4.98652L5.67581 8.756C5.51553 8.91628 5.30247 9.00449 5.07583 9.00449C4.84919 9.00449 4.63613 8.91628 4.47585 8.756L2.55469 6.83485C2.39442 6.67458 2.30614 6.46152 2.30614 6.23488C2.30614 6.00817 2.39442 5.79511 2.55469 5.63484C2.71491 5.47456 2.92797 5.38628 3.15468 5.38628C3.38132 5.38628 3.59444 5.47456 3.75466 5.6349L5.07577 6.95594L8.24522 3.7865C8.4055 3.62623 8.61856 3.53801 8.8452 3.53801C9.07184 3.53801 9.2849 3.62623 9.44518 3.7865C9.77613 4.11745 9.77613 4.6557 9.44531 4.98652Z" fill="#65BE69"/>
</svg>
