<svg width="335" height="177" viewBox="0 0 335 177" fill="none" xmlns="http://www.w3.org/2000/svg">
<path d="M314.161 161.683C312.186 157.921 304.152 154.897 300.559 154.21C281.375 150.558 261.283 151.062 241.856 151.128C220.696 151.194 200.502 154.576 179.517 156.139C168.6 156.95 157.069 155.489 146.13 155.109C128.116 154.488 110.109 153.758 92.1025 152.918C76.5762 152.194 60.4645 153.816 46.7674 162.362C45.2089 163.333 43.6358 164.509 42.9334 166.248C38.4847 177.197 93.9244 175.816 101.146 176.006C137.584 176.956 174.044 177.445 210.482 176.459C237.576 175.729 265.812 175.772 292.686 171.952C298.628 171.105 306.713 170.806 311.849 167.314C314.681 165.386 315.091 163.458 314.161 161.683Z" fill="#5C5C6A"/>
<path d="M290.57 12.2676C291.046 12.2676 291.536 12.2749 292.034 12.2967" stroke="#D2E8F9" stroke-miterlimit="10"/>
<path d="M294.97 12.5C304.417 13.4569 315.955 17.445 314.609 25.6038C312.458 38.6126 254.552 33.8137 240.723 33.9452C212.912 34.2155 184.801 34.3177 157.531 40.3948C150.902 41.8703 141.405 45.128 142.122 53.5717C142.37 56.5226 144.119 59.1886 146.329 61.19C154.29 68.37 165.389 69.0566 175.691 70.3202C191.269 72.2266 265.381 69.6848 289.607 77.6172C294.378 79.1803 300.341 81.1889 300.539 87.9965C301.043 105.293 258.006 104.446 245.099 104.774C210.644 105.651 176.152 105.307 141.697 104.628C113.849 104.08 85.921 103.591 58.1243 101.801C47.7637 101.129 30.8106 100.932 22.9084 93.1679C18.489 88.8291 17.911 80.9333 24.8986 76.9014C29.8228 74.06 44.2662 75.3017 49.827 74.827C66.6411 73.3807 61.5559 63.1986 47.932 61.8985" stroke="#D2E8F9" stroke-miterlimit="10" stroke-dasharray="4.01 4.01"/>
<path d="M46.4634 61.7747C45.9878 61.7529 45.4975 61.7383 45 61.7383" stroke="#D2E8F9" stroke-miterlimit="10"/>
<path d="M291.554 24.9185L287.12 1.50846C286.856 0.106051 285.173 -0.478285 284.091 0.449352L265.996 15.9927C264.913 16.9204 265.25 18.6734 266.596 19.1409L289.125 27.0075C290.471 27.475 291.817 26.3136 291.554 24.9185Z" fill="#F0FAFF"/>
<path d="M288.133 24.5603C288.008 24.5603 287.876 24.5384 287.752 24.4946L269.226 18.023C268.838 17.8916 268.553 17.5556 268.472 17.1538C268.399 16.7521 268.538 16.3358 268.853 16.0728L283.735 3.29042C284.042 3.02016 284.474 2.93982 284.862 3.0786C285.25 3.21008 285.535 3.54607 285.616 3.9478L289.267 23.2017C289.34 23.6035 289.201 24.0198 288.886 24.2901C288.674 24.4654 288.403 24.5603 288.133 24.5603ZM270.221 16.8251L287.73 22.9388L284.284 4.74396L270.221 16.8251Z" fill="#42424E"/>
<path d="M280.084 16.7011C279.733 16.5769 279.542 16.2044 279.645 15.8465L281.481 9.41147C281.657 8.81983 282.301 8.49114 282.886 8.69566C283.472 8.90018 283.771 9.55025 283.537 10.1273L280.955 16.2993C280.823 16.65 280.435 16.8253 280.084 16.7011Z" fill="#42424E"/>
<path d="M280.224 18.4549C280.092 18.8201 279.69 19.0173 279.324 18.8858C278.958 18.7544 278.761 18.3526 278.892 17.9874C279.024 17.6222 279.427 17.425 279.792 17.5565C280.158 17.6806 280.356 18.0824 280.224 18.4549Z" fill="#42424E"/>
<path d="M43.5933 53.8652L29.0035 46.6194C28.1328 46.1885 27.1158 46.8605 27.1743 47.8246L28.1767 64.0619C28.2352 65.0334 29.3254 65.5739 30.1376 65.0334L43.7177 56.0492C44.5372 55.5087 44.464 54.2962 43.5933 53.8652Z" fill="#F0FAFF"/>
<path d="M41.9915 55.5745C41.9403 55.6402 41.8744 55.706 41.8013 55.7571L30.6284 63.149C30.3943 63.3023 30.0943 63.3243 29.8455 63.2001C29.5968 63.0759 29.4285 62.8276 29.4138 62.55L28.587 49.1979C28.5724 48.9203 28.7041 48.6501 28.9383 48.4967C29.1724 48.3433 29.4724 48.3214 29.7212 48.4456L41.7208 54.4058C41.9696 54.53 42.1378 54.7783 42.1525 55.0632C42.1598 55.2385 42.1013 55.4284 41.9915 55.5745ZM30.387 62.1118L40.9452 55.1289L29.6114 49.4974L30.387 62.1118Z" fill="#42424E"/>
<path d="M34.3884 56.6995C34.1762 56.8383 33.8909 56.7872 33.7445 56.5827L30.9934 52.9306C30.7446 52.5873 30.8324 52.1052 31.1836 51.8714C31.5348 51.6377 32.0178 51.7473 32.23 52.1052L34.5274 56.0568C34.6591 56.2759 34.6006 56.5608 34.3884 56.6995Z" fill="#42424E"/>
<path d="M35.4001 57.3497C35.5465 57.5689 35.4879 57.8683 35.2611 58.0217C35.0416 58.1678 34.7416 58.1094 34.588 57.8829C34.4416 57.6638 34.5002 57.3643 34.727 57.211C34.9538 57.0649 35.2538 57.1306 35.4001 57.3497Z" fill="#42424E"/>
<path d="M53.699 86.6027C54.3698 86.6027 54.9136 86.0599 54.9136 85.3902C54.9136 84.7206 54.3698 84.1777 53.699 84.1777C53.0282 84.1777 52.4844 84.7206 52.4844 85.3902C52.4844 86.0599 53.0282 86.6027 53.699 86.6027Z" stroke="#D2E8F9" stroke-miterlimit="10"/>
<path d="M234.004 64.1633C234.674 64.1633 235.218 63.6204 235.218 62.9508C235.218 62.2811 234.674 61.7383 234.004 61.7383C233.333 61.7383 232.789 62.2811 232.789 62.9508C232.789 63.6204 233.333 64.1633 234.004 64.1633Z" stroke="#D2E8F9" stroke-miterlimit="10"/>
<path d="M138.34 30.1848C139.01 30.1848 139.554 29.6419 139.554 28.9723C139.554 28.3026 139.01 27.7598 138.34 27.7598C137.669 27.7598 137.125 28.3026 137.125 28.9723C137.125 29.6419 137.669 30.1848 138.34 30.1848Z" stroke="#D2E8F9" stroke-miterlimit="10"/>
<path d="M136.886 122.4C137.557 122.4 138.101 121.857 138.101 121.187C138.101 120.517 137.557 119.975 136.886 119.975C136.216 119.975 135.672 120.517 135.672 121.187C135.672 121.857 136.216 122.4 136.886 122.4Z" stroke="#D2E8F9" stroke-miterlimit="10"/>
<path d="M165.195 49.7891V52.5281" stroke="#D2E8F9" stroke-miterlimit="10" stroke-linecap="round" stroke-linejoin="round"/>
<path d="M166.564 51.1621H163.82" stroke="#D2E8F9" stroke-miterlimit="10" stroke-linecap="round" stroke-linejoin="round"/>
<path d="M214.516 14.7363V17.4827" stroke="#D2E8F9" stroke-miterlimit="10" stroke-linecap="round" stroke-linejoin="round"/>
<path d="M215.884 16.1094H213.141" stroke="#D2E8F9" stroke-miterlimit="10" stroke-linecap="round" stroke-linejoin="round"/>
<path d="M290.82 88.7344V91.4808" stroke="#D2E8F9" stroke-miterlimit="10" stroke-linecap="round" stroke-linejoin="round"/>
<path d="M292.189 90.1074H289.445" stroke="#D2E8F9" stroke-miterlimit="10" stroke-linecap="round" stroke-linejoin="round"/>
<path d="M189.857 167.162C189.857 167.162 184.742 169.339 184.742 170.427C184.742 171.055 191.774 170.157 192.198 169.733C192.879 169.054 191.92 167.25 191.92 167.25L189.857 167.162Z" fill="#42424E"/>
<path d="M189.531 164.115L189.861 167.256C189.861 167.256 190.029 167.76 190.746 167.818C191.463 167.877 191.931 167.256 191.931 167.256L191.675 163.326" fill="#FFB288"/>
<path d="M198.462 92.1172C200.32 99.604 199.632 103.402 196.903 109.048C195.25 128.032 194.101 146.935 191.876 165.444L189.528 165.576C184.187 147.556 179.277 120.618 179.906 95.9957" fill="#586078"/>
<path d="M197.314 94.6895C197.994 96.4279 198.162 98.3854 198.104 100.233C198.016 103.075 196.86 105.646 196.106 108.334C195.111 111.927 195.031 115.499 194.76 119.181C194.336 124.944 193.897 130.699 193.458 136.462C192.741 145.856 192.016 155.249 191.285 164.642C191.263 164.92 191.241 165.197 191.219 165.482" stroke="#42424E" stroke-width="0.5" stroke-miterlimit="10"/>
<path d="M210.263 167.893C210.263 167.893 205.148 170.069 205.148 171.158C205.148 171.786 212.18 170.887 212.604 170.464C213.285 169.784 212.326 167.98 212.326 167.98L210.263 167.893Z" fill="#42424E"/>
<path d="M209.93 164.846L210.259 167.986C210.259 167.986 210.427 168.49 211.144 168.549C211.861 168.607 212.33 167.986 212.33 167.986L212.074 164.057" fill="#FFB288"/>
<path d="M215.477 91.4824C217.833 98.8232 217.394 102.665 215.046 108.479C214.658 127.529 213.341 147.418 212.353 166.037H209.938C203.419 148.412 196.432 121.196 195.422 96.5808" fill="#586078"/>
<path d="M214.318 94.5215C214.318 94.5215 217.047 100.891 212.438 109.838C211.904 118.282 211.633 166.03 211.633 166.03" stroke="#42424E" stroke-width="0.5" stroke-miterlimit="10"/>
<path d="M207.57 96.5449C208.039 97.268 208.778 97.7793 209.568 98.1007C210.365 98.4221 211.214 98.5609 212.063 98.6631C213.073 98.7873 214.09 98.8677 215.107 98.8165" stroke="#42424E" stroke-width="0.5" stroke-miterlimit="10"/>
<path d="M207.898 97.7344C208.769 98.5232 209.881 99.0053 211.023 99.2683C212.164 99.5312 213.342 99.5823 214.513 99.5969" stroke="#42424E" stroke-width="0.5" stroke-miterlimit="10"/>
<path d="M187.556 55.9833C179.419 70.117 170.661 82.914 165.474 98.3624L163.93 97.5443C164.325 83.1988 168.986 62.338 175.102 49.3438" fill="#FFB288"/>
<path d="M183.579 41.2285C183.579 41.2285 181.062 41.937 178.098 43.9019C175.311 45.7498 173.203 48.5035 171.777 51.5202C170.342 54.5368 169.56 57.8237 169.055 61.1252C169.055 61.1252 172.457 62.8271 176.364 63.3092C180.264 63.7986 184.42 63.3092 184.42 63.3092" fill="#D9F0FF"/>
<path d="M177.518 49.5849C176.655 64.8654 177.313 80.5914 177.701 95.4555C177.701 95.4555 183.042 96.8725 196.008 96.8725C208.929 96.8725 217.388 92.9428 217.388 92.9428C214.885 77.6624 212.895 58.9197 206.764 46.3418C206.764 46.3418 199.842 38.8915 193.023 38.5848C191.647 38.5263 190.279 39.023 188.969 39.6293C188.003 40.0748 183.576 41.1558 183.576 41.1558L177.518 49.5849Z" fill="#D9F0FF"/>
<path d="M177.446 50.9434C177.109 53.8797 177.109 62.9515 177.109 62.9515" stroke="#94C1F2" stroke-width="0.5" stroke-miterlimit="10"/>
<path d="M190.344 100.261C212.016 97.8651 221.104 125.278 226.035 135.913C237.698 161.054 281.702 158.249 301.757 158.249C328.025 158.249 339.549 167.087 327.293 171.718" stroke="#9FA7B4" stroke-width="5" stroke-miterlimit="10" stroke-linecap="round" stroke-linejoin="round"/>
<path d="M197.819 101.502C197.819 112.634 189.382 119.347 182.168 119.347H170.344V83.6582H182.168C189.382 83.6582 197.819 90.3708 197.819 101.502Z" fill="#FDAE2B"/>
<path d="M191.718 101.503C191.718 112.379 185.264 121.188 177.311 121.188H164.258V81.8105H177.311C185.264 81.8105 191.718 90.6267 191.718 101.503Z" fill="#EF8417"/>
<path opacity="0.5" d="M194.613 90.7441C191.789 94.5862 189.038 98.472 186.367 102.416C186.748 102.343 187.099 102.161 187.377 101.89C187.377 102.19 186.901 102.701 187.326 102.891C187.743 103.081 188.182 102.592 188.621 102.723C189.031 102.628 189.411 102.117 189.711 101.817C189.579 102.124 189.55 102.343 189.528 102.504C192.404 101.386 194.979 98.7058 197.218 96.551C196.669 94.367 195.762 92.4168 194.613 90.7441Z" fill="#FDAE2B"/>
<path d="M165.196 121.188C173.153 121.188 179.603 112.375 179.603 101.503C179.603 90.6316 173.153 81.8184 165.196 81.8184C157.239 81.8184 150.789 90.6316 150.789 101.503C150.789 112.375 157.239 121.188 165.196 121.188Z" fill="#FFC840"/>
<path d="M166.399 108.478C166.399 110.092 165.294 111.407 163.926 111.407C162.558 111.407 161.453 110.099 161.453 108.478C161.453 106.864 162.558 105.549 163.926 105.549C165.294 105.549 166.399 106.864 166.399 108.478Z" fill="#EF8417"/>
<path d="M166.399 94.5188C166.399 96.1331 165.294 97.4478 163.926 97.4478C162.558 97.4478 161.453 96.1404 161.453 94.5188C161.453 92.9046 162.558 91.5898 163.926 91.5898C165.294 91.5898 166.399 92.9046 166.399 94.5188Z" fill="#EF8417"/>
<path d="M210.712 60.8632C210.712 60.8632 211.626 70.1615 207.463 77.8966C203.9 84.507 196.824 93.0675 191.11 97.786L189.734 97.45C191.725 89.8244 198.002 76.2897 198.398 71.2206C198.785 66.1441 198.698 60.2642 198.785 57.4375" fill="#FFB288"/>
<path d="M193.023 38.5781C193.023 38.5781 200.691 39.104 205.14 42.8511C211.491 48.2051 212.428 58.694 212.428 61.1263C210.511 63.1934 206.311 63.3029 203.252 63.3029C200.194 63.3029 197.962 61.8421 197.962 61.8421L197.34 50.2795" fill="#D9F0FF"/>
<path d="M190.289 96.3184C189.419 96.406 188.57 96.8297 187.838 97.3994C187.165 97.9253 186.338 98.8018 186.426 99.2035C186.514 99.6272 187.619 98.8164 187.75 98.9771C187.882 99.1378 185.863 102.184 186.243 102.41C186.624 102.637 188.343 99.8828 188.343 99.8828C188.343 99.8828 186.675 102.826 187.319 102.892C187.86 102.943 189.338 100.16 189.338 100.16C189.338 100.16 188.087 102.651 188.519 102.746C188.95 102.841 190.106 100.358 190.106 100.358C190.106 100.358 189.163 102.476 189.521 102.512C189.704 102.527 190.633 101.475 191.028 100.197C191.409 98.9406 191.862 97.8449 191.511 96.8662" fill="#FFB288"/>
<path d="M198.289 51.5V62.0327" stroke="#94C1F2" stroke-width="0.5" stroke-miterlimit="10"/>
<path d="M177.129 28.864C177.092 29.3241 177.07 29.777 177.07 30.2371C177.078 31.2305 177.209 32.2677 177.78 33.0858C178.175 33.6409 178.768 34.0573 179.426 34.2399C179.895 34.364 180.502 34.3129 180.707 33.8747C180.78 33.7213 180.78 33.546 180.78 33.3707C180.773 31.6688 180.443 29.9742 179.807 28.3965" fill="#26387A"/>
<path d="M188.701 29.8205C188.042 27.264 185.971 23.6776 182.606 24.3934C180.491 24.8463 178.545 26.2852 177.923 28.2939C177.177 30.697 178.384 33.4945 179.825 35.452C180.359 36.1752 180.989 36.8618 181.808 37.2927C183.754 38.3007 186.389 37.4753 187.713 35.7953C189.037 34.1154 189.22 31.8438 188.701 29.8205Z" fill="#FFB288"/>
<path d="M183.981 36.5116L185.078 40.5216L183.578 41.2301C183.578 41.2301 184.72 42.7494 186.98 42.4207C191.575 41.756 193.017 38.5787 193.017 38.5787L190.427 38.3084L187.558 33.4219" fill="#FFB288"/>
<path d="M190.941 27.0225C190.619 25.2622 189.36 23.7721 187.831 22.8445C185.109 21.1937 181.238 21.0623 178.824 23.3339C177.448 24.6267 174.968 29.2138 177.931 30.1195C178.86 30.4044 179.812 29.8419 180.617 29.3014C181.436 28.7536 182.255 28.2058 183.075 27.658C183.368 27.4608 183.682 27.2563 184.033 27.2417C184.612 27.2197 185.094 27.7164 185.299 28.2569C185.504 28.7975 185.519 29.3891 185.658 29.9515C185.753 30.3459 185.929 30.755 186.272 30.9814C186.616 31.2005 187.165 31.1348 187.341 30.7696C187.465 30.5139 187.377 30.2145 187.37 29.9296C187.363 29.6447 187.524 29.2941 187.809 29.3087C187.911 29.3161 188.007 29.3672 188.087 29.4256C188.804 29.9807 188.57 31.0983 188.804 31.9675C188.833 32.0844 188.599 33.852 188.672 33.9396C190.955 33.4283 191.167 28.2862 190.941 27.0225Z" fill="#5C5C6A"/>
<path d="M187.56 29.5432C187.509 29.2219 187.816 28.9224 188.146 28.8859C188.475 28.8494 188.79 29.0173 189.038 29.2292C189.47 29.5871 189.777 30.113 189.785 30.6681C189.792 31.1063 189.616 31.53 189.375 31.8952C189.214 32.1436 189.002 32.3846 188.716 32.4722C188.351 32.5891 187.948 32.4211 187.685 32.1435" fill="#FFB288"/>
<path d="M106.086 167.049C106.086 167.049 111.018 167.867 111.157 168.955C111.237 169.576 104.242 170.314 103.767 169.949C103.006 169.364 103.942 167.18 103.942 167.18L106.086 167.049Z" fill="#42424E"/>
<path d="M105.693 164.025L106.095 167.137C106.095 167.137 105.993 167.662 105.29 167.809C104.588 167.955 104.039 167.4 104.039 167.4L103.461 163.514" fill="#FFB288"/>
<path d="M87.2499 93.0723C86.3646 100.734 86.3207 104.416 89.7523 109.66C91.3766 117.074 93.8717 124.656 95.7594 132.245C94.9472 141.309 100.64 155.743 103.698 166.049L105.908 165.669C108.886 147.116 109.983 118.659 107.313 93.7516" fill="#586078"/>
<path d="M88.6953 103.451C88.6953 103.451 97.1829 130.353 97.1829 131.813C97.1829 133.274 97.417 138.3 97.7901 141.55C98.4779 147.518 103.892 165.099 103.892 165.099" stroke="#42424E" stroke-width="0.5" stroke-miterlimit="10"/>
<path d="M103.625 166.472L103.281 165.128L106.135 165.025L106.179 166.26L103.625 166.472Z" fill="#42424E"/>
<path d="M67.7187 167.204C67.7187 167.204 71.582 169.987 71.2381 170.966C71.0405 171.528 64.7627 169.205 64.5139 168.694C64.1115 167.876 65.8383 166.4 65.8383 166.4L67.7187 167.204Z" fill="#42424E"/>
<path d="M68.6593 164.465L67.6861 167.292C67.6861 167.292 67.3788 167.693 66.713 167.525C66.0545 167.357 65.8203 166.649 65.8203 166.649L66.9691 163.092" fill="#FFB288"/>
<path d="M70.6779 91.4805C68.3219 98.8212 68.7609 102.663 71.1096 108.477C71.2486 115.438 71.3218 122.472 71.4023 129.514C66.4341 141.923 65.6512 153.055 66.2805 164.873L68.6731 165.757C68.6731 165.757 82.9336 140.945 85.5531 131.142C88.5603 119.894 90.2651 107.864 90.7334 96.5788" fill="#586078"/>
<path d="M71.2609 93.0723C71.2609 93.0723 68.6634 100.654 72.0658 107.958C72.0658 109.996 73.2365 126.949 72.7755 129.564C72.556 130.82 70.2219 136.81 68.6634 142.646C66.944 149.096 66.5781 164.31 66.5781 164.31" stroke="#42424E" stroke-width="0.5" stroke-miterlimit="10"/>
<path d="M65.8203 164.873L66.2008 163.273L69.2665 164.698L68.6593 166.064L65.8203 164.873Z" fill="#42424E"/>
<path d="M110.541 34.7569L108.617 33.1208C108.617 33.1208 108.617 30.2575 108.617 29.7316C108.617 29.2057 107.899 26.0503 107.256 26.0503C106.612 26.0503 106.465 25.2615 106.143 25.5828C105.821 25.9042 106.407 29.4687 106.143 29.7316C105.88 29.9946 105.536 28.0371 105.295 28.2781C105.053 28.5191 105.031 29.9581 105.031 30.6885C105.031 31.4189 105.617 32.7775 106.202 33.3545C106.787 33.9389 109.363 36.7218 109.363 36.7218L110.541 34.7569Z" fill="#EF9467"/>
<path d="M109.584 33.6758L107.982 35.5018C107.982 35.5018 114.326 43.8871 116.338 46.6919C114.508 46.0491 111.874 44.4422 110.353 43.4488C107.367 41.4986 104.375 40.4614 102.311 40.4614C97.9139 40.4614 100.219 54.9165 105.311 57.0347C114.977 58.4882 125.82 57.5679 127.474 54.1714C129.932 49.1388 115.76 37.2987 109.584 33.6758Z" fill="#D9F0FF"/>
<path d="M116.328 46.6855C116.328 46.6855 117.535 50.0601 119.687 51.1557" stroke="#94C1F2" stroke-width="0.5" stroke-miterlimit="10"/>
<path d="M80.0986 44.2807C68.5746 57.2019 68.7502 79.4213 68.7502 94.5264C68.7502 94.5264 77.2084 100.289 90.13 100.289C103.103 100.289 108.437 97.1121 108.437 97.1121C108.825 81.8098 106.088 75.2141 108.62 49.9049C108.62 49.9049 104.493 40.4606 102.298 40.4606C100.096 40.4606 91.4982 39.6133 91.4982 39.6133L80.0986 44.2807Z" fill="#D9F0FF"/>
<path d="M107.992 57.3697C107.992 57.3697 108.256 52.9507 109.331 51.877" stroke="#94C1F2" stroke-width="0.5" stroke-miterlimit="10"/>
<path d="M95.3054 29.9208C95.7371 27.3132 97.5956 23.5881 101.013 24.0117C103.156 24.2746 104.817 25.7574 106.017 27.4885C107.049 28.9713 106.661 30.3956 105.19 34.1573C104.722 34.9242 103.712 36.2974 102.937 36.7941C101.086 37.9701 98.3931 37.3784 96.9224 35.8226C95.4517 34.2668 94.9688 31.9806 95.3054 29.9208Z" fill="#FFB288"/>
<path d="M95.7692 29.5999C96.2594 29.5268 95.7692 29.2055 95.9887 29.651C96.1277 29.9359 96.1717 30.0235 96.4497 30.1112C96.7204 30.2061 96.7277 30.4545 96.9546 30.6225C97.3131 30.8854 97.6131 30.5275 97.7594 30.2208C98.0374 29.6583 98.0301 28.9717 97.9643 28.3655C97.913 27.8834 97.7521 27.1238 98.2204 26.7878C98.6081 26.5175 99.4569 26.9119 99.852 27.0288C100.467 27.2041 101.074 27.4013 101.681 27.5912C103.152 28.0368 104.71 28.4312 106.254 28.2267C107.608 28.0441 109.005 27.3429 109.657 26.0866C110.432 24.5892 108.881 22.6244 107.301 22.6244C106.883 22.6244 106.496 22.7923 106.086 22.8727C105.94 22.9019 105.779 22.9238 105.632 22.88C105.288 22.7777 105.135 22.3906 104.937 22.0911C104.352 21.1781 103.349 20.9006 102.318 21.0174C101.147 21.1489 100.145 21.704 99.0252 22.0108C98.4325 22.1715 97.9204 22.0181 97.335 22.04C96.7277 22.0619 96.0985 22.4564 95.8278 23.0188C95.3522 22.5221 94.2839 23.7419 94.0132 24.0706C92.8425 25.4876 92.4766 27.5328 92.4474 29.3296C92.4181 30.9 92.6815 33.179 94.401 33.8144C95.1326 34.0847 95.5863 34.2235 95.6229 33.5588C95.3009 32.8649 95.2278 31.499 95.1619 30.922C95.0961 30.3449 95.2644 29.6583 95.7985 29.4319" fill="#5C5C6A"/>
<path d="M101.37 36.1439L100.997 40.0809L102.292 40.4461C102.292 40.4461 101.604 42.2137 99.3432 42.5132C94.7409 43.1267 91.4922 39.5988 91.4922 39.5988L93.0287 39.2993L95.3555 31.9805" fill="#FFB288"/>
<path d="M96.5349 29.5713C96.5569 29.2426 96.2203 28.9724 95.8984 28.965C95.5691 28.9577 95.2691 29.1476 95.035 29.3814C93.7472 30.6596 95.3642 33.7785 96.6374 32.1643" fill="#FFB288"/>
<path d="M105.208 34.085C105.003 34.567 104.184 34.7643 103.737 34.8081C101.571 35.0491 99.7788 33.6467 97.7081 33.3911C97.2984 33.3399 96.8301 33.3034 96.5228 33.581C96.2301 33.8439 96.2082 34.2822 96.2008 34.6693C96.1935 35.1514 96.1862 35.6408 96.2301 36.1155C96.2667 36.5319 96.3472 36.9555 96.5667 37.3134C97.5032 38.8692 100.628 39.1322 102.208 39.0372C102.845 39.0007 103.51 38.8765 104.015 38.4967C104.725 37.9635 104.879 37.0213 105.149 36.1959C105.464 35.1952 105.208 34.085 105.208 34.085Z" fill="#5C5C6A"/>
<path d="M103.668 35.7783C103.602 35.7344 103.521 35.6979 103.441 35.6979C102.431 35.6979 101.868 35.4569 101.085 35.3911C100.953 35.3838 100.814 35.3692 100.682 35.413C100.404 35.5007 100.243 35.7856 100.185 36.0704C100.126 36.3553 100.273 36.5744 100.529 36.6986C100.997 36.9323 101.524 37.0127 102.043 37.0273C102.497 37.0419 103.09 37.0784 103.463 36.7716C103.668 36.6036 103.982 36.012 103.668 35.7783Z" fill="#FFB288"/>
<path d="M94.1532 92.8196C68.976 91.5049 54.313 104.477 43.9011 128.106C30.3869 158.769 11.5022 161.216 3 161.048" stroke="#9FA7B4" stroke-width="5" stroke-miterlimit="10" stroke-linecap="round" stroke-linejoin="round"/>
<path d="M84.4971 94.8641C85.4263 105.952 94.3895 111.949 101.575 111.35L113.362 110.371L110.391 74.8066L98.604 75.7854C91.4188 76.3844 83.5679 83.7762 84.4971 94.8641Z" fill="#FDAE2B"/>
<path d="M90.5715 94.361C91.4788 105.2 98.6346 113.447 106.566 112.782L119.568 111.701L116.29 72.4629L103.288 73.5439C95.364 74.2086 89.6642 83.5288 90.5715 94.361Z" fill="#EF8417"/>
<path d="M118.626 111.775C126.555 111.115 132.249 101.798 131.344 90.964C130.439 80.1304 123.277 71.8831 115.349 72.5431C107.42 73.2032 101.726 82.5206 102.631 93.3543C103.536 104.188 110.697 112.435 118.626 111.775Z" fill="#FFC840"/>
<path d="M116.379 99.2106C116.511 100.818 117.725 102.037 119.086 101.921C120.447 101.804 121.435 100.409 121.303 98.8016C121.172 97.1947 119.957 95.9749 118.596 96.0917C117.235 96.2086 116.247 97.6037 116.379 99.2106Z" fill="#FDAE2B"/>
<path d="M115.215 85.3102C115.347 86.9172 116.561 88.137 117.922 88.0201C119.283 87.9106 120.271 86.5081 120.139 84.9012C120.007 83.2943 118.793 82.0745 117.432 82.1913C116.078 82.3009 115.083 83.696 115.215 85.3102Z" fill="#FDAE2B"/>
<path d="M118.096 87.1296C119.574 87.0055 136.476 85.5957 136.476 85.5957C137.595 85.5008 138.429 84.5074 138.334 83.3826C138.239 82.2504 137.251 81.4104 136.132 81.5054C136.132 81.5054 119.157 82.9224 117.752 83.0393C116.347 83.1561 116.61 87.2538 118.096 87.1296Z" fill="#E2E8ED"/>
<path d="M119.25 101.038C120.728 100.914 137.629 99.5039 137.629 99.5039C138.749 99.409 139.583 98.4156 139.488 97.2908C139.393 96.1586 138.405 95.3186 137.286 95.4136C137.286 95.4136 120.311 96.8306 118.906 96.9475C117.501 97.057 117.772 101.162 119.25 101.038Z" fill="#E2E8ED"/>
<path d="M73.9602 60.8632C73.9602 60.8632 73.0456 70.1615 77.2089 77.8966C80.7722 84.507 87.8476 93.0675 93.562 97.786L94.9376 97.45C92.9474 89.8244 86.6696 76.2897 86.2745 71.2206C85.8867 66.1441 85.9745 60.2642 85.8867 57.4375" fill="#FFB288"/>
<path d="M91.5056 39.6074C91.5056 39.6074 83.4278 40.0749 78.7816 43.5736C70.7477 49.6288 72.3282 65.9026 74.6622 73.8496C77.0036 81.8039 88.2496 93.739 91.8861 96.3101C92.4787 96.3101 94.2275 96.164 94.1689 94.7908C92.1568 88.5896 86.4277 72.2792 86.4277 72.2792L87.335 50.2716" fill="#D9F0FF"/>
<path d="M94.3872 96.3164C95.2579 96.4041 96.1067 96.8277 96.8383 97.3974C97.5115 97.9233 98.3383 98.7999 98.2505 99.2016C98.1627 99.6252 97.0578 98.8145 96.9261 98.9752C96.7944 99.1358 98.8139 102.182 98.4334 102.408C98.0529 102.635 96.3335 99.8809 96.3335 99.8809C96.3335 99.8809 98.0017 102.824 97.3578 102.89C96.8164 102.941 95.3384 100.158 95.3384 100.158C95.3384 100.158 96.5896 102.649 96.1579 102.744C95.7262 102.839 94.5701 100.356 94.5701 100.356C94.5701 100.356 95.514 102.474 95.1555 102.51C94.9726 102.525 94.0433 101.473 93.6482 100.195C93.2677 98.9386 92.8141 97.843 93.1653 96.8642" fill="#FFB288"/>
<path d="M88.6906 78.7735C87.4028 75.0703 86.4297 72.2947 86.4297 72.2947L88.1272 53.8223" stroke="#94C1F2" stroke-width="0.5" stroke-miterlimit="10"/>
<path d="M72.8147 58.3066C72.7708 63.3173 73.3708 69.4894 74.6586 73.8646C75.7854 77.6921 78.9755 82.4471 82.3852 86.6251" stroke="#94C1F2" stroke-width="0.5" stroke-miterlimit="10"/>
<path d="M245.609 31.0993L246.904 30.2155C246.904 30.2155 247.504 27.396 247.841 26.8847C248.192 26.3515 248.858 25.2413 249.619 24.73C249.934 24.5182 251.382 23.7001 251.748 24.0653C251.931 24.2479 251.317 25.8767 251.038 26.1543C250.76 26.4319 249.934 27.6882 250.065 28.0753C250.197 28.4697 250.878 27.6079 251.038 27.4472C251.199 27.2865 251.419 27.0819 251.492 27.2938C251.617 27.6444 250.885 29.6092 250.314 30.1789C249.743 30.7487 248.814 31.2892 248.17 31.2892L246.151 33.0641" fill="#FFB288"/>
<path d="M261.251 21.8152C263.402 23.0788 264.726 25.46 265.246 27.8411C265.341 28.2721 265.414 28.7323 265.714 29.0536C265.948 29.3093 266.285 29.4408 266.607 29.5869C268.385 30.4122 269.753 32.0192 270.375 33.8671C270.646 34.656 270.434 35.7662 270.741 36.4382C271.121 37.2636 272.526 37.4462 273.28 37.7018C275.541 38.4469 277.194 40.7185 277.224 43.0924C277.246 45.4662 275.636 47.7671 273.397 48.5632C273.997 49.4032 274.085 50.5427 273.807 51.5434C273.529 52.544 272.921 53.4205 272.234 54.1948C269.387 57.4013 265.005 59.1178 260.717 58.9352C259.48 58.8841 258.244 58.6796 257.095 58.2121C255.8 57.6862 254.659 56.8316 253.568 55.9624C252.251 54.9106 250.934 53.7565 250.225 52.2227C249.515 50.6961 249.559 48.6947 250.766 47.5114C249.376 47.8036 247.89 47.044 247.108 45.8607C246.325 44.6774 246.186 43.1508 246.5 41.763C246.815 40.3825 247.547 39.1262 248.395 37.9867C248.995 37.1906 249.676 36.3798 249.807 35.3937C250.02 33.743 249.098 32.2748 248.856 30.6314C248.483 28.0822 248.6 25.8836 250.788 24.5323C251.49 22.7136 252.339 21.3112 254.351 20.778C256.736 20.1425 259.114 20.5515 261.251 21.8152Z" fill="#5C5C6A"/>
<path d="M255.99 41.1999C248.688 39.2935 240.34 42.3029 238.474 42.2956C241.02 39.7537 245.703 34.0856 247.32 32.1281C247.32 30.7841 246.5 30.4043 246.5 30.4043C246.5 30.4043 226.482 40.7398 228.494 47.4889C230.594 54.5302 250.21 51.0752 251.776 53.0985" fill="#B6E9FE"/>
<path d="M257.418 106.784C257.397 107.383 254.784 120.21 254.587 121.59C254.023 125.6 256.145 129.625 255.94 135.841C255.692 143.4 252.472 163.706 252.063 164.612C251.653 165.51 249.692 164.685 249.692 164.685C249.692 164.685 244.036 137.44 243.714 126.287C243.451 117.105 244.79 97.2305 244.79 97.2305" fill="#ECE5E0"/>
<path d="M252.268 164.955C252.268 164.955 252.597 165.642 252.583 165.956C252.539 166.803 252.517 167.38 252.517 167.38L252.151 167.402L252.027 166.708C252.027 166.708 251.046 166.876 250.051 167.533C249.568 167.848 247.139 167.818 246.766 167.621C246.349 167.402 246.466 167 246.605 166.84C246.744 166.679 249.371 165.532 249.371 165.532" fill="#42424E"/>
<path d="M249.699 164.678C249.487 165.19 247.416 166.314 247.606 166.468C247.796 166.621 249.004 166.628 250.343 166.183C251.564 165.781 252.252 165.328 252.289 165.007L252.055 164.152" fill="#FFB288"/>
<path d="M275.587 107.319C275.579 107.918 273.362 120.817 273.209 122.205C272.77 126.23 275.016 130.189 275.001 136.405C274.979 143.964 272.382 164.365 272.001 165.278C271.621 166.191 269.631 165.424 269.631 165.424C269.631 165.424 263.141 138.362 262.482 127.23C261.941 118.056 262.665 98.1523 262.665 98.1523" fill="#ECE5E0"/>
<path d="M272.215 165.621C272.215 165.621 272.566 166.3 272.559 166.614C272.544 167.462 272.53 168.039 272.53 168.039L272.164 168.075L272.017 167.389C272.017 167.389 271.044 167.586 270.071 168.273C269.595 168.601 267.174 168.652 266.793 168.462C266.369 168.258 266.478 167.856 266.61 167.688C266.742 167.52 269.332 166.3 269.332 166.3" fill="#42424E"/>
<path d="M269.632 165.424C269.435 165.942 267.4 167.133 267.591 167.279C267.788 167.425 268.988 167.396 270.313 166.914C271.52 166.475 272.193 166.001 272.222 165.679L271.966 164.832" fill="#FFB288"/>
<path d="M268.989 74.3177C268.989 74.3177 274.791 78.1086 277.001 87.2096C279.979 99.4807 275.589 123.504 275.589 123.504C275.589 123.504 266.501 126.156 256.623 126.068C246.746 125.988 240.892 122.65 240.87 122.058C240.848 121.459 239.4 103.272 241.404 90.9348C243.658 77.086 249.402 73.3535 249.402 73.3535" fill="#2858AD"/>
<path d="M261.115 40.9668C262.015 40.6308 264.349 41.4489 268.717 43.1215C270.634 45.1959 271.476 49.7319 271.893 53.7565C270.759 63.5368 269.493 68.8835 270.108 72.185C270.254 72.9666 270.971 73.5582 270.854 74.6539C270.62 76.9109 266.917 77.2542 259.893 78.0503C252.869 78.8465 246.547 75.6619 246.92 74.6685C247.301 73.6751 248.501 72.7986 248.691 72.1412C248.881 71.4838 249.452 63.0986 248.698 62.1052C247.937 61.1118 245.977 58.2486 245.977 55.4584C245.977 51.536 248.142 49.7757 249.555 47.6209C251.918 44.0273 253.703 41.7776 255.993 41.2078C259.644 40.2948 261.115 40.9668 261.115 40.9668Z" fill="#B6E9FE"/>
<path d="M249.288 45.9258C249.288 45.9258 249.544 47.6057 248.681 49.0155C248.418 49.4464 246.822 51.0679 246.508 52.1051" stroke="#6CB1EF" stroke-width="0.5" stroke-miterlimit="10"/>
<path d="M259.433 36.1895C261.35 34.2904 261.658 30.6821 260.78 28.2425C259.799 25.4961 255.877 23.4436 253.185 25.1601C247.895 28.5347 253.265 42.3105 259.433 36.1895Z" fill="#FFB288"/>
<path d="M255.789 35.8549L255.892 41.7275C255.892 41.7275 255.672 43.0349 257.969 43.1153C261.123 43.2248 261.123 40.9678 261.123 40.9678L259.301 34.9199" fill="#FFB288"/>
<path d="M258.171 22.5673C257.52 22.1437 256.832 22.1218 256.159 22.5162C255.749 22.7572 255.464 23.159 255.025 23.3562C254.717 23.495 254.344 23.5169 254.022 23.6045C252.493 24.0209 251.044 25.1822 250.4 26.6358C249.749 28.0966 249.961 30.4778 251.176 31.5223C251.125 30.3902 251.461 28.7686 252.069 27.8045C252.383 27.3005 252.888 26.8038 253.473 26.8768C254.139 26.9499 254.498 27.6584 254.973 28.1258C255.698 28.827 256.737 28.9731 257.695 29.1192C258.778 29.2799 259.612 29.4698 260.146 30.5362C260.38 30.9964 260.505 31.5077 260.629 32.0044C260.776 32.6033 260.922 33.2023 260.958 33.8085C260.98 34.1883 260.958 34.5828 261.076 34.9407C261.317 35.6638 262.049 36.1021 262.773 36.3431C263.329 36.533 264.266 36.701 264.617 36.0728C264.91 35.5469 265.158 34.8092 265.261 34.2176C265.597 32.2454 264.968 30.2002 263.9 28.5057C262.729 26.6504 261.068 25.4014 259.561 23.8529C259.122 23.3927 258.668 22.896 258.171 22.5673Z" fill="#5C5C6A"/>
<path d="M259.648 31.6027C259.766 31.1572 260.095 30.697 260.556 30.6313C262.056 30.4048 261.829 32.6399 261.251 33.4215C260.914 33.8816 260.044 34.4733 259.648 33.2097" fill="#FFB288"/>
<path d="M275.529 77.3198L274.827 78.8245C274.827 78.8245 272.171 79.4526 271.886 79.9201C271.439 80.6578 270.773 81.6804 270.773 82.2575C270.773 82.8418 270.832 85.3837 271.556 85.3837C272.01 85.3837 273.086 83.302 273.305 83.0171C273.825 82.3305 275.932 81.8338 275.932 80.0224L277.22 77.3125" fill="#FFB288"/>
<path d="M261.117 40.886C261.117 40.886 267.322 39.3083 272.166 42.3615C275.934 44.7354 285.629 56.539 285.629 63.3027C285.629 67.8605 276.563 79.1529 276.563 79.1529L275.056 78.0792C275.056 78.0792 275.934 69.2045 278.568 64.3107C276.622 62.3678 269.049 56.3418 267.139 54.4427" fill="#B6E9FE"/>
<path d="M266.156 53.8301C267.51 55.0353 271.08 57.8985 271.08 57.8985" stroke="#6CB1EF" stroke-width="0.5" stroke-miterlimit="10"/>
<path d="M83.2437 30.4318L75.7512 24.3986C75.7512 24.3986 79.1243 11.9741 74.661 7.63535C72.2904 5.32722 69.2831 3.74951 66.1881 2.57353C59.2883 -0.0413841 51.0496 -0.633024 44.9034 3.44273C40.367 6.44477 37.6159 11.5942 36.3793 16.8825C35.2964 21.5426 35.3842 26.8382 38.3036 30.6291C39.6134 32.3309 41.406 33.6165 43.3157 34.6099C49.2496 37.7142 64.9296 38.8828 71.7416 34.3323C73.6294 33.0687 73.4611 31.3668 74.2513 28.7007L83.2437 30.4318Z" fill="#E7F5FE"/>
<path d="M49.5039 18.4648V19.0039C49.5039 19.6445 49.4238 20.2188 49.2637 20.7266C49.1035 21.2344 48.873 21.666 48.5723 22.0215C48.2715 22.377 47.9102 22.6484 47.4883 22.8359C47.0703 23.0234 46.6016 23.1172 46.082 23.1172C45.5781 23.1172 45.1152 23.0234 44.6934 22.8359C44.2754 22.6484 43.9121 22.377 43.6035 22.0215C43.2988 21.666 43.0625 21.2344 42.8945 20.7266C42.7266 20.2188 42.6426 19.6445 42.6426 19.0039V18.4648C42.6426 17.8242 42.7246 17.252 42.8887 16.748C43.0566 16.2402 43.293 15.8086 43.5977 15.4531C43.9023 15.0938 44.2637 14.8203 44.6816 14.6328C45.1035 14.4453 45.5664 14.3516 46.0703 14.3516C46.5898 14.3516 47.0586 14.4453 47.4766 14.6328C47.8984 14.8203 48.2598 15.0938 48.5605 15.4531C48.8652 15.8086 49.0977 16.2402 49.2578 16.748C49.4219 17.252 49.5039 17.8242 49.5039 18.4648ZM48.3848 19.0039V18.4531C48.3848 17.9453 48.332 17.4961 48.2266 17.1055C48.125 16.7148 47.9746 16.3867 47.7754 16.1211C47.5762 15.8555 47.332 15.6543 47.043 15.5176C46.7578 15.3809 46.4336 15.3125 46.0703 15.3125C45.7188 15.3125 45.4004 15.3809 45.1152 15.5176C44.834 15.6543 44.5918 15.8555 44.3887 16.1211C44.1895 16.3867 44.0352 16.7148 43.9258 17.1055C43.8164 17.4961 43.7617 17.9453 43.7617 18.4531V19.0039C43.7617 19.5156 43.8164 19.9688 43.9258 20.3633C44.0352 20.7539 44.1914 21.084 44.3945 21.3535C44.6016 21.6191 44.8457 21.8203 45.127 21.957C45.4121 22.0938 45.7305 22.1621 46.082 22.1621C46.4492 22.1621 46.7754 22.0938 47.0605 21.957C47.3457 21.8203 47.5859 21.6191 47.7812 21.3535C47.9805 21.084 48.1309 20.7539 48.2324 20.3633C48.334 19.9688 48.3848 19.5156 48.3848 19.0039ZM50.7461 19.9004V19.7656C50.7461 19.3086 50.8125 18.8848 50.9453 18.4941C51.0781 18.0996 51.2695 17.7578 51.5195 17.4688C51.7695 17.1758 52.0723 16.9492 52.4277 16.7891C52.7832 16.625 53.1816 16.543 53.623 16.543C54.0684 16.543 54.4688 16.625 54.8242 16.7891C55.1836 16.9492 55.4883 17.1758 55.7383 17.4688C55.9922 17.7578 56.1855 18.0996 56.3184 18.4941C56.4512 18.8848 56.5176 19.3086 56.5176 19.7656V19.9004C56.5176 20.3574 56.4512 20.7812 56.3184 21.1719C56.1855 21.5625 55.9922 21.9043 55.7383 22.1973C55.4883 22.4863 55.1855 22.7129 54.8301 22.877C54.4785 23.0371 54.0801 23.1172 53.6348 23.1172C53.1895 23.1172 52.7891 23.0371 52.4336 22.877C52.0781 22.7129 51.7734 22.4863 51.5195 22.1973C51.2695 21.9043 51.0781 21.5625 50.9453 21.1719C50.8125 20.7812 50.7461 20.3574 50.7461 19.9004ZM51.8301 19.7656V19.9004C51.8301 20.2168 51.8672 20.5156 51.9414 20.7969C52.0156 21.0742 52.127 21.3203 52.2754 21.5352C52.4277 21.75 52.6172 21.9199 52.8438 22.0449C53.0703 22.166 53.334 22.2266 53.6348 22.2266C53.9316 22.2266 54.1914 22.166 54.4141 22.0449C54.6406 21.9199 54.8281 21.75 54.9766 21.5352C55.125 21.3203 55.2363 21.0742 55.3105 20.7969C55.3887 20.5156 55.4277 20.2168 55.4277 19.9004V19.7656C55.4277 19.4531 55.3887 19.1582 55.3105 18.8809C55.2363 18.5996 55.123 18.3516 54.9707 18.1367C54.8223 17.918 54.6348 17.7461 54.4082 17.6211C54.1855 17.4961 53.9238 17.4336 53.623 17.4336C53.3262 17.4336 53.0645 17.4961 52.8379 17.6211C52.6152 17.7461 52.4277 17.918 52.2754 18.1367C52.127 18.3516 52.0156 18.5996 51.9414 18.8809C51.8672 19.1582 51.8301 19.4531 51.8301 19.7656ZM58.9609 17.8789V25.4375H57.8711V16.6602H58.8672L58.9609 17.8789ZM63.2324 19.7773V19.9004C63.2324 20.3613 63.1777 20.7891 63.0684 21.1836C62.959 21.5742 62.7988 21.9141 62.5879 22.2031C62.3809 22.4922 62.125 22.7168 61.8203 22.877C61.5156 23.0371 61.166 23.1172 60.7715 23.1172C60.3691 23.1172 60.0137 23.0508 59.7051 22.918C59.3965 22.7852 59.1348 22.5918 58.9199 22.3379C58.7051 22.084 58.5332 21.7793 58.4043 21.4238C58.2793 21.0684 58.1934 20.668 58.1465 20.2227V19.5664C58.1934 19.0977 58.2812 18.6777 58.4102 18.3066C58.5391 17.9355 58.709 17.6191 58.9199 17.3574C59.1348 17.0918 59.3945 16.8906 59.6992 16.7539C60.0039 16.6133 60.3555 16.543 60.7539 16.543C61.1523 16.543 61.5059 16.6211 61.8145 16.7773C62.123 16.9297 62.3828 17.1484 62.5938 17.4336C62.8047 17.7188 62.9629 18.0605 63.0684 18.459C63.1777 18.8535 63.2324 19.293 63.2324 19.7773ZM62.1426 19.9004V19.7773C62.1426 19.4609 62.1094 19.1641 62.043 18.8867C61.9766 18.6055 61.873 18.3594 61.7324 18.1484C61.5957 17.9336 61.4199 17.7656 61.2051 17.6445C60.9902 17.5195 60.7344 17.457 60.4375 17.457C60.1641 17.457 59.9258 17.5039 59.7227 17.5977C59.5234 17.6914 59.3535 17.8184 59.2129 17.9785C59.0723 18.1348 58.957 18.3145 58.8672 18.5176C58.7812 18.7168 58.7168 18.9238 58.6738 19.1387V20.6562C58.752 20.9297 58.8613 21.1875 59.002 21.4297C59.1426 21.668 59.3301 21.8613 59.5645 22.0098C59.7988 22.1543 60.0938 22.2266 60.4492 22.2266C60.7422 22.2266 60.9941 22.166 61.2051 22.0449C61.4199 21.9199 61.5957 21.75 61.7324 21.5352C61.873 21.3203 61.9766 21.0742 62.043 20.7969C62.1094 20.5156 62.1426 20.2168 62.1426 19.9004ZM68.3066 21.3184C68.3066 21.1621 68.2715 21.0176 68.2012 20.8848C68.1348 20.748 67.9961 20.625 67.7852 20.5156C67.5781 20.4023 67.2656 20.3047 66.8477 20.2227C66.4961 20.1484 66.1777 20.0605 65.8926 19.959C65.6113 19.8574 65.3711 19.7344 65.1719 19.5898C64.9766 19.4453 64.8262 19.2754 64.7207 19.0801C64.6152 18.8848 64.5625 18.6562 64.5625 18.3945C64.5625 18.1445 64.6172 17.9082 64.7266 17.6855C64.8398 17.4629 64.998 17.2656 65.2012 17.0938C65.4082 16.9219 65.6562 16.7871 65.9453 16.6895C66.2344 16.5918 66.5566 16.543 66.9121 16.543C67.4199 16.543 67.8535 16.6328 68.2129 16.8125C68.5723 16.9922 68.8477 17.2324 69.0391 17.5332C69.2305 17.8301 69.3262 18.1602 69.3262 18.5234H68.2422C68.2422 18.3477 68.1895 18.1777 68.084 18.0137C67.9824 17.8457 67.832 17.707 67.6328 17.5977C67.4375 17.4883 67.1973 17.4336 66.9121 17.4336C66.6113 17.4336 66.3672 17.4805 66.1797 17.5742C65.9961 17.6641 65.8613 17.7793 65.7754 17.9199C65.6934 18.0605 65.6523 18.209 65.6523 18.3652C65.6523 18.4824 65.6719 18.5879 65.7109 18.6816C65.7539 18.7715 65.8281 18.8555 65.9336 18.9336C66.0391 19.0078 66.1875 19.0781 66.3789 19.1445C66.5703 19.2109 66.8145 19.2773 67.1113 19.3438C67.6309 19.4609 68.0586 19.6016 68.3945 19.7656C68.7305 19.9297 68.9805 20.1309 69.1445 20.3691C69.3086 20.6074 69.3906 20.8965 69.3906 21.2363C69.3906 21.5137 69.332 21.7676 69.2148 21.998C69.1016 22.2285 68.9355 22.4277 68.7168 22.5957C68.502 22.7598 68.2441 22.8887 67.9434 22.9824C67.6465 23.0723 67.3125 23.1172 66.9414 23.1172C66.3828 23.1172 65.9102 23.0176 65.5234 22.8184C65.1367 22.6191 64.8438 22.3613 64.6445 22.0449C64.4453 21.7285 64.3457 21.3945 64.3457 21.043H65.4355C65.4512 21.3398 65.5371 21.5762 65.6934 21.752C65.8496 21.9238 66.041 22.0469 66.2676 22.1211C66.4941 22.1914 66.7188 22.2266 66.9414 22.2266C67.2383 22.2266 67.4863 22.1875 67.6855 22.1094C67.8887 22.0312 68.043 21.9238 68.1484 21.7871C68.2539 21.6504 68.3066 21.4941 68.3066 21.3184ZM72.1035 14.4688L72.0273 20.5918H71.0488L70.9668 14.4688H72.1035ZM70.9316 22.4551C70.9316 22.2793 70.9844 22.1309 71.0898 22.0098C71.1992 21.8887 71.3594 21.8281 71.5703 21.8281C71.7773 21.8281 71.9355 21.8887 72.0449 22.0098C72.1582 22.1309 72.2148 22.2793 72.2148 22.4551C72.2148 22.623 72.1582 22.7676 72.0449 22.8887C71.9355 23.0098 71.7773 23.0703 71.5703 23.0703C71.3594 23.0703 71.1992 23.0098 71.0898 22.8887C70.9844 22.7676 70.9316 22.623 70.9316 22.4551Z" fill="#42424E"/>
</svg>
