<svg width="143" height="19" viewBox="0 0 143 19" fill="none" xmlns="http://www.w3.org/2000/svg">
<path d="M30 2.71429H33.1184V19H36.1012V2.71429H39.2195V0H30V2.71429ZM53.0609 19C52.7627 18.2943 52.7355 17.6157 52.7355 16.6929V13.7614C52.7355 11.78 52.2474 10.3414 50.756 9.71714C52.0847 9.09286 52.7084 7.81714 52.7084 5.86286V4.37C52.7084 1.43857 51.3797 0 48.2885 0H43.7872V19H46.77V11.2643H47.8004C49.1562 11.2643 49.7527 11.9157 49.7527 13.68V16.6657C49.7527 18.2129 49.8612 18.5114 50.0239 19H53.0609ZM48.2071 2.71429C49.2647 2.71429 49.7256 3.31143 49.7256 4.66857V6.54143C49.7256 8.06143 49.0477 8.55 47.936 8.55H46.77V2.71429H48.2071ZM64.5675 0H60.2018L57.1648 19H59.9035L60.4187 15.5529H64.0794L64.5946 19H67.6045L64.5675 0ZM62.2355 3.36572L63.6727 12.9743H60.7983L62.2355 3.36572ZM72.2476 19H76.9659C79.9487 19 81.4129 17.3443 81.4129 14.3043V4.69572C81.4129 1.65572 79.9487 0 76.9659 0H72.2476V19ZM76.9116 2.71429C77.8607 2.71429 78.4301 3.20286 78.4301 4.56V14.44C78.4301 15.7971 77.8607 16.2857 76.9116 16.2857H75.2304V2.71429H76.9116ZM89.5534 2.71429H94.7055V0H86.5706V19H94.7055V16.2857H89.5534V10.7214H93.6479V8.00714H89.5534V2.71429ZM99.8077 19H107.698V16.2857H102.791V0H99.8077V19ZM112.25 19H115.233V0H112.25V19ZM120.478 0V2.71429H125.874L120.207 16.34V19H128.938V16.2857H123.271L128.938 2.66V0H120.478ZM136.941 2.71429H142.093V0H133.958V19H142.093V16.2857H136.941V10.7214H141.036V8.00714H136.941V2.71429Z" fill="white"/>
<path fill-rule="evenodd" clip-rule="evenodd" d="M8.5 3C9.12474 3 9.71293 3.30206 10.0873 3.81515L16.6044 12.7467C17.2606 13.6461 17.082 14.9209 16.2053 15.5942C15.3287 16.2674 14.086 16.0841 13.4298 15.1847L8.5 8.42857L3.57023 15.1847C2.91399 16.0841 1.67133 16.2674 0.794682 15.5942C-0.0819697 14.9209 -0.260648 13.6461 0.395593 12.7467L6.91268 3.81515C7.28707 3.30206 7.87527 3 8.5 3Z" fill="#406AFF"/>
</svg>
