<svg width="177" height="23" viewBox="0 0 177 23" fill="none" xmlns="http://www.w3.org/2000/svg">
<path d="M43.3154 3.51854H47.0291V23.0009H50.5813V3.51854H54.295V0.271484H43.3154V3.51854ZM70.7788 23.0009C70.4236 22.1567 70.3913 21.3449 70.3913 20.2409V16.7341C70.3913 14.3637 69.81 12.6428 68.0339 11.896C69.6163 11.1491 70.359 9.62302 70.359 7.28513V5.49925C70.359 1.99243 68.7767 0.271484 65.0953 0.271484H59.7346V23.0009H63.2869V13.7468H64.514C66.1286 13.7468 66.8391 14.5261 66.8391 16.6367V20.2084C66.8391 22.0593 66.9683 22.4164 67.162 23.0009H70.7788ZM64.9984 3.51854C66.2578 3.51854 66.8068 4.2329 66.8068 5.85643V8.0969C66.8068 9.91525 65.9995 10.4997 64.6755 10.4997H63.2869V3.51854H64.9984ZM84.4821 0.271484H79.2829L75.6661 23.0009H78.9277L79.5412 18.8771H83.9008L84.5144 23.0009H88.0989L84.4821 0.271484ZM81.7049 4.29784L83.4164 15.7924H79.9933L81.7049 4.29784ZM93.6283 23.0009H99.2473C102.8 23.0009 104.543 21.0202 104.543 17.3835V5.8889C104.543 2.25219 102.8 0.271484 99.2473 0.271484H93.6283V23.0009ZM99.1827 3.51854C100.313 3.51854 100.991 4.10302 100.991 5.72654V17.5458C100.991 19.1694 100.313 19.7538 99.1827 19.7538H97.1806V3.51854H99.1827ZM114.238 3.51854H120.374V0.271484H110.686V23.0009H120.374V19.7538H114.238V13.0974H119.114V9.85031H114.238V3.51854ZM126.45 23.0009H135.847V19.7538H130.002V0.271484H126.45V23.0009ZM141.268 23.0009H144.82V0.271484H141.268V23.0009ZM151.066 0.271484V3.51854H157.492L150.743 19.8188V23.0009H161.142V19.7538H154.392L161.142 3.4536V0.271484H151.066ZM170.672 3.51854H176.808V0.271484H167.12V23.0009H176.808V19.7538H170.672V13.0974H175.548V9.85031H170.672V3.51854Z" fill="white"/>
<path fill-rule="evenodd" clip-rule="evenodd" d="M10.7643 4.55664C11.5122 4.55664 12.2162 4.90999 12.6632 5.50973L20.4918 16.015C21.2733 17.0637 21.0567 18.5474 20.0079 19.3289C18.9592 20.1104 17.4755 19.8938 16.694 18.8451L10.7643 10.888L4.83455 18.8451C4.05304 19.8938 2.56934 20.1104 1.52062 19.3289C0.471896 18.5474 0.255284 17.0637 1.0368 16.015L8.8654 5.50973C9.31233 4.90999 10.0163 4.55664 10.7643 4.55664Z" fill="white"/>
</svg>
