<svg width="11" height="11" viewBox="0 0 11 11" fill="none" xmlns="http://www.w3.org/2000/svg">
<path d="M4.4072 2.14894C4.08613 2.14715 3.82714 2.40608 3.82887 2.72721C3.83066 3.04834 4.09239 3.31013 4.41355 3.31189L6.84746 3.32529L3.5932 6.57955C3.36737 6.80539 3.36939 7.17358 3.59771 7.40191C3.82604 7.63024 4.19424 7.63225 4.42007 7.40642L7.67428 4.15221L7.68762 6.58596C7.68938 6.90712 7.95114 7.16888 8.2723 7.17064C8.43288 7.17152 8.57789 7.10721 8.68254 7.00255C8.7872 6.8979 8.85151 6.75289 8.8506 6.59233L8.82957 2.75476C8.82783 2.43363 8.56605 2.17184 8.24489 2.17008L4.4072 2.14894Z" fill="white"/>
<path fill-rule="evenodd" clip-rule="evenodd" d="M1.81053 8.71632C1.81053 8.8602 1.86768 8.99818 1.96942 9.09992C2.07116 9.20165 2.20914 9.25881 2.35302 9.25881L7.29027 9.25881C7.43414 9.25881 7.57213 9.20165 7.67386 9.09992C7.7756 8.99818 7.83275 8.8602 7.83275 8.71632L7.83275 8.62489C7.83275 8.31855 8.08109 8.07021 8.38743 8.07021C8.69377 8.07021 8.94211 8.31855 8.94211 8.62489L8.94211 8.71632C8.94211 9.15442 8.76808 9.57457 8.4583 9.88435C8.14851 10.1941 7.72836 10.3682 7.29027 10.3682L2.35302 10.3682C1.91492 10.3682 1.49477 10.1941 1.18499 9.88435C0.875205 9.57457 0.701172 9.15442 0.701172 8.71632L0.701172 3.77907C0.701172 3.34097 0.875205 2.92082 1.18499 2.61104C1.49477 2.30126 1.91492 2.12723 2.35302 2.12723L2.44445 2.12723C2.75079 2.12723 2.99913 2.37556 2.99913 2.6819C2.99913 2.98824 2.75079 3.23658 2.44445 3.23658L2.35302 3.23658C2.20914 3.23658 2.07116 3.29374 1.96942 3.39547C1.86768 3.49721 1.81053 3.63519 1.81053 3.77907L1.81053 8.71632Z" fill="white"/>
</svg>
