<svg width="20" height="32" viewBox="0 0 20 32" fill="none" xmlns="http://www.w3.org/2000/svg">
<path d="M0.51915 25.0557C0.622849 25.3271 0.724718 25.5987 0.82477 25.8705C1.06903 26.445 1.36538 26.9954 1.71001 27.5145C1.20418 26.0639 0.665 24.6254 0.092521 23.199C0.177336 23.8298 0.32001 24.4512 0.518725 25.055L0.51915 25.0557ZM0.0760922 23.0948C0.728662 24.6581 1.34477 26.2367 1.92438 27.8308C2.09308 28.0619 2.27099 28.2877 2.45813 28.5078C1.70901 26.3823 0.893212 24.282 0.0107422 22.207C0.0221208 22.504 0.0461553 22.7991 0.0822066 23.0948" fill="#272734"/>
<path fill-rule="evenodd" clip-rule="evenodd" d="M0.00708076 22.1592C0.994157 24.3832 1.88515 26.5956 2.68393 28.7575C2.83319 28.9205 2.98727 29.0785 3.14617 29.2311C2.19644 26.6076 1.14993 24.0231 0.00666943 21.4775C-0.000921061 21.7041 -0.000921061 21.9307 0.00666943 22.1592" fill="#272734"/>
<path fill-rule="evenodd" clip-rule="evenodd" d="M0.00976562 21.4447C1.23228 24.0686 2.35638 26.7367 3.38216 29.4485C3.52134 29.574 3.6628 29.6948 3.80652 29.8113C2.6783 26.7773 1.42466 23.7949 0.045803 20.8643C0.0280965 21.0567 0.0160792 21.2487 0.00976562 21.4402" fill="#272734"/>
<path fill-rule="evenodd" clip-rule="evenodd" d="M0.0471101 20.8466C1.50988 23.8419 2.84623 26.8951 4.05617 30.0063C4.18769 30.1054 4.32063 30.2004 4.45513 30.2917C3.15708 26.9079 1.7078 23.5906 0.10718 20.3398C0.082522 20.5081 0.0635529 20.6777 0.0439453 20.8479" fill="#272734"/>
<path fill-rule="evenodd" clip-rule="evenodd" d="M0.109661 20.327C1.88022 23.7863 3.41109 27.2205 4.72062 30.4659C4.84718 30.5453 4.97359 30.6219 5.10001 30.6957C3.63554 27.0092 1.99713 23.4008 0.184914 19.8701C0.15519 20.0218 0.129907 20.1747 0.108398 20.327" fill="#272734"/>
<path fill-rule="evenodd" clip-rule="evenodd" d="M0.1875 19.8621C2.08961 23.439 3.82109 27.1009 5.38218 30.8478C5.50292 30.9117 5.62366 30.9726 5.74638 31.0314C4.11662 27.0779 2.29122 23.21 0.277281 19.4424C0.244408 19.5818 0.214045 19.7214 0.188762 19.8621" fill="#272734"/>
<path fill-rule="evenodd" clip-rule="evenodd" d="M0.27832 19.4375C2.38736 23.2507 4.30839 27.1609 6.04143 31.1681C6.1582 31.2193 6.27624 31.2681 6.39556 31.3146C4.5991 27.1233 2.59053 23.0282 0.377805 19.0459C0.342676 19.1738 0.30959 19.3038 0.278533 19.4356" fill="#272734"/>
<path fill-rule="evenodd" clip-rule="evenodd" d="M0.37793 19.0454C2.68771 23.0658 4.79546 27.1951 6.70131 31.4331C6.81368 31.4729 6.92732 31.5104 7.0421 31.5458C5.07864 27.1454 2.89017 22.8516 0.485431 18.6816C0.446855 18.8038 0.411654 18.9255 0.37793 19.0471" fill="#272734"/>
<path fill-rule="evenodd" clip-rule="evenodd" d="M0.487305 18.678C2.99221 22.8803 5.28766 27.2067 7.36519 31.6412C7.47528 31.6719 7.58652 31.6995 7.69846 31.7266C5.56447 27.141 3.19623 22.6706 0.60366 18.334C0.562557 18.4479 0.523981 18.5617 0.487731 18.677" fill="#272734"/>
<path fill-rule="evenodd" clip-rule="evenodd" d="M8.02986 31.7998C8.13783 31.8216 8.24594 31.8419 8.35433 31.8605C6.04881 27.1172 3.50422 22.4967 0.730625 18.0174L0.724296 18.0078C0.682144 18.1154 0.642092 18.2242 0.603516 18.3329C3.29807 22.6938 5.77328 27.1824 8.02901 31.7985" fill="#272734"/>
<path d="M8.6954 31.9113C8.80082 31.926 8.90623 31.9395 9.01165 31.9491C6.52977 27.0672 3.80726 22.3146 0.854463 17.7091L0.84815 17.7002C0.803884 17.8021 0.761732 17.9047 0.72168 18.0079L0.727369 18.0175C3.60452 22.5146 6.26034 27.1456 8.69483 31.9106L8.6954 31.9113Z" fill="#272734"/>
<path d="M9.36412 31.9784C9.46599 31.9854 9.56914 31.989 9.66987 31.9938C6.9153 26.829 4.00155 21.9362 0.992276 17.4177L0.984685 17.4062C0.939171 17.5035 0.894904 17.6021 0.852539 17.7006L0.85759 17.7095C3.91429 22.3269 6.74945 27.0843 9.36313 31.9816" fill="#272734"/>
<path d="M10.0335 32.0001C10.1328 32.0001 10.2321 31.997 10.332 31.9938C7.39227 26.7335 4.30145 21.7431 1.12711 17.1317C1.12689 17.1297 1.12689 17.1278 1.12711 17.126C1.07968 17.2187 1.03351 17.3128 0.989258 17.4069L0.996834 17.4183C4.5696 22.6184 7.61048 27.6691 10.0393 31.9997" fill="#272734"/>
<path d="M10.6982 31.9755C10.795 31.9678 10.8925 31.9601 10.9898 31.95C7.96723 26.7781 4.72403 21.7492 1.26004 16.8633C1.21325 16.9503 1.1671 17.0379 1.12305 17.1256V17.1309C4.52796 21.936 7.71979 26.8841 10.6985 31.9751" fill="#272734"/>
<path fill-rule="evenodd" clip-rule="evenodd" d="M11.6425 31.8618C8.43873 26.6355 5.02684 21.5495 1.40693 16.6035C1.35823 16.6867 1.31082 16.7712 1.26465 16.8557C4.82977 21.7317 8.19456 26.7486 11.3593 31.9063C11.4535 31.8928 11.549 31.8787 11.6438 31.8622" fill="#272734"/>
<path fill-rule="evenodd" clip-rule="evenodd" d="M12.2903 31.7319C8.90737 26.471 5.33048 21.3459 1.55963 16.3564C1.50955 16.4371 1.46032 16.5183 1.41211 16.5997C5.13313 21.5285 8.66788 26.5937 12.0164 31.7952C12.108 31.7754 12.1998 31.7549 12.2903 31.7312" fill="#272734"/>
<path fill-rule="evenodd" clip-rule="evenodd" d="M12.9325 31.5542C9.36907 26.2778 5.63001 21.1298 1.71545 16.1104C1.66366 16.1876 1.61258 16.2662 1.5625 16.3459C5.93888 21.9446 9.71951 27.2765 12.6643 31.6313L12.9325 31.5506" fill="#272734"/>
<path fill-rule="evenodd" clip-rule="evenodd" d="M13.3015 31.4305C13.3877 31.4005 13.4729 31.3665 13.5583 31.3359L13.4003 31.1119C9.71117 25.9187 5.87024 20.8413 1.87721 15.8799C1.82415 15.9546 1.77165 16.0305 1.71973 16.1076C5.73332 21.0958 9.59412 26.2038 13.302 31.4318" fill="#272734"/>
<path fill-rule="evenodd" clip-rule="evenodd" d="M13.9246 31.186C14.0081 31.1502 14.0897 31.1125 14.1731 31.0753L13.8539 30.6472C10.0433 25.5476 6.10559 20.5497 2.04049 15.6533C1.98615 15.7263 1.93238 15.8005 1.87988 15.8747C6.0267 20.8705 10.0416 25.9743 13.9246 31.186Z" fill="#272734"/>
<path fill-rule="evenodd" clip-rule="evenodd" d="M14.7607 30.7742C11.1836 26.2117 6.91154 20.9289 2.20629 15.4355C2.15067 15.5066 2.09562 15.5783 2.04199 15.6507C6.31055 20.6425 10.471 25.7263 14.523 30.9017C14.6021 30.8608 14.6817 30.8192 14.7607 30.7738" fill="#272734"/>
<path d="M15.3357 30.4286C11.1046 25.2855 6.78609 20.2168 2.38034 15.2225C2.32345 15.2915 2.26655 15.361 2.21094 15.4317C6.59512 20.4036 10.895 25.4507 15.1105 30.5728C15.1869 30.5263 15.2622 30.4789 15.3362 30.4308L15.3357 30.4286ZM15.8928 30.0468C11.5085 24.9814 7.06304 19.9713 2.55613 15.0164C2.49668 15.0803 2.43922 15.1514 2.38233 15.2205C7.31899 20.6417 11.8604 25.7969 15.6765 30.2014C15.7485 30.1515 15.8206 30.0996 15.8921 30.0465L15.8928 30.0468ZM16.4208 29.6229C12.4801 25.2951 7.79697 20.2042 2.7383 14.8152C2.67828 14.8791 2.61813 14.9471 2.55996 15.013C7.60813 20.389 12.2822 25.4712 16.2184 29.7931C16.2874 29.7381 16.3554 29.6818 16.4226 29.6225L16.4208 29.6229ZM16.9234 29.1638C12.2708 24.3023 7.60601 19.4533 2.92927 14.6166C2.86599 14.6805 2.80285 14.7446 2.74582 14.8086C7.88891 20.1269 12.6855 25.1171 16.7332 29.3449C16.7963 29.2853 16.8596 29.2233 16.9229 29.1612L16.9234 29.1638ZM17.3926 28.6705C13.242 24.5489 8.34136 19.6638 3.11896 14.4254C3.05568 14.4894 2.99255 14.5496 2.92927 14.6129C8.15734 19.8558 13.0592 24.7429 17.2143 28.867C17.2776 28.8029 17.3345 28.739 17.3946 28.6711L17.3926 28.6705ZM17.8309 28.1484C12.9594 23.548 8.12159 18.9122 3.31745 14.2411C3.25431 14.3006 3.19103 14.3615 3.12407 14.4225C8.41599 19.5738 13.4146 24.3424 17.6639 28.3571C17.7208 28.288 17.7766 28.2185 17.8309 28.1491V28.1484ZM18.233 27.5987C13.2735 23.1472 8.36903 18.6339 3.51991 14.0589L3.32128 14.2362C8.18501 18.8253 13.1044 23.3527 18.0793 27.8187L18.2324 27.5992L18.233 27.5987ZM18.5973 27.0232C13.5677 22.7292 8.61178 18.3495 3.72974 13.884C3.66093 13.939 3.59283 13.9979 3.52558 14.0562C8.42791 18.5413 13.4057 22.9401 18.4593 27.253C18.506 27.1767 18.5528 27.1006 18.5977 27.0232H18.5973ZM18.9215 26.4235C13.8396 22.2955 8.84758 18.0577 3.94568 13.71C3.87602 13.7655 3.80466 13.8207 3.7357 13.8783C8.66357 18.2502 13.6838 22.5121 18.7965 26.6635C18.8387 26.5835 18.8808 26.5028 18.9229 26.4222" fill="#272734"/>
<path fill-rule="evenodd" clip-rule="evenodd" d="M19.0943 26.0649C19.1316 25.9818 19.1681 25.8972 19.2031 25.8127L18.8325 25.5267C13.8441 21.6606 8.95622 17.667 4.16867 13.5459C4.0949 13.5992 4.02254 13.654 3.95117 13.7092C8.88967 17.9625 13.9374 22.0812 19.0943 26.0649Z" fill="#272734"/>
<path fill-rule="evenodd" clip-rule="evenodd" d="M19.3489 25.4382C19.3818 25.3517 19.4122 25.2654 19.4418 25.1771C19.3882 25.138 19.3344 25.0996 19.2812 25.0586C14.2061 21.3182 9.24458 17.426 4.39674 13.3818C4.32168 13.4344 4.24705 13.4875 4.17285 13.5412C9.03928 17.6052 14.025 21.5179 19.1301 25.2795L19.3489 25.4413" fill="#272734"/>
<path fill-rule="evenodd" clip-rule="evenodd" d="M19.6393 24.5285C15.3628 21.5302 10.1289 17.6805 4.62954 13.2236C4.55307 13.2735 4.47589 13.3253 4.39941 13.3784C9.32188 17.3614 14.3762 21.1683 19.5621 24.7992C19.5893 24.7096 19.6149 24.6194 19.6387 24.5285" fill="#272734"/>
<path fill-rule="evenodd" clip-rule="evenodd" d="M19.796 23.8715C14.6896 20.4616 9.71637 16.8612 4.87605 13.0703C4.79575 13.1176 4.71601 13.1688 4.6377 13.2195C9.53066 17.0564 14.5629 20.6998 19.7347 24.1497C19.7568 24.0563 19.7768 23.9635 19.7978 23.8693" fill="#272734"/>
<path fill-rule="evenodd" clip-rule="evenodd" d="M19.9077 23.2018C14.8458 19.9796 9.92021 16.5526 5.13068 12.9209C5.0464 12.9683 4.96383 13.0168 4.88281 13.0668C10.302 17.1941 15.5174 20.7224 19.8653 23.4881C19.8805 23.3928 19.8951 23.2961 19.9076 23.2001" fill="#272734"/>
<path fill-rule="evenodd" clip-rule="evenodd" d="M19.9748 22.5277C14.979 19.4942 10.1205 16.2447 5.39949 12.7793H5.39382C5.30713 12.8248 5.22115 12.8721 5.13574 12.9202C9.9274 16.4397 14.8658 19.7411 19.9508 22.8241C19.9613 22.7249 19.9691 22.6257 19.9761 22.5264" fill="#272734"/>
<path fill-rule="evenodd" clip-rule="evenodd" d="M19.9944 22.1518L19.9995 21.8479C15.0899 19.0023 10.3171 15.9339 5.68084 12.6425L5.67034 12.6348C5.57713 12.6804 5.48519 12.7272 5.39453 12.7749H5.40021C9.92783 16.0083 14.8277 19.1564 19.9945 22.1503" fill="#272734"/>
<path d="M19.9956 21.481C19.9918 21.3768 19.9867 21.2724 19.9797 21.1681C15.174 18.5066 10.5007 15.6172 5.9596 12.5C5.86355 12.5426 5.76991 12.5883 5.67188 12.635L5.68337 12.6427C10.1202 15.7077 14.9243 18.674 19.9944 21.481" fill="#272734"/>
<path fill-rule="evenodd" clip-rule="evenodd" d="M19.9527 20.8097C19.942 20.7021 19.9306 20.594 19.9165 20.4864C15.2402 18.0121 10.6924 15.3084 6.27305 12.3755L6.26355 12.3691C6.16239 12.4118 6.06194 12.4544 5.96191 12.4971L5.97085 12.5023C10.4897 15.5088 15.1562 18.2815 19.9527 20.8097Z" fill="#272734"/>
<path d="M19.8632 20.1385C19.8454 20.0275 19.8259 19.9174 19.8044 19.8078C15.2747 17.512 10.8613 14.988 6.58095 12.2451C6.47354 12.2849 6.36728 12.3258 6.26172 12.3693L6.27108 12.3758C10.6679 15.1984 15.2057 17.7896 19.8663 20.139" fill="#272734"/>
<path fill-rule="evenodd" clip-rule="evenodd" d="M19.6465 19.1324C15.2892 17.0155 11.04 14.6772 6.91549 12.127C6.80299 12.1647 6.69033 12.2038 6.5791 12.2454C10.8357 14.8845 15.226 17.2963 19.7317 19.471C19.7051 19.3572 19.677 19.2439 19.6474 19.1311" fill="#272734"/>
<path fill-rule="evenodd" clip-rule="evenodd" d="M19.4445 18.4553C15.2848 16.5163 11.224 14.367 7.27719 12.0156C7.15702 12.0501 7.03628 12.0866 6.91895 12.1263C11.012 14.5737 15.229 16.8022 19.5528 18.8028C19.5173 18.6863 19.4807 18.5704 19.4414 18.4553" fill="#272734"/>
<path fill-rule="evenodd" clip-rule="evenodd" d="M19.1859 17.7815C15.2525 16.0189 11.4116 14.0631 7.66356 11.9141C7.53715 11.9454 7.41059 11.978 7.28418 12.0152C11.1921 14.2672 15.2125 16.3128 19.3295 18.1438C19.2835 18.0221 19.2355 17.9018 19.1854 17.7828" fill="#272734"/>
<path fill-rule="evenodd" clip-rule="evenodd" d="M18.8705 17.1116C15.1926 15.5231 11.5961 13.7597 8.08094 11.8213C7.94318 11.8486 7.80613 11.8789 7.66992 11.9122C11.3685 13.9618 15.1675 15.8201 19.052 17.4802C18.9945 17.3522 18.9338 17.2319 18.8712 17.1096" fill="#272734"/>
<path fill-rule="evenodd" clip-rule="evenodd" d="M18.4976 16.4386C15.1104 15.0267 11.792 13.4613 8.54269 11.7422C8.39159 11.7636 8.24176 11.7909 8.0918 11.8197C11.5528 13.663 15.0965 15.332 18.7226 16.827C18.6505 16.696 18.5755 16.5665 18.4976 16.4386Z" fill="#272734"/>
<path fill-rule="evenodd" clip-rule="evenodd" d="M18.0412 15.7631C14.9877 14.5314 11.9899 13.1706 9.04808 11.6807C8.88152 11.6969 8.71538 11.7171 8.5498 11.7414C11.738 13.3692 14.9953 14.8453 18.3218 16.1695C18.2317 16.0323 18.1381 15.8967 18.0412 15.7631Z" fill="#272734"/>
<path fill-rule="evenodd" clip-rule="evenodd" d="M17.4958 15.0758C14.8342 14.0316 12.2144 12.8862 9.63646 11.6396C9.44677 11.6473 9.25707 11.6595 9.06738 11.6774C11.9403 13.0798 14.8682 14.3559 17.8512 15.5059C17.7366 15.3587 17.6181 15.2148 17.4958 15.0745" fill="#272734"/>
<path fill-rule="evenodd" clip-rule="evenodd" d="M17.0714 14.6145C16.988 14.5301 16.9029 14.4475 16.8185 14.3657C14.6298 13.5272 12.4695 12.6183 10.3377 11.6386C10.1151 11.6309 9.89253 11.6309 9.66992 11.6386C12.1664 12.8013 14.7042 13.868 17.2833 14.8386C17.2146 14.7639 17.1446 14.6901 17.0734 14.6171" fill="#272734"/>
<path d="M15.9061 13.5967C14.3426 13.0066 12.7931 12.3785 11.2578 11.7126C10.9685 11.6754 10.6785 11.6511 10.3877 11.6396C12.4225 12.5416 14.484 13.3766 16.5719 14.1446C16.3582 13.9534 16.1366 13.7719 15.9073 13.5999L15.9061 13.5967ZM13.9832 12.4758C13.7162 12.373 13.4491 12.2689 13.1821 12.1635C12.5894 11.9615 11.9789 11.8166 11.359 11.731C12.7593 12.312 14.1716 12.8615 15.5956 13.3795C15.0864 13.0281 14.546 12.7255 13.9812 12.4758" fill="#272734"/>
<path d="M19.4803 6.94337C19.3774 6.672 19.2755 6.40043 19.1747 6.12864C18.9303 5.55406 18.6341 5.00365 18.2893 4.48449C18.7977 5.93516 19.3371 7.37359 19.9075 8.79995C19.8233 8.16941 19.6812 7.54806 19.4832 6.944L19.4803 6.94337ZM19.9208 8.90434C19.2682 7.34056 18.6523 5.76192 18.0731 4.16833C17.9044 3.93494 17.7261 3.70924 17.5381 3.49121C18.291 5.61601 19.1092 7.71564 19.9929 9.79006C19.9815 9.49396 19.9577 9.19858 19.9214 8.90363" fill="#272734"/>
<path fill-rule="evenodd" clip-rule="evenodd" d="M19.9913 9.83987C19.0297 7.66982 18.1371 5.47038 17.3134 3.24148C17.1641 3.07792 17.0099 2.91963 16.8506 2.7666C17.8007 5.38973 18.8475 7.97468 19.9911 10.5212C19.998 10.2941 19.998 10.0675 19.9911 9.8403" fill="#272734"/>
<path fill-rule="evenodd" clip-rule="evenodd" d="M19.9912 10.5543C18.7686 7.93019 17.6436 5.2623 16.6163 2.55042C16.4794 2.42626 16.3384 2.30594 16.1934 2.18945C17.3223 5.22306 18.5759 8.20389 19.9544 11.1321C19.9716 10.9401 19.9829 10.7482 19.9905 10.5562" fill="#272734"/>
<path fill-rule="evenodd" clip-rule="evenodd" d="M19.9528 11.1525C18.4903 8.15819 17.1538 5.10513 15.9432 1.99345C15.8124 1.8949 15.6797 1.80146 15.5449 1.70801C16.8437 5.09233 18.2934 8.40992 19.8941 11.6607C19.918 11.4911 19.9378 11.3221 19.9541 11.1486" fill="#272734"/>
<path fill-rule="evenodd" clip-rule="evenodd" d="M19.8889 11.672C18.2025 8.36451 16.6655 4.9849 15.2778 1.53318C15.1514 1.45446 15.0249 1.37765 14.8984 1.30469C16.3638 4.99109 18.0027 8.59958 19.8155 12.1302C19.8446 11.978 19.87 11.8251 19.892 11.6716" fill="#272734"/>
<path fill-rule="evenodd" clip-rule="evenodd" d="M19.8141 12.138C17.9119 8.56045 16.1806 4.89855 14.6201 1.15243C14.4999 1.08842 14.3784 1.02719 14.2559 0.96875C15.8849 4.92319 17.71 8.79193 19.7244 12.5602C19.7573 12.4215 19.7877 12.2828 19.8142 12.1416" fill="#272734"/>
<path fill-rule="evenodd" clip-rule="evenodd" d="M19.7221 12.5623C17.6144 8.74909 15.6935 4.83834 13.9596 0.829805C13.8427 0.777966 13.7244 0.72933 13.6055 0.682617C15.4021 4.87383 17.4106 8.96865 19.6232 12.9508C19.658 12.8228 19.6922 12.6947 19.7226 12.5623" fill="#272734"/>
<path fill-rule="evenodd" clip-rule="evenodd" d="M19.6212 12.9546C17.312 8.93497 15.2041 4.80609 13.2978 0.568018C13.1855 0.527911 13.0718 0.489929 12.957 0.454102C14.9209 4.85408 17.1092 9.14793 19.5134 13.318C19.5513 13.1958 19.5879 13.0742 19.6215 12.9527" fill="#272734"/>
<path fill-rule="evenodd" clip-rule="evenodd" d="M19.5146 13.3237C17.0097 9.12074 14.7144 4.79328 12.6373 0.357801C12.5259 0.327086 12.4147 0.298912 12.3027 0.272461C14.4369 4.85801 16.8051 9.32824 19.3975 13.665C19.4396 13.5499 19.4772 13.436 19.5146 13.322" fill="#272734"/>
<path fill-rule="evenodd" clip-rule="evenodd" d="M11.9712 0.198193C11.8637 0.176855 11.7557 0.157024 11.6475 0.138672C13.9527 4.88162 16.4969 9.50169 19.2702 13.9805L19.2758 13.9913C19.3195 13.883 19.3587 13.7743 19.3973 13.6649C16.7032 9.30396 14.2278 4.816 11.9712 0.200749" fill="#272734"/>
<path fill-rule="evenodd" clip-rule="evenodd" d="M11.3045 0.0865943C11.1991 0.0718611 11.0937 0.0597128 10.9883 0.0488281C13.4702 4.93065 16.1927 9.68326 19.1454 14.2887L19.1511 14.2995C19.1948 14.1964 19.2384 14.0947 19.2775 13.9911L19.2718 13.982C16.3955 9.48179 13.7399 4.85002 11.3045 0.0865943Z" fill="#272734"/>
<path fill-rule="evenodd" clip-rule="evenodd" d="M10.6374 0.0189553C10.535 0.0125509 10.4325 0.00828608 10.3301 0.00488281C13.0863 5.16966 15.9983 10.0599 19.0088 14.5802L19.0159 14.5908C19.0626 14.4936 19.1062 14.3988 19.1492 14.2977L19.1436 14.2871C16.0868 9.67058 13.2515 4.91452 10.6374 0.0189553Z" fill="#272734"/>
<path d="M9.96762 0C9.86773 0 9.76743 2.88201e-07 9.66797 0.00575856C12.609 5.26655 15.6978 10.2565 18.8728 14.8684L18.8773 14.873C18.924 14.7801 18.9702 14.686 19.0142 14.592L19.0073 14.5813C15.4335 9.38167 12.3933 4.33066 9.9662 0H9.96762Z" fill="#272734"/>
<path d="M9.30189 0.0224609C9.20456 0.0295116 9.10709 0.0384719 9.00977 0.0480643C12.0323 5.22096 15.2755 10.2503 18.7395 15.1361C18.7863 15.0481 18.8323 14.9602 18.8774 14.8723L18.8729 14.8679C15.4722 10.0619 12.2823 5.11345 9.30317 0.0224609" fill="#272734"/>
<path fill-rule="evenodd" clip-rule="evenodd" d="M8.35758 0.138581C11.5613 5.36481 14.9731 10.4509 18.5925 15.3967C18.6419 15.3142 18.6899 15.2297 18.7354 15.1446C15.1703 10.2691 11.8054 5.25282 8.64049 0.0957031C8.54557 0.108498 8.45079 0.123217 8.35645 0.138366" fill="#272734"/>
<path fill-rule="evenodd" clip-rule="evenodd" d="M7.70801 0.268807C11.0911 5.53044 14.668 10.656 18.4388 15.6455C18.4906 15.5648 18.54 15.4835 18.588 15.4022C14.8661 10.4738 11.3313 5.40906 7.98368 0.208008C7.89146 0.227207 7.79966 0.247052 7.70801 0.272009" fill="#272734"/>
<path fill-rule="evenodd" clip-rule="evenodd" d="M7.06934 0.443654C10.0356 4.83661 13.8575 10.2274 18.2838 15.8882C18.3358 15.8099 18.3867 15.7312 18.4369 15.6519C14.5658 10.6868 10.8654 5.59145 7.33607 0.366211C7.24683 0.391168 7.15829 0.416772 7.06976 0.443654" fill="#272734"/>
<path fill-rule="evenodd" clip-rule="evenodd" d="M6.69682 0.567383C6.6107 0.598098 6.52472 0.631384 6.43945 0.662745L6.59807 0.886097C9.66435 5.19904 13.5999 10.5124 18.123 16.118L18.2792 15.8895C14.3082 10.9545 10.4864 5.90169 6.81373 0.731213L6.69682 0.567383Z" fill="#272734"/>
<path fill-rule="evenodd" clip-rule="evenodd" d="M6.07373 0.814453C5.99102 0.849663 5.90873 0.886784 5.82715 0.925182L6.1434 1.35333C9.9534 6.45285 13.8909 11.451 17.956 16.3479C18.0104 16.2732 18.0647 16.2007 18.1167 16.1264C13.9713 11.1298 9.95709 6.02576 6.07373 0.814453Z" fill="#272734"/>
<path fill-rule="evenodd" clip-rule="evenodd" d="M5.23828 1.22471C8.81418 5.78854 13.0874 11.0717 17.7914 16.5633C17.8483 16.4923 17.9026 16.4206 17.9564 16.3484C13.6881 11.3573 9.52826 6.27408 5.47664 1.09863C5.39704 1.13959 5.31787 1.18119 5.23885 1.22662" fill="#272734"/>
<path d="M4.66018 1.57016C8.89383 6.71403 13.2135 11.7832 17.6192 16.7778C17.6761 16.7086 17.733 16.6391 17.7888 16.5685C13.4044 11.5965 9.10466 6.54998 4.88903 1.42871C4.81256 1.47415 4.73793 1.5215 4.66274 1.57016H4.66018ZM4.10743 1.95415C7.93119 6.37206 12.4903 11.5434 17.4421 16.9845L17.6148 16.7819C12.68 11.3589 8.13677 6.20438 4.32124 1.79926C4.24845 1.84983 4.17638 1.90166 4.10501 1.95415H4.10743ZM3.57439 2.37782C7.51449 6.70678 12.1976 11.7964 17.2556 17.1848C17.3189 17.1209 17.3765 17.0568 17.4348 16.9878C12.8457 12.0953 8.29284 7.16857 3.77628 2.20759C3.70747 2.26263 3.63937 2.32022 3.57339 2.37825L3.57439 2.37782ZM3.07129 2.83692C7.72703 7.697 12.3935 12.5454 17.0711 17.3822C17.1344 17.3182 17.1946 17.2541 17.2546 17.1901C12.5807 12.3563 7.91842 7.51046 3.26779 2.65239C3.20451 2.71255 3.13811 2.77399 3.07483 2.83607L3.07129 2.83692ZM2.60508 3.32822C6.75573 7.44987 11.6569 12.3336 16.8787 17.5734C16.942 17.5093 17.0052 17.4492 17.0684 17.3851C11.8428 12.1435 6.93719 7.25658 2.78526 3.13175L2.60508 3.32822ZM2.16752 3.85089C6.41167 7.85855 11.3995 12.6188 16.6815 17.7587C16.7447 17.6992 16.8118 17.639 16.8756 17.5774C11.5836 12.4267 6.58561 7.65736 2.33508 3.64267C2.27819 3.71115 2.22243 3.78028 2.16752 3.85067V3.85089ZM1.767 4.40172C6.72409 8.85224 11.6283 13.3649 16.4794 17.9395L16.6778 17.7623C11.8138 13.1742 6.89434 8.64704 1.91966 4.1807C1.86773 4.25302 1.81651 4.32663 1.76657 4.40087L1.767 4.40172ZM1.40234 4.97687C6.43366 9.27083 11.3895 13.6506 16.2698 18.116L16.4747 17.9438C11.5715 13.4583 6.59384 9.05902 1.54141 4.74582C1.49402 4.82326 1.44721 4.89943 1.40234 4.97687Z" fill="#272734"/>
<path fill-rule="evenodd" clip-rule="evenodd" d="M1.08001 5.57688C6.16224 9.70444 11.1539 13.9414 16.055 18.2879C16.1265 18.2329 16.1973 18.1779 16.2658 18.1203C11.3385 13.7477 6.31802 9.48603 1.20458 5.33496C1.16243 5.41496 1.12028 5.4956 1.07812 5.57688" fill="#272734"/>
<path d="M0.909722 5.93457C0.871784 6.01777 0.83596 6.10225 0.800334 6.18673L1.16919 6.47217C5.30592 9.68046 10.4158 13.7803 15.835 18.453C15.9076 18.3996 15.9804 18.3441 16.0525 18.2891C11.1127 14.0366 6.06455 9.91941 0.908047 5.93713L0.909722 5.93457ZM0.655106 6.56178C0.622857 6.64817 0.591871 6.73585 0.561523 6.82289L0.723392 6.94129C5.7998 10.6818 10.7617 14.574 15.6093 18.6181C15.6838 18.5663 15.7591 18.5132 15.8337 18.4587C10.9637 14.3939 5.97658 10.4809 0.872422 6.71963L0.652582 6.5573" fill="#272734"/>
<path fill-rule="evenodd" clip-rule="evenodd" d="M0.359375 7.46958C4.63586 10.4692 9.87032 14.3176 15.3691 18.7762L15.5987 18.6214C10.6763 14.6386 5.62248 10.8315 0.437352 7.2002C0.410168 7.2898 0.384657 7.37941 0.36085 7.46958" fill="#272734"/>
<path fill-rule="evenodd" clip-rule="evenodd" d="M0.204975 8.1281C5.3105 11.5358 10.2836 15.1354 15.1242 18.9268C15.2052 18.8781 15.285 18.8276 15.3646 18.7763C10.4703 14.9402 5.43691 11.2973 0.264407 7.84766C0.242274 7.94056 0.222255 8.0339 0.201172 8.1281" fill="#272734"/>
<path fill-rule="evenodd" clip-rule="evenodd" d="M0.0920827 8.79817C5.15325 12.0212 10.079 15.4488 14.8691 19.0808C14.9519 19.0335 15.0355 18.9849 15.1169 18.9349C10.2678 15.252 5.27371 11.778 0.134462 8.5127C0.118642 8.60804 0.1041 8.70469 0.0908203 8.80003" fill="#272734"/>
<path fill-rule="evenodd" clip-rule="evenodd" d="M0.0234375 9.47217C5.01969 12.5058 9.87845 15.7553 14.5995 19.2206L14.6044 19.225C14.6911 19.1784 14.7765 19.1323 14.8618 19.083C10.0708 15.5609 5.13319 12.2585 0.0487343 9.17578C0.0381927 9.27573 0.0297653 9.37423 0.0234375 9.47274" fill="#272734"/>
<path fill-rule="evenodd" clip-rule="evenodd" d="M0.00568961 9.84711C0.00568961 9.94835 0.000638453 10.0499 0 10.1511C4.90942 12.9966 9.68206 16.065 14.3179 19.3564L14.3286 19.3648C14.4215 19.32 14.5132 19.2726 14.6043 19.224L14.5999 19.2207C10.0717 15.9875 5.17033 12.8421 0.00547718 9.84668" fill="#272734"/>
<path d="M0.00683594 10.5176C0.00683594 10.6233 0.0150652 10.7269 0.0220172 10.8312C4.82775 13.4915 9.49796 16.3794 14.0327 19.4949L14.0415 19.5C14.1382 19.4558 14.2312 19.4117 14.3299 19.3644L14.3193 19.3573C9.88075 16.2924 5.07817 13.3253 0.00683594 10.5176Z" fill="#272734"/>
<path d="M0.0488281 11.1904C0.0593697 11.298 0.071586 11.4048 0.0861427 11.5104C4.76248 13.9851 9.31025 16.6892 13.7293 19.6231L13.7388 19.6281C13.8394 19.5879 13.9406 19.5444 14.0412 19.5001L14.0322 19.4937C9.51285 16.4892 4.84605 13.7179 0.0500919 11.1904" fill="#272734"/>
<path fill-rule="evenodd" clip-rule="evenodd" d="M0.135639 11.8605C0.154609 11.9712 0.174202 12.0806 0.198875 12.1901C4.7259 14.4865 9.13293 17.0073 13.4198 19.7528C13.5252 19.7144 13.6329 19.6734 13.7359 19.6286L13.7271 19.6235C9.33057 16.8004 4.79273 14.2092 0.131836 11.8604" fill="#272734"/>
<path d="M0.350303 12.8688C4.70723 14.985 8.95564 17.3226 13.0792 19.8729C13.1917 19.8351 13.3049 19.7955 13.4164 19.7533C9.15966 17.1144 4.76937 14.7028 0.263672 12.5283C0.290856 12.6422 0.318054 12.7549 0.34904 12.8675" fill="#272734"/>
<path fill-rule="evenodd" clip-rule="evenodd" d="M0.556249 13.5441C4.71448 15.4833 8.7739 17.6325 12.7193 19.9838C12.8394 19.9479 12.9595 19.9114 13.0791 19.873C8.98544 17.4254 4.76811 15.1965 0.444336 13.1953C0.479749 13.3118 0.516423 13.4275 0.556249 13.5428" fill="#272734"/>
<path fill-rule="evenodd" clip-rule="evenodd" d="M0.814789 14.2165C4.74871 15.98 8.58921 17.9362 12.3359 20.0853C12.4623 20.0539 12.5889 20.0213 12.7184 19.9835C8.8104 17.7312 4.78943 15.6858 0.671875 13.8555C0.716141 13.9778 0.764195 14.0969 0.814789 14.2165Z" fill="#272734"/>
<path fill-rule="evenodd" clip-rule="evenodd" d="M1.12857 14.8876C4.80713 16.4757 8.40488 18.2386 11.9219 20.1763C12.0598 20.1502 12.1976 20.1188 12.3342 20.0854C8.63543 18.0363 4.83664 16.1779 0.952148 14.5176C1.01032 14.6455 1.07039 14.7664 1.13236 14.8894" fill="#272734"/>
<path fill-rule="evenodd" clip-rule="evenodd" d="M1.50609 15.5613C4.69367 16.8957 8.06456 18.4535 11.4608 20.2571C11.6114 20.2348 11.7615 20.209 11.9112 20.1795C8.45061 18.3359 4.90691 16.667 1.28027 15.1729C1.353 15.3008 1.42692 15.4328 1.50609 15.5568" fill="#272734"/>
<path fill-rule="evenodd" clip-rule="evenodd" d="M1.95723 16.2365C5.01102 17.4678 8.00891 18.8287 10.9509 20.3191C11.1173 20.3037 11.2829 20.2826 11.4492 20.2582C8.26103 18.6305 5.00379 17.1545 1.67773 15.8301C1.76754 15.9676 1.86175 16.1028 1.95794 16.2365" fill="#272734"/>
<path fill-rule="evenodd" clip-rule="evenodd" d="M2.50489 16.9254C5.06083 17.9301 7.70516 19.0713 10.3648 20.3599C10.5532 20.3529 10.7429 20.3407 10.9339 20.3235C8.06185 18.9207 5.13489 17.6442 2.15332 16.4941C2.26626 16.6402 2.3843 16.7839 2.50745 16.9255" fill="#272734"/>
<path fill-rule="evenodd" clip-rule="evenodd" d="M2.92821 17.3844C3.01107 17.4699 3.09691 17.5527 3.18118 17.6347C5.30198 18.4488 7.47783 19.355 9.66077 20.3611C9.88366 20.3688 10.1067 20.3688 10.3297 20.3611C7.83238 19.1976 5.29446 18.131 2.71582 17.1611C2.78463 17.2358 2.85429 17.3096 2.92651 17.3826" fill="#272734"/>
<path d="M4.09259 18.4031C5.65666 18.9933 7.20625 19.6211 8.74152 20.2865C9.03053 20.323 9.32124 20.3474 9.61223 20.3582C7.57698 19.4597 5.51521 18.6277 3.42676 17.8623C3.64298 18.0543 3.86374 18.2355 4.09259 18.4057V18.4031ZM6.01618 19.5301L6.81708 19.8405C7.40971 20.0427 8.01993 20.1874 8.63951 20.2732C7.23875 19.6925 5.82649 19.1433 4.40288 18.6258C4.91194 18.9771 5.4525 19.2795 6.01732 19.5288" fill="#272734"/>
</svg>
