<svg width="32" height="32" viewBox="0 0 32 32" fill="none" xmlns="http://www.w3.org/2000/svg">
<path d="M16 32C24.8366 32 32 24.8366 32 16C32 7.16344 24.8366 0 16 0C7.16345 0 0 7.16344 0 16C0 24.8366 7.16345 32 16 32Z" fill="#272734"/>
<path d="M24.6965 19.0443C23.4411 22.6204 20.0334 25.1852 16.0281 25.1852C10.956 25.1852 6.84375 21.0738 6.84375 16.0008C6.84375 10.9287 10.9552 6.81641 16.0281 6.81641C20.0334 6.81641 23.4411 9.38123 24.6965 12.9573H22.9834C21.8108 10.2804 19.1407 8.40859 16.0281 8.40859C11.8348 8.40859 8.43593 11.8074 8.43593 16.0008C8.43593 20.1943 11.8348 23.593 16.0281 23.593C19.1405 23.593 21.811 21.7221 22.9836 19.0443H24.6965Z" stroke="white" stroke-width="4"/>
</svg>
