<svg width="31" height="32" viewBox="0 0 31 32" fill="none" xmlns="http://www.w3.org/2000/svg">
<path d="M27.2805 16L30.9958 10.8816C29.7885 7.28706 27.3499 4.24078 24.1152 2.28638C20.8805 0.33199 17.0602 -0.403337 13.3362 0.211635C9.61209 0.826607 6.22657 2.75186 3.78381 5.6438C1.34105 8.53573 0 12.2062 0 16C0 19.7939 1.34105 23.4643 3.78381 26.3563C6.22657 29.2482 9.61209 31.1735 13.3362 31.7884C17.0602 32.4034 20.8805 31.6681 24.1152 29.7137C27.3499 27.7593 29.7885 24.713 30.9958 21.1185L27.2805 16ZM24.0973 20.7238C22.4693 23.3798 19.2467 25.2953 15.9119 25.2953C14.3233 25.2942 12.7618 24.8818 11.3779 24.0977C9.99405 23.3136 8.83445 22.1843 8.01094 20.8187C7.18742 19.4531 6.72778 17.8973 6.67631 16.3012C6.62484 14.7051 6.98329 13.1226 7.7171 11.7062C8.45091 10.2899 9.53533 9.0875 10.8658 8.21496C12.1963 7.34242 13.7279 6.82918 15.3131 6.72471C16.8982 6.62024 18.4834 6.92808 19.9158 7.61854C21.3482 8.309 22.5795 9.35879 23.491 10.6667L27.1289 16L24.0973 20.7238Z" fill="#272734"/>
</svg>
