<svg width="11" height="11" viewBox="0 0 11 11" fill="none" xmlns="http://www.w3.org/2000/svg">
<path fill-rule="evenodd" clip-rule="evenodd" d="M5.2878 5.05366C5.15849 5.05366 5.05366 5.15849 5.05366 5.2878V8.71219C5.05366 8.84151 5.15849 8.94634 5.2878 8.94634H8.71219C8.84151 8.94634 8.94634 8.84151 8.94634 8.71219V5.2878C8.94634 5.15849 8.84151 5.05366 8.71219 5.05366H5.2878ZM4 5.2878C4 4.57657 4.57657 4 5.2878 4H8.71219C9.42343 4 10 4.57657 10 5.2878V8.71219C10 9.42343 9.42343 10 8.71219 10H5.2878C4.57657 10 4 9.42343 4 8.71219V5.2878Z" fill="white"/>
<path fill-rule="evenodd" clip-rule="evenodd" d="M2.2878 2.05366C2.22571 2.05366 2.16615 2.07833 2.12224 2.12224C2.07833 2.16615 2.05366 2.22571 2.05366 2.2878V5.71219C2.05366 5.77429 2.07833 5.83385 2.12224 5.87776C2.16615 5.92167 2.22571 5.94634 2.2878 5.94634H2.66829C2.95925 5.94634 3.19512 6.18221 3.19512 6.47317C3.19512 6.76413 2.95925 7 2.66829 7H2.2878C1.94626 7 1.6187 6.86432 1.37719 6.62281C1.13568 6.3813 1 6.05374 1 5.71219V2.2878C1 1.94626 1.13568 1.6187 1.37719 1.37719C1.6187 1.13568 1.94626 1 2.2878 1H5.7122C6.05374 1 6.3813 1.13568 6.62281 1.37719C6.86432 1.6187 7 1.94626 7 2.2878V2.66829C7 2.95925 6.76413 3.19512 6.47317 3.19512C6.18221 3.19512 5.94634 2.95925 5.94634 2.66829V2.2878C5.94634 2.22571 5.92167 2.16615 5.87776 2.12224C5.83385 2.07833 5.77429 2.05366 5.7122 2.05366H2.2878Z" fill="white"/>
</svg>
