<svg width="32" height="32" viewBox="0 0 32 32" fill="none" xmlns="http://www.w3.org/2000/svg">
<path d="M21.4325 25.75H19.4747L17.1308 23.5833V22.4722L19.5574 20.1389V16.4444L22.7286 14.3611L26.3409 17.1111L21.4325 25.75ZM13.3254 19.9167L13.6839 16.4444L12.4982 13.3333H19.5023L18.3441 16.4444L18.675 19.9167H15.9727H13.3254ZM14.9248 23.5833L12.5809 25.7778H10.5955L5.65955 17.1111L9.29947 14.3889L12.4982 16.4444V20.1389L14.9248 22.4722V23.5833ZM10.5679 6.91667H21.405L22.701 12.4722H9.29947L10.5679 6.91667ZM16.0002 0L2.24023 8V24L16.0002 32L29.7602 24V8L16.0002 0Z" fill="#272734"/>
</svg>
