<svg width="32" height="30" viewBox="0 0 32 30" fill="none" xmlns="http://www.w3.org/2000/svg">
<path d="M11.5763 6.1123L10.0724 11.855L0 13.1648L11.5763 6.1123Z" fill="#272734"/>
<path d="M14.3115 29.2774L16.822 18.8472L13.5596 17.501L14.3115 29.2774Z" fill="#272734"/>
<path d="M10.0724 11.8496L7.41633 17.3073L0 13.1655L10.0724 11.8496Z" fill="#272734"/>
<path d="M14.3108 29.2777L13.565 17.5013L7.41602 17.2891L14.3108 29.2777Z" fill="#272734"/>
<path d="M10.0721 11.8496L13.565 17.4952L7.41602 17.2891L10.0721 11.8496Z" fill="#272734"/>
<path d="M11.5762 6.1123L19.9385 7.16139L10.0723 11.855L11.5762 6.1123Z" fill="#272734"/>
<path d="M29.107 3.49902L23.8252 9.61159L24.1951 3.95989L29.107 3.49902Z" fill="#272734"/>
<path d="M32 0L29.1074 3.49896L31.3875 3.7779L32 0Z" fill="#272734"/>
<path d="M26.251 6.67052L31.363 3.77191L29.1071 3.49902L26.251 6.67052Z" fill="#272734"/>
<path d="M16.822 18.8472L17.0707 11.8311L13.5596 17.5009L16.822 18.8472Z" fill="#272734"/>
<path d="M17.0702 11.8311L13.5591 17.5009L10.0723 11.8553L17.0702 11.8311Z" fill="#272734"/>
<path d="M19.9385 7.16211L17.0641 11.8314H10.0723L19.9385 7.16211Z" fill="#272734"/>
<path d="M17.0639 11.8311L16.8213 18.8472L23.2371 25.4085L17.0639 11.8311Z" fill="#272734"/>
<path d="M26.591 21.7395L23.2012 13.3408L23.2376 25.4143L26.591 21.7395Z" fill="#272734"/>
<path d="M23.8259 9.61133L23.2195 13.3347L17.0645 11.8308L23.8259 9.61133Z" fill="#272734"/>
<path d="M26.9306 14.6685L23.2012 13.3405L23.8076 9.61719L26.9306 14.6685Z" fill="#272734"/>
<path d="M28.2641 21.5089L24.2012 14.9961H26.5237L28.2641 21.5089Z" fill="#272734"/>
<path d="M20.7031 5.77311L23.8261 9.61166L24.196 3.95996L20.7031 5.77311Z" fill="#272734"/>
<path d="M23.2013 13.341L17.0645 11.8311L23.2377 25.4085L23.2013 13.341Z" fill="#272734"/>
<path d="M26.5913 21.7393L27.9436 22.4973L23.25 25.408L26.5913 21.7393Z" fill="#272734"/>
<path d="M28.2647 21.4303L23.2012 13.3408L26.591 21.7456L28.2647 21.4303Z" fill="#272734"/>
<path d="M20.7029 5.77344L17.0645 11.8375L23.8259 9.61805L20.7029 5.77344Z" fill="#272734"/>
</svg>
