<svg width="21" height="32" viewBox="0 0 21 32" fill="none" xmlns="http://www.w3.org/2000/svg">
<path d="M13.6969 9.84269C13.6969 5.2514 11.46 1.29729 9.75638 0.0138936C9.75638 0.0138936 9.62533 -0.0584102 9.63889 0.126868C9.4988 8.99764 4.96626 11.4017 2.4763 14.6373C-3.27185 22.1117 2.06959 30.3047 7.51948 31.8185C10.5562 32.6681 6.81452 30.3182 6.33099 25.3609C5.739 19.3777 13.6969 14.8045 13.6969 9.84269V9.84269Z" fill="#272734"/>
<path d="M16.3092 12.8657C16.2731 12.8431 16.2233 12.825 16.1917 12.8838C16.0968 14 14.958 16.386 13.512 18.5822C8.60886 26.0205 11.4016 29.6085 12.9742 31.5382C13.887 32.6543 12.9742 31.5382 15.2518 30.3948C18.0671 28.6867 19.8928 25.7313 20.1639 22.4505C20.6113 17.1633 17.439 13.8328 16.3092 12.8657V12.8657Z" fill="#272734"/>
</svg>
