<svg width="30" height="32" viewBox="0 0 30 32" fill="none" xmlns="http://www.w3.org/2000/svg">
<path d="M2.7879 2.70215C4.32622 2.70215 5.57581 3.92133 5.57581 5.42221V26.5593C5.57581 28.0602 4.32622 29.2793 2.7879 29.2793C1.24959 29.2793 0 28.0602 0 26.5593V5.42221C0.00473328 3.92133 1.24959 2.70215 2.7879 2.70215V2.70215Z" fill="#272734"/>
<path d="M20.7892 1.05823C21.8732 2.12502 21.8637 3.84757 20.7703 4.90049L5.3682 19.7708C4.27481 20.8283 2.5093 20.8191 1.43011 19.7523C0.346185 18.6855 0.355651 16.963 1.44904 15.91L16.8511 1.04438C17.9445 -0.0177831 19.71 -0.00854677 20.7892 1.05823V1.05823Z" fill="#272734"/>
<path d="M20.7892 30.905C21.8732 29.8382 21.8637 28.1157 20.7703 27.0628L5.3682 12.1971C4.27481 11.1395 2.5093 11.1488 1.43011 12.2156C0.346185 13.2823 0.355651 15.0049 1.44904 16.0578L16.8511 30.9235C17.9445 31.9857 19.71 31.9764 20.7892 30.905V30.905Z" fill="#272734"/>
<path d="M29.1899 19.4934C30.2738 20.5601 30.2691 22.2827 29.1804 23.3402L21.077 31.2095C19.9836 32.267 18.2181 32.2624 17.1342 31.2002C16.0503 30.1335 16.055 28.4109 17.1437 27.3534L25.2471 19.4841C26.3357 18.4266 28.1012 18.4312 29.1899 19.4934V19.4934Z" fill="#272734"/>
<path d="M29.1899 12.5064C30.2738 11.4396 30.2691 9.71707 29.1804 8.65953L21.077 0.790281C19.9836 -0.267264 18.2181 -0.262646 17.1342 0.799517C16.0503 1.8663 16.055 3.58885 17.1437 4.6464L25.2471 12.5156C26.3404 13.5732 28.106 13.5732 29.1899 12.5064Z" fill="#272734"/>
<path d="M19.127 18.7456C20.6798 18.7456 21.9386 17.5174 21.9386 16.0024C21.9386 14.4874 20.6798 13.2593 19.127 13.2593C17.5742 13.2593 16.3154 14.4874 16.3154 16.0024C16.3154 17.5174 17.5742 18.7456 19.127 18.7456Z" fill="#272734"/>
</svg>
