<svg width="14" height="13" viewBox="0 0 14 13" fill="none" xmlns="http://www.w3.org/2000/svg">
<path d="M12.9205 1.56089C12.5784 1.22455 12.1722 0.957752 11.7252 0.775722C11.2782 0.593691 10.799 0.5 10.3151 0.5C9.83123 0.5 9.35208 0.593691 8.90504 0.775722C8.45801 0.957752 8.05185 1.22455 7.70976 1.56089L6.99982 2.25857L6.28988 1.56089C5.5989 0.881838 4.66172 0.500352 3.68453 0.500352C2.70733 0.500352 1.77016 0.881838 1.07917 1.56089C0.38819 2.23994 7.28068e-09 3.16092 0 4.12124C-7.28068e-09 5.08157 0.38819 6.00255 1.07917 6.6816L1.78911 7.37928L6.99982 12.5L12.2105 7.37928L12.9205 6.6816C13.2627 6.34543 13.5342 5.94628 13.7194 5.50697C13.9047 5.06765 14 4.59678 14 4.12124C14 3.64571 13.9047 3.17484 13.7194 2.73552C13.5342 2.29621 13.2627 1.89706 12.9205 1.56089Z" fill="#9FA7B4"/>
</svg>
