<svg width="12" height="9" viewBox="0 0 12 9" fill="none" xmlns="http://www.w3.org/2000/svg">
<path fill-rule="evenodd" clip-rule="evenodd" d="M1.07017 4.5C1.12482 4.59443 1.19726 4.71478 1.28701 4.85374C1.51752 5.21066 1.85888 5.6853 2.30207 6.15803C3.19756 7.11322 4.44955 8 5.9998 8C7.55005 8 8.80204 7.11322 9.69753 6.15803C10.1407 5.6853 10.4821 5.21066 10.7126 4.85374C10.8023 4.71478 10.8748 4.59443 10.9294 4.5C10.8748 4.40557 10.8023 4.28522 10.7126 4.14626C10.4821 3.78934 10.1407 3.3147 9.69753 2.84197C8.80204 1.88678 7.55005 1 5.9998 1C4.44955 1 3.19756 1.88678 2.30207 2.84197C1.85888 3.3147 1.51752 3.78934 1.28701 4.14626C1.19726 4.28522 1.12482 4.40557 1.07017 4.5ZM11.4998 4.5C11.947 4.27639 11.9469 4.27622 11.9468 4.27604L11.946 4.27443L11.9443 4.27102L11.9386 4.25991C11.9339 4.25064 11.9271 4.23766 11.9184 4.22122C11.901 4.18835 11.8758 4.14161 11.8428 4.08299C11.7769 3.96582 11.6799 3.80076 11.5526 3.60374C11.2988 3.21066 10.9214 2.6853 10.4271 2.15803C9.44756 1.11322 7.94955 0 5.9998 0C4.05005 0 2.55204 1.11322 1.57253 2.15803C1.07822 2.6853 0.700834 3.21066 0.446969 3.60374C0.319726 3.80076 0.222697 3.96582 0.156787 4.08299C0.123813 4.14161 0.0985711 4.18835 0.0811778 4.22122C0.0724795 4.23766 0.0657387 4.25064 0.0609701 4.25991L0.0552961 4.27102L0.0535706 4.27443L0.0529862 4.2756C0.0528943 4.27578 0.0525875 4.27639 0.499801 4.5L0.0529862 4.2756C-0.0173957 4.41636 -0.0177944 4.58284 0.0525875 4.72361L0.499801 4.5C0.0525875 4.72361 0.0524956 4.72342 0.0525875 4.72361L0.0535706 4.72556L0.0552961 4.72898L0.0609701 4.74009C0.0657387 4.74936 0.0724795 4.76234 0.0811778 4.77878C0.0985711 4.81165 0.123813 4.85838 0.156787 4.917C0.222697 5.03418 0.319726 5.19924 0.446969 5.39626C0.700834 5.78934 1.07822 6.3147 1.57253 6.84197C2.55204 7.88678 4.05005 9 5.9998 9C7.94955 9 9.44756 7.88678 10.4271 6.84197C10.9214 6.3147 11.2988 5.78934 11.5526 5.39626C11.6799 5.19924 11.7769 5.03418 11.8428 4.917C11.8758 4.85838 11.901 4.81165 11.9184 4.77878C11.9271 4.76234 11.9339 4.74936 11.9386 4.74009L11.9443 4.72898L11.946 4.72556L11.9466 4.7244C11.9467 4.72422 11.947 4.72361 11.4998 4.5ZM11.4998 4.5L11.9466 4.7244C12.017 4.58364 12.0172 4.4168 11.9468 4.27604L11.4998 4.5Z" fill="#9FA7B4"/>
<path fill-rule="evenodd" clip-rule="evenodd" d="M6 3.5C5.44772 3.5 5 3.94772 5 4.5C5 5.05228 5.44772 5.5 6 5.5C6.55228 5.5 7 5.05228 7 4.5C7 3.94772 6.55228 3.5 6 3.5ZM4 4.5C4 3.39543 4.89543 2.5 6 2.5C7.10457 2.5 8 3.39543 8 4.5C8 5.60457 7.10457 6.5 6 6.5C4.89543 6.5 4 5.60457 4 4.5Z" fill="#9FA7B4"/>
</svg>
