<svg width="14" height="14" viewBox="0 0 14 14" fill="none" xmlns="http://www.w3.org/2000/svg">
<path d="M6.16543 0C2.7659 0 0 2.7659 0 6.16543C0 9.56515 2.7659 12.3309 6.16543 12.3309C9.56515 12.3309 12.3309 9.56515 12.3309 6.16543C12.3309 2.7659 9.56515 0 6.16543 0ZM6.16543 11.1927C3.39346 11.1927 1.13823 8.93743 1.13823 6.16546C1.13823 3.39348 3.39346 1.13823 6.16543 1.13823C8.93741 1.13823 11.1926 3.39346 11.1926 6.16543C11.1926 8.93741 8.93741 11.1927 6.16543 11.1927Z" fill="white"/>
<path d="M13.8341 13.0288L10.5711 9.76587C10.3488 9.54354 9.9887 9.54354 9.76636 9.76587C9.54403 9.98802 9.54403 10.3485 9.76636 10.5706L13.0293 13.8336C13.1405 13.9447 13.286 14.0003 13.4317 14.0003C13.5772 14.0003 13.7229 13.9447 13.8341 13.8336C14.0564 13.6114 14.0564 13.251 13.8341 13.0288Z" fill="white"/>
</svg>
