<svg width="8" height="11" viewBox="0 0 8 11" fill="none"
  xmlns="http://www.w3.org/2000/svg">
  <path fill-rule="evenodd" clip-rule="evenodd" d="M0.521739 5.08105C0.809888 5.08105 1.04348 5.31283 1.04348 5.59874V9.02513C1.04348 9.1138 1.0792 9.19961 1.14402 9.26346C1.20897 9.32744 1.29785 9.36404 1.3913 9.36404H6.6087C6.70215 9.36404 6.79103 9.32744 6.85598 9.26346C6.9208 9.19961 6.95652 9.1138 6.95652 9.02513V5.59874C6.95652 5.31283 7.19011 5.08105 7.47826 5.08105C7.76641 5.08105 8 5.31283 8 5.59874V9.02513C8 9.39082 7.85249 9.74077 7.59116 9.99821C7.32996 10.2555 6.97648 10.3994 6.6087 10.3994H1.3913C1.02352 10.3994 0.670042 10.2555 0.408837 9.99821C0.147505 9.74077 0 9.39082 0 9.02513V5.59874C0 5.31283 0.233591 5.08105 0.521739 5.08105Z" fill="white"/>
  <path fill-rule="evenodd" clip-rule="evenodd" d="M4.00013 0.799805C4.14409 0.799805 4.28166 0.858827 4.38027 0.962902L6.1194 2.79847C6.31676 3.00678 6.30657 3.3344 6.09662 3.53023C5.88668 3.72606 5.55649 3.71595 5.35912 3.50763L4.00013 2.07328L2.64113 3.50763C2.44377 3.71595 2.11358 3.72606 1.90364 3.53023C1.69369 3.3344 1.6835 3.00678 1.88086 2.79847L3.61999 0.962902C3.7186 0.858827 3.85617 0.799805 4.00013 0.799805Z" fill="white"/>
  <path fill-rule="evenodd" clip-rule="evenodd" d="M4.00025 0.799805C4.2884 0.799805 4.52199 1.03158 4.52199 1.31749V7.43604C4.52199 7.72195 4.2884 7.95372 4.00025 7.95372C3.71211 7.95372 3.47852 7.72195 3.47852 7.43604V1.31749C3.47852 1.03158 3.71211 0.799805 4.00025 0.799805Z" fill="white"/>
</svg>
