<svg width="63" height="10" viewBox="0 0 63 10" fill="none" xmlns="http://www.w3.org/2000/svg">
<path d="M3.38925 10V5.43886H4.92801L5.15886 3.66078H3.38925V2.52573C3.38925 2.0111 3.53236 1.66038 4.27522 1.66038L5.22115 1.66V0.069615C5.05756 0.0484727 4.49604 0 3.84248 0C2.47774 0 1.54342 0.828483 1.54342 2.34963V3.66078H0V5.43886H1.54342V10H3.38925Z" fill="#3B5998"/>
<path d="M19.351 5.34871H16.1013V8.75H15.0801V1.04818H19.8775V1.88395H16.1013V4.51823H19.351V5.34871Z" fill="#3B5998"/>
<path d="M24.5365 8.75C24.4798 8.63715 24.4337 8.43614 24.3982 8.14697C23.9408 8.61952 23.3948 8.85579 22.7601 8.85579C22.1927 8.85579 21.7265 8.6971 21.3612 8.37972C20.9996 8.05881 20.8187 7.65327 20.8187 7.16309C20.8187 6.56711 21.0457 6.10514 21.4995 5.77718C21.9569 5.44569 22.5987 5.27995 23.4249 5.27995H24.3823V4.83032C24.3823 4.48825 24.2794 4.21672 24.0738 4.01571C23.8681 3.81117 23.565 3.7089 23.1643 3.7089C22.8132 3.7089 22.5189 3.79707 22.2814 3.97339C22.0438 4.14971 21.925 4.36306 21.925 4.61344H20.9357C20.9357 4.3278 21.0368 4.05273 21.2389 3.78825C21.4446 3.52024 21.7211 3.30865 22.0686 3.15348C22.4197 2.99832 22.8044 2.92074 23.2228 2.92074C23.8859 2.92074 24.4053 3.08648 24.7812 3.41797C25.157 3.74593 25.352 4.19908 25.3662 4.77743V7.4117C25.3662 7.93715 25.4336 8.35504 25.5683 8.66537V8.75H24.5365ZM22.9037 8.00415C23.2122 8.00415 23.5047 7.92481 23.7813 7.76611C24.0578 7.60742 24.2582 7.40112 24.3823 7.14722V5.9729H23.6111C22.4055 5.9729 21.8027 6.32379 21.8027 7.02555C21.8027 7.33236 21.9055 7.57216 22.1112 7.74495C22.3168 7.91775 22.581 8.00415 22.9037 8.00415Z" fill="#3B5998"/>
<path d="M29.4348 8.05705C29.7858 8.05705 30.0926 7.95125 30.3549 7.73967C30.6173 7.52808 30.7627 7.26359 30.7911 6.94621H31.7219C31.7041 7.27417 31.5907 7.58626 31.3815 7.88249C31.1723 8.17871 30.8921 8.41499 30.5411 8.59131C30.1936 8.76763 29.8249 8.85579 29.4348 8.85579C28.6512 8.85579 28.0271 8.5966 27.5626 8.07821C27.1017 7.55629 26.8712 6.84394 26.8712 5.94116V5.77718C26.8712 5.22 26.974 4.72453 27.1797 4.29077C27.3853 3.85702 27.6796 3.52024 28.0626 3.28044C28.4491 3.04064 28.9047 2.92074 29.4295 2.92074C30.0748 2.92074 30.6102 3.11293 31.0357 3.49731C31.4648 3.8817 31.6935 4.3807 31.7219 4.9943H30.7911C30.7627 4.62402 30.6209 4.32075 30.3656 4.08447C30.1138 3.84467 29.8018 3.72477 29.4295 3.72477C28.9295 3.72477 28.5413 3.90462 28.2647 4.26432C27.9917 4.6205 27.8552 5.13713 27.8552 5.81421V5.99935C27.8552 6.6588 27.9917 7.16661 28.2647 7.52279C28.5377 7.87896 28.9278 8.05705 29.4348 8.05705Z" fill="#3B5998"/>
<path d="M35.4341 8.85579C34.654 8.85579 34.0193 8.60189 33.53 8.09408C33.0407 7.58274 32.796 6.90036 32.796 6.04696V5.86711C32.796 5.29934 32.9042 4.79329 33.1205 4.34896C33.3403 3.9011 33.6452 3.55197 34.0353 3.3016C34.4289 3.04769 34.8544 2.92074 35.3118 2.92074C36.0599 2.92074 37.0563 3.65601 37.0563 3.65601L37.6786 5.76131V6.16862H33.78C33.7942 6.73286 33.959 7.18953 34.2746 7.53866C34.5937 7.88425 34.998 8.05705 35.4873 8.05705C35.8348 8.05705 36.1291 7.98652 36.3702 7.84546C36.6113 7.7044 36.8223 7.5175 37.0031 7.28475L37.6041 7.75024C37.1219 8.48728 36.3985 8.85579 35.4341 8.85579ZM35.3118 3.72477C34.9146 3.72477 34.5813 3.86936 34.3118 4.15853C34.0424 4.44417 33.8757 4.84619 33.8119 5.36458H36.6946V5.29053C36.6663 4.79329 36.5315 4.40891 36.2904 4.13737C36.0493 3.8623 35.7231 3.72477 35.3118 3.72477Z" fill="#3B5998"/>
<path d="M43.9119 5.95174C43.9119 6.82631 43.7098 7.52984 43.3055 8.06234C42.9013 8.59131 42.3588 8.85579 41.678 8.85579C40.9511 8.85579 40.3891 8.60013 39.992 8.08879L39.9441 8.75H39.04V0.625H40.0239V3.65601C40.421 3.16583 40.9689 2.92074 41.6674 2.92074C42.3659 2.92074 42.9137 3.18346 43.3109 3.7089C43.7115 4.23435 43.9119 4.95375 43.9119 5.86711V5.95174ZM42.9279 5.84066C42.9279 5.17415 42.7985 4.65929 42.5397 4.29606C42.2808 3.93283 41.9085 3.75122 41.4227 3.75122C40.7738 3.75122 40.3076 4.05097 40.0239 4.65047V7.12606C40.3253 7.72556 40.7951 8.02531 41.4334 8.02531C41.905 8.02531 42.2719 7.8437 42.5343 7.48047C42.7967 7.11724 42.9279 6.57064 42.9279 5.84066Z" fill="#3B5998"/>
<path d="M45.1137 5.83537C45.1137 5.27466 45.2236 4.77037 45.4434 4.32251C45.6668 3.87465 45.9753 3.52905 46.3689 3.28573C46.766 3.0424 47.2181 2.92074 47.7252 2.92074C48.5088 2.92074 49.1417 3.19051 49.6239 3.73006C50.1097 4.26961 50.3526 4.98725 50.3526 5.88298V5.95174C50.3526 6.50892 50.0282 7.45402 50.0282 7.45402C50.0282 7.45402 49.5087 8.23866 49.108 8.48551C48.7109 8.73237 48.2535 8.85579 47.7358 8.85579C46.9557 8.85579 46.3228 8.58602 45.837 8.04647C45.3548 7.50692 45.1137 6.79281 45.1137 5.90413V5.83537ZM46.103 5.95174C46.103 6.58651 46.2501 7.09608 46.5444 7.48047C46.8423 7.86486 47.2394 8.05705 47.7358 8.05705C48.2358 8.05705 48.6329 7.86309 48.9272 7.47518C49.2215 7.08374 49.3686 6.53714 49.3686 5.83537C49.3686 5.20766 49.218 4.69984 48.9166 4.31193C48.6187 3.92049 48.2216 3.72477 47.7252 3.72477C47.2394 3.72477 46.8476 3.91697 46.5497 4.30135C46.2519 4.68574 46.103 5.23587 46.103 5.95174Z" fill="#3B5998"/>
<path d="M51.5438 5.83537C51.5438 5.27466 51.6537 4.77037 51.8735 4.32251C52.0969 3.87465 52.4054 3.52905 52.799 3.28573C53.1961 3.0424 53.6482 2.92074 54.1553 2.92074C54.9389 2.92074 55.5718 3.19051 56.054 3.73006C56.5398 4.26961 56.7827 4.98725 56.7827 5.88298V5.95174C56.7827 6.50892 56.6745 7.00968 56.4583 7.45402C56.2455 7.89483 55.9388 8.23866 55.5381 8.48551C55.141 8.73237 54.6836 8.85579 54.1659 8.85579C53.3858 8.85579 52.7529 8.58602 52.2671 8.04647C51.7849 7.50692 51.5438 6.79281 51.5438 5.90413V5.83537ZM52.5331 5.95174C52.5331 6.58651 52.6802 7.09608 52.9745 7.48047C53.2724 7.86486 53.6695 8.05705 54.1659 8.05705C54.6659 8.05705 55.063 7.86309 55.3573 7.47518C55.6516 7.08374 55.7987 6.53714 55.7987 5.83537C55.7987 5.20766 55.648 4.69984 55.3466 4.31193C55.0488 3.92049 54.6517 3.72477 54.1553 3.72477C53.6695 3.72477 53.2777 3.91697 52.9798 4.30135C52.682 4.68574 52.5331 5.23587 52.5331 5.95174Z" fill="#3B5998"/>
<path d="M59.8407 6.09985L59.2238 6.73991V8.75H58.2398V0.625H59.2238V5.53914L59.7503 4.90967L61.5427 3.02653H62.7394L60.5003 5.41748L63 8.75H61.8459L59.8407 6.09985Z" fill="#3B5998"/>
</svg>
