<svg width="57" height="14" viewBox="0 0 57 14" fill="none" xmlns="http://www.w3.org/2000/svg">
<path d="M13.7338 6.51307C13.7338 6.08027 13.6979 5.64514 13.6216 5.21936H7.49463V7.67109H11.0032C10.8576 8.46183 10.3898 9.16132 9.70482 9.60581V11.1966H11.798C13.0273 10.0877 13.7338 8.45013 13.7338 6.51307Z" fill="#4285F4"/>
<path d="M7.49464 12.7336C9.24655 12.7336 10.724 12.1698 11.8004 11.1965L9.7072 9.60573C9.12482 9.99408 8.37298 10.214 7.49702 10.214C5.8024 10.214 4.36554 9.09339 3.84999 7.58679H1.68994V9.22674C2.79264 11.3767 5.03862 12.7336 7.49464 12.7336Z" fill="#4285F4"/>
<path d="M3.84718 7.58683C3.57509 6.7961 3.57509 5.93986 3.84718 5.14913V3.50919H1.68951C0.768209 5.30822 0.768209 7.42775 1.68951 9.22678L3.84718 7.58683Z" fill="#4285F4"/>
<path d="M7.49464 2.51958C8.42072 2.50554 9.31577 2.8471 9.98646 3.47407L11.841 1.65633C10.6667 0.575504 9.10811 -0.0187137 7.49464 1.80438e-06C5.03862 1.80438e-06 2.79264 1.35688 1.68994 3.50916L3.84761 5.14911C4.36077 3.64017 5.80001 2.51958 7.49464 2.51958Z" fill="#4285F4"/>
<path d="M26.1009 9.8118C25.816 10.2198 25.4177 10.5258 24.9058 10.7298C24.3977 10.9299 23.805 11.03 23.1275 11.03C22.4424 11.03 21.8343 10.8703 21.3031 10.5508C20.772 10.2275 20.3601 9.76947 20.0676 9.17672C19.7789 8.58398 19.6307 7.89694 19.623 7.1156V6.38237C19.623 5.11606 19.9175 4.13457 20.5064 3.43791C21.0991 2.74125 21.9305 2.39292 23.0005 2.39292C23.8781 2.39292 24.5844 2.61808 25.1194 3.06841C25.6544 3.51489 25.9815 4.14997 26.1009 4.97365H24.9924C24.7845 3.8613 24.1225 3.30512 23.0063 3.30512C22.2634 3.30512 21.6996 3.56685 21.3147 4.09031C20.9336 4.60992 20.7412 5.36432 20.7373 6.35351V7.04055C20.7373 7.98354 20.9529 8.73409 21.384 9.29219C21.815 9.84645 22.3982 10.1236 23.1333 10.1236C23.549 10.1236 23.9127 10.0774 24.2245 9.98501C24.5363 9.89263 24.7941 9.73675 24.9981 9.51736V7.62944H23.0525V6.72878H26.1009V9.8118Z" fill="#4285F4"/>
<path d="M27.7403 7.73336C27.7403 7.12138 27.8596 6.57097 28.0982 6.08215C28.3407 5.59333 28.6756 5.21614 29.1028 4.95056C29.5339 4.68498 30.0247 4.55219 30.5751 4.55219C31.4257 4.55219 32.1127 4.84663 32.6362 5.43553C33.1635 6.02442 33.4271 6.80768 33.4271 7.78532V7.86038C33.4271 8.46851 33.3098 9.01507 33.075 9.50004C32.844 9.98116 32.5111 10.3564 32.0762 10.6259C31.6451 10.8953 31.1486 11.03 30.5866 11.03C29.7398 11.03 29.0528 10.7356 28.5255 10.1467C28.002 9.55777 27.7403 8.77836 27.7403 7.80842V7.73336ZM28.8142 7.86038C28.8142 8.55319 28.9739 9.10937 29.2934 9.52891C29.6167 9.94844 30.0478 10.1582 30.5866 10.1582C31.1293 10.1582 31.5604 9.94652 31.8799 9.52313C32.1993 9.0959 32.3591 8.49931 32.3591 7.73336C32.3591 7.04824 32.1955 6.49399 31.8683 6.07061C31.545 5.64337 31.1139 5.42975 30.5751 5.42975C30.0478 5.42975 29.6224 5.63952 29.2991 6.05906C28.9758 6.4786 28.8142 7.07904 28.8142 7.86038Z" fill="#4285F4"/>
<path d="M34.7202 7.73336C34.7202 7.12138 34.8395 6.57097 35.0781 6.08215C35.3206 5.59333 35.6555 5.21614 36.0827 4.95056C36.5138 4.68498 37.0045 4.55219 37.5549 4.55219C38.4056 4.55219 39.0926 4.84663 39.6161 5.43553C40.1434 6.02442 40.407 6.80768 40.407 7.78532V7.86038C40.407 8.46851 40.2896 9.01507 40.0548 9.50004C39.8239 9.98116 39.491 10.3564 39.056 10.6259C38.625 10.8953 38.1284 11.03 37.5665 11.03C36.7197 11.03 36.0327 10.7356 35.5054 10.1467C34.9819 9.55777 34.7202 8.77836 34.7202 7.80842V7.73336ZM35.794 7.86038C35.794 8.55319 35.9538 9.10937 36.2732 9.52891C36.5965 9.94844 37.0276 10.1582 37.5665 10.1582C38.1092 10.1582 38.5403 9.94652 38.8597 9.52313C39.1792 9.0959 39.3389 8.49931 39.3389 7.73336C39.3389 7.04824 39.1754 6.49399 38.8482 6.07061C38.5249 5.64337 38.0938 5.42975 37.5549 5.42975C37.0276 5.42975 36.6023 5.63952 36.279 6.05906C35.9557 6.4786 35.794 7.07904 35.794 7.86038Z" fill="#4285F4"/>
<path d="M41.7289 7.73913C41.7289 6.76535 41.9541 5.9917 42.4044 5.41821C42.8547 4.84086 43.4513 4.55219 44.1942 4.55219C44.9563 4.55219 45.5509 4.82162 45.9782 5.36047L46.0301 4.66766H47.0059V10.7644C47.0059 11.5727 46.7653 12.2097 46.2842 12.6754C45.8069 13.1412 45.1641 13.374 44.3558 13.374C43.9055 13.374 43.4648 13.2778 43.0337 13.0854C42.6026 12.8929 42.2735 12.6293 42.0465 12.2944L42.6007 11.6535C43.0587 12.2193 43.6188 12.5022 44.2808 12.5022C44.8004 12.5022 45.2045 12.356 45.4932 12.0635C45.7857 11.7709 45.932 11.3591 45.932 10.8279V10.291C45.5048 10.7837 44.9216 11.03 44.1826 11.03C43.4513 11.03 42.8586 10.7356 42.4044 10.1467C41.9541 9.55777 41.7289 8.75526 41.7289 7.73913ZM42.8028 7.86038C42.8028 8.56474 42.9471 9.11899 43.2358 9.52313C43.5245 9.92343 43.9286 10.1236 44.4482 10.1236C45.1218 10.1236 45.6164 9.81758 45.932 9.20559V6.35351C45.6048 5.75692 45.1141 5.45862 44.4598 5.45862C43.9401 5.45862 43.5341 5.66069 43.2416 6.06483C42.949 6.46898 42.8028 7.06749 42.8028 7.86038Z" fill="#4285F4"/>
<path d="M50.0194 10.9145H48.9513V2.04651H50.0194V10.9145Z" fill="#4285F4"/>
<path d="M54.5628 11.03C53.7161 11.03 53.0271 10.7529 52.4959 10.1986C51.9648 9.64053 51.6992 8.89575 51.6992 7.9643V7.768C51.6992 7.14832 51.8166 6.59599 52.0514 6.11102C52.29 5.6222 52.621 5.24115 53.0444 4.96788C53.4717 4.69075 53.9335 4.55219 54.43 4.55219C55.2422 4.55219 55.8734 4.81969 56.3237 5.3547C56.7741 5.8897 56.9992 6.65565 56.9992 7.65253V8.09709H52.7673C52.7827 8.71292 52.9617 9.21137 53.3042 9.59241C53.6506 9.96961 54.0894 10.1582 54.6206 10.1582C54.9978 10.1582 55.3172 10.0812 55.579 9.92727C55.8407 9.77332 56.0697 9.56932 56.266 9.31529L56.9184 9.82335C56.395 10.6278 55.6098 11.03 54.5628 11.03ZM54.43 5.42975C53.999 5.42975 53.6372 5.58756 53.3446 5.90318C53.0521 6.21494 52.8712 6.65373 52.8019 7.21952H55.9311V7.1387C55.9004 6.59599 55.7541 6.17645 55.4924 5.88008C55.2306 5.57986 54.8765 5.42975 54.43 5.42975Z" fill="#4285F4"/>
</svg>
