<svg width="61" height="13" viewBox="0 0 61 13" fill="none" xmlns="http://www.w3.org/2000/svg">
<g clip-path="url(#clip0_719_1283)">
<rect width="12.8853" height="13" rx="2" transform="matrix(1 0 0 -1 0 13)" fill="#2DC100"/>
<path d="M8.62445 8.15195C7.58448 8.09713 6.68014 7.77906 5.94594 7.06047C5.20413 6.33446 4.86551 5.44483 4.95807 4.34199C4.55158 4.39278 4.18134 4.44868 3.809 4.48031C3.68041 4.49123 3.5278 4.47572 3.41888 4.41371C3.05732 4.20788 2.7107 3.97548 2.29988 3.71639C2.37526 4.06037 2.42405 4.36158 2.51042 4.65131C2.57395 4.86425 2.54453 4.98276 2.35009 5.12143C1.10167 6.01067 0.57544 7.34148 0.969257 8.71159C1.33361 9.97909 2.22836 10.7478 3.44413 11.1485C5.10354 11.6954 6.96843 11.1375 7.97748 9.80832C8.34192 9.32818 8.56539 8.78929 8.62445 8.15195ZM3.83812 8.57886C3.8477 8.82946 3.63247 9.05523 3.37683 9.06277C3.11509 9.07052 2.89982 8.86872 2.89217 8.6085C2.88444 8.34478 3.08438 8.13344 3.34801 8.12668C3.60937 8.12001 3.82846 8.32207 3.83812 8.57886ZM6.33533 9.06294C6.07875 9.05817 5.86193 8.83769 5.86648 8.5861C5.87116 8.32532 6.08386 8.12131 6.3477 8.12452C6.61224 8.12772 6.81286 8.3339 6.81037 8.60018C6.80818 8.86157 6.59643 9.06775 6.33533 9.06294Z" fill="white"/>
<path d="M10.9613 1.61075C10.632 1.75869 10.3299 1.98064 10.0083 2.01453C9.6879 2.04829 9.35112 1.86182 9.01593 1.82724C7.99495 1.72185 7.08027 2.00894 6.32605 2.71263C4.89162 4.0512 5.09658 6.10363 6.75616 7.20057C8.23114 8.17549 10.3943 7.85049 11.4342 6.49775C12.3417 5.31735 12.2351 3.75042 11.1272 2.75878C10.8066 2.47178 10.6912 2.23562 10.8969 1.85727C10.9349 1.78742 10.9392 1.69898 10.9613 1.61075ZM7.21277 5.27237C7.42241 5.27215 7.59503 5.43769 7.60298 5.6466C7.61135 5.86777 7.43504 6.05328 7.21552 6.05419C6.99819 6.05519 6.81612 5.86708 6.82368 5.6492C6.83081 5.44102 7.00463 5.27263 7.21277 5.27237ZM9.62923 6.05332C9.42582 6.05475 9.25298 5.88675 9.24469 5.6794C9.23589 5.45766 9.4067 5.27558 9.62421 5.27501C9.83458 5.27432 10.0008 5.43483 10.0084 5.64603C10.0166 5.86829 9.8457 6.05181 9.62923 6.05332Z" fill="white"/>
</g>
<path d="M22.9918 8.4374L23.1554 9.5691L23.3949 8.54939L25.0775 2.56083H26.0239L27.6656 8.54939L27.8993 9.58678L28.0804 8.43151L29.4007 2.56083H30.5283L28.466 11.1429H27.4436L25.6909 4.88906L25.5565 4.2348L25.4222 4.88906L23.6052 11.1429H22.5828L20.5264 2.56083H21.6481L22.9918 8.4374Z" fill="#2DC100"/>
<path d="M34.2846 11.2608C33.4278 11.2608 32.7306 10.9778 32.1931 10.412C31.6556 9.8422 31.3869 9.08184 31.3869 8.1309V7.9305C31.3869 7.29785 31.5057 6.73396 31.7432 6.23885C31.9847 5.7398 32.3197 5.35078 32.7481 5.07179C33.1804 4.78886 33.6478 4.6474 34.1502 4.6474C34.972 4.6474 35.6108 4.9205 36.0665 5.4667C36.5222 6.0129 36.75 6.79487 36.75 7.81261V8.26647H32.4677C32.4833 8.89519 32.6644 9.40406 33.011 9.79308C33.3615 10.1782 33.8055 10.3707 34.343 10.3707C34.7247 10.3707 35.048 10.2921 35.3128 10.1349C35.5777 9.97777 35.8094 9.76951 36.0081 9.51016L36.6682 10.0289C36.1386 10.8501 35.344 11.2608 34.2846 11.2608ZM34.1502 5.54333C33.714 5.54333 33.3479 5.70444 33.0519 6.02665C32.7559 6.34494 32.5728 6.79291 32.5027 7.37054H35.6692V7.28802C35.6381 6.73396 35.4901 6.30565 35.2252 6.00308C34.9604 5.69658 34.602 5.54333 34.1502 5.54333Z" fill="#2DC100"/>
<path d="M40.781 10.3707C41.1665 10.3707 41.5034 10.2528 41.7917 10.0171C42.0799 9.78129 42.2396 9.48658 42.2707 9.13293H43.2931C43.2736 9.49837 43.149 9.84613 42.9192 10.1762C42.6894 10.5063 42.3817 10.7696 41.9961 10.966C41.6144 11.1625 41.2094 11.2608 40.781 11.2608C39.9202 11.2608 39.2347 10.9719 38.7245 10.3943C38.2182 9.81273 37.965 9.01897 37.965 8.01302V7.8303C37.965 7.20943 38.0779 6.65734 38.3038 6.17401C38.5297 5.69068 38.853 5.31542 39.2737 5.04821C39.6982 4.781 40.1987 4.6474 40.7751 4.6474C41.484 4.6474 42.0721 4.86156 42.5395 5.28987C43.0107 5.71819 43.262 6.27421 43.2931 6.95795H42.2707C42.2396 6.54535 42.0838 6.20741 41.8033 5.94414C41.5268 5.67693 41.1841 5.54333 40.7751 5.54333C40.2259 5.54333 39.7995 5.74373 39.4957 6.14454C39.1958 6.54142 39.0458 7.11709 39.0458 7.87156V8.07785C39.0458 8.81267 39.1958 9.37852 39.4957 9.7754C39.7956 10.1723 40.224 10.3707 40.781 10.3707Z" fill="#2DC100"/>
<path d="M45.8284 5.53743C46.3075 4.94408 46.9307 4.6474 47.6979 4.6474C49.0339 4.6474 49.7077 5.40776 49.7193 6.92848V11.1429H48.6385V6.92258C48.6346 6.46283 48.5295 6.12293 48.3231 5.90288C48.1205 5.68282 47.8031 5.5728 47.3708 5.5728C47.0202 5.5728 46.7125 5.66711 46.4477 5.85572C46.1828 6.04434 45.9764 6.2919 45.8284 6.5984V11.1429H44.7476V2.08929H45.8284V5.53743Z" fill="#2DC100"/>
<path d="M55.4796 11.1429C55.4172 11.0171 55.3666 10.7931 55.3277 10.4709C54.8252 10.9975 54.2254 11.2608 53.5283 11.2608C52.9051 11.2608 52.3929 11.0839 51.9917 10.7303C51.5945 10.3727 51.3958 9.92079 51.3958 9.37459C51.3958 8.7105 51.6451 8.19574 52.1436 7.8303C52.6461 7.46092 53.351 7.27624 54.2585 7.27624H55.3101V6.77522C55.3101 6.39406 55.1972 6.09149 54.9713 5.86751C54.7454 5.6396 54.4124 5.52564 53.9723 5.52564C53.5867 5.52564 53.2634 5.62388 53.0025 5.82036C52.7415 6.01683 52.611 6.25457 52.611 6.53356H51.5244C51.5244 6.21527 51.6354 5.90877 51.8574 5.61406C52.0833 5.31542 52.3871 5.07964 52.7688 4.90675C53.1544 4.73385 53.5769 4.6474 54.0365 4.6474C54.7649 4.6474 55.3355 4.83209 55.7483 5.20146C56.1612 5.5669 56.3754 6.07184 56.391 6.71628V9.65162C56.391 10.2371 56.465 10.7028 56.613 11.0486V11.1429H55.4796ZM53.686 10.3118C54.0248 10.3118 54.3462 10.2234 54.65 10.0465C54.9538 9.86971 55.1738 9.63983 55.3101 9.35691V8.04838H54.463C53.1388 8.04838 52.4767 8.43937 52.4767 9.22134C52.4767 9.56321 52.5896 9.83041 52.8155 10.023C53.0414 10.2155 53.3316 10.3118 53.686 10.3118Z" fill="#2DC100"/>
<path d="M59.7909 3.22099V4.76528H60.971V5.60816H59.7909V9.56321C59.7909 9.81862 59.8435 10.0112 59.9486 10.1408C60.0538 10.2666 60.233 10.3295 60.4861 10.3295C60.6108 10.3295 60.7821 10.3059 61.0002 10.2587V11.1429C60.7159 11.2215 60.4394 11.2608 60.1707 11.2608C59.6877 11.2608 59.3235 11.1134 59.0781 10.8187C58.8328 10.524 58.7101 10.1055 58.7101 9.56321V5.60816H57.5592V4.76528H58.7101V3.22099H59.7909Z" fill="#2DC100"/>
<defs>
<clipPath id="clip0_719_1283">
<rect width="12.8853" height="13" rx="2" transform="matrix(1 0 0 -1 0 13)" fill="white"/>
</clipPath>
</defs>
</svg>
