<svg width="436" height="366" viewBox="0 0 436 366" fill="none" xmlns="http://www.w3.org/2000/svg">
<path d="M218.001 365.294C337.932 365.294 435.157 359.617 435.157 352.615C435.157 345.612 337.932 339.938 218.001 339.938C98.0681 339.938 0.84375 345.612 0.84375 352.615C0.84375 359.617 98.0681 365.294 218.001 365.294Z" fill="#9FA7B4"/>
<path d="M212.917 46.3741C214.441 65.4141 236.437 90.1437 243.47 97.6253C243.747 97.9216 244.081 98.158 244.454 98.3197C244.825 98.4811 245.227 98.5644 245.633 98.5644C246.036 98.5644 246.438 98.4811 246.811 98.3197C247.182 98.158 247.518 97.9216 247.793 97.6253C254.849 90.1437 276.825 65.4029 278.346 46.3741C278.4 45.7898 278.281 45.203 278.003 44.6857C277.728 44.1684 277.305 43.7432 276.79 43.462L247.042 27.4125C246.61 27.1752 246.125 27.0508 245.633 27.0508C245.138 27.0508 244.653 27.1752 244.221 27.4125L214.473 43.462C213.96 43.7453 213.54 44.1712 213.265 44.6878C212.989 45.2046 212.868 45.79 212.917 46.3741Z" fill="#407BFF"/>
<path opacity="0.3" d="M243.425 90.4115C234.465 80.3315 221.473 63.3859 218.37 49.9011C218.23 49.2743 218.293 48.6189 218.549 48.0304C218.808 47.4422 219.247 46.9517 219.805 46.6307L244.153 32.6307C244.606 32.3724 245.117 32.2363 245.637 32.2363C246.157 32.2363 246.668 32.3724 247.121 32.6307L271.469 46.5859C272.041 46.9135 272.489 47.42 272.743 48.0272C272.998 48.6343 273.047 49.3084 272.881 49.9459C269.789 63.4531 256.842 80.3315 247.837 90.4563C247.557 90.7659 247.217 91.0128 246.834 91.1803C246.451 91.3478 246.038 91.4323 245.621 91.4281C245.203 91.4237 244.792 91.331 244.414 91.1558C244.034 90.9803 243.698 90.7267 243.425 90.4115Z" fill="#407BFF"/>
<path opacity="0.3" d="M243.425 90.4115C234.465 80.3315 221.473 63.3859 218.37 49.9011C218.23 49.2743 218.293 48.6189 218.549 48.0304C218.808 47.4422 219.247 46.9517 219.805 46.6307L244.153 32.6307C244.606 32.3724 245.117 32.2363 245.637 32.2363C246.157 32.2363 246.668 32.3724 247.121 32.6307L271.469 46.5859C272.041 46.9135 272.489 47.42 272.743 48.0272C272.998 48.6343 273.047 49.3084 272.881 49.9459C269.789 63.4531 256.842 80.3315 247.837 90.4563C247.557 90.7659 247.217 91.0128 246.834 91.1803C246.451 91.3478 246.038 91.4323 245.621 91.4281C245.203 91.4237 244.792 91.331 244.414 91.1558C244.034 90.9803 243.698 90.7267 243.425 90.4115Z" fill="white"/>
<path d="M242.313 69.9708C242.094 69.971 241.874 69.9279 241.671 69.8432C241.466 69.7587 241.282 69.6343 241.125 69.478L232.828 61.145C232.529 60.8267 232.368 60.4053 232.375 59.9701C232.385 59.535 232.56 59.1196 232.868 58.8119C233.176 58.5041 233.591 58.3277 234.027 58.32C234.461 58.3123 234.884 58.474 235.201 58.7706L242.313 65.8714L259.113 49.1274C259.43 48.8156 259.855 48.6406 260.301 48.6406C260.744 48.6406 261.171 48.8156 261.488 49.1274C261.645 49.2828 261.771 49.4676 261.855 49.6713C261.939 49.8752 261.983 50.0938 261.983 50.3146C261.983 50.5355 261.939 50.7542 261.855 50.9581C261.771 51.1618 261.645 51.3466 261.488 51.5018L243.568 69.4218C243.407 69.5947 243.214 69.7326 242.997 69.8271C242.782 69.9213 242.549 69.9703 242.313 69.9708Z" fill="white"/>
<path d="M312.829 115.275H157.518C150.095 115.275 144.078 121.292 144.078 128.714V332.442C144.078 339.867 150.095 345.882 157.518 345.882H312.829C320.252 345.882 326.269 339.867 326.269 332.442V128.714C326.269 121.292 320.252 115.275 312.829 115.275Z" fill="#263238"/>
<path d="M323.29 115.275H167.979C160.557 115.275 154.539 121.292 154.539 128.714V332.442C154.539 339.867 160.557 345.882 167.979 345.882H323.29C330.712 345.882 336.73 339.867 336.73 332.442V128.714C336.73 121.292 330.712 115.275 323.29 115.275Z" fill="#407BFF"/>
<path d="M186.374 345.895H171.254C170.79 345.895 170.414 346.27 170.414 346.735V349.166C170.414 349.63 170.79 350.006 171.254 350.006H186.374C186.838 350.006 187.214 349.63 187.214 349.166V346.735C187.214 346.27 186.838 345.895 186.374 345.895Z" fill="#263238"/>
<path d="M320.007 345.895H304.887C304.425 345.895 304.047 346.27 304.047 346.735V349.166C304.047 349.63 304.425 350.006 304.887 350.006H320.007C320.471 350.006 320.847 349.63 320.847 349.166V346.735C320.847 346.27 320.471 345.895 320.007 345.895Z" fill="#263238"/>
<path opacity="0.2" d="M323.29 115.275H167.979C160.557 115.275 154.539 121.292 154.539 128.714V332.442C154.539 339.867 160.557 345.882 167.979 345.882H323.29C330.712 345.882 336.73 339.867 336.73 332.442V128.714C336.73 121.292 330.712 115.275 323.29 115.275Z" fill="black"/>
<g style="mix-blend-mode:color-dodge" opacity="0.4">
<g style="mix-blend-mode:color-dodge" opacity="0.4">
<path d="M304.992 319.295H186.272C184.911 319.292 183.609 318.751 182.648 317.79C181.687 316.828 181.145 315.524 181.141 314.166V147.018C181.141 145.655 181.682 144.348 182.643 143.385C183.605 142.421 184.909 141.88 186.272 141.875H304.992C306.352 141.88 307.656 142.421 308.62 143.385C309.581 144.348 310.12 145.655 310.12 147.018V314.166C310.118 315.524 309.577 316.828 308.615 317.79C307.654 318.751 306.35 319.292 304.992 319.295ZM186.272 142.435C185.058 142.44 183.896 142.923 183.04 143.781C182.184 144.64 181.701 145.804 181.701 147.018V314.166C181.701 314.766 181.82 315.361 182.048 315.914C182.279 316.469 182.615 316.973 183.04 317.398C183.465 317.82 183.969 318.158 184.522 318.387C185.077 318.618 185.672 318.735 186.272 318.735H304.992C306.203 318.735 307.365 318.254 308.223 317.398C309.08 316.539 309.56 315.377 309.56 314.166V147.018C309.56 145.804 309.08 144.64 308.223 143.781C307.367 142.923 306.205 142.44 304.992 142.435H186.272Z" fill="#E6E6E6"/>
</g>
</g>
<path d="M307.615 314.166V147.006C307.615 145.564 306.446 144.395 305.007 144.395H186.275C184.833 144.395 183.664 145.564 183.664 147.006V314.166C183.664 315.608 184.833 316.774 186.275 316.774H305.007C306.446 316.774 307.615 315.608 307.615 314.166Z" fill="#407BFF"/>
<path opacity="0.1" d="M307.615 314.166V147.006C307.615 145.564 306.446 144.395 305.007 144.395H186.275C184.833 144.395 183.664 145.564 183.664 147.006V314.166C183.664 315.608 184.833 316.774 186.275 316.774H305.007C306.446 316.774 307.615 315.608 307.615 314.166Z" fill="white"/>
<path d="M340.643 162.818H339.523V172.273H340.643V162.818Z" fill="#407BFF"/>
<path d="M340.643 128.715H339.523V152.862H340.643V128.715Z" fill="#407BFF"/>
<path opacity="0.1" d="M245.629 272.042C266.721 272.042 283.822 254.944 283.822 233.85C283.822 212.757 266.721 195.658 245.629 195.658C224.536 195.658 207.438 212.757 207.438 233.85C207.438 254.944 224.536 272.042 245.629 272.042Z" fill="black"/>
<path d="M245.636 177.132C250.788 177.132 254.964 172.956 254.964 167.801C254.964 162.649 250.788 158.473 245.636 158.473C240.481 158.473 236.305 162.649 236.305 167.801C236.305 172.956 240.481 177.132 245.636 177.132Z" fill="#407BFF"/>
<path opacity="0.6" d="M245.573 177.109C250.725 177.109 254.902 172.932 254.902 167.78C254.902 162.628 250.725 158.449 245.573 158.449C240.419 158.449 236.242 162.628 236.242 167.78C236.242 172.932 240.419 177.109 245.573 177.109Z" fill="white"/>
<path d="M245.636 175.173C244.178 175.173 242.752 174.741 241.541 173.932C240.33 173.12 239.385 171.969 238.827 170.623C238.27 169.277 238.123 167.795 238.407 166.365C238.692 164.937 239.394 163.623 240.423 162.592C241.455 161.56 242.768 160.86 244.196 160.576C245.627 160.291 247.108 160.436 248.455 160.993C249.801 161.551 250.954 162.496 251.763 163.709C252.573 164.92 253.005 166.346 253.005 167.802C253.002 169.757 252.225 171.629 250.844 173.01C249.463 174.391 247.589 175.171 245.636 175.173ZM245.636 160.993C244.287 160.993 242.971 161.392 241.851 162.141C240.731 162.89 239.859 163.952 239.343 165.198C238.83 166.442 238.694 167.811 238.956 169.132C239.219 170.453 239.868 171.666 240.82 172.618C241.772 173.57 242.985 174.219 244.306 174.482C245.627 174.744 246.996 174.611 248.24 174.095C249.486 173.579 250.55 172.707 251.297 171.587C252.046 170.467 252.445 169.151 252.445 167.802C252.442 165.998 251.724 164.267 250.447 162.991C249.171 161.714 247.44 160.996 245.636 160.993Z" fill="#407BFF"/>
<path d="M183.508 166.346H179.352C178.437 166.346 177.695 167.088 177.695 168.005V190.741C177.695 191.655 178.437 192.397 179.352 192.397H183.508C184.425 192.397 185.167 191.655 185.167 190.741V168.005C185.167 167.088 184.425 166.346 183.508 166.346Z" fill="#407BFF"/>
<path opacity="0.6" d="M183.508 166.346H179.352C178.437 166.346 177.695 167.088 177.695 168.005V190.741C177.695 191.655 178.437 192.397 179.352 192.397H183.508C184.425 192.397 185.167 191.655 185.167 190.741V168.005C185.167 167.088 184.425 166.346 183.508 166.346Z" fill="white"/>
<path d="M183.508 268.77H179.352C178.437 268.77 177.695 269.512 177.695 270.429V293.165C177.695 294.079 178.437 294.821 179.352 294.821H183.508C184.425 294.821 185.167 294.079 185.167 293.165V270.429C185.167 269.512 184.425 268.77 183.508 268.77Z" fill="#407BFF"/>
<path opacity="0.6" d="M183.508 268.77H179.352C178.437 268.77 177.695 269.512 177.695 270.429V293.165C177.695 294.079 178.437 294.821 179.352 294.821H183.508C184.425 294.821 185.167 294.079 185.167 293.165V270.429C185.167 269.512 184.425 268.77 183.508 268.77Z" fill="white"/>
<path d="M245.629 268.782C266.721 268.782 283.822 251.684 283.822 230.59C283.822 209.497 266.721 192.398 245.629 192.398C224.536 192.398 207.438 209.497 207.438 230.59C207.438 251.684 224.536 268.782 245.629 268.782Z" fill="#407BFF"/>
<path opacity="0.6" d="M245.629 268.782C266.721 268.782 283.822 251.684 283.822 230.59C283.822 209.497 266.721 192.398 245.629 192.398C224.536 192.398 207.438 209.497 207.438 230.59C207.438 251.684 224.536 268.782 245.629 268.782Z" fill="white"/>
<path d="M226.741 210.098L225.156 211.68L264.548 251.073L266.132 249.489L226.741 210.098Z" fill="#407BFF"/>
<path d="M264.548 210.098L225.156 249.489L226.741 251.073L266.132 211.68L264.548 210.098Z" fill="#407BFF"/>
<path opacity="0.2" d="M264.417 209.971L225.023 249.362L226.608 250.946L265.999 211.555L264.417 209.971Z" fill="black"/>
<path opacity="0.2" d="M226.616 209.977L225.031 211.561L264.423 250.952L266.007 249.37L226.616 209.977Z" fill="black"/>
<path d="M245.524 259.455C239.789 259.457 234.179 257.758 229.41 254.573C224.641 251.388 220.921 246.859 218.726 241.563C216.53 236.264 215.954 230.433 217.071 224.807C218.189 219.181 220.949 214.013 225.005 209.958C229.06 205.9 234.226 203.137 239.852 202.02C245.475 200.9 251.306 201.471 256.605 203.667C261.904 205.86 266.435 209.577 269.62 214.347C272.808 219.116 274.509 224.723 274.509 230.458C274.502 238.144 271.447 245.515 266.013 250.95C260.579 256.386 253.21 259.445 245.524 259.455ZM245.524 203.7C240.23 203.697 235.057 205.265 230.654 208.205C226.253 211.143 222.823 215.322 220.795 220.21C218.768 225.099 218.236 230.479 219.267 235.671C220.298 240.863 222.846 245.63 226.589 249.372C230.329 253.117 235.096 255.665 240.288 256.699C245.477 257.733 250.858 257.203 255.749 255.178C260.639 253.155 264.818 249.725 267.758 245.324C270.698 240.923 272.269 235.75 272.269 230.458C272.262 223.365 269.443 216.563 264.429 211.549C259.414 206.532 252.615 203.709 245.524 203.7Z" fill="#407BFF"/>
<path d="M254.09 239.033C258.827 234.296 258.827 226.617 254.09 221.881C249.353 217.144 241.672 217.144 236.935 221.881C232.199 226.617 232.199 234.296 236.935 239.033C241.672 243.77 249.353 243.77 254.09 239.033Z" fill="#407BFF"/>
<path opacity="0.2" d="M245.524 259.455C239.789 259.457 234.179 257.758 229.41 254.573C224.641 251.388 220.921 246.859 218.726 241.563C216.53 236.264 215.954 230.433 217.071 224.807C218.189 219.181 220.949 214.013 225.005 209.958C229.06 205.9 234.226 203.137 239.852 202.02C245.475 200.9 251.306 201.471 256.605 203.667C261.904 205.86 266.435 209.577 269.62 214.347C272.808 219.116 274.509 224.723 274.509 230.458C274.502 238.144 271.447 245.515 266.013 250.95C260.579 256.386 253.21 259.445 245.524 259.455ZM245.524 203.7C240.23 203.697 235.057 205.265 230.654 208.205C226.253 211.143 222.823 215.322 220.795 220.21C218.768 225.099 218.236 230.479 219.267 235.671C220.298 240.863 222.846 245.63 226.589 249.372C230.329 253.117 235.096 255.665 240.288 256.699C245.477 257.733 250.858 257.203 255.749 255.178C260.639 253.155 264.818 249.725 267.758 245.324C270.698 240.923 272.269 235.75 272.269 230.458C272.262 223.365 269.443 216.563 264.429 211.549C259.414 206.532 252.615 203.709 245.524 203.7Z" fill="black"/>
<path opacity="0.2" d="M254.09 239.033C258.827 234.296 258.827 226.617 254.09 221.881C249.353 217.144 241.672 217.144 236.935 221.881C232.199 226.617 232.199 234.296 236.935 239.033C241.672 243.77 249.353 243.77 254.09 239.033Z" fill="black"/>
<path d="M151.917 68.7168C154.616 74.9776 157.405 81.3168 160.227 87.5552C163.05 93.7936 165.939 100.021 169.031 105.968C169.826 107.424 170.587 108.936 171.416 110.313L172.022 111.366L172.335 111.893C172.305 111.85 172.265 111.812 172.223 111.781C172.088 111.702 172.223 111.859 172.491 112.049C173.52 112.603 174.633 112.982 175.784 113.169C177.265 113.446 178.761 113.64 180.264 113.752C183.435 113.965 186.783 113.965 190.143 113.864L195.227 113.651L200.291 113.315L201.6 119.408C194.684 121.719 187.504 123.156 180.231 123.686C178.269 123.812 176.299 123.793 174.339 123.63C172.027 123.474 169.757 122.937 167.619 122.041C166.139 121.392 164.809 120.447 163.711 119.262C163.382 118.911 163.079 118.537 162.803 118.142L162.411 117.56L161.65 116.44C160.586 114.894 159.69 113.349 158.727 111.792C155.098 105.576 151.85 99.2816 148.803 92.9312C145.757 86.5808 142.923 80.1744 140.258 73.6L151.917 68.7168Z" fill="#E39E8A"/>
<path d="M137.049 67.8667C134.507 75.3035 149.447 97.1771 149.447 97.1771L163.761 89.2475C161.331 82.4239 158.461 75.7646 155.171 69.3115C150.119 59.8475 139.838 59.7019 137.049 67.8667Z" fill="#407BFF"/>
<path opacity="0.5" d="M137.049 67.8667C134.507 75.3035 149.447 97.1771 149.447 97.1771L163.761 89.2475C161.331 82.4239 158.461 75.7646 155.171 69.3115C150.119 59.8475 139.838 59.7019 137.049 67.8667Z" fill="white"/>
<path d="M136.838 68.795C140.041 67.2606 143.737 68.5486 147.612 74.6862C151.488 80.824 154.803 91.072 155.172 93.9952L149.449 97.1648C149.449 97.1648 135.651 76.96 136.838 68.795Z" fill="#407BFF"/>
<path opacity="0.4" d="M136.838 68.795C140.041 67.2606 143.737 68.5486 147.612 74.6862C151.488 80.824 154.803 91.072 155.172 93.9952L149.449 97.1648C149.449 97.1648 135.651 76.96 136.838 68.795Z" fill="white"/>
<path d="M146.716 62.1777C146.716 62.1777 157.378 87.2545 149.684 133.947H105.287C104.738 127.127 107.874 93.8737 100.18 61.7521C105.061 60.8013 110 60.1729 114.964 59.8705C121.249 59.5119 127.55 59.5119 133.836 59.8705C138.182 60.3099 142.487 61.0813 146.716 62.1777Z" fill="#407BFF"/>
<path opacity="0.5" d="M146.716 62.1777C146.716 62.1777 157.378 87.2545 149.684 133.947H105.287C104.738 127.127 107.874 93.8737 100.18 61.7521C105.061 60.8013 110 60.1729 114.964 59.8705C121.249 59.5119 127.55 59.5119 133.836 59.8705C138.182 60.3099 142.487 61.0813 146.716 62.1777Z" fill="white"/>
<path d="M110.101 69.6802C111.02 74.9666 109.799 87.6002 105.263 102.227C104.908 89.6953 103.45 77.2189 100.906 64.9426V64.8754C103.818 64.5842 109.217 64.7186 110.101 69.6802Z" fill="#407BFF"/>
<path opacity="0.4" d="M110.101 69.6802C111.02 74.9666 109.799 87.6002 105.263 102.227C104.908 89.6953 103.45 77.2189 100.906 64.9426V64.8754C103.818 64.5842 109.217 64.7186 110.101 69.6802Z" fill="white"/>
<path d="M89.5469 332.892L96.1325 338.783L108.665 325.735L102.08 319.844L89.5469 332.892Z" fill="#E39E8A"/>
<path d="M97.947 336.42L89.9502 331.067C89.8195 330.965 89.6576 330.906 89.491 330.906C89.3242 330.906 89.1625 330.965 89.0318 331.067L82.9166 337.239C82.7971 337.374 82.7092 337.535 82.6588 337.708C82.6081 337.881 82.5962 338.063 82.624 338.242C82.652 338.42 82.7185 338.59 82.8195 338.739C82.9203 338.891 83.0529 339.017 83.2078 339.108C88.315 343.04 91.9998 346.008 94.9118 349.279C98.2718 353.099 100.086 353.647 107.926 353.647C111.555 353.647 113.605 350.588 112.126 350.119C99.067 345.987 102.561 344.183 99.3806 338.123C99.0581 337.442 98.5642 336.854 97.947 336.42Z" fill="#263238"/>
<path d="M108.654 325.735L102.203 332.467L95.6172 326.564L102.068 319.844L108.654 325.735Z" fill="#E3A392"/>
<path d="M113.177 325.926H121.476L120.916 335.838H112.617L113.177 325.926Z" fill="#E3A392"/>
<path d="M149.678 133.947C149.678 133.947 158.425 194.494 161.404 227.443C163.801 253.887 106.625 332.723 106.625 332.723L95.5703 322.319C95.5703 322.319 137.324 251.635 134.11 222.203C131.007 193.699 120.446 133.914 120.446 133.914L149.678 133.947Z" fill="#407BFF"/>
<path opacity="0.5" d="M149.678 133.947C149.678 133.947 158.425 194.494 161.404 227.443C163.801 253.887 106.625 332.723 106.625 332.723L95.5703 322.319C95.5703 322.319 137.324 251.635 134.11 222.203C131.007 193.699 120.446 133.914 120.446 133.914L149.678 133.947Z" fill="black"/>
<path d="M112.094 345.145H120.404L121.479 325.926H113.18L112.094 345.145Z" fill="#E39E8A"/>
<path d="M120.842 344.192H111.513C111.357 344.185 111.205 344.241 111.09 344.346C110.975 344.449 110.905 344.596 110.897 344.752L110.438 352.132C110.436 352.324 110.473 352.515 110.545 352.695C110.617 352.872 110.724 353.035 110.859 353.173C110.995 353.311 111.155 353.42 111.333 353.495C111.51 353.57 111.701 353.609 111.894 353.609C115.142 353.553 116.698 353.364 120.854 353.364C123.374 353.364 134.103 353.633 137.598 353.633C141.092 353.633 140.958 350.184 139.502 349.869C132.882 348.469 124.673 346.509 122.321 344.696C121.9 344.362 121.378 344.185 120.842 344.192Z" fill="#263238"/>
<path d="M198.546 113.696L206.173 110.672L208.033 118.512C208.033 118.512 199.33 121.11 197.953 118.601L198.546 113.696Z" fill="#E39E8A"/>
<path d="M212.635 112.251L214.875 116.541L208.032 118.49L206.172 110.672L212.635 112.251Z" fill="#E39E8A"/>
<path d="M135.666 60.0258L133.851 59.8354C127.566 59.4767 121.265 59.4767 114.979 59.8354L113.859 59.9026L113.96 60.205C114.05 60.4402 116.133 65.9842 128.083 65.9842C133.291 65.9842 136.013 65.1218 136.64 63.2514C136.768 62.6753 136.746 62.0761 136.575 61.5109C136.404 60.9461 136.091 60.4346 135.666 60.0258Z" fill="#E6E6E6"/>
<path d="M116.081 38.6113C117.481 44.6817 119.06 55.8145 114.961 59.8913C114.961 59.8913 116.731 64.9201 128.02 64.9201C140.43 64.9201 133.833 59.8913 133.833 59.8913C127.001 58.2785 127.012 53.2497 128.02 48.5345L116.081 38.6113Z" fill="#E39E8A"/>
<path d="M120.978 42.6543L128.045 48.5007C127.791 49.6048 127.633 50.729 127.575 51.8607C124.976 51.4911 121.325 48.6463 120.955 45.9359C120.758 44.8502 120.765 43.7372 120.978 42.6543Z" fill="#E3A392"/>
<path d="M133.821 20.5439C137.595 22.9855 138.132 34.7231 132.611 36.4031C127.089 38.0831 126.675 15.9295 133.821 20.5439Z" fill="#263238"/>
<path d="M113.458 32.2509C115.989 40.0909 117.064 44.8285 122.171 48.0429C123.819 49.1017 125.725 49.69 127.683 49.7441C129.64 49.798 131.575 49.3157 133.279 48.3492C134.982 47.3828 136.389 45.969 137.347 44.2607C138.305 42.5523 138.778 40.6147 138.714 38.6573C138.613 31.1197 134.491 19.5165 125.811 18.0605C123.941 17.6993 122.008 17.836 120.207 18.4569C118.405 19.0776 116.799 20.1607 115.548 21.5978C114.297 23.0347 113.445 24.7753 113.078 26.6448C112.712 28.5145 112.843 30.4477 113.458 32.2509Z" fill="#E39E8A"/>
<path d="M104.414 24.8698C107.125 29.7866 113.934 40.9866 117.205 39.8666C120.475 38.7466 120.486 29.7866 116.286 24.1082C116.286 24.1082 149.561 27.4682 150.233 8.56257C150.917 -10.7798 134.889 7.93537 120.789 13.345C105.445 19.281 98.0414 13.3002 104.414 24.8698Z" fill="#263238"/>
<path d="M105.834 18.0152C105.77 18.0023 105.713 17.968 105.673 17.9181C105.632 17.8679 105.609 17.8054 105.609 17.7408C105.609 17.6761 105.632 17.6136 105.673 17.5637C105.713 17.5135 105.77 17.4792 105.834 17.4664C106.338 17.3544 106.887 17.2536 107.48 17.1416C111.942 16.4133 116.293 15.1186 120.427 13.2888C124.627 11.4072 129.029 8.18158 132.926 5.33678C135.403 3.44655 137.983 1.69654 140.654 0.0951744C140.72 0.0622744 140.796 0.055511 140.867 0.0762776C140.938 0.0970443 140.998 0.143942 141.035 0.207175C141.053 0.239608 141.064 0.275075 141.068 0.311708C141.072 0.348341 141.069 0.385447 141.059 0.420914C141.048 0.456381 141.031 0.489279 141.007 0.517979C140.984 0.546679 140.956 0.570476 140.923 0.587976C138.27 2.17838 135.709 3.91718 133.251 5.79598C129.342 8.65198 124.907 11.8888 120.651 13.804C116.482 15.6508 112.093 16.957 107.592 17.6904C106.999 17.8024 106.472 17.9032 105.946 18.0152H105.834Z" fill="#263238"/>
<path d="M112.072 41.8278C113.574 43.2875 115.578 44.117 117.672 44.1462C120.45 44.1462 121.032 41.5254 119.543 39.3302C118.221 37.359 115.197 34.9846 112.756 36.0486C110.314 37.1126 110.236 40.0246 112.072 41.8278Z" fill="#E39E8A"/>
<path opacity="0.2" d="M134.126 222.234C132.524 207.553 128.94 184.546 125.86 165.709C127.473 162.55 131.998 156.154 131.998 156.154C136.052 170.166 144.867 222.986 132.289 294.318C119.185 315.442 106.641 332.757 106.641 332.757L104.883 305.518C117.035 282.738 136.355 242.586 134.126 222.234Z" fill="black"/>
<path d="M126.22 31.8129C126.388 32.4625 126.87 32.9329 127.34 32.8209C127.81 32.7089 127.978 32.1153 127.81 31.4657C127.642 30.8161 127.161 30.3457 126.69 30.4689C126.22 30.5921 126.052 31.1633 126.22 31.8129Z" fill="#263238"/>
<path d="M133.612 30.1887C133.78 30.8383 134.262 31.3087 134.732 31.1967C135.202 31.0847 135.37 30.5023 135.202 29.8527C135.034 29.2031 134.564 28.7327 134.082 28.8447C133.601 28.9567 133.444 29.5391 133.612 30.1887Z" fill="#263238"/>
<path d="M131.344 31.0293C132.634 32.846 134.159 34.4843 135.88 35.9013C135.505 36.3169 135.045 36.6456 134.53 36.8643C134.016 37.0829 133.459 37.1863 132.901 37.1669L131.344 31.0293Z" fill="#C27966"/>
<path d="M130.078 39.5295C128.714 39.5433 127.391 39.0662 126.349 38.1855C126.33 38.168 126.316 38.1468 126.305 38.1235C126.295 38.1001 126.29 38.0749 126.289 38.0495C126.289 38.0241 126.293 37.9986 126.302 37.9751C126.312 37.9513 126.325 37.9296 126.343 37.9111C126.361 37.8929 126.382 37.878 126.405 37.8677C126.429 37.8577 126.454 37.8521 126.479 37.8516C126.505 37.8509 126.53 37.8556 126.554 37.8649C126.577 37.874 126.599 37.888 126.618 37.9055C127.273 38.4385 128.041 38.816 128.864 39.0099C129.686 39.2041 130.542 39.2092 131.366 39.0256C131.391 39.0197 131.417 39.0188 131.443 39.023C131.468 39.0272 131.492 39.0363 131.514 39.0498C131.536 39.0631 131.555 39.0809 131.57 39.1019C131.585 39.1226 131.596 39.1462 131.602 39.1712C131.607 39.1961 131.608 39.2223 131.604 39.2475C131.6 39.2729 131.591 39.2972 131.578 39.3189C131.564 39.3408 131.546 39.3597 131.526 39.3748C131.505 39.3898 131.481 39.4005 131.456 39.4064C131.003 39.4988 130.541 39.54 130.078 39.5295Z" fill="#263238"/>
<path d="M123.285 29.9408C123.234 29.9515 123.18 29.9515 123.129 29.9408C123.081 29.9214 123.037 29.8925 123 29.8556C122.964 29.8187 122.936 29.7749 122.917 29.7266C122.898 29.6785 122.889 29.6269 122.891 29.5751C122.893 29.5233 122.905 29.4725 122.927 29.4256C123.166 28.8581 123.54 28.3576 124.016 27.9672C124.492 27.5769 125.056 27.3085 125.66 27.1856C125.763 27.1755 125.866 27.2042 125.949 27.2665C126.032 27.3286 126.089 27.4198 126.108 27.5216C126.115 27.5731 126.113 27.6259 126.1 27.6763C126.088 27.7269 126.065 27.7745 126.034 27.8163C126.003 27.858 125.963 27.893 125.918 27.9194C125.873 27.9458 125.823 27.9628 125.772 27.9696C125.298 28.0764 124.857 28.2962 124.486 28.6101C124.116 28.9241 123.827 29.3229 123.644 29.7728C123.605 29.8311 123.551 29.8775 123.488 29.9072C123.425 29.9368 123.355 29.9485 123.285 29.9408Z" fill="#263238"/>
<path d="M136.107 26.9739C136.049 26.9744 135.992 26.9616 135.939 26.9361C135.887 26.9109 135.841 26.8741 135.805 26.8283C135.49 26.4363 135.091 26.1202 134.637 25.9032C134.184 25.6862 133.687 25.5735 133.184 25.5739C133.081 25.5802 132.979 25.5466 132.9 25.4799C132.82 25.4132 132.77 25.3184 132.759 25.2155C132.752 25.1122 132.786 25.0102 132.853 24.9309C132.919 24.8518 133.014 24.8011 133.117 24.7899C133.747 24.7771 134.371 24.9087 134.941 25.1747C135.512 25.4407 136.015 25.8341 136.41 26.3243C136.475 26.4065 136.506 26.511 136.496 26.6158C136.485 26.7203 136.434 26.8167 136.354 26.8843C136.284 26.9415 136.197 26.9732 136.107 26.9739Z" fill="#263238"/>
<path d="M105.929 106.707C103.698 105.955 101.557 104.96 99.5449 103.739C99.1067 103.46 98.7009 103.133 98.3353 102.764C98.8505 100.356 99.5225 97.9371 100.25 95.5067C100.978 93.0763 101.874 90.5899 102.804 88.1371C103.734 85.6843 104.719 83.2427 105.75 80.8235C106.265 79.6139 106.791 78.4043 107.329 77.2059L108.942 73.7227L97.7416 67.9883C97.0024 69.3883 96.3977 70.6203 95.7929 71.9531C95.1881 73.2859 94.6729 74.5739 94.0681 75.8955C92.963 78.5536 91.955 81.2453 91.044 83.9707C89.1454 89.5343 87.8133 95.2754 87.068 101.107V101.409V101.991C87.0398 102.394 87.0398 102.798 87.068 103.201C87.1131 104.014 87.2561 104.819 87.4936 105.598C87.9351 106.971 88.6514 108.24 89.5992 109.327C90.9929 110.846 92.6662 112.082 94.5272 112.967C97.3937 114.32 100.425 115.291 103.543 115.857C109.222 116.936 115.002 117.387 120.78 117.201L121.295 110.985C116.095 109.856 110.964 108.428 105.929 106.707Z" fill="#E39E8A"/>
<path d="M123.786 345.626C123.031 345.61 122.28 345.512 121.546 345.334C121.513 345.323 121.482 345.304 121.457 345.278C121.431 345.253 121.412 345.222 121.401 345.19C121.395 345.152 121.4 345.117 121.414 345.082C121.427 345.05 121.45 345.022 121.479 344.998C121.748 344.809 124.1 343.206 125.108 343.61C125.222 343.654 125.323 343.727 125.402 343.82C125.48 343.916 125.533 344.028 125.556 344.147C125.605 344.329 125.608 344.518 125.565 344.7C125.522 344.882 125.434 345.05 125.309 345.19C124.872 345.516 124.33 345.67 123.786 345.626ZM122.084 345.066C123.573 345.358 124.682 345.313 125.074 344.931C125.155 344.835 125.209 344.72 125.233 344.597C125.256 344.473 125.248 344.345 125.209 344.226C125.198 344.168 125.174 344.112 125.136 344.065C125.099 344.018 125.051 343.981 124.996 343.958C124.402 343.722 122.924 344.506 122.084 345.066Z" fill="#407BFF"/>
<path d="M121.615 345.335C121.586 345.346 121.555 345.346 121.526 345.335C121.498 345.321 121.474 345.302 121.456 345.276C121.438 345.251 121.428 345.22 121.425 345.19C121.425 345.09 121.234 342.703 122.074 341.898C122.179 341.793 122.307 341.716 122.446 341.669C122.586 341.622 122.735 341.608 122.881 341.627C123.045 341.634 123.202 341.695 123.328 341.8C123.453 341.905 123.54 342.049 123.575 342.21C123.766 343.118 122.534 344.842 121.705 345.335H121.615ZM122.735 341.975C122.658 341.975 122.582 341.989 122.511 342.017C122.44 342.045 122.375 342.089 122.321 342.143C121.859 342.948 121.667 343.876 121.772 344.798C122.455 344.215 123.34 342.894 123.206 342.266C123.206 342.143 123.116 342.01 122.825 341.975H122.735Z" fill="#407BFF"/>
<path d="M103.335 340.912C101.854 340.685 100.44 340.139 99.1908 339.311C99.1539 339.292 99.1248 339.264 99.1082 339.227C99.0916 339.19 99.0893 339.148 99.1012 339.108C99.1117 339.071 99.1334 339.038 99.1633 339.01C99.1932 338.984 99.23 338.968 99.2692 338.963C99.7172 338.963 103.648 338.672 104.387 339.568C104.454 339.642 104.5 339.731 104.521 339.827C104.543 339.922 104.539 340.023 104.511 340.116C104.476 340.27 104.405 340.415 104.304 340.536C104.203 340.655 104.074 340.751 103.928 340.811C103.738 340.881 103.537 340.914 103.335 340.912ZM99.9188 339.299C101.722 340.296 103.144 340.732 103.783 340.419C103.875 340.382 103.957 340.324 104.021 340.247C104.086 340.17 104.131 340.081 104.152 339.983C104.172 339.948 104.182 339.911 104.182 339.871C104.182 339.831 104.172 339.792 104.152 339.759C103.693 339.311 101.52 339.232 99.9188 339.299Z" fill="#407BFF"/>
<path d="M99.2794 339.341C99.2479 339.341 99.2171 339.332 99.1898 339.315C99.1622 339.301 99.1394 339.278 99.1226 339.252C99.1088 339.224 99.1016 339.194 99.1016 339.161C99.1016 339.131 99.1088 339.101 99.1226 339.073C99.1898 338.937 100.679 335.904 102.595 336.833C103.121 337.089 103.166 337.393 103.121 337.605C102.931 338.513 100.444 339.329 99.3018 339.364L99.2794 339.341ZM101.867 337.024C100.836 337.024 99.9514 338.333 99.6266 338.937C100.825 338.793 102.662 338.041 102.774 337.505C102.774 337.393 102.684 337.269 102.438 337.145C102.26 337.059 102.064 337.017 101.867 337.024Z" fill="#407BFF"/>
<path d="M120.013 110.898L126.834 109.027L127.764 117.64C127.764 117.64 121.044 119.656 119.375 116.128L120.013 110.898Z" fill="#E39E8A"/>
<path d="M119.875 111.076C121.303 109.527 122.14 107.524 122.238 105.42L123.985 106.372C123.985 106.372 124.333 110.236 123.649 111.345C122.966 112.454 119.875 111.076 119.875 111.076Z" fill="#E39E8A"/>
<path d="M130.023 109.879L129.609 117.64H127.761L126.82 109.027L130.023 109.879Z" fill="#E39E8A"/>
<path d="M94.9141 321.724L107.312 333.393L111.311 329.104L97.1205 316.18L94.9141 321.724Z" fill="#407BFF"/>
<path opacity="0.1" d="M94.9141 321.724L107.312 333.393L111.311 329.104L97.1205 316.18L94.9141 321.724Z" fill="black"/>
<path d="M133.903 133.945C133.903 133.945 134.687 197.393 133.343 221.17C131.876 247.201 124.484 333.45 124.484 333.45H109.274C109.274 333.45 109.733 249.305 108.815 223.534C107.818 195.534 105.242 133.934 105.242 133.934L133.903 133.945Z" fill="#407BFF"/>
<path opacity="0.5" d="M133.903 133.945C133.903 133.945 134.687 197.393 133.343 221.17C131.876 247.201 124.484 333.45 124.484 333.45H109.274C109.274 333.45 109.733 249.305 108.815 223.534C107.818 195.534 105.242 133.934 105.242 133.934L133.903 133.945Z" fill="black"/>
<path d="M108.67 333.451H125.101L126.008 327.674L107.875 328.579L108.67 333.451Z" fill="#407BFF"/>
<path opacity="0.1" d="M108.67 333.451H125.101L126.008 327.674L107.875 328.579L108.67 333.451Z" fill="black"/>
<path d="M100.175 61.7513C92.3351 62.8713 84.3047 91.6665 84.3047 91.6665L103.199 98.8569C103.199 98.8569 107.948 86.5369 111.196 76.8713C114.601 66.8025 108.564 60.5193 100.175 61.7513Z" fill="#407BFF"/>
<path opacity="0.5" d="M100.175 61.7513C92.3351 62.8713 84.3047 91.6665 84.3047 91.6665L103.199 98.8569C103.199 98.8569 107.948 86.5369 111.196 76.8713C114.601 66.8025 108.564 60.5193 100.175 61.7513Z" fill="white"/>
</svg>
