<svg width="223" height="223" viewBox="0 0 223 223" fill="none" xmlns="http://www.w3.org/2000/svg">
<path d="M223 170.551H0V170.662H223V170.551Z" fill="#EBEBEB"/>
<path d="M38.1675 174.796H23.396V174.908H38.1675V174.796Z" fill="#EBEBEB"/>
<path d="M101.045 173.588H76.3271V173.699H101.045V173.588Z" fill="#EBEBEB"/>
<path d="M49.1454 177.446H40.5867V177.557H49.1454V177.446Z" fill="#EBEBEB"/>
<path d="M191.177 174.743H171.915V174.854H191.177V174.743Z" fill="#EBEBEB"/>
<path d="M197.974 174.743H195.151V174.854H197.974V174.743Z" fill="#EBEBEB"/>
<path d="M144.526 176.308H123.635V176.42H144.526V176.308Z" fill="#EBEBEB"/>
<path d="M105.701 150.659H19.5825C18.9078 150.657 18.2613 150.389 17.7846 149.911C17.308 149.434 17.0403 148.787 17.0403 148.112V27.0544C17.0462 26.3836 17.3165 25.7423 17.7925 25.2696C18.2684 24.797 18.9117 24.5312 19.5825 24.53H105.701C106.376 24.53 107.024 24.7984 107.501 25.276C107.979 25.7536 108.247 26.4013 108.247 27.0767V148.112C108.247 148.788 107.979 149.435 107.501 149.913C107.024 150.391 106.376 150.659 105.701 150.659ZM19.5825 24.6192C18.9374 24.6204 18.3192 24.8775 17.8634 25.334C17.4077 25.7906 17.1518 26.4093 17.1518 27.0544V148.112C17.1518 148.757 17.4077 149.376 17.8634 149.832C18.3192 150.289 18.9374 150.546 19.5825 150.547H105.701C106.346 150.546 106.965 150.289 107.421 149.833C107.877 149.377 108.134 148.758 108.136 148.112V27.0544C108.134 26.4089 107.877 25.7902 107.421 25.3338C106.965 24.8774 106.346 24.6204 105.701 24.6192H19.5825Z" fill="#EBEBEB"/>
<path d="M202.176 150.659H116.053C115.378 150.657 114.731 150.389 114.254 149.912C113.777 149.434 113.508 148.787 113.507 148.112V27.0544C113.514 26.3832 113.785 25.7419 114.262 25.2693C114.739 24.7968 115.382 24.5312 116.053 24.53H202.176C202.846 24.5323 203.488 24.7987 203.963 25.2712C204.438 25.7437 204.708 26.3844 204.714 27.0544V148.112C204.714 148.786 204.447 149.432 203.971 149.91C203.496 150.387 202.85 150.656 202.176 150.659ZM116.053 24.6192C115.408 24.6204 114.789 24.8774 114.333 25.3338C113.876 25.7902 113.619 26.4089 113.618 27.0544V148.112C113.619 148.758 113.876 149.377 114.333 149.833C114.789 150.289 115.408 150.546 116.053 150.547H202.176C202.822 150.546 203.44 150.289 203.897 149.833C204.353 149.377 204.61 148.758 204.611 148.112V27.0544C204.61 26.4089 204.353 25.7902 203.897 25.3338C203.44 24.8774 202.822 24.6204 202.176 24.6192H116.053Z" fill="#EBEBEB"/>
<path d="M193.978 110.992H185.058V170.6H193.978V110.992Z" fill="#E6E6E6"/>
<path d="M191.628 170.599H193.974V162.482H189.17L191.628 170.599Z" fill="#F0F0F0"/>
<path d="M111.749 110.992H102.829V170.6H111.749V110.992Z" fill="#E6E6E6"/>
<path d="M193.974 110.992H109.698V165.618H193.974V110.992Z" fill="#F0F0F0"/>
<path d="M192.378 128.617H111.295V113.19H192.378V128.617ZM111.741 128.171H191.932V113.636H111.741V128.171Z" fill="#E6E6E6"/>
<path d="M178.105 118.07H127.145C124.858 118.07 122.685 116.219 121.093 112.958H184.153C182.579 116.219 180.393 118.07 178.105 118.07Z" fill="#E6E6E6"/>
<path d="M112.044 170.599H109.698V162.482H114.501L112.044 170.599Z" fill="#F0F0F0"/>
<path d="M192.378 146.021H111.295V130.594H192.378V146.021ZM111.741 145.575H191.932V131.04H111.741V145.575Z" fill="#E6E6E6"/>
<path d="M178.105 135.473H127.145C124.858 135.473 122.685 133.622 121.093 130.361H184.153C182.579 133.622 180.393 135.473 178.105 135.473Z" fill="#E6E6E6"/>
<path d="M192.378 163.419H111.295V147.992H192.378V163.419ZM111.741 162.973H191.932V148.438H111.741V162.973Z" fill="#E6E6E6"/>
<path d="M178.105 152.871H127.145C124.858 152.871 122.685 151.025 121.093 147.76H184.153C182.579 151.025 180.393 152.871 178.105 152.871Z" fill="#E6E6E6"/>
<path d="M63.1259 96.8622L70.2619 102.901C69.901 146.69 71.5112 149.062 71.5464 156.595H63.3848C62.2521 119.943 59.0453 106.268 63.1259 96.8622Z" fill="#E0E0E0"/>
<path d="M66.7031 169.64C55.2185 169.64 45.5269 164.98 43.172 158.678C42.5741 156.942 41.7493 155.292 40.719 153.772L40.5361 153.518H92.8695L92.6915 153.772C91.6609 155.292 90.8364 156.942 90.2385 158.678C87.8614 164.98 78.1922 169.64 66.7031 169.64Z" fill="#E6E6E6"/>
<path d="M92.978 155.101H40.4303C39.7166 155.105 39.022 154.871 38.4566 154.435C37.8911 153.999 37.487 153.388 37.3083 152.697C37.1827 152.221 37.1686 151.723 37.2671 151.241C37.3655 150.759 37.5739 150.306 37.876 149.917C38.1781 149.529 38.5658 149.215 39.0088 149.002C39.4518 148.787 39.9383 148.678 40.4303 148.683H92.978C93.4684 148.682 93.952 148.793 94.3926 149.009C94.8325 149.225 95.2171 149.538 95.5167 149.926C95.8163 150.314 96.0228 150.766 96.1201 151.246C96.2173 151.727 96.2027 152.223 96.0775 152.697C95.9013 153.385 95.5009 153.994 94.94 154.43C94.3786 154.865 93.6883 155.102 92.978 155.101Z" fill="#F5F5F5"/>
<path d="M67.3447 112.392C68.4105 100.975 75.194 100.596 91.7228 111.523C84.8766 138.912 63.3307 155.324 67.3447 112.392Z" fill="#E0E0E0"/>
<path d="M64.8834 95.2435C62.939 85.3556 72.5949 71.7702 89.2488 76.8591C90.3413 102.963 72.2023 132.502 64.8834 95.2435Z" fill="#E0E0E0"/>
<path d="M73.6173 93.6109C76.0837 81.2347 60.9197 60.0094 45.5418 62.7876C34.1509 81.0961 62.1507 151.087 73.6173 93.6109Z" fill="#E0E0E0"/>
<path d="M67.4981 112.486C61.7578 95.2302 44.2389 90.2841 33.0354 109.872C50.2555 141.489 81.3326 154.071 67.4981 112.486Z" fill="#E0E0E0"/>
<path d="M125.38 33.8024V101.001H185.59V33.8024H125.38Z" fill="#EBEBEB"/>
<path d="M124.831 33.8024V101.001H125.375V33.8024H124.831Z" fill="#E0E0E0"/>
<path d="M181.126 38.2626H129.836V96.5414H181.126V38.2626Z" fill="#F5F5F5"/>
<path d="M148.526 36.6257H134.08V56.8429H148.526V36.6257Z" fill="white"/>
<path d="M165.804 36.6302H151.363L150.323 56.8474H164.765L165.804 36.6302Z" fill="white"/>
<path d="M148.277 59.7999H133.832L132.792 80.0218H147.238L148.277 59.7999Z" fill="white"/>
<path d="M182.683 36.9496L168.256 36.3172L167.37 56.5149L181.798 57.1474L182.683 36.9496Z" fill="white"/>
<path d="M167.269 64.0218L152.834 64.4398L153.42 84.649L167.855 84.2303L167.269 64.0218Z" fill="white"/>
<path d="M25.0337 39.4534H94.5516C94.9265 39.4534 95.2863 39.3044 95.5512 39.0393C95.8167 38.7742 95.9656 38.4145 95.9656 38.0395C95.9656 37.8541 95.9291 37.6705 95.858 37.4992C95.7869 37.3279 95.6824 37.1723 95.5512 37.0414C95.4199 36.9105 95.2638 36.8068 95.0924 36.7362C94.9211 36.6656 94.737 36.6296 94.5516 36.6302H25.0337C24.6622 36.6337 24.3072 36.7837 24.0458 37.0477C23.7843 37.3116 23.6377 37.6681 23.6377 38.0395C23.6377 38.4115 23.7842 38.7684 24.0455 39.033C24.3068 39.2976 24.6618 39.4487 25.0337 39.4534Z" fill="#E0E0E0"/>
<path d="M25.0337 45.4386H94.5516C94.9265 45.4386 95.2863 45.2896 95.5512 45.0245C95.8167 44.7594 95.9656 44.3997 95.9656 44.0247C95.9656 43.6498 95.8167 43.2902 95.5512 43.0251C95.2863 42.7599 94.9265 42.611 94.5516 42.611H25.0337C24.6618 42.6156 24.3068 42.7666 24.0455 43.0313C23.7842 43.2959 23.6377 43.6529 23.6377 44.0247C23.6377 44.3967 23.7842 44.7536 24.0455 45.0182C24.3068 45.2828 24.6618 45.4339 25.0337 45.4386Z" fill="#E0E0E0"/>
<path d="M94.5558 48.5962H25.0335C24.2526 48.5962 23.6196 49.2282 23.6196 50.0078C23.6196 50.7874 24.2526 51.4194 25.0335 51.4194H94.5558C95.3366 51.4194 95.9697 50.7874 95.9697 50.0078C95.9697 49.2282 95.3366 48.5962 94.5558 48.5962Z" fill="#E0E0E0"/>
<path d="M30.7337 39.4534H100.26C100.448 39.4557 100.633 39.4209 100.807 39.3509C100.98 39.2808 101.137 39.177 101.27 39.0454C101.403 38.9138 101.509 38.7571 101.58 38.5845C101.652 38.4118 101.688 38.2265 101.688 38.0395C101.688 37.8543 101.653 37.6708 101.581 37.4995C101.511 37.3282 101.407 37.1727 101.276 37.0417C101.145 36.9107 100.99 36.8069 100.818 36.7363C100.647 36.6657 100.463 36.6296 100.279 36.6302H30.7337C30.5481 36.6296 30.3644 36.6656 30.1929 36.7362C30.0214 36.8068 29.8655 36.9105 29.7342 37.0414C29.6029 37.1723 29.4986 37.3279 29.4275 37.4992C29.3564 37.6705 29.3198 37.8541 29.3198 38.0395C29.3198 38.4145 29.4688 38.7742 29.7339 39.0393C29.999 39.3044 30.3587 39.4534 30.7337 39.4534Z" fill="#F5F5F5"/>
<path d="M30.7337 45.4386H100.26C100.448 45.4409 100.633 45.4061 100.807 45.3361C100.98 45.266 101.137 45.1622 101.27 45.0306C101.403 44.899 101.509 44.7423 101.58 44.5696C101.652 44.397 101.688 44.2117 101.688 44.0247C101.688 43.8393 101.653 43.6555 101.582 43.4841C101.511 43.3125 101.408 43.1567 101.276 43.0253C101.146 42.8939 100.99 42.7897 100.819 42.7186C100.647 42.6475 100.464 42.611 100.279 42.611H30.7337C30.3587 42.611 29.999 42.7599 29.7339 43.0251C29.4688 43.2902 29.3198 43.6498 29.3198 44.0247C29.3198 44.3997 29.4688 44.7594 29.7339 45.0245C29.999 45.2896 30.3587 45.4386 30.7337 45.4386Z" fill="#F5F5F5"/>
<path d="M100.256 48.5962H30.7337C29.9528 48.5962 29.3198 49.2282 29.3198 50.0078C29.3198 50.7874 29.9528 51.4194 30.7337 51.4194H100.256C101.037 51.4194 101.67 50.7874 101.67 50.0078C101.67 49.2282 101.037 48.5962 100.256 48.5962Z" fill="#F5F5F5"/>
<path d="M111.501 190.692C159.26 190.692 197.977 188.431 197.977 185.643C197.977 182.854 159.26 180.594 111.501 180.594C63.7427 180.594 25.0264 182.854 25.0264 185.643C25.0264 188.431 63.7427 190.692 111.501 190.692Z" fill="#F5F5F5"/>
<path d="M174.284 58.6222C173.419 58.4393 172.309 57.2128 172.183 55.13C172.032 52.454 174.926 52.3024 176.327 52.9401C177.728 53.5779 176.952 57.1459 174.284 58.6222Z" fill="#263238"/>
<path d="M196.243 175.336L192.911 176.464L189.799 168.811L193.126 167.683L196.243 175.336Z" fill="#FFC3BD"/>
<path d="M192.386 176.21L196.44 174.836C196.503 174.812 196.573 174.812 196.637 174.839C196.699 174.864 196.75 174.913 196.779 174.975L198.161 177.851C198.193 177.925 198.21 178.004 198.21 178.085C198.21 178.165 198.193 178.245 198.161 178.318C198.128 178.393 198.082 178.459 198.023 178.513C197.963 178.568 197.894 178.609 197.818 178.636C196.507 179.055 195.534 179.301 193.893 179.858C192.88 180.201 190.86 180.937 189.464 181.41C188.068 181.883 187.547 180.518 188.086 180.175C190.517 178.716 191.252 177.659 191.895 176.607C192.007 176.421 192.181 176.281 192.386 176.21Z" fill="#263238"/>
<path opacity="0.2" d="M193.126 167.683L189.799 168.811L191.405 172.758L194.736 171.63L193.126 167.683Z" fill="black"/>
<path d="M175.157 71.507H177.833C176.941 72.2653 177.021 92.6561 177.775 102.446C175.639 102.58 171.723 101.835 171.723 101.835C171.723 101.835 171.348 86.5731 175.157 71.507Z" fill="#407BFF"/>
<path opacity="0.4" d="M175.157 71.507H177.833C176.941 72.2653 177.021 92.6561 177.775 102.446C175.639 102.58 171.723 101.835 171.723 101.835C171.723 101.835 171.348 86.5731 175.157 71.507Z" fill="black"/>
<path d="M173.735 182.031H170.193L169.663 173.833H173.199L173.735 182.031Z" fill="#FFC3BD"/>
<path opacity="0.2" d="M173.199 173.837H169.663L169.939 178.061H173.476L173.199 173.837Z" fill="black"/>
<path d="M167.935 176.616L174.251 176.563C174.251 176.563 173.19 153.491 173.859 142.506C174.063 139.161 174.023 134.527 174.964 129.541C176.16 123.256 177.69 116.455 178.952 111.134C180.29 105.523 179.585 101.554 179.585 101.554L167.146 100.818C167.146 100.818 163.931 130.254 163.926 141.039C163.917 152.282 167.935 176.616 167.935 176.616Z" fill="#263238"/>
<path d="M169.77 181.62H174.082C174.151 181.617 174.218 181.64 174.27 181.685C174.322 181.73 174.356 181.792 174.363 181.861L174.765 185.005C174.772 185.085 174.761 185.166 174.735 185.242C174.709 185.318 174.668 185.388 174.613 185.447C174.559 185.506 174.492 185.554 174.419 185.586C174.345 185.618 174.266 185.634 174.185 185.634C172.798 185.612 171.794 185.531 170.046 185.531C168.971 185.531 165.087 185.643 163.601 185.643C162.116 185.643 162.063 184.175 162.682 184.042C165.466 183.444 168.226 182.624 169.176 181.838C169.342 181.697 169.552 181.62 169.77 181.62Z" fill="#263238"/>
<path d="M167.431 177.383H175.558L175.508 175.104L167.003 174.957L167.431 177.383Z" fill="#407BFF"/>
<path d="M168.537 182.236C168.303 182.256 168.069 182.193 167.877 182.057C167.816 182.003 167.771 181.932 167.748 181.853C167.724 181.774 167.722 181.691 167.743 181.611C167.748 181.561 167.766 181.513 167.795 181.472C167.824 181.43 167.863 181.397 167.908 181.375C168.319 181.17 169.394 181.874 169.518 181.955C169.531 181.964 169.541 181.978 169.546 181.993C169.55 182.008 169.55 182.024 169.545 182.04C169.54 182.055 169.532 182.069 169.52 182.081C169.508 182.093 169.494 182.102 169.478 182.106C169.17 182.183 168.855 182.226 168.537 182.236ZM168.091 181.504C168.053 181.504 168.015 181.512 167.98 181.527C167.962 181.537 167.947 181.551 167.937 181.568C167.926 181.585 167.919 181.605 167.917 181.625C167.904 181.678 167.906 181.734 167.92 181.787C167.935 181.84 167.963 181.889 168.002 181.928C168.18 182.093 168.644 182.115 169.255 181.995C168.901 181.758 168.502 181.597 168.082 181.522L168.091 181.504Z" fill="#407BFF"/>
<path d="M169.479 182.115C169.467 182.12 169.454 182.12 169.443 182.115C169.095 181.919 168.457 181.143 168.573 180.746C168.591 180.684 168.629 180.63 168.681 180.591C168.732 180.552 168.794 180.529 168.858 180.527C168.921 180.52 168.984 180.526 169.044 180.544C169.104 180.563 169.159 180.593 169.206 180.634C169.586 180.973 169.572 181.972 169.572 182.035C169.572 182.051 169.569 182.066 169.561 182.079C169.553 182.093 169.541 182.104 169.527 182.111C169.512 182.118 169.495 182.119 169.479 182.115ZM168.903 180.679H168.863C168.751 180.679 168.738 180.746 168.734 180.764C168.667 181 169.064 181.585 169.398 181.861C169.415 181.467 169.305 181.078 169.086 180.75C169.059 180.725 169.027 180.705 168.991 180.693C168.955 180.681 168.918 180.676 168.881 180.679H168.903Z" fill="#407BFF"/>
<path opacity="0.2" d="M174.965 129.558C176.161 123.274 177.69 116.473 178.952 111.152L177.574 108.378C174.618 112.08 174.167 123.413 174.965 129.558Z" fill="black"/>
<path d="M173.86 101.242C173.86 101.242 177.932 131.521 179.765 141.765C181.777 152.982 189.506 172.539 189.506 172.539L195.603 170.47C195.603 170.47 190.799 154.245 189.113 143.264C187.191 130.776 186.067 101.956 186.067 101.956L173.86 101.242Z" fill="#263238"/>
<path d="M188.837 172.909L196.481 170.318L195.705 168.155L187.659 170.728L188.837 172.909Z" fill="#407BFF"/>
<path d="M191.428 177.191C191.212 177.287 190.97 177.301 190.745 177.232C190.67 177.199 190.605 177.147 190.558 177.08C190.511 177.013 190.483 176.934 190.478 176.852C190.467 176.803 190.469 176.751 190.483 176.702C190.497 176.653 190.523 176.608 190.558 176.572C190.879 176.25 192.115 176.572 192.257 176.616C192.273 176.619 192.288 176.628 192.298 176.642C192.307 176.655 192.312 176.671 192.311 176.688C192.312 176.704 192.309 176.721 192.301 176.736C192.293 176.752 192.281 176.764 192.266 176.772C192.004 176.945 191.723 177.085 191.428 177.191ZM190.763 176.639C190.726 176.648 190.692 176.668 190.665 176.696C190.651 176.711 190.641 176.729 190.637 176.749C190.632 176.768 190.633 176.789 190.638 176.808C190.642 176.863 190.661 176.917 190.692 176.964C190.723 177.01 190.766 177.047 190.817 177.071C191.035 177.169 191.477 177.044 192.012 176.732C191.606 176.615 191.181 176.584 190.763 176.639Z" fill="#407BFF"/>
<path d="M192.249 176.781H192.226C191.838 176.701 190.995 176.161 190.973 175.751C190.971 175.686 190.988 175.621 191.025 175.567C191.061 175.512 191.113 175.47 191.174 175.447C191.231 175.422 191.292 175.409 191.354 175.409C191.417 175.409 191.478 175.422 191.535 175.447C191.981 175.648 192.311 176.629 192.324 176.669C192.332 176.683 192.335 176.698 192.335 176.714C192.335 176.729 192.332 176.745 192.324 176.759C192.315 176.77 192.304 176.778 192.29 176.782C192.277 176.786 192.262 176.786 192.249 176.781ZM191.25 175.594H191.214C191.115 175.644 191.115 175.697 191.115 175.72C191.115 175.96 191.686 176.398 192.092 176.553C191.985 176.273 191.744 175.72 191.446 175.594C191.414 175.582 191.381 175.575 191.347 175.575C191.314 175.575 191.281 175.582 191.25 175.594Z" fill="#407BFF"/>
<path d="M170.617 75.6948C169.047 77.6933 167.433 79.5527 165.711 81.3908C163.982 83.2446 162.149 84.9989 160.221 86.6443C159.712 87.0545 159.217 87.4695 158.669 87.862C158.037 88.3603 157.342 88.7741 156.604 89.0931C155.093 89.68 153.451 89.8465 151.854 89.5743C150.457 89.3495 149.103 88.9102 147.84 88.2722C147.24 87.9781 146.659 87.6475 146.1 87.2823C145.544 86.9141 145.011 86.5119 144.504 86.078L145.958 83.848C148 84.6865 150.315 85.3555 152.246 85.3422C153.088 85.3671 153.921 85.172 154.663 84.7759C155.019 84.5529 155.353 84.2958 155.658 84.0084C156.082 83.656 156.497 83.255 156.912 82.8709C157.745 82.0731 158.57 81.2522 159.373 80.3827C160.176 79.5126 160.983 78.6473 161.773 77.7553C163.347 75.9713 164.926 74.1387 166.425 72.3322L170.617 75.6948Z" fill="#FFC3BD"/>
<path d="M170.216 78.4559C168.813 80.0534 167.277 81.5306 165.627 82.8716L164.445 81.7742L160.226 77.8629C161.395 75.6372 162.964 73.646 164.855 71.9889C168.174 69.0322 172.107 69.9728 172.558 73.666C172.727 75.0399 171.603 76.8239 170.216 78.4559Z" fill="#407BFF"/>
<path opacity="0.2" d="M170.216 78.4559C168.812 80.0534 167.277 81.5305 165.627 82.8715L164.445 81.7742C165.56 79.4548 169.48 75.374 170.216 78.4559Z" fill="black"/>
<path d="M165.752 106.05C167.429 106.755 169.993 107.223 172.183 106.545C172.036 103.231 172.085 84.5438 175.385 71.4895H177.339C176.447 72.2163 173.726 96.6344 174.618 106.795C178.36 107.575 185.715 106.978 186.874 105.832C186.727 104.235 185.919 96.2602 186.031 90.6943C186.08 88.3215 186.187 85.7032 186.432 82.9561C186.76 79.0272 187.383 75.128 188.297 71.2933C188.297 71.2933 186.067 70.6996 183.511 70.3162C183.007 70.2402 182.494 70.1734 181.991 70.1199C179.326 69.8076 176.645 69.6484 173.963 69.6429C173.633 69.6429 173.307 69.6697 172.99 69.6922C171.48 69.8015 169.979 70.0039 168.495 70.2986C168.495 70.2986 163.718 86.3497 165.752 106.05Z" fill="#407BFF"/>
<path opacity="0.2" d="M185.634 76.8274C184.702 79.651 184.742 83.5623 186.08 85.4041C186.134 85.48 186.192 85.5511 186.245 85.6137C186.299 84.7484 186.366 83.8686 186.446 82.9736C186.567 81.6046 186.723 80.1997 186.914 78.7767L185.634 76.8274Z" fill="black"/>
<path d="M181.522 61.0438C180.92 63.5995 180.242 68.3049 181.968 70.1382C181.134 70.9226 180.14 71.5163 179.054 71.8778C177.969 72.2399 176.817 72.3615 175.68 72.2339C173.45 72.0516 173.4 70.4906 173.927 69.6606C176.839 69.1435 176.843 66.9846 176.411 64.9642L181.522 61.0438Z" fill="#FFC3BD"/>
<path opacity="0.2" d="M179.444 62.6453L176.433 64.9598C176.539 65.4337 176.605 65.9156 176.63 66.4005C177.735 66.3069 179.306 65.187 179.453 64.041C179.535 63.5792 179.532 63.1059 179.444 62.6453Z" fill="black"/>
<path d="M181.968 56.7847C181.669 60.2902 181.669 62.3555 179.863 64.0769C177.142 66.6636 172.869 64.8529 172.12 61.3116C171.447 58.1182 172.049 52.9268 175.505 51.6914C176.279 51.4286 177.107 51.3634 177.913 51.5018C178.718 51.6402 179.477 51.9778 180.119 52.4838C180.761 52.9899 181.267 53.6484 181.589 54.3995C181.912 55.1507 182.042 55.9705 181.968 56.7847Z" fill="#FFC3BD"/>
<path d="M181.768 58.997C180.902 58.8186 179.787 57.5876 179.667 55.5048C179.511 52.8288 182.41 52.6771 183.806 53.3149C185.202 53.9527 184.43 57.5341 181.768 58.997Z" fill="#263238"/>
<path d="M180.127 54.385C178.521 55.0183 172.272 54.7908 171.292 53.1897C170.31 51.5885 183.307 53.1317 180.127 54.385Z" fill="#263238"/>
<path d="M180.76 53.9661C179.11 54.4567 172.901 53.6985 172.063 52.0215C171.224 50.3445 184.042 52.9626 180.76 53.9661Z" fill="#263238"/>
<path d="M181.592 53.7072C179.906 54.0461 173.792 52.7304 173.118 50.9821C172.445 49.2338 184.951 53.0292 181.592 53.7072Z" fill="#263238"/>
<path d="M182.682 53.8767C180.973 54.0908 174.899 51.8028 174.346 50.0099C173.793 48.2169 186.081 53.453 182.682 53.8767Z" fill="#263238"/>
<path d="M183.347 53.52C181.625 53.5602 175.836 51.1919 175.466 49.3544C175.096 47.5169 186.772 53.4219 183.347 53.52Z" fill="#263238"/>
<path d="M183.543 53.4887C182.124 53.2167 177.049 50.1481 177.205 48.5827C177.379 46.8299 186.392 54.0328 183.543 53.4887Z" fill="#263238"/>
<path d="M183.427 59.532C183.322 59.9525 183.134 60.3478 182.873 60.6941C182.613 61.0407 182.285 61.3311 181.91 61.548C180.902 62.1235 180.086 61.2849 180.126 60.1831C180.126 59.1885 180.697 57.6944 181.834 57.5696C182.082 57.549 182.332 57.5893 182.561 57.687C182.79 57.7847 182.992 57.9369 183.148 58.1302C183.306 58.3236 183.413 58.5524 183.461 58.7967C183.51 59.0409 183.498 59.2934 183.427 59.532Z" fill="#FFC3BD"/>
<path d="M176.614 57.534C176.614 57.8195 176.449 58.0425 176.262 58.038C176.075 58.0335 175.932 57.7882 175.941 57.5028C175.95 57.2174 176.101 56.9899 176.288 56.9988C176.476 57.0077 176.614 57.2352 176.614 57.534Z" fill="#263238"/>
<path d="M173.414 57.369C173.414 57.6545 173.249 57.8819 173.062 57.873C172.874 57.8641 172.732 57.6233 172.74 57.3378C172.749 57.0524 172.901 56.8294 173.088 56.8383C173.275 56.8472 173.418 57.0881 173.414 57.369Z" fill="#263238"/>
<path d="M174.431 57.5607C174.071 58.4168 173.594 59.2184 173.012 59.9423C173.199 60.089 173.416 60.1936 173.647 60.249C173.877 60.3044 174.117 60.3094 174.35 60.2635L174.431 57.5607Z" fill="#FF5652"/>
<path d="M175.545 61.102C175.422 61.1111 175.298 61.1111 175.175 61.102C175.164 61.102 175.154 61.0996 175.143 61.0953C175.133 61.0911 175.124 61.085 175.116 61.0771C175.109 61.0686 175.103 61.0595 175.099 61.0491C175.096 61.0388 175.094 61.0279 175.095 61.0169C175.095 61.006 175.097 60.9957 175.101 60.9853C175.106 60.975 175.112 60.9665 175.12 60.9586C175.128 60.9513 175.137 60.9452 175.147 60.9416C175.158 60.9379 175.169 60.9361 175.18 60.9367C175.531 60.9616 175.884 60.9021 176.207 60.7624C176.531 60.6226 176.817 60.4072 177.04 60.134C177.055 60.1193 177.076 60.1111 177.097 60.1111C177.119 60.1111 177.14 60.1193 177.155 60.134C177.173 60.1481 177.185 60.168 177.189 60.1901C177.193 60.2122 177.189 60.235 177.178 60.2545C176.978 60.4994 176.73 60.7008 176.449 60.8468C176.168 60.992 175.861 61.0789 175.545 61.102Z" fill="#263238"/>
<path d="M177.646 56.5215C177.615 56.5246 177.586 56.5196 177.558 56.507C177.53 56.4945 177.507 56.4748 177.49 56.4502C177.375 56.2718 177.219 56.1233 177.035 56.0171C176.851 55.9108 176.644 55.8498 176.432 55.8391C176.388 55.8392 176.345 55.8221 176.313 55.7914C176.28 55.7607 176.261 55.7187 176.259 55.6741C176.257 55.6523 176.26 55.6304 176.268 55.6099C176.276 55.5894 176.287 55.5706 176.302 55.5548C176.318 55.5389 176.336 55.5263 176.356 55.5176C176.376 55.509 176.397 55.5046 176.419 55.5046C176.686 55.5157 176.946 55.5898 177.179 55.7208C177.411 55.8518 177.609 56.036 177.757 56.2583C177.783 56.2949 177.793 56.3397 177.786 56.3836C177.78 56.4276 177.756 56.4674 177.722 56.4948C177.699 56.5108 177.673 56.52 177.646 56.5215Z" fill="#263238"/>
<path d="M172.051 56.1959C172.021 56.2065 171.988 56.2065 171.958 56.1959C171.938 56.186 171.92 56.1722 171.906 56.1553C171.892 56.1384 171.881 56.1187 171.874 56.0974C171.867 56.0762 171.865 56.0538 171.867 56.0316C171.869 56.0095 171.876 55.988 171.887 55.9685C172.002 55.7315 172.174 55.5264 172.387 55.371C172.6 55.2155 172.848 55.1144 173.109 55.0765C173.154 55.074 173.197 55.0888 173.231 55.1179C173.266 55.1469 173.287 55.188 173.292 55.2326C173.294 55.2543 173.292 55.2762 173.286 55.2972C173.28 55.3182 173.27 55.3377 173.256 55.3547C173.242 55.3718 173.225 55.3859 173.207 55.3963C173.187 55.4067 173.166 55.4133 173.145 55.4154C172.937 55.4456 172.741 55.5265 172.573 55.6511C172.405 55.7756 172.27 55.9398 172.181 56.129C172.166 56.1493 172.147 56.1659 172.124 56.1775C172.102 56.1891 172.077 56.1955 172.051 56.1959Z" fill="#263238"/>
<path d="M190.308 73.6617C190.857 74.8971 191.286 76.074 191.727 77.2917C192.168 78.5094 192.548 79.7362 192.904 80.9849C193.65 83.529 194.145 86.14 194.381 88.7808L194.43 89.8247V90.123V90.5338C194.43 90.8011 194.372 91.0284 194.336 91.2696C194.17 92.0614 193.906 92.83 193.551 93.5573C192.952 94.7927 192.236 95.9678 191.415 97.0676C189.876 99.1475 188.147 101.08 186.25 102.839L184.23 101.108C185.528 99.0613 186.826 96.9516 187.931 94.8644C188.468 93.8764 188.931 92.8507 189.319 91.7958C189.464 91.3814 189.565 90.9518 189.618 90.5156C189.618 90.4487 189.618 90.3685 189.618 90.3242C189.615 90.3065 189.615 90.2883 189.618 90.2707V90.2038V90.1012L189.515 89.2851C189.128 86.9852 188.565 84.7188 187.829 82.5058C187.472 81.3683 187.075 80.2308 186.674 79.0982C186.273 77.9656 185.827 76.819 185.412 75.7623L190.308 73.6617Z" fill="#FFC3BD"/>
<path d="M189.349 71.8283C192.208 73.6968 193.532 81.3104 193.532 81.3104L186.798 84.2179C185.198 81.9897 184.077 79.4535 183.507 76.7696C182.552 71.9219 186.428 69.9106 189.349 71.8283Z" fill="#407BFF"/>
<path d="M185.938 100.59L181.786 100.43L183.971 104.444C183.971 104.444 186.982 103.614 186.683 101.969L185.938 100.59Z" fill="#FFC3BD"/>
<path d="M179.572 102.348L181.53 105.568L183.97 104.426L181.784 100.43L179.572 102.348Z" fill="#FFC3BD"/>
<path d="M146.104 83.9817L143.027 82.0549L142.514 86.5149C142.514 86.5149 145.484 87.5806 146.189 86.0689L146.104 83.9817Z" fill="#FFC3BD"/>
<path d="M139.994 82.6971L139.142 86.0421L142.514 86.5325L143.027 82.0549L139.994 82.6971Z" fill="#FFC3BD"/>
<path d="M116.772 59.9335C114.203 62.6496 110.354 69.7011 113.307 72.176C114.335 72.6196 115.442 72.8541 116.562 72.8675C117.681 72.8803 118.793 72.6712 119.832 72.252L119.14 62.0699C119.14 62.0699 118.779 58.1495 116.772 59.9335Z" fill="#263238"/>
<path d="M114.724 83.2773C114.374 84.6712 113.954 86.0463 113.466 87.3982C112.984 88.7362 112.432 90.0518 111.825 91.3497C111.221 92.6621 110.528 93.9315 109.751 95.1498C109.358 95.7653 108.935 96.3669 108.489 96.9605C108.266 97.2546 108.043 97.5493 107.793 97.8525C107.673 97.9953 107.543 98.1332 107.419 98.276L107.231 98.4899C107.107 98.626 106.973 98.753 106.83 98.8691C106.504 99.1285 106.127 99.3169 105.723 99.422C105.356 99.5138 104.976 99.5393 104.6 99.498C104.049 99.4305 103.516 99.258 103.03 98.9894C102.309 98.5877 101.642 98.0962 101.045 97.5268C99.9891 96.5285 99.0151 95.4469 98.1328 94.293C96.4309 92.0691 94.8923 89.7242 93.53 87.2779L95.1579 86.2207C95.9873 87.2688 96.8392 88.3389 97.7087 89.3694C98.5788 90.3999 99.4526 91.4256 100.385 92.3887C101.252 93.3469 102.186 94.2408 103.182 95.0647C103.601 95.4165 104.063 95.7161 104.555 95.9567C104.675 96.0175 104.805 96.0527 104.938 96.0594C104.938 96.0594 104.912 96.0594 104.836 96.0594C104.763 96.0758 104.694 96.1044 104.631 96.1439C104.624 96.1542 104.615 96.1621 104.604 96.1663L104.747 95.9834C104.845 95.8631 104.943 95.7471 105.037 95.6225C105.224 95.3728 105.407 95.123 105.585 94.8599C105.938 94.3422 106.276 93.8069 106.593 93.2449C107.227 92.1347 107.793 90.9614 108.328 89.771C108.864 88.5801 109.327 87.3448 109.764 86.1003C110.202 84.8559 110.603 83.5671 110.937 82.3671L114.724 83.2773Z" fill="#FF8B7B"/>
<path d="M117.52 84.2673C117.105 85.4316 115.696 87.5188 114.59 89.0615C113.783 90.1765 113.141 91.0065 113.141 91.0065L112.503 90.5605L107.222 86.9701C108.216 83.9508 109.537 80.7261 113.221 79.8341C115.54 79.2811 118.261 82.1886 117.52 84.2673Z" fill="#407BFF"/>
<g opacity="0.5">
<path opacity="0.5" d="M117.52 84.2673C117.105 85.4316 115.696 87.5188 114.59 89.0615C113.783 90.1765 113.141 91.0065 113.141 91.0065L112.503 90.5605L107.222 86.9701C108.216 83.9508 109.537 80.7261 113.221 79.8341C115.54 79.2811 118.261 82.1886 117.52 84.2673Z" fill="white"/>
</g>
<path opacity="0.3" d="M114.59 89.0617C113.783 90.1767 113.141 91.0067 113.141 91.0067L112.503 90.5607C112.82 89.3564 113.395 87.4697 114.234 86.7205C114.518 87.4666 114.64 88.2651 114.59 89.0617Z" fill="black"/>
<path d="M95.5102 87.0417L95.684 83.7234L91.7144 84.2763C91.7144 84.2763 92.8342 86.8229 94.016 87.8887L95.5102 87.0417Z" fill="#FF8B7B"/>
<path d="M94.3996 82.3404L91.5273 83.2992L91.7145 84.2763L95.6841 83.7234L94.3996 82.3404Z" fill="#FF8B7B"/>
<path d="M127.421 181.933L123.662 182.298L121.159 173.48L124.919 173.12L127.421 181.933Z" fill="#FF8B7B"/>
<path d="M154.557 173.454L151.074 175.055L146.243 167.504L149.726 165.903L154.557 173.454Z" fill="#FF8B7B"/>
<path d="M150.034 173.882L153.87 171.889C153.936 171.854 154.012 171.845 154.083 171.862C154.156 171.879 154.219 171.922 154.262 171.982L156.274 174.774C156.322 174.847 156.354 174.929 156.368 175.014C156.382 175.1 156.378 175.188 156.356 175.272C156.334 175.356 156.295 175.434 156.241 175.502C156.187 175.57 156.119 175.626 156.042 175.666C154.704 176.335 154.017 176.594 152.336 177.45C151.305 177.99 149.098 179.336 147.67 180.077C146.243 180.817 145.44 179.452 145.958 179.016C148.326 177.053 149.08 175.59 149.588 174.368C149.68 174.162 149.836 173.991 150.034 173.882Z" fill="#263238"/>
<path d="M122.987 181.152H127.554C127.636 181.152 127.715 181.18 127.779 181.23C127.843 181.28 127.89 181.349 127.911 181.428L128.901 185.027C128.926 185.112 128.93 185.202 128.914 185.288C128.897 185.375 128.861 185.456 128.807 185.527C128.753 185.597 128.683 185.653 128.604 185.691C128.524 185.728 128.437 185.747 128.348 185.745C126.742 185.745 125.984 185.745 123.982 185.745H117.849C116.19 185.745 115.842 184.064 116.511 183.912C119.593 183.23 121.373 182.289 122.309 181.392C122.4 181.309 122.507 181.245 122.624 181.203C122.74 181.162 122.864 181.145 122.987 181.152Z" fill="#263238"/>
<path opacity="0.2" d="M121.159 173.48L122.453 178.026H126.315L124.924 173.12L121.159 173.48Z" fill="black"/>
<path opacity="0.2" d="M149.731 165.903L146.243 167.504L148.737 171.398L152.22 169.796L149.731 165.903Z" fill="black"/>
<path d="M132.506 100.854L117.062 102.83C110.568 80.9758 112.2 80.1816 112.2 80.1816C112.2 80.1816 114.778 79.2896 117.409 78.603C117.807 78.5003 118.208 78.4025 118.6 78.3132C120.915 77.8514 123.259 77.553 125.616 77.4212L126.655 77.3543C128.532 77.2717 130.414 77.3015 132.288 77.4437C132.003 80.2576 131.797 82.6395 131.668 84.7218C131.494 87.4337 131.441 89.6278 131.481 91.5279C131.575 94.659 131.918 97.7774 132.506 100.854Z" fill="#407BFF"/>
<g opacity="0.5">
<path opacity="0.5" d="M132.506 100.854L117.062 102.83C110.568 80.9758 112.2 80.1816 112.2 80.1816C112.2 80.1816 114.778 79.2896 117.409 78.603C117.807 78.5003 118.208 78.4025 118.6 78.3132C120.915 77.8514 123.259 77.553 125.616 77.4212L126.655 77.3543C128.532 77.2717 130.414 77.3015 132.288 77.4437C132.003 80.2576 131.797 82.6395 131.668 84.7218C131.494 87.4337 131.441 89.6278 131.481 91.5279C131.575 94.659 131.918 97.7774 132.506 100.854Z" fill="white"/>
</g>
<path opacity="0.3" d="M131.481 91.5195C130.437 89.2895 129.929 84.4236 130.589 82.7556L131.668 84.7134C131.494 87.4161 131.441 89.6103 131.481 91.5195Z" fill="black"/>
<path d="M123.915 72.7424C124.058 74.6516 124.508 76.596 125.615 77.412C123.883 77.9303 122.276 78.7968 120.892 79.9586C118.996 78.9597 118.603 78.3131 118.603 78.3131C121.043 77.3895 120.873 75.7131 119.839 73.0189L121.743 71.9932C121.908 71.8115 122.121 71.6821 122.358 71.6213C122.595 71.5606 122.845 71.5703 123.077 71.6505C123.308 71.7301 123.511 71.8759 123.66 72.0704C123.809 72.2648 123.898 72.4981 123.915 72.7424Z" fill="#FF8B7B"/>
<path d="M119.081 76.7881C118.407 76.48 117.145 78.1479 116.976 78.5939C116.806 79.0399 117.493 79.1785 117.422 79.7673C117.35 80.3561 117.743 80.8774 118.907 81.3368C120.071 81.7962 122.376 81.5197 123.144 80.378C123.911 79.2362 128.692 78.3223 128.023 77.1848C127.354 76.0474 126.836 76.6854 126.364 75.5479C125.891 74.4104 123.889 75.4987 123.242 76.0923C122.595 76.6854 121.917 78.0769 119.081 76.7881Z" fill="#407BFF"/>
<path opacity="0.2" d="M121.757 71.9888C121.911 71.8187 122.109 71.6941 122.33 71.6297C122.55 71.5647 122.784 71.5622 123.006 71.6224C123.227 71.6826 123.428 71.8023 123.585 71.9694C123.743 72.1365 123.851 72.3437 123.898 72.5685C123.176 74.0292 122.009 75.2232 120.567 75.9803C120.515 74.9558 120.273 73.9502 119.853 73.0145L121.757 71.9888Z" fill="black"/>
<path d="M126.877 66.7573C125.932 70.4456 125.611 72.0248 123.359 73.5767C119.969 75.9094 115.647 73.9425 115.473 70.0488C115.317 66.5434 116.892 61.1021 120.825 60.3216C121.692 60.1444 122.591 60.1919 123.435 60.4597C124.279 60.7275 125.04 61.2066 125.646 61.8513C126.253 62.4966 126.684 63.2859 126.9 64.1445C127.116 65.003 127.108 65.9023 126.877 66.7573Z" fill="#FF8B7B"/>
<path d="M127.054 70.3878C126.902 70.7189 126.686 71.0167 126.418 71.264C126.15 71.5107 125.836 71.7027 125.494 71.8279C124.575 72.1627 124.044 71.3551 124.24 70.4546C124.419 69.6428 125.11 68.4877 126.06 68.5503C126.267 68.5673 126.465 68.636 126.639 68.7496C126.812 68.8626 126.955 69.0176 127.054 69.1998C127.153 69.3821 127.204 69.5863 127.204 69.7935C127.204 70.0007 127.153 70.2049 127.054 70.3878Z" fill="#FF8B7B"/>
<path d="M117.57 62.5245C119.381 62.1545 123.729 62.4625 124.108 64.2417C122.561 65.6866 123.306 70.3429 121.696 71.7076C124.046 73.9376 128.706 73.9601 128.706 73.9601C128.706 73.9601 133.314 61.4411 127.69 60.8298C126.508 57.6634 120.108 57.378 116.772 59.938" fill="#263238"/>
<path d="M126.218 64.4161H123.988C123.91 64.4161 123.835 64.3851 123.78 64.3298C123.725 64.2745 123.694 64.1997 123.694 64.1214C123.695 64.0442 123.726 63.9695 123.782 63.9148C123.836 63.8601 123.91 63.8285 123.988 63.8273H126.218C126.297 63.8273 126.371 63.8583 126.427 63.9136C126.481 63.9688 126.512 64.0436 126.512 64.1214C126.513 64.1602 126.506 64.1991 126.492 64.235C126.477 64.2708 126.455 64.3036 126.428 64.331C126.4 64.3583 126.368 64.3802 126.332 64.3948C126.295 64.4094 126.257 64.4167 126.218 64.4161Z" fill="#407BFF"/>
<path d="M117.061 102.835C117.061 102.835 111.129 132.685 113.105 144.214C115.001 155.266 120.83 176.71 120.83 176.71L127.444 176.54C127.444 176.54 123.292 151.693 123.212 142.457C123.074 127.137 128.372 101.385 128.372 101.385L117.061 102.835Z" fill="#407BFF"/>
<path d="M120.415 177.053L128.069 176.843L127.596 174.332L119.305 174.756L120.415 177.053Z" fill="#263238"/>
<path opacity="0.3" d="M122.448 106.451L125.092 101.804L128.37 101.385C128.37 101.385 125.957 113.097 124.432 125.42C122.599 119.528 121.953 109.163 122.448 106.451Z" fill="black"/>
<path d="M120.42 102.446C120.42 102.446 125.108 127.699 129.286 142.118C132.658 153.763 146.814 169.632 146.814 169.632L151.819 167.121C151.819 167.121 142.319 149.539 139.964 141.627C132.431 116.312 138.323 107.112 132.489 100.854L120.42 102.446Z" fill="#407BFF"/>
<path d="M146.867 171.175L152.759 168.133L151.875 165.622L145.368 169.235L146.867 171.175Z" fill="#263238"/>
<path d="M132.62 99.9041L133.512 101.198C133.579 101.296 133.468 101.425 133.289 101.447L117.086 103.526C116.947 103.526 116.823 103.49 116.805 103.401L116.488 102.036C116.488 101.942 116.577 101.844 116.729 101.827L132.37 99.8196C132.416 99.8117 132.462 99.8159 132.506 99.8305C132.549 99.8451 132.588 99.8706 132.62 99.9041Z" fill="#407BFF"/>
<path opacity="0.4" d="M132.62 99.9041L133.512 101.198C133.579 101.296 133.468 101.425 133.289 101.447L117.086 103.526C116.947 103.526 116.823 103.49 116.805 103.401L116.488 102.036C116.488 101.942 116.577 101.844 116.729 101.827L132.37 99.8196C132.416 99.8117 132.462 99.8159 132.506 99.8305C132.549 99.8451 132.588 99.8706 132.62 99.9041Z" fill="white"/>
<path d="M130.745 101.938L131.164 101.88C131.249 101.88 131.307 101.821 131.294 101.768L130.848 99.984C130.848 99.9306 130.758 99.8996 130.674 99.9081L130.255 99.9615C130.174 99.9615 130.116 100.024 130.125 100.078L130.571 101.862C130.585 101.911 130.678 101.947 130.745 101.938Z" fill="#263238"/>
<path d="M118.268 103.535L118.688 103.481C118.768 103.481 118.826 103.419 118.817 103.369L118.371 101.585C118.371 101.532 118.278 101.496 118.197 101.509L117.778 101.563C117.694 101.563 117.635 101.625 117.649 101.675L118.095 103.459C118.104 103.512 118.188 103.548 118.268 103.535Z" fill="#263238"/>
<path d="M124.504 102.736L124.924 102.683C125.008 102.683 125.066 102.62 125.053 102.567L124.629 100.783C124.629 100.733 124.535 100.697 124.455 100.707L124.036 100.76C123.951 100.76 123.893 100.823 123.906 100.876L124.33 102.66C124.344 102.714 124.433 102.745 124.504 102.736Z" fill="#263238"/>
<path d="M120.56 66.6011C120.503 66.9043 120.293 67.1188 120.114 67.0787C119.936 67.038 119.802 66.7664 119.86 66.4632C119.918 66.1599 120.128 65.9412 120.306 65.9813C120.485 66.0214 120.619 66.2979 120.56 66.6011Z" fill="#263238"/>
<path d="M117.127 65.9412C117.069 66.2445 116.864 66.4589 116.681 66.4188C116.498 66.3787 116.369 66.1065 116.427 65.8033C116.485 65.5001 116.695 65.2814 116.895 65.3215C117.096 65.3616 117.19 65.6338 117.127 65.9412Z" fill="#263238"/>
<path d="M116.961 65.3524L116.271 65.0042C116.271 65.0042 116.534 65.6465 116.961 65.3524Z" fill="#263238"/>
<path d="M118.037 66.6192C117.634 67.2596 117.145 67.8418 116.583 68.3497C116.717 68.4901 116.88 68.6001 117.06 68.6718C117.24 68.7435 117.433 68.7751 117.627 68.7641L118.037 66.6192Z" fill="#FF5652"/>
<path d="M118.787 70.2766C118.773 70.2669 118.761 70.2535 118.754 70.2377C118.747 70.2219 118.745 70.2043 118.747 70.1873C118.751 70.163 118.765 70.1417 118.785 70.1271C118.805 70.1131 118.83 70.1077 118.854 70.1113C119.23 70.1934 119.62 70.1855 119.992 70.0876C120.364 69.9898 120.708 69.8057 120.995 69.5493C121.012 69.5329 121.035 69.5231 121.06 69.5231C121.084 69.5231 121.107 69.5329 121.124 69.5493C121.133 69.5572 121.14 69.5669 121.145 69.5778C121.149 69.5882 121.152 69.6003 121.152 69.6118C121.152 69.6234 121.149 69.6349 121.145 69.6459C121.14 69.6568 121.133 69.6665 121.124 69.6744C120.817 69.9558 120.447 70.1587 120.045 70.2663C119.643 70.3732 119.22 70.3811 118.814 70.29C118.804 70.2881 118.795 70.2833 118.787 70.2766Z" fill="#263238"/>
<path d="M121.758 65.6647C121.731 65.6477 121.709 65.6228 121.695 65.5936C121.601 65.3858 121.459 65.2041 121.28 65.0619C121.102 64.9203 120.893 64.8225 120.67 64.7769C120.646 64.7751 120.622 64.7678 120.602 64.7563C120.58 64.7453 120.562 64.7295 120.547 64.7107C120.532 64.6925 120.521 64.6706 120.514 64.6475C120.508 64.6244 120.506 64.6001 120.509 64.5764C120.516 64.529 120.54 64.4859 120.577 64.4561C120.615 64.4263 120.663 64.4118 120.71 64.416C120.994 64.4664 121.262 64.5855 121.491 64.7624C121.719 64.9398 121.901 65.1695 122.021 65.4326C122.043 65.4757 122.047 65.5262 122.032 65.5717C122.017 65.6179 121.984 65.6562 121.941 65.6781C121.912 65.6914 121.88 65.6969 121.848 65.6945C121.816 65.692 121.785 65.6817 121.758 65.6647Z" fill="#263238"/>
<path d="M115.928 64.148V64.117C115.921 64.0945 115.919 64.0708 115.921 64.0471C115.923 64.024 115.93 64.001 115.941 63.9803C115.953 63.9596 115.968 63.9414 115.986 63.9262C116.004 63.9116 116.026 63.9007 116.048 63.894C116.322 63.8029 116.614 63.7792 116.899 63.826C117.184 63.8727 117.454 63.9876 117.685 64.1614C117.722 64.193 117.745 64.2379 117.75 64.2859C117.754 64.3345 117.739 64.3832 117.707 64.4202C117.676 64.4573 117.631 64.481 117.582 64.4846C117.534 64.4889 117.486 64.4737 117.449 64.4427C117.265 64.3066 117.052 64.2179 116.827 64.1826C116.601 64.148 116.371 64.1681 116.155 64.2416C116.112 64.2562 116.066 64.2549 116.024 64.2373C115.982 64.2203 115.948 64.1887 115.928 64.148Z" fill="#263238"/>
<path d="M133.875 81.3367C134.383 81.8854 134.807 82.3849 135.24 82.9293C135.672 83.4732 136.087 84.0042 136.493 84.5529C137.291 85.6588 138.045 86.7829 138.723 87.9824C139.428 89.1697 140.058 90.4001 140.609 91.6664C140.756 91.983 140.877 92.313 141.011 92.6344C141.145 92.9552 141.269 93.2809 141.381 93.6151C141.492 93.9499 141.608 94.2622 141.724 94.6323L141.885 95.2296L142.001 95.8232C142.2 97.3077 142.147 98.8158 141.845 100.283C141.566 101.652 141.171 102.995 140.663 104.297C140.165 105.563 139.604 106.803 138.981 108.012C138.357 109.211 137.669 110.375 136.921 111.5L135.244 110.51C135.77 109.377 136.288 108.178 136.729 106.987C137.19 105.807 137.591 104.603 137.929 103.383C138.266 102.202 138.512 100.997 138.665 99.7789C138.732 99.2004 138.765 98.6177 138.763 98.035C138.752 97.4942 138.694 96.9558 138.589 96.4254L138.5 96.0596L138.388 95.7114C138.299 95.4617 138.165 95.1542 138.054 94.882C137.942 94.6098 137.817 94.32 137.684 94.0392C137.55 93.7579 137.434 93.4814 137.287 93.2092C136.738 92.1033 136.092 91.0375 135.44 89.9718C134.789 88.9054 134.058 87.8846 133.304 86.8807C132.934 86.3722 132.55 85.8727 132.158 85.3823C131.765 84.8914 131.355 84.3968 130.984 83.9726L133.875 81.3367Z" fill="#FF8B7B"/>
<path d="M136.028 109.44L132.951 110.942L136.109 113.409C136.109 113.409 137.478 111.759 137.42 110.166L136.028 109.44Z" fill="#FF8B7B"/>
<path d="M131.489 113.993L134.174 115.385L136.087 113.409L132.929 110.943L131.489 113.993Z" fill="#FF8B7B"/>
<path d="M132.286 77.4344C134.2 77.6932 137.09 83.0361 137.09 83.0361L132.224 87.8176C132.224 87.8176 128.495 83.5672 128.594 81.0826C128.683 78.9729 129.847 77.1087 132.286 77.4344Z" fill="#407BFF"/>
<g opacity="0.5">
<path opacity="0.5" d="M132.286 77.4344C134.2 77.6932 137.09 83.0361 137.09 83.0361L132.224 87.8176C132.224 87.8176 128.495 83.5672 128.594 81.0826C128.683 78.9729 129.847 77.1087 132.286 77.4344Z" fill="white"/>
</g>
<path d="M148.518 175.278C148.496 175.28 148.476 175.28 148.455 175.278C148.37 175.254 148.292 175.209 148.229 175.147C148.167 175.084 148.122 175.006 148.098 174.921C148.077 174.871 148.07 174.816 148.076 174.762C148.084 174.708 148.105 174.656 148.138 174.613C148.442 174.225 149.824 174.355 149.98 174.368C149.998 174.37 150.015 174.378 150.029 174.39C150.042 174.402 150.052 174.417 150.056 174.435C150.06 174.452 150.06 174.469 150.056 174.486C150.051 174.502 150.042 174.517 150.029 174.529C149.646 174.832 148.964 175.322 148.518 175.278ZM149.739 174.52C149.187 174.484 148.442 174.52 148.281 174.712C148.269 174.732 148.263 174.755 148.263 174.778C148.263 174.802 148.269 174.825 148.281 174.845C148.295 174.903 148.324 174.956 148.364 174.999C148.405 175.042 148.456 175.074 148.513 175.091C148.74 175.135 149.2 174.925 149.726 174.497L149.739 174.52Z" fill="#407BFF"/>
<path d="M149.856 174.506C149.41 174.439 148.518 174.06 148.415 173.668C148.394 173.599 148.398 173.524 148.426 173.458C148.453 173.391 148.503 173.336 148.567 173.302C148.622 173.26 148.687 173.231 148.757 173.219C148.825 173.207 148.897 173.211 148.964 173.231C149.504 173.365 150.021 174.342 150.043 174.382C150.051 174.396 150.055 174.412 150.055 174.429C150.055 174.445 150.051 174.461 150.043 174.475C150.034 174.488 150.022 174.498 150.008 174.506C149.994 174.512 149.979 174.516 149.963 174.515L149.856 174.506ZM148.883 173.4C148.846 173.394 148.808 173.395 148.771 173.403C148.735 173.412 148.7 173.428 148.669 173.45C148.576 173.516 148.576 173.574 148.589 173.614C148.665 173.873 149.334 174.221 149.793 174.315C149.606 173.998 149.245 173.485 148.901 173.423L148.883 173.4Z" fill="#407BFF"/>
<path d="M120.968 181.901C120.656 181.924 120.345 181.851 120.076 181.692C120.007 181.639 119.95 181.572 119.911 181.495C119.871 181.418 119.85 181.333 119.849 181.246C119.842 181.198 119.849 181.149 119.869 181.105C119.888 181.061 119.92 181.023 119.96 180.996C120.375 180.719 121.923 181.442 122.23 181.567C122.247 181.574 122.261 181.587 122.27 181.603C122.279 181.619 122.282 181.638 122.279 181.656C122.278 181.675 122.27 181.693 122.257 181.708C122.244 181.723 122.227 181.732 122.208 181.736C121.801 181.833 121.386 181.888 120.968 181.901ZM120.246 181.116C120.184 181.112 120.122 181.126 120.067 181.156C120.054 181.166 120.044 181.179 120.038 181.194C120.031 181.209 120.029 181.225 120.032 181.241C120.033 181.301 120.048 181.359 120.076 181.411C120.104 181.464 120.144 181.51 120.192 181.545C120.46 181.745 121.084 181.772 121.9 181.625C121.379 181.37 120.821 181.198 120.246 181.116Z" fill="#407BFF"/>
<path d="M122.202 181.745H122.166C121.653 181.535 120.619 180.706 120.677 180.273C120.677 180.18 120.753 180.064 120.989 180.037C121.881 179.93 122.273 181.571 122.291 181.638C122.295 181.655 122.294 181.673 122.289 181.689C122.284 181.706 122.274 181.721 122.26 181.732C122.243 181.743 122.222 181.747 122.202 181.745ZM121.069 180.207H121.011C120.913 180.207 120.864 180.247 120.855 180.291C120.824 180.541 121.537 181.183 122.064 181.482C121.935 181.076 121.604 180.207 121.06 180.207H121.069Z" fill="#407BFF"/>
<path d="M120.393 66.008L119.706 65.6604C119.706 65.6604 119.974 66.3069 120.393 66.008Z" fill="#263238"/>
<path d="M52.1113 181.972L55.6928 181.919L56.5134 173.614L52.9364 173.668L52.1113 181.972Z" fill="#B55B52"/>
<path d="M34.385 181.986H37.9664L39.3713 173.695H35.7944L34.385 181.986Z" fill="#B55B52"/>
<path d="M38.4616 181.571H34.0952C34.0243 181.571 33.9556 181.596 33.9005 181.641C33.8454 181.685 33.8071 181.747 33.792 181.816L33.0828 185.001C33.0667 185.078 33.0683 185.158 33.0874 185.235C33.1065 185.312 33.1427 185.384 33.1933 185.444C33.2439 185.505 33.3075 185.554 33.3795 185.587C33.4515 185.619 33.5299 185.636 33.6091 185.634C35.014 185.611 36.0353 185.527 37.806 185.527C38.8942 185.527 42.1768 185.643 43.6798 185.643C45.1828 185.643 45.379 184.158 44.7636 184.019C42.0028 183.417 39.9245 182.588 39.0414 181.789C38.8804 181.65 38.6747 181.572 38.4616 181.571Z" fill="#263238"/>
<path d="M55.6602 181.522L51.7487 181.585C51.6782 181.584 51.6097 181.608 51.5552 181.653C51.5006 181.698 51.4634 181.76 51.4499 181.83L50.7898 185.023C50.7727 185.101 50.7736 185.181 50.7923 185.258C50.8111 185.334 50.8473 185.406 50.8982 185.467C50.949 185.528 51.0132 185.576 51.0856 185.608C51.1581 185.64 51.2369 185.655 51.3161 185.652C52.7255 185.607 54.7637 185.491 56.5343 185.464C58.6082 185.433 60.4011 185.518 62.8271 185.464C64.2994 185.443 64.6828 183.953 64.0673 183.828C61.2576 183.257 58.9695 183.226 56.5254 181.772C56.2654 181.611 55.9661 181.525 55.6602 181.522Z" fill="#263238"/>
<path d="M58.3497 72.9476C59.5004 75.1017 60.7179 77.3183 61.9442 79.4632C63.171 81.6088 64.4507 83.741 65.816 85.7072C65.9807 85.9618 66.1593 86.194 66.3331 86.4303L66.5919 86.7821L66.708 86.9432L66.7524 87.0051C66.8636 87.1668 67.0185 87.2938 67.1984 87.3709C67.6802 87.5806 68.6968 87.5538 69.7225 87.309C70.832 87.0276 71.9142 86.6485 72.9563 86.1757C73.5001 85.9302 74.0536 85.6854 74.5932 85.4089C75.1328 85.1324 75.6857 84.8377 76.1852 84.5704L77.8489 86.6843C77.3403 87.188 76.8542 87.6122 76.328 88.0223C75.8018 88.4325 75.2798 88.8651 74.7178 89.2485C73.5663 90.0646 72.3261 90.7469 71.0203 91.2822C70.3003 91.5703 69.5535 91.7854 68.7903 91.9245C67.8862 92.0825 66.9602 92.0685 66.0609 91.8844C65.0018 91.6632 64.0284 91.1431 63.2555 90.386C63.1576 90.2924 63.0683 90.1946 62.979 90.0961L62.7961 89.8865L62.4619 89.494C62.2389 89.2351 62.0159 88.972 61.8063 88.7089C60.1691 86.6381 58.6618 84.4677 57.2927 82.2109C55.9547 79.9809 54.6791 77.7509 53.5061 75.3824L58.3497 72.9476Z" fill="#B65B52"/>
<path d="M51.973 73.0545C51.0052 76.3369 57.8022 85.2885 57.8022 85.2885L64.6705 80.882C63.3811 78.0431 61.7904 75.352 59.9252 72.854C57.0886 69.2544 53.03 69.4507 51.973 73.0545Z" fill="#407BFF"/>
<path opacity="0.2" d="M51.973 73.0545C51.0052 76.3369 57.8022 85.2885 57.8022 85.2885L64.6705 80.882C63.3811 78.0431 61.7904 75.352 59.9252 72.854C57.0886 69.2544 53.03 69.4507 51.973 73.0545Z" fill="white"/>
<path opacity="0.2" d="M56.1471 76.9081C57.5564 77.5103 59.6303 80.9221 60.7096 83.4195L57.8017 85.2885C56.1772 83.1163 54.7162 80.8261 53.4309 78.4375C54.3497 77.4295 55.4022 76.5915 56.1471 76.9081Z" fill="black"/>
<path d="M75.8918 84.74L78.3892 83.2549L80.5299 86.9742C80.5299 86.9742 77.7512 88.6021 75.9538 86.7111L75.8918 84.74Z" fill="#B55B52"/>
<path d="M81.8817 83.2902L83.001 86.1582L80.5303 86.9742L78.3896 83.2549L81.8817 83.2902Z" fill="#B55B52"/>
<path opacity="0.2" d="M56.5121 173.614L56.0884 177.896L52.5071 177.954L52.9308 173.672L56.5121 173.614Z" fill="black"/>
<path opacity="0.2" d="M35.7907 173.699H39.3721L38.6451 177.972H35.0637L35.7907 173.699Z" fill="black"/>
<path d="M36.0154 71.6005C39.8688 85.1859 39.2489 99.6274 39.4808 102.58L58.6142 101.862C61.8658 81.5912 56.0274 70.3075 56.0274 70.3075C56.0274 70.3075 54.8009 70.0711 53.1329 69.8967C52.6066 69.8432 52.0446 69.7989 51.4559 69.7673C51.1303 69.7673 50.8003 69.7363 50.4658 69.7321C47.7585 69.7728 45.0559 69.9678 42.3709 70.316C41.858 70.3786 41.3406 70.4588 40.8411 70.539C40.3416 70.6192 39.9179 70.7043 39.5031 70.7887C37.5184 71.177 36.0154 71.6005 36.0154 71.6005Z" fill="#407BFF"/>
<path opacity="0.2" d="M36.0154 71.6005C39.8688 85.1859 39.2489 99.6274 39.4808 102.58L58.6142 101.862C61.8658 81.5912 56.0274 70.3075 56.0274 70.3075C56.0274 70.3075 54.8009 70.0711 53.1329 69.8967C52.6066 69.8432 52.0446 69.7989 51.4559 69.7673C51.1303 69.7673 50.8003 69.7363 50.4658 69.7321C47.7585 69.7728 45.0559 69.9678 42.3709 70.316C41.858 70.3786 41.3406 70.4588 40.8411 70.539C40.3416 70.6192 39.9179 70.7043 39.5031 70.7887C37.5184 71.177 36.0154 71.6005 36.0154 71.6005Z" fill="white"/>
<path opacity="0.2" d="M40.0866 77.4344C40.43 78.75 40.0375 84.7534 38.6638 86.2341C38.4765 84.3116 38.2178 82.3046 37.8967 80.2532L40.0866 77.4344Z" fill="black"/>
<path d="M51.5885 69.7589H51.4502C51.1247 69.7589 50.7946 69.7273 50.4601 69.723C47.7451 69.7692 45.035 69.9703 42.3429 70.3252C41.9504 70.3744 41.558 70.4321 41.1699 70.4947L41.7631 71.0033C43.5204 72.506 45.5675 73.8974 48.6003 73.8974H48.9883C50.5359 73.8355 51.5261 73.3311 51.9408 72.3899C52.0963 71.9555 52.1454 71.4894 52.0841 71.0319C52.0229 70.5737 51.8529 70.1374 51.5885 69.7589Z" fill="white"/>
<path d="M42.4715 61.1019C43.1762 63.6752 44.0415 68.4251 42.3467 70.3026C43.872 71.6097 45.8478 73.099 48.9564 72.9786C52.065 72.8583 51.3648 70.7487 50.4639 69.7005C47.498 69.2186 47.4132 67.0512 47.7879 64.9865L42.4715 61.1019Z" fill="#B55B52"/>
<path opacity="0.2" d="M44.6321 62.7031L47.7541 65C47.665 65.4812 47.6173 65.9691 47.6114 66.4583C46.4875 66.3781 44.8685 65.2722 44.6633 64.1171C44.5664 63.6516 44.5558 63.1722 44.6321 62.7031Z" fill="black"/>
<path d="M50.0325 58.6177C51.0494 59.6525 52.9182 54.0106 50.9245 52.6413C48.9309 51.2722 45.0462 53.52 50.0325 58.6177Z" fill="#263238"/>
<path d="M41.865 57.2082C42.3466 60.7272 42.4492 62.8142 44.3715 64.4956C47.2616 67.0245 51.5075 65.0801 52.0873 61.4896C52.6091 58.2563 51.7349 53.0426 48.1714 51.8919C47.3861 51.6344 46.548 51.5819 45.7367 51.7394C44.9255 51.8969 44.1679 52.2592 43.5361 52.7919C42.9042 53.3245 42.419 54.0099 42.1265 54.7829C41.834 55.5558 41.744 56.3907 41.865 57.2082Z" fill="#B55B52"/>
<path d="M42.3258 60.397C43.4809 61.2892 44.4933 55.4152 42.3258 54.3582C40.1583 53.3012 36.617 56.1021 42.3258 60.397Z" fill="#263238"/>
<path d="M40.9694 55.1567C44.3634 56.3208 53.9034 55.237 52.2175 48.2928C51.4995 45.2957 48.2526 47.8468 48.0296 49.5059C46.3704 48.1412 43.2886 48.44 43.6499 50.6209C41.8614 50.0991 35.1 51.7359 40.9694 55.1567Z" fill="#263238"/>
<path d="M40.5604 61.2266C40.8252 61.5863 41.1586 61.8895 41.5414 62.1192C41.9242 62.3489 42.3487 62.5002 42.7904 62.5646C43.9634 62.7341 44.396 61.6458 43.9411 60.6202C43.5307 59.6969 42.4291 58.4972 41.3141 58.8005C40.1991 59.1038 39.9181 60.3392 40.5604 61.2266Z" fill="#B55B52"/>
<path d="M57.4183 177.062L51.3572 177.156C51.3572 177.156 53.3776 153.21 52.8334 142.069C52.6684 138.679 51.986 133.938 51.0896 128.858C49.9612 122.454 49.4171 119.902 47.9676 111.812C46.9239 106.041 46.0498 102.33 46.0498 102.33L58.627 101.857C58.627 101.857 62.503 130.009 62.382 140.931C62.2441 152.278 57.4183 177.062 57.4183 177.062Z" fill="#263238"/>
<path opacity="0.2" d="M50.3975 109.715C52.6543 115.335 52.6989 128.502 51.6597 132.207C51.4813 131.11 51.2895 129.977 51.0888 128.845C49.956 122.44 49.4118 119.889 47.9668 111.798C47.94 111.638 47.9089 111.482 47.8821 111.326C48.6214 110.648 49.4725 110.103 50.3975 109.715Z" fill="black"/>
<path d="M51.8308 102.098C51.8308 102.098 49.5472 131.771 47.8658 142.126C46.0283 153.464 40.3106 177.142 40.3106 177.142H33.7544C33.7544 177.142 35.9175 155.734 37.2599 144.584C38.7853 131.918 39.4899 102.548 39.4899 102.548L51.8308 102.098Z" fill="#263238"/>
<path d="M41.095 177.285H33.3748V174.979L42.0049 174.827L41.095 177.285Z" fill="#407BFF"/>
<path opacity="0.5" d="M41.095 177.285H33.3748V174.979L42.0049 174.827L41.095 177.285Z" fill="white"/>
<path d="M58.1813 177.178L50.9605 177.289L50.9204 174.957L58.993 174.707L58.1813 177.178Z" fill="#407BFF"/>
<path opacity="0.5" d="M58.1813 177.178L50.9605 177.289L50.9204 174.957L58.993 174.707L58.1813 177.178Z" fill="white"/>
<path d="M47.3064 57.7968C47.3064 58.0867 47.4982 58.3097 47.6855 58.2919C47.8728 58.2741 48.0066 58.0332 47.9843 57.7478C47.962 57.4623 47.797 57.2393 47.6052 57.2527C47.4134 57.2661 47.2752 57.5337 47.3064 57.7968Z" fill="#263238"/>
<path d="M50.5577 57.5562C50.5577 57.8461 50.7495 58.0646 50.9413 58.0512C51.1331 58.0379 51.2624 57.7926 51.2401 57.5071C51.2178 57.2217 51.0483 56.9943 50.861 57.0076C50.6737 57.021 50.5399 57.2663 50.5577 57.5562Z" fill="#263238"/>
<path d="M49.5371 57.7745C49.9449 58.6303 50.4687 59.4256 51.0937 60.1383C50.9097 60.2909 50.6948 60.4019 50.4638 60.4634C50.2328 60.525 49.9913 60.5359 49.7557 60.4951L49.5371 57.7745Z" fill="#A02724"/>
<path d="M48.5827 61.356C48.2584 61.3426 47.9402 61.263 47.6479 61.1221C47.3557 60.9805 47.0955 60.7812 46.8834 60.5354C46.8698 60.5171 46.864 60.4941 46.8674 60.4715C46.8707 60.4489 46.8829 60.4286 46.9012 60.415C46.9196 60.4014 46.9425 60.3956 46.9651 60.3989C46.9878 60.4023 47.008 60.4145 47.0217 60.4328C47.2608 60.7012 47.56 60.9094 47.8948 61.0406C48.2296 61.1713 48.5906 61.2217 48.9484 61.1865C48.9701 61.1853 48.9916 61.1926 49.0082 61.2065C49.0248 61.2205 49.0353 61.2406 49.0376 61.2624C49.0388 61.274 49.0377 61.2855 49.0343 61.2965C49.0308 61.3074 49.0252 61.3177 49.0177 61.3262C49.0101 61.3353 49.0009 61.3426 48.9906 61.3475C48.9802 61.3524 48.9689 61.3554 48.9573 61.356C48.8326 61.3651 48.7074 61.3651 48.5827 61.356Z" fill="#263238"/>
<path d="M46.2224 56.8201C46.1935 56.8201 46.1653 56.8107 46.1421 56.7934C46.1045 56.7695 46.0778 56.7318 46.0678 56.6884C46.0578 56.645 46.0653 56.5994 46.0886 56.5615C46.2307 56.33 46.4266 56.1362 46.6595 55.9964C46.8924 55.8567 47.1555 55.7751 47.4266 55.7587C47.4716 55.7587 47.5147 55.7765 47.5465 55.8083C47.5783 55.8401 47.5961 55.8832 47.5961 55.9281C47.5961 55.9731 47.5783 56.0162 47.5465 56.048C47.5147 56.0797 47.4716 56.0976 47.4266 56.0976C47.2137 56.1143 47.0078 56.1817 46.8263 56.2942C46.6447 56.4067 46.4927 56.5611 46.383 56.7443C46.3667 56.7714 46.3427 56.793 46.3142 56.8065C46.2856 56.8199 46.2537 56.8247 46.2224 56.8201Z" fill="#263238"/>
<path d="M51.8777 56.3343C51.8502 56.3321 51.8236 56.3233 51.8003 56.3084C51.777 56.2937 51.7576 56.2734 51.7439 56.2495C51.6413 56.0625 51.4962 55.9021 51.3204 55.7813C51.1446 55.6605 50.9429 55.5825 50.7315 55.5538C50.6866 55.5538 50.6434 55.5359 50.6117 55.5041C50.5799 55.4724 50.562 55.4292 50.562 55.3843C50.562 55.3393 50.5799 55.2962 50.6117 55.2644C50.6434 55.2326 50.6866 55.2148 50.7315 55.2148C50.9987 55.2458 51.2545 55.34 51.478 55.4897C51.7013 55.6394 51.8858 55.8403 52.016 56.0756C52.0278 56.0947 52.0355 56.1161 52.0388 56.1384C52.042 56.1606 52.0407 56.1833 52.0349 56.205C52.029 56.2267 52.0188 56.247 52.0048 56.2646C51.9908 56.2823 51.9734 56.2968 51.9535 56.3075C51.9307 56.3222 51.9048 56.3314 51.8777 56.3343Z" fill="#263238"/>
<path d="M39.6442 182.2C39.3282 182.19 39.0142 182.147 38.7076 182.07C38.6913 182.066 38.6766 182.057 38.6654 182.044C38.6543 182.031 38.6473 182.016 38.6451 181.999C38.6428 181.983 38.6453 181.966 38.6524 181.95C38.6596 181.935 38.671 181.923 38.6853 181.914C38.8146 181.834 39.9698 181.125 40.3667 181.326C40.4095 181.35 40.4452 181.385 40.4702 181.427C40.4953 181.469 40.5088 181.517 40.5094 181.566C40.5193 181.649 40.5086 181.734 40.4782 181.811C40.4479 181.889 40.3989 181.958 40.3355 182.012C40.1321 182.15 39.889 182.215 39.6442 182.2ZM38.9529 181.968C39.5639 182.088 40.0277 182.066 40.224 181.901C40.2678 181.865 40.3015 181.817 40.3218 181.765C40.3422 181.712 40.3484 181.654 40.3399 181.597C40.3413 181.577 40.337 181.557 40.3276 181.539C40.3181 181.521 40.3039 181.506 40.2864 181.495C40.0813 181.37 39.4256 181.678 38.9529 181.968Z" fill="#407BFF"/>
<path d="M38.731 182.071C38.715 182.075 38.698 182.075 38.682 182.071C38.6692 182.063 38.6591 182.051 38.6527 182.038C38.6464 182.025 38.6441 182.009 38.6463 181.995C38.6463 181.95 38.7355 180.916 39.1503 180.577C39.199 180.533 39.2566 180.501 39.319 180.483C39.3814 180.464 39.4472 180.46 39.5115 180.47C39.5745 180.469 39.6357 180.491 39.6844 180.531C39.7332 180.571 39.7667 180.626 39.7791 180.688C39.8549 181.089 39.1414 181.874 38.7712 182.075L38.731 182.071ZM39.4536 180.63C39.3809 180.629 39.3107 180.656 39.2573 180.706C38.999 181.025 38.8435 181.416 38.8113 181.825C39.1815 181.544 39.6364 180.933 39.5918 180.719C39.5918 180.697 39.5918 180.643 39.4669 180.63H39.4312H39.4536Z" fill="#407BFF"/>
<path d="M56.0169 181.995C56.0025 181.988 55.9899 181.978 55.9805 181.966C55.9712 181.953 55.9652 181.939 55.9633 181.923C55.9596 181.907 55.9614 181.889 55.9687 181.874C55.976 181.858 55.9882 181.846 56.0035 181.838C56.1685 181.749 57.5957 181 58.0328 181.231C58.0739 181.255 58.1086 181.287 58.1336 181.327C58.1586 181.367 58.173 181.413 58.1755 181.459C58.1859 181.535 58.1775 181.613 58.1511 181.685C58.1247 181.758 58.081 181.823 58.0239 181.874C57.6358 182.226 56.61 182.102 56.0302 181.995H56.0169ZM57.9213 181.37C57.6493 181.281 56.8732 181.589 56.3112 181.869C57.1051 181.99 57.6939 181.945 57.9079 181.749C57.946 181.714 57.9749 181.671 57.992 181.623C58.0092 181.575 58.014 181.523 58.0061 181.473C58.0064 181.454 58.0015 181.436 57.9921 181.42C57.9826 181.405 57.9689 181.392 57.9525 181.383L57.9213 181.37Z" fill="#407BFF"/>
<path d="M56.0184 181.995C56.0059 181.986 55.9957 181.975 55.9887 181.962C55.9816 181.949 55.9781 181.934 55.9783 181.919C55.9783 181.879 56.063 180.911 56.5135 180.532C56.5741 180.478 56.6447 180.438 56.7213 180.411C56.7979 180.385 56.8789 180.375 56.9595 180.38C57.1915 180.38 57.2628 180.514 57.2807 180.612C57.352 181.014 56.509 181.803 56.0764 182.003C56.0567 182.006 56.0364 182.003 56.0184 181.995ZM57.0353 180.55H56.9506C56.8885 180.544 56.8257 180.551 56.7666 180.571C56.7074 180.591 56.6531 180.623 56.6072 180.666C56.3478 180.981 56.192 181.369 56.1612 181.776C56.6072 181.504 57.1692 180.884 57.1246 180.643C57.1157 180.63 57.0889 180.572 57.0353 180.55Z" fill="#407BFF"/>
<path d="M39.9748 76.1984L36.612 83.5264C36.0634 84.7532 35.5014 85.9703 34.9796 87.2014C34.7209 87.8126 34.4444 88.4233 34.1991 89.0346L34.0073 89.4806C33.9449 89.6367 33.9092 89.7437 33.8601 89.8731C33.7576 90.1228 33.6907 90.3993 33.6059 90.6624C33.304 91.8029 33.1394 92.975 33.1153 94.1545C33.0754 95.4141 33.1261 96.6755 33.267 97.9278C33.4052 99.2033 33.6148 100.492 33.8824 101.777C34.15 103.061 34.4712 104.372 34.819 105.59L32.3527 106.661C31.9914 105.992 31.6926 105.371 31.4027 104.711C31.1128 104.052 30.8452 103.404 30.591 102.735C30.0834 101.391 29.6633 100.014 29.3332 98.6145C28.5744 95.6675 28.4363 92.5953 28.9274 89.5918C29.0166 89.1992 29.0924 88.8025 29.2173 88.4057L29.3868 87.826L29.5518 87.3217C29.7659 86.6484 29.9978 85.9837 30.2208 85.3238C30.6935 83.9858 31.1752 82.7012 31.697 81.4167C32.7273 78.83 33.8468 76.3236 35.0956 73.8347L39.9748 76.1984Z" fill="#B65B52"/>
<path d="M36.0145 71.6006C32.7498 72.6263 29.5386 83.7009 29.5386 83.7009L37.0938 87.0058C37.0938 87.0058 39.5379 81.6538 40.9429 77.4612C42.4771 72.8894 39.9705 70.361 36.0145 71.6006Z" fill="#407BFF"/>
<path opacity="0.2" d="M36.0145 71.6006C32.7498 72.6263 29.5386 83.7009 29.5386 83.7009L37.0938 87.0058C37.0938 87.0058 39.5379 81.6538 40.9429 77.4612C42.4771 72.8894 39.9705 70.361 36.0145 71.6006Z" fill="white"/>
<path d="M34.6182 104.984L36.3799 108.164L32.2277 109.243C32.2277 109.243 30.97 106.161 32.4551 105.18L34.6182 104.984Z" fill="#B55B52"/>
<path d="M36.6883 111.772L32.875 112.088L32.2283 109.243L36.3805 108.164L36.6883 111.772Z" fill="#B55B52"/>
<path d="M111.499 125.929C111.467 127.033 111.006 128.08 110.214 128.851C109.423 129.621 108.363 130.052 107.258 130.054H96.037C96.963 131.337 97.5172 132.851 97.6375 134.429C97.7578 136.008 97.44 137.589 96.7193 138.998C95.9987 140.407 94.9031 141.59 93.553 142.416C92.2028 143.241 90.6509 143.678 89.0681 143.678C87.4852 143.678 85.9333 143.241 84.5832 142.416C83.233 141.59 82.1369 140.407 81.4162 138.998C80.6956 137.589 80.3778 136.008 80.4987 134.429C80.619 132.851 81.1732 131.337 82.0992 130.054H70.8732C69.7503 130.051 68.6742 129.604 67.88 128.811C67.0859 128.017 66.6387 126.94 66.6362 125.817V89.4321C66.6387 88.3092 67.0859 87.2324 67.8794 86.4377C68.6736 85.6423 69.7497 85.1944 70.8732 85.1908H107.258C108.363 85.1938 109.422 85.6265 110.213 86.3976C111.004 87.1686 111.463 88.2168 111.495 89.3209V100.654C110.212 99.7302 108.699 99.1778 107.122 99.0593C105.546 98.9402 103.967 99.2586 102.56 99.9793C101.153 100.7 99.9714 101.795 99.1468 103.144C98.3223 104.493 97.886 106.043 97.886 107.624C97.886 109.206 98.3223 110.756 99.1468 112.105C99.9714 113.454 101.153 114.549 102.56 115.27C103.967 115.991 105.546 116.309 107.122 116.19C108.699 116.071 110.212 115.519 111.495 114.596V125.817C111.494 125.854 111.496 125.892 111.499 125.929Z" fill="#407BFF"/>
<path opacity="0.3" d="M89.0646 142.368C87.7199 142.371 86.4001 142.002 85.2517 141.302C84.1033 140.602 83.1706 139.599 82.5575 138.402C81.9438 137.205 81.6734 135.861 81.7754 134.52C81.8781 133.179 82.3491 131.893 83.1372 130.803L84.6003 128.774H70.8721C70.0895 128.771 69.3391 128.458 68.7856 127.904C68.2326 127.35 67.9209 126.6 67.9197 125.816V89.4315C67.9197 88.6477 68.2308 87.896 68.7843 87.3406C69.3373 86.7859 70.0883 86.473 70.8721 86.4705H107.257C108.027 86.4754 108.765 86.7786 109.316 87.3157C109.867 87.8529 110.189 88.582 110.214 89.3513V98.4007C110.213 98.4098 110.211 98.4183 110.206 98.4262C110.202 98.4341 110.195 98.4408 110.188 98.4457C110.179 98.4499 110.17 98.4518 110.16 98.4518C110.151 98.4518 110.142 98.4499 110.134 98.4457C108.975 97.9808 107.738 97.7427 106.49 97.7451C105.176 97.7171 103.869 97.9517 102.647 98.4353C101.425 98.919 100.312 99.6421 99.3724 100.561C98.433 101.481 97.6868 102.579 97.1776 103.79C96.6678 105.002 96.406 106.303 96.406 107.617C96.406 108.932 96.6678 110.233 97.1776 111.445C97.6868 112.656 98.433 113.754 99.3724 114.674C100.312 115.593 101.425 116.315 102.647 116.799C103.869 117.283 105.176 117.517 106.49 117.489C107.738 117.493 108.975 117.255 110.134 116.789C110.142 116.785 110.151 116.783 110.16 116.783C110.17 116.783 110.179 116.785 110.188 116.789C110.195 116.794 110.202 116.801 110.206 116.808C110.211 116.816 110.213 116.825 110.214 116.834V125.932C110.172 126.691 109.843 127.405 109.294 127.93C108.745 128.455 108.017 128.752 107.257 128.76H93.5428L94.992 130.785C95.0023 130.796 95.0084 130.81 95.0084 130.825C95.0084 130.84 95.0023 130.854 94.992 130.865C94.9871 130.87 94.9811 130.874 94.975 130.877C94.9683 130.88 94.961 130.881 94.9543 130.881C94.947 130.881 94.9403 130.88 94.9337 130.877C94.927 130.874 94.9215 130.87 94.916 130.865L93.4 128.746C93.3945 128.738 93.3915 128.728 93.3915 128.718C93.3915 128.707 93.3945 128.697 93.4 128.689C93.4049 128.681 93.4122 128.673 93.4207 128.669C93.4298 128.664 93.4389 128.662 93.4486 128.662H107.275C108.005 128.653 108.704 128.368 109.232 127.864C109.76 127.36 110.078 126.674 110.12 125.946V116.927C108.969 117.378 107.744 117.607 106.508 117.605C105.039 117.608 103.589 117.286 102.259 116.664C100.929 116.041 99.7528 115.133 98.814 114.004C97.8752 112.874 97.1965 111.552 96.8276 110.131C96.4582 108.71 96.4066 107.225 96.677 105.782C96.9473 104.338 97.5325 102.972 98.3911 101.781C99.2497 100.589 100.36 99.6026 101.644 98.8892C102.928 98.1765 104.353 97.7554 105.818 97.6564C107.283 97.5573 108.752 97.7828 110.12 98.3162V89.3562C110.096 88.6155 109.787 87.913 109.256 87.3959C108.726 86.8788 108.016 86.5872 107.275 86.5817H70.8721C70.4985 86.5823 70.129 86.6565 69.7839 86.7999C69.4388 86.9439 69.1252 87.1535 68.8615 87.4184C68.5978 87.6827 68.3888 87.9969 68.246 88.3426C68.1038 88.6878 68.0309 89.0578 68.0315 89.4315V125.816C68.0315 126.57 68.3304 127.293 68.8633 127.827C69.3956 128.36 70.1187 128.661 70.8721 128.662H84.6982C84.7085 128.661 84.7182 128.663 84.7273 128.667C84.7358 128.672 84.7431 128.679 84.7474 128.689C84.7528 128.697 84.7559 128.707 84.7559 128.718C84.7559 128.728 84.7528 128.738 84.7474 128.746L83.2222 130.869C82.3363 132.088 81.8581 133.556 81.8575 135.062C81.8575 136.971 82.6158 138.802 83.966 140.152C85.3155 141.502 87.1469 142.261 89.0561 142.261C90.9652 142.261 92.796 141.502 94.1462 140.152C95.4957 138.802 96.254 136.971 96.254 135.062C96.254 135.048 96.2601 135.034 96.2698 135.024C96.2802 135.014 96.2935 135.009 96.3075 135.009C96.3154 135.008 96.3227 135.009 96.3294 135.011C96.3367 135.013 96.3434 135.018 96.3488 135.023C96.3537 135.027 96.3586 135.033 96.3616 135.04C96.364 135.047 96.3659 135.055 96.3659 135.062C96.3622 136.998 95.5917 138.853 94.224 140.222C92.8556 141.592 91.0005 142.363 89.0646 142.368Z" fill="white"/>
<path d="M152.126 85.1862H140.909C141.832 86.4701 142.383 87.9837 142.502 89.5611C142.62 91.1379 142.301 92.7171 141.579 94.1244C140.858 95.5317 139.763 96.7123 138.413 97.5368C137.064 98.362 135.513 98.7983 133.932 98.7983C132.35 98.7983 130.799 98.362 129.45 97.5368C128.1 96.7123 127.005 95.5317 126.284 94.1244C125.562 92.7171 125.243 91.1379 125.361 89.5611C125.48 87.9837 126.031 86.4701 126.954 85.1862H115.737C114.614 85.1898 113.538 85.637 112.743 86.4306C111.949 87.2241 111.5 88.3003 111.496 89.4232V100.649C110.212 99.7249 108.699 99.1732 107.123 99.0541C105.546 98.935 103.967 99.254 102.56 99.9746C101.153 100.695 99.972 101.79 99.1474 103.139C98.3229 104.489 97.886 106.039 97.886 107.62C97.886 109.201 98.3229 110.752 99.1474 112.1C99.972 113.449 101.153 114.544 102.56 115.265C103.967 115.986 105.546 116.305 107.123 116.186C108.699 116.066 110.212 115.515 111.496 114.591V125.817C111.499 126.941 111.947 128.017 112.742 128.812C113.536 129.607 114.613 130.055 115.737 130.058H152.126C153.25 130.055 154.326 129.606 155.12 128.812C155.914 128.017 156.361 126.94 156.363 125.817V89.4274C156.361 88.3039 155.914 87.2272 155.12 86.4324C154.326 85.6376 153.25 85.1898 152.126 85.1862Z" fill="#263238"/>
<path opacity="0.3" d="M152.126 128.774H115.736C114.952 128.774 114.2 128.462 113.645 127.907C113.091 127.353 112.779 126.601 112.779 125.816V112.089L110.75 113.551C109.66 114.338 108.373 114.808 107.033 114.909C105.692 115.011 104.35 114.74 103.154 114.127C101.957 113.514 100.953 112.582 100.253 111.434C99.5529 110.287 99.1835 108.969 99.1853 107.624C99.1847 107.617 99.1853 107.609 99.1877 107.602C99.1901 107.595 99.1938 107.589 99.1993 107.583C99.2041 107.578 99.2102 107.573 99.2169 107.57C99.2242 107.567 99.2315 107.566 99.2387 107.566C99.2539 107.566 99.2685 107.572 99.2795 107.583C99.2904 107.594 99.2965 107.609 99.2965 107.624C99.2947 108.948 99.6586 110.246 100.348 111.376C101.037 112.506 102.026 113.423 103.204 114.027C104.381 114.631 105.703 114.898 107.023 114.798C108.343 114.699 109.609 114.236 110.683 113.462L112.802 111.937C112.81 111.931 112.82 111.928 112.83 111.928C112.84 111.927 112.85 111.93 112.859 111.934C112.868 111.938 112.875 111.945 112.881 111.953C112.887 111.962 112.89 111.972 112.891 111.981V125.807C112.891 126.562 113.191 127.286 113.724 127.82C114.258 128.353 114.981 128.653 115.736 128.653H152.126C152.88 128.653 153.604 128.353 154.137 127.82C154.671 127.286 154.971 126.562 154.971 125.807V89.4272C154.97 88.6732 154.67 87.9501 154.136 87.4166C153.603 86.8831 152.88 86.5829 152.126 86.5817H143.241C143.828 88.0947 144.037 89.7286 143.85 91.3407C143.664 92.9527 143.087 94.4955 142.17 95.8347C141.253 97.1739 140.023 98.2689 138.588 99.026C137.152 99.7831 135.554 100.179 133.931 100.179C132.308 100.179 130.709 99.7831 129.273 99.026C127.838 98.2689 126.608 97.1739 125.691 95.8347C124.774 94.4955 124.198 92.9527 124.011 91.3407C123.825 89.7286 124.034 88.0947 124.621 86.5817H115.736C114.982 86.5829 114.259 86.8831 113.725 87.4166C113.192 87.9501 112.892 88.6732 112.891 89.4272V103.253C112.89 103.264 112.887 103.275 112.882 103.284C112.876 103.293 112.868 103.301 112.859 103.307C112.85 103.311 112.841 103.313 112.83 103.313C112.82 103.313 112.811 103.311 112.802 103.307L110.683 101.782C109.464 100.897 107.997 100.421 106.491 100.421C106.476 100.421 106.463 100.416 106.453 100.405C106.443 100.396 106.437 100.382 106.437 100.368C106.437 100.36 106.437 100.353 106.44 100.346C106.442 100.339 106.446 100.332 106.451 100.327C106.456 100.321 106.462 100.317 106.469 100.314C106.476 100.311 106.483 100.31 106.491 100.31C108.02 100.309 109.511 100.791 110.75 101.688L112.779 103.151V89.4272C112.78 88.6434 113.092 87.8918 113.647 87.3376C114.201 86.7835 114.952 86.4717 115.736 86.4705H124.701C124.711 86.4705 124.72 86.473 124.728 86.4778C124.737 86.4827 124.744 86.4894 124.75 86.4973C124.753 86.5046 124.755 86.5131 124.755 86.5216C124.755 86.5301 124.753 86.5386 124.75 86.5459C124.286 87.7083 124.05 88.9478 124.054 90.1989C124.109 92.7808 125.173 95.2386 127.018 97.0451C128.864 98.8516 131.344 99.8633 133.927 99.8633C136.509 99.8633 138.989 98.8516 140.834 97.0451C142.679 95.2386 143.743 92.7808 143.799 90.1989C143.802 88.9478 143.566 87.7083 143.103 86.5459C143.099 86.5386 143.096 86.5301 143.096 86.5216C143.096 86.5131 143.099 86.5046 143.103 86.4973C143.108 86.4888 143.115 86.4821 143.124 86.4772C143.133 86.473 143.142 86.4705 143.152 86.4705H152.116C152.9 86.4717 153.652 86.7835 154.206 87.3376C154.76 87.8918 155.072 88.6434 155.073 89.4272V125.816C155.072 126.599 154.762 127.349 154.209 127.903C153.657 128.457 152.908 128.77 152.126 128.774Z" fill="white"/>
</svg>
