<svg width="124" height="109" viewBox="0 0 124 109" fill="none" xmlns="http://www.w3.org/2000/svg">
<path d="M82.4375 25L15.6406 36.9628L15.25 37.3517L81.6562 25.3889L82.4375 25Z" fill="white"/>
<path d="M92.4448 39.7778H30.2427C27.5718 39.7778 25.4062 41.9492 25.4062 44.6277V86.2613C25.4062 88.9398 27.5718 91.1112 30.2427 91.1112H92.4448C95.1158 91.1112 97.2812 88.9398 97.2812 86.2613V44.6277C97.2812 41.9492 95.1158 39.7778 92.4448 39.7778Z" fill="#9FA7B4"/>
<path d="M92.6555 42.8889H28.5312V86.2192H92.6555V42.8889Z" fill="white"/>
<path d="M46.7656 71.5776H35.832V72.2128H46.7656V71.5776Z" fill="#AAC7FF"/>
<path d="M85.5585 71.5776H74.625V72.2128H85.5585V71.5776Z" fill="#AAC7FF"/>
<path d="M46.7656 73.3367H35.832V73.9719H46.7656V73.3367Z" fill="#AAC7FF"/>
<path d="M85.5585 73.3367H74.625V73.9719H85.5585V73.3367Z" fill="#AAC7FF"/>
<path d="M46.7656 67.7778H35.832V68.413H46.7656V67.7778Z" fill="#AAC7FF"/>
<path d="M85.5585 67.7778H74.625V68.413H85.5585V67.7778Z" fill="#AAC7FF"/>
<path d="M46.7656 69.5369H35.832V70.1721H46.7656V69.5369Z" fill="#AAC7FF"/>
<path d="M85.5585 69.5369H74.625V70.1721H85.5585V69.5369Z" fill="#AAC7FF"/>
<path d="M46.7656 75.0986H35.832V75.7338H46.7656V75.0986Z" fill="#AAC7FF"/>
<path d="M85.5585 75.0986H74.625V75.7338H85.5585V75.0986Z" fill="#AAC7FF"/>
<path d="M46.7656 76.8608H35.832V77.496H46.7656V76.8608Z" fill="#AAC7FF"/>
<path d="M85.5585 76.8608H74.625V77.496H85.5585V76.8608Z" fill="#AAC7FF"/>
<path d="M46.7656 78.623H35.832V79.2582H46.7656V78.623Z" fill="#AAC7FF"/>
<path d="M85.5585 78.623H74.625V79.2582H85.5585V78.623Z" fill="#AAC7FF"/>
<path d="M83.2188 22.5974L36.6528 14.1111L35.5625 14.1171L82.2389 22.6666L83.2188 22.5974Z" fill="white"/>
<path d="M9.92154 33.6611L24.6249 16.5158L24.5011 16.4446L9.78125 33.6269L9.92154 33.6611Z" fill="white"/>
<path d="M121.853 39.7778H107.084C105.985 39.7778 105.094 40.682 105.094 41.7973V56.425C105.094 57.5404 105.985 58.4445 107.084 58.4445H121.853C122.953 58.4445 123.844 57.5404 123.844 56.425V41.7973C123.844 40.682 122.953 39.7778 121.853 39.7778Z" fill="#9FA7B4"/>
<path d="M60.6633 65.4446C58.7769 65.439 56.9654 66.1798 55.6277 67.5038C54.2896 68.8277 53.535 70.6265 53.5293 72.5045C53.5237 74.3824 54.2678 76.1856 55.5979 77.5175C56.928 78.8491 58.7352 79.6003 60.6215 79.606V77.139H60.5925C59.6618 77.139 58.7521 76.8642 57.9782 76.3495C57.2043 75.8347 56.6015 75.1034 56.2452 74.2474C55.8891 73.3915 55.7958 72.4496 55.9773 71.5409C56.159 70.6324 56.6071 69.7977 57.2651 69.1426C57.9234 68.4875 58.7618 68.0414 59.6746 67.8605C60.5874 67.6798 61.5335 67.7727 62.3933 68.1272C63.2532 68.4816 63.9881 69.0821 64.5052 69.8523C65.0222 70.6227 65.2982 71.5284 65.2982 72.4547C65.299 72.679 65.2816 72.9028 65.2467 73.1243H67.7475C67.7685 72.9253 67.778 72.7255 67.7765 72.5252C67.777 71.5952 67.5932 70.6743 67.2359 69.815C66.8785 68.9558 66.3546 68.1752 65.694 67.5175C65.0335 66.8599 64.2491 66.3383 63.386 65.9826C62.5227 65.6271 61.5976 65.4441 60.6633 65.4446Z" fill="#AAC7FF"/>
<path d="M67.7477 73.2109C67.5993 74.9784 66.7887 76.6259 65.4771 77.8266C64.1654 79.027 62.4485 79.6931 60.6668 79.6926H60.625V77.2287C61.7516 77.2215 62.8382 76.8122 63.6869 76.0747C64.5358 75.3374 65.0905 74.321 65.25 73.2109H67.7477Z" fill="#0057FF"/>
<path d="M67.7477 73.1243C67.5993 74.8917 66.7887 76.5392 65.4771 77.7399C64.1654 78.9403 62.4485 79.6064 60.6668 79.6059H60.625V77.1389C61.7513 77.1326 62.8376 76.7237 63.6866 75.9868C64.5356 75.25 65.0903 74.2341 65.25 73.1243H67.7477Z" fill="url(#paint0_linear_469_14090)"/>
<path d="M95.293 14.1111H80.5234C79.4242 14.1111 78.5332 15.0152 78.5332 16.1305V30.7583C78.5332 31.8736 79.4242 32.7778 80.5234 32.7778H95.293C96.3922 32.7778 97.2832 31.8736 97.2832 30.7583V16.1305C97.2832 15.0152 96.3922 14.1111 95.293 14.1111Z" fill="#9FA7B4"/>
<path d="M88.721 23.5095C89.13 23.3418 89.4773 23.0669 89.7196 22.7187C89.9617 22.3706 90.0886 21.9645 90.0843 21.5505C90.0854 21.2896 90.0312 21.0311 89.9244 20.7897C89.8176 20.5482 89.6606 20.3286 89.462 20.1434C89.2637 19.9581 89.0275 19.8108 88.7677 19.71C88.5076 19.6091 88.2285 19.5566 87.9467 19.5554C87.6647 19.5543 87.3853 19.6046 87.1244 19.7033C86.8633 19.8021 86.6261 19.9474 86.4258 20.1311C86.2254 20.3147 86.0662 20.533 85.9573 20.7736C85.8483 21.0142 85.7914 21.2722 85.7903 21.5331C85.7788 21.9523 85.9028 22.3651 86.1462 22.7189C86.3893 23.0726 86.7412 23.3513 87.1564 23.5194C83.8553 23.9788 84.0029 27.2984 84.0029 27.2984L91.8127 27.3332C91.8127 27.3332 91.9925 23.9664 88.721 23.5095Z" fill="#42424E"/>
<path d="M36.6992 0.888916H21.9297C20.8305 0.888916 19.9395 1.79304 19.9395 2.90831V17.5361C19.9395 18.6515 20.8305 19.5556 21.9297 19.5556H36.6992C37.7984 19.5556 38.6895 18.6515 38.6895 17.5361V2.90831C38.6895 1.79304 37.7984 0.888916 36.6992 0.888916Z" fill="#9FA7B4"/>
<path d="M30.1273 10.2873C30.5363 10.1196 30.8835 9.84471 31.1259 9.49658C31.3679 9.14847 31.4949 8.74234 31.4906 8.32831C31.4917 8.06745 31.4375 7.80893 31.3306 7.56749C31.2238 7.32607 31.0668 7.10646 30.8682 6.9212C30.6699 6.73595 30.4337 6.58867 30.1739 6.48778C29.9139 6.38693 29.6348 6.33441 29.353 6.33327C29.0709 6.33213 28.7915 6.38238 28.5307 6.48116C28.2696 6.5799 28.0323 6.72528 27.8321 6.90891C27.6316 7.09255 27.4725 7.31088 27.3635 7.55145C27.2546 7.79199 27.1977 8.05007 27.1966 8.31093C27.185 8.7301 27.309 9.14291 27.5524 9.4967C27.7956 9.85047 28.1474 10.1292 28.5626 10.2973C25.2616 10.7566 25.4092 14.0763 25.4092 14.0763L33.2189 14.111C33.2189 14.111 33.3988 10.7442 30.1273 10.2873Z" fill="#42424E"/>
<path d="M17.166 28.1111H2.3965C1.29729 28.1111 0.40625 29.0152 0.40625 30.1305V44.7583C0.40625 45.8736 1.29729 46.7778 2.3965 46.7778H17.166C18.2652 46.7778 19.1562 45.8736 19.1562 44.7583V30.1305C19.1562 29.0152 18.2652 28.1111 17.166 28.1111Z" fill="#9FA7B4"/>
<path d="M10.594 37.5095C11.0031 37.3418 11.3503 37.0669 11.5927 36.7187C11.8347 36.3706 11.9617 35.9645 11.9574 35.5505C11.9585 35.2896 11.9043 35.0311 11.7974 34.7897C11.6906 34.5482 11.5336 34.3286 11.335 34.1434C11.1367 33.9581 10.9005 33.8108 10.6407 33.71C10.3807 33.6091 10.1016 33.5566 9.81978 33.5554C9.53772 33.5543 9.25834 33.6046 8.99748 33.7033C8.73635 33.8021 8.4991 33.9474 8.2989 34.1311C8.09842 34.3147 7.93927 34.533 7.83031 34.7736C7.72135 35.0142 7.66445 35.2722 7.66338 35.5331C7.65184 35.9523 7.77583 36.3651 8.01924 36.7189C8.26239 37.0726 8.61423 37.3513 9.02941 37.5194C5.72839 37.9788 5.87599 41.2984 5.87599 41.2984L13.6857 41.3332C13.6857 41.3332 13.8656 37.9664 10.594 37.5095Z" fill="#42424E"/>
<path d="M112.192 49.7027C111.686 49.7027 111.287 49.5437 110.997 49.226C110.707 48.9026 110.562 48.4401 110.562 47.8386C110.562 47.2485 110.707 46.7944 110.997 46.4767C111.287 46.1589 111.686 46 112.192 46C112.698 46 113.096 46.1617 113.386 46.4852C113.676 46.8029 113.821 47.257 113.821 47.8471C113.821 48.4487 113.676 48.9083 113.386 49.226C113.096 49.5437 112.698 49.7027 112.192 49.7027ZM112.064 52.1626L115.595 46.1021H116.882L113.36 52.1626H112.064ZM112.192 48.7579C112.328 48.7579 112.425 48.6926 112.482 48.5621C112.538 48.4259 112.567 48.1876 112.567 47.8471C112.567 47.5236 112.535 47.2938 112.473 47.1576C112.41 47.0157 112.317 46.9448 112.192 46.9448C112.066 46.9448 111.973 47.0157 111.91 47.1576C111.853 47.2938 111.825 47.5236 111.825 47.8471C111.825 48.1818 111.853 48.4174 111.91 48.5536C111.973 48.6898 112.066 48.7579 112.192 48.7579ZM116.755 52.2222C116.249 52.2222 115.853 52.0633 115.569 51.7456C115.285 51.4221 115.143 50.9597 115.143 50.3581C115.143 49.768 115.285 49.3139 115.569 48.9962C115.853 48.6785 116.249 48.5195 116.755 48.5195C117.266 48.5195 117.664 48.6785 117.949 48.9962C118.233 49.3139 118.375 49.7708 118.375 50.3666C118.375 50.9682 118.233 51.4278 117.949 51.7456C117.664 52.0633 117.266 52.2222 116.755 52.2222ZM116.755 51.2774C116.885 51.2774 116.979 51.2093 117.036 51.0731C117.098 50.9369 117.13 50.7014 117.13 50.3666C117.13 50.0432 117.098 49.8133 117.036 49.6772C116.973 49.5352 116.88 49.4644 116.755 49.4644C116.629 49.4644 116.536 49.5352 116.473 49.6772C116.416 49.8133 116.388 50.0432 116.388 50.3666C116.388 50.7014 116.416 50.9369 116.473 51.0731C116.536 51.2093 116.629 51.2774 116.755 51.2774Z" fill="#42424E"/>
<path d="M19.2344 64.4995L22.5464 57.5757L30.1971 62.026L24.9313 72.8395L20.8244 70.5644L19.2344 64.4995Z" fill="#42424E"/>
<path d="M19.8633 63.8074L22.6473 58.4343L28.9397 62.0933L24.1696 71.6216L20.9253 69.1483L19.8633 63.8074Z" fill="white"/>
<path d="M19.6406 80.8427L21.8388 94.3827L19.6406 107.906L20.8799 108.868L18.8457 108.781L19.0228 94.8022L15.2247 84.9567L15.6851 95.1804L13.4707 108.361L14.4363 108.887L12.2282 108.8L13.1744 95.1322L11.4526 86.9589C11.4526 86.9589 9.9333 81.0188 11.4526 80.0514C12.9716 79.0837 19.6406 80.8427 19.6406 80.8427Z" fill="#9FA7B4"/>
<path d="M11.6038 60.5327C11.6038 60.5327 16.9498 61.1288 18.2727 62.0899C19.5957 63.0512 20.9668 64.5762 20.9668 65.8065C20.9668 67.0368 21.4976 73.1019 21.4976 73.1019L23.7057 68.0045L24.9417 68.706C24.9417 68.706 23.5288 77.5425 22.7337 77.8054C21.9388 78.068 19.7759 77.4848 19.7759 77.4848L19.6405 80.8266C19.6405 80.8266 12.3987 81.5284 11.43 80.0352C10.461 78.5421 8.17273 62.9741 11.6038 60.5327Z" fill="#42424E"/>
<path d="M16.1943 58.8636C16.1943 58.8636 15.5507 60.2189 15.8952 61.3274C15.8952 61.3274 13.9091 61.0585 13.8512 60.8245C13.7933 60.5907 14.0991 58.5175 13.8707 57.8801C13.642 57.2423 16.1943 58.8636 16.1943 58.8636Z" fill="#EEA886"/>
<path d="M14.0585 53.3466C14.8406 53.026 16.981 52.5455 17.7728 55.727C18.5646 58.9085 17.3606 59.0623 16.1151 59.0751C14.8696 59.0879 12.771 57.0726 12.5746 56.4221C12.3783 55.7719 11.8344 54.3012 14.0585 53.3466Z" fill="#EEA886"/>
<path d="M23.8194 66.5308C23.8171 66.444 23.8279 66.3577 23.8514 66.2743C23.9255 66.0405 24.1734 65.9122 24.3085 65.7039C24.379 65.5705 24.4225 65.4248 24.4372 65.2747C24.4479 65.142 24.4838 65.0126 24.5435 64.8935C24.5733 64.8345 24.6194 64.7853 24.6763 64.7516C24.7335 64.7181 24.7991 64.7018 24.8652 64.7044C25.0457 64.7301 25.139 64.9287 25.1872 65.1017C25.5048 66.1541 25.4594 67.2818 25.0585 68.3056C25.0006 68.4562 24.8942 68.6261 24.7365 68.6261C24.6817 68.619 24.6291 68.6006 24.5822 68.5715C24.2603 68.3985 23.8032 68.2513 23.7871 67.8764C23.7709 67.4181 23.8097 66.9697 23.8194 66.5308Z" fill="#EEA886"/>
<path d="M24.5654 65.4127L23.0653 64.0125L22.9336 64.2753L24.3078 65.7105C24.3078 65.7105 24.588 65.6145 24.5654 65.4127Z" fill="#42424E"/>
<path d="M19.7758 77.5009C19.7758 77.5009 19.0001 77.1804 18.7361 74.9377C18.4721 72.6949 18.1406 70.3882 18.1406 70.3882V80.9291H19.9078L19.7758 77.5009Z" fill="url(#paint1_linear_469_14090)"/>
<path d="M16.4516 52.6513C16.3165 52.3012 16.0578 52.0118 15.7241 51.8375C15.6029 51.7615 15.4642 51.7176 15.3211 51.7097C15.1781 51.7017 15.0356 51.7303 14.9067 51.7926C14.829 51.6877 14.7277 51.6027 14.6109 51.5443C14.494 51.4858 14.3648 51.4555 14.234 51.4562C14.0141 51.4241 13.7898 51.4588 13.5901 51.5555C13.4902 51.6083 13.4097 51.6915 13.3605 51.7928C13.3113 51.8944 13.2959 52.0087 13.3166 52.1195C12.9965 52.0736 12.6712 52.0736 12.351 52.1195C12.2513 52.1292 12.1549 52.1598 12.0678 52.2091C11.9632 52.2923 11.885 52.4035 11.8425 52.5296C11.6656 52.9341 11.5726 53.3699 11.569 53.8112C11.4021 53.9293 11.2642 54.0834 11.1658 54.2621C11.0671 54.4407 11.0102 54.6393 10.9991 54.8429C10.9909 55.047 11.0286 55.2504 11.1094 55.4383C11.1901 55.6263 11.3119 55.7937 11.4659 55.929C11.4052 56.1382 11.3893 56.358 11.4193 56.5736C11.4493 56.7895 11.5244 56.9967 11.6397 57.1817C11.7594 57.3644 11.9324 57.5066 12.1355 57.589C12.3385 57.6714 12.5617 57.6903 12.7758 57.6431C12.7758 57.8353 12.8017 58.0693 12.9788 58.1558C13.0408 58.1811 13.108 58.192 13.1749 58.1877C13.3643 58.1846 13.5509 58.1456 13.7255 58.0723C13.6916 58.2201 13.6916 58.3732 13.7255 58.521C13.7434 58.5934 13.7844 58.6583 13.8424 58.7055C13.9006 58.7529 13.9723 58.7802 14.0472 58.7836C14.1569 58.7614 14.2563 58.7039 14.3304 58.6202C14.5409 58.4592 14.7031 58.2443 14.8003 57.9986C14.8328 57.7682 14.8521 57.5362 14.8585 57.3035C14.9097 57.0312 15.0835 56.7653 15.0128 56.4993C14.942 56.2334 14.72 56.1148 14.5493 55.9387C14.3789 55.7624 14.2758 55.4485 14.4624 55.2979C14.649 55.1471 14.9228 55.2818 15.0902 55.4485C15.1738 55.5283 15.2929 55.6215 15.3893 55.5605C15.486 55.4995 15.457 55.3714 15.4216 55.2754C15.3296 55.0682 15.2553 54.8539 15.1994 54.6347C15.1709 54.5214 15.1725 54.4027 15.204 54.2904C15.2355 54.1779 15.2963 54.0758 15.3798 53.9939C15.6567 53.7599 16.104 53.8913 16.3744 53.6734C16.6446 53.4554 16.5546 52.93 16.4516 52.6513Z" fill="#3E3E54"/>
<rect x="36.0625" y="51.9446" width="49" height="6" rx="0.5" stroke="#AAC7FF"/>
<path d="M39.5217 54.8199V55.1814C39.5217 55.3546 39.5044 55.5024 39.4698 55.625C39.4362 55.7465 39.3874 55.8452 39.3233 55.9212C39.2592 55.9972 39.1824 56.0529 39.0929 56.0883C39.0044 56.1237 38.9052 56.1415 38.7953 56.1415C38.7079 56.1415 38.6265 56.1303 38.5512 56.108C38.4769 56.0858 38.4098 56.0508 38.3498 56.0032C38.2898 55.9556 38.2384 55.8944 38.1957 55.8194C38.154 55.7435 38.1214 55.6528 38.098 55.5475C38.0756 55.4422 38.0645 55.3201 38.0645 55.1814V54.8199C38.0645 54.6457 38.0817 54.4988 38.1163 54.3793C38.1509 54.2588 38.2003 54.1611 38.2643 54.0861C38.3284 54.0102 38.4047 53.955 38.4932 53.9205C38.5827 53.8861 38.6824 53.8689 38.7923 53.8689C38.8808 53.8689 38.9622 53.88 39.0364 53.9023C39.1117 53.9236 39.1789 53.9575 39.2379 54.0041C39.2979 54.0507 39.3487 54.1114 39.3904 54.1864C39.4332 54.2603 39.4657 54.3499 39.4881 54.4553C39.5105 54.5596 39.5217 54.6811 39.5217 54.8199ZM39.1539 55.233V54.7652C39.1539 54.6771 39.1488 54.5996 39.1387 54.5327C39.1285 54.4649 39.1132 54.4077 39.0929 54.3611C39.0736 54.3135 39.0492 54.275 39.0197 54.2456C38.9902 54.2153 38.9566 54.1935 38.9189 54.1803C38.8813 54.1661 38.8391 54.159 38.7923 54.159C38.7353 54.159 38.6845 54.1702 38.6397 54.1925C38.595 54.2137 38.5573 54.2482 38.5268 54.2958C38.4963 54.3434 38.4729 54.4062 38.4566 54.4841C38.4413 54.5611 38.4337 54.6548 38.4337 54.7652V55.233C38.4337 55.3222 38.4388 55.4007 38.449 55.4685C38.4591 55.5364 38.4744 55.5946 38.4948 55.6432C38.5151 55.6908 38.5395 55.7303 38.568 55.7617C38.5975 55.7921 38.6311 55.8144 38.6687 55.8285C38.7074 55.8427 38.7496 55.8498 38.7953 55.8498C38.8533 55.8498 38.9047 55.8387 38.9495 55.8164C38.9942 55.7941 39.0319 55.7587 39.0624 55.71C39.0929 55.6604 39.1158 55.5961 39.131 55.5171C39.1463 55.4381 39.1539 55.3434 39.1539 55.233Z" fill="#AAC7FF"/>
<path d="M40.1519 54.4674L40.4662 55.0128L40.7866 54.4674H41.191L40.6905 55.2741L41.2108 56.1111H40.8065L40.4708 55.5429L40.1351 56.1111H39.7292L40.248 55.2741L39.749 54.4674H40.1519Z" fill="#AAC7FF"/>
<path d="M42.9335 55.8088V56.1111H41.754V55.8088H42.9335ZM41.8624 53.8993V56.1111H41.4794V53.8993H41.8624ZM42.7794 54.8229V55.1206H41.754V54.8229H42.7794ZM42.9259 53.8993V54.2031H41.754V53.8993H42.9259Z" fill="#AAC7FF"/>
<path d="M44.0795 55.1115H43.5134L43.5103 54.8335H44.0047C44.0881 54.8335 44.1588 54.8214 44.2168 54.7971C44.2758 54.7717 44.3206 54.7358 44.3511 54.6892C44.3816 54.6416 44.3969 54.5844 44.3969 54.5176C44.3969 54.4436 44.3826 54.3834 44.3541 54.3368C44.3256 54.2902 44.2819 54.2563 44.2229 54.235C44.1649 54.2137 44.0907 54.2031 44.0001 54.2031H43.6293V56.1111H43.2463V53.8993H44.0001C44.1222 53.8993 44.231 53.9109 44.3267 53.9342C44.4233 53.9575 44.5052 53.994 44.5723 54.0436C44.6405 54.0922 44.6919 54.154 44.7264 54.2289C44.762 54.3039 44.7798 54.393 44.7798 54.4963C44.7798 54.5874 44.758 54.671 44.7142 54.7469C44.6705 54.8219 44.6059 54.8831 44.5204 54.9307C44.435 54.9783 44.3287 55.0067 44.2015 55.0158L44.0795 55.1115ZM44.0627 56.1111H43.3928L43.5652 55.8088H44.0627C44.1491 55.8088 44.2214 55.7946 44.2794 55.7662C44.3373 55.7369 44.3806 55.6969 44.4091 55.6462C44.4386 55.5946 44.4533 55.5343 44.4533 55.4655C44.4533 55.3936 44.4406 55.3313 44.4152 55.2786C44.3897 55.2249 44.3495 55.1839 44.2946 55.1556C44.2397 55.1262 44.168 55.1115 44.0795 55.1115H43.6492L43.6522 54.8335H44.2122L44.2992 54.9383C44.4213 54.9424 44.5215 54.9692 44.5998 55.0189C44.6791 55.0685 44.7381 55.1328 44.7768 55.2118C44.8155 55.2908 44.8348 55.3758 44.8348 55.467C44.8348 55.6078 44.8038 55.7257 44.7417 55.8209C44.6807 55.9161 44.5927 55.9885 44.4777 56.0382C44.3628 56.0868 44.2244 56.1111 44.0627 56.1111Z" fill="#AAC7FF"/>
<path d="M46.6521 55.8194V56.1111H45.1628V55.8604L45.8861 55.0751C45.9655 54.9859 46.028 54.909 46.0738 54.8442C46.1196 54.7793 46.1516 54.7211 46.1699 54.6695C46.1892 54.6168 46.1989 54.5657 46.1989 54.516C46.1989 54.4462 46.1857 54.3849 46.1592 54.3322C46.1338 54.2785 46.0962 54.2365 46.0463 54.2061C45.9965 54.1747 45.936 54.159 45.8647 54.159C45.7823 54.159 45.7132 54.1768 45.6572 54.2122C45.6013 54.2477 45.5591 54.2968 45.5306 54.3596C45.5021 54.4213 45.4879 54.4922 45.4879 54.5722H45.1201C45.1201 54.4436 45.1496 54.3261 45.2086 54.2198C45.2676 54.1125 45.3531 54.0274 45.465 53.9646C45.5769 53.9008 45.7116 53.8689 45.8693 53.8689C46.0178 53.8689 46.144 53.8937 46.2477 53.9433C46.3515 53.993 46.4303 54.0633 46.4843 54.1545C46.5392 54.2456 46.5667 54.3535 46.5667 54.4781C46.5667 54.5469 46.5555 54.6153 46.5331 54.6831C46.5107 54.751 46.4787 54.8188 46.437 54.8867C46.3963 54.9535 46.3479 55.0209 46.292 55.0887C46.236 55.1556 46.1745 55.2234 46.1074 55.2923L45.6267 55.8194H46.6521Z" fill="#AAC7FF"/>
<path d="M47.6348 55.8498C47.6948 55.8498 47.7487 55.8382 47.7965 55.8149C47.8453 55.7906 47.8845 55.7571 47.914 55.7146C47.9445 55.6721 47.9613 55.6229 47.9644 55.5672H48.3107C48.3087 55.6736 48.2772 55.7703 48.2161 55.8574C48.1551 55.9445 48.0742 56.0139 47.9735 56.0655C47.8728 56.1161 47.7614 56.1415 47.6393 56.1415C47.5132 56.1415 47.4033 56.1202 47.3098 56.0777C47.2162 56.0341 47.1383 55.9744 47.0763 55.8984C47.0142 55.8225 46.9674 55.7349 46.9359 55.6356C46.9054 55.5364 46.8901 55.43 46.8901 55.3166V55.2634C46.8901 55.15 46.9054 55.0437 46.9359 54.9444C46.9674 54.8442 47.0142 54.756 47.0763 54.6801C47.1383 54.6041 47.2162 54.5449 47.3098 54.5024C47.4033 54.4588 47.5127 54.437 47.6378 54.437C47.7701 54.437 47.886 54.4634 47.9857 54.516C48.0854 54.5677 48.1637 54.6401 48.2207 54.7333C48.2787 54.8254 48.3087 54.9328 48.3107 55.0553H47.9644C47.9613 54.9945 47.946 54.9399 47.9186 54.8912C47.8921 54.8416 47.8545 54.8021 47.8057 54.7728C47.7579 54.7434 47.7004 54.7287 47.6332 54.7287C47.559 54.7287 47.4974 54.7439 47.4486 54.7743C47.3998 54.8036 47.3616 54.8442 47.3342 54.8958C47.3067 54.9464 47.2869 55.0037 47.2747 55.0675C47.2635 55.1303 47.2579 55.1956 47.2579 55.2634V55.3166C47.2579 55.3844 47.2635 55.4503 47.2747 55.5141C47.2858 55.5779 47.3052 55.6351 47.3326 55.6857C47.3611 55.7354 47.3998 55.7754 47.4486 55.8057C47.4974 55.8351 47.5595 55.8498 47.6348 55.8498Z" fill="#AAC7FF"/>
<path d="M48.8677 55.8225H48.8982C49.0386 55.8225 49.1556 55.8042 49.2491 55.7678C49.3438 55.7303 49.419 55.6786 49.475 55.6128C49.5309 55.547 49.5711 55.4695 49.5955 55.3804C49.6199 55.2913 49.6321 55.1946 49.6321 55.0903V54.709C49.6321 54.6188 49.6225 54.5398 49.6031 54.472C49.5848 54.4031 49.5584 54.3459 49.5238 54.3003C49.4902 54.2537 49.4511 54.2188 49.4063 54.1955C49.3626 54.1722 49.3153 54.1606 49.2644 54.1606C49.2085 54.1606 49.1581 54.1732 49.1133 54.1985C49.0696 54.2228 49.0325 54.2568 49.002 54.3003C48.9725 54.3429 48.9496 54.393 48.9333 54.4507C48.918 54.5074 48.9104 54.5682 48.9104 54.633C48.9104 54.6938 48.9175 54.7525 48.9318 54.8092C48.947 54.8649 48.9694 54.9145 48.9989 54.9581C49.0284 55.0016 49.0655 55.0361 49.1103 55.0614C49.155 55.0867 49.2074 55.0994 49.2675 55.0994C49.3244 55.0994 49.3768 55.0887 49.4246 55.0675C49.4724 55.0452 49.5141 55.0153 49.5497 54.9778C49.5853 54.9404 49.6133 54.8983 49.6337 54.8518C49.654 54.8052 49.6652 54.7576 49.6672 54.709L49.8076 54.7515C49.8076 54.8285 49.7913 54.9044 49.7588 54.9794C49.7273 55.0533 49.683 55.1211 49.626 55.1829C49.5701 55.2437 49.5045 55.2923 49.4292 55.3287C49.3549 55.3652 49.2741 55.3834 49.1866 55.3834C49.0808 55.3834 48.9872 55.3637 48.9058 55.3242C48.8255 55.2837 48.7583 55.229 48.7044 55.1601C48.6515 55.0913 48.6118 55.0123 48.5854 54.9231C48.5589 54.834 48.5457 54.7404 48.5457 54.6421C48.5457 54.5358 48.562 54.436 48.5945 54.3429C48.6271 54.2497 48.6744 54.1677 48.7365 54.0968C48.7985 54.0249 48.8738 53.9692 48.9623 53.9297C49.0518 53.8892 49.153 53.8689 49.2659 53.8689C49.386 53.8689 49.4913 53.8922 49.5818 53.9388C49.6723 53.9854 49.7486 54.0497 49.8107 54.1317C49.8727 54.2137 49.9195 54.3089 49.951 54.4173C49.9826 54.5257 49.9984 54.6421 49.9984 54.7667V54.8958C49.9984 55.0264 49.9867 55.1525 49.9633 55.2741C49.9399 55.3946 49.9017 55.5065 49.8488 55.6098C49.7969 55.7121 49.7283 55.8022 49.6428 55.8802C49.5584 55.9571 49.4546 56.0174 49.3315 56.061C49.2095 56.1035 49.066 56.1248 48.9012 56.1248H48.8677V55.8225Z" fill="#AAC7FF"/>
<path d="M50.6438 55.8225H50.6743C50.8147 55.8225 50.9317 55.8042 51.0253 55.7678C51.1199 55.7303 51.1951 55.6786 51.2511 55.6128C51.307 55.547 51.3472 55.4695 51.3716 55.3804C51.3961 55.2913 51.4083 55.1946 51.4083 55.0903V54.709C51.4083 54.6188 51.3986 54.5398 51.3793 54.472C51.361 54.4031 51.3345 54.3459 51.2999 54.3003C51.2664 54.2537 51.2272 54.2188 51.1824 54.1955C51.1387 54.1722 51.0914 54.1606 51.0405 54.1606C50.9846 54.1606 50.9342 54.1732 50.8895 54.1985C50.8457 54.2228 50.8086 54.2568 50.7781 54.3003C50.7486 54.3429 50.7257 54.393 50.7094 54.4507C50.6942 54.5074 50.6865 54.5682 50.6865 54.633C50.6865 54.6938 50.6936 54.7525 50.7079 54.8092C50.7231 54.8649 50.7455 54.9145 50.775 54.9581C50.8045 55.0016 50.8417 55.0361 50.8864 55.0614C50.9312 55.0867 50.9836 55.0994 51.0436 55.0994C51.1005 55.0994 51.1529 55.0887 51.2007 55.0675C51.2486 55.0452 51.2903 55.0153 51.3259 54.9778C51.3615 54.9404 51.3894 54.8983 51.4098 54.8518C51.4301 54.8052 51.4413 54.7576 51.4434 54.709L51.5837 54.7515C51.5837 54.8285 51.5675 54.9044 51.5349 54.9794C51.5034 55.0533 51.4591 55.1211 51.4022 55.1829C51.3462 55.2437 51.2806 55.2923 51.2053 55.3287C51.1311 55.3652 51.0502 55.3834 50.9627 55.3834C50.8569 55.3834 50.7633 55.3637 50.6819 55.3242C50.6016 55.2837 50.5344 55.229 50.4805 55.1601C50.4276 55.0913 50.388 55.0123 50.3615 54.9231C50.3351 54.834 50.3218 54.7404 50.3218 54.6421C50.3218 54.5358 50.3381 54.436 50.3707 54.3429C50.4032 54.2497 50.4505 54.1677 50.5126 54.0968C50.5746 54.0249 50.6499 53.9692 50.7384 53.9297C50.8279 53.8892 50.9291 53.8689 51.0421 53.8689C51.1621 53.8689 51.2674 53.8922 51.3579 53.9388C51.4484 53.9854 51.5247 54.0497 51.5868 54.1317C51.6488 54.2137 51.6956 54.3089 51.7272 54.4173C51.7587 54.5257 51.7745 54.6421 51.7745 54.7667V54.8958C51.7745 55.0264 51.7628 55.1525 51.7394 55.2741C51.716 55.3946 51.6778 55.5065 51.6249 55.6098C51.5731 55.7121 51.5044 55.8022 51.4189 55.8802C51.3345 55.9571 51.2308 56.0174 51.1077 56.061C50.9856 56.1035 50.8422 56.1248 50.6774 56.1248H50.6438V55.8225Z" fill="#AAC7FF"/>
<path d="M53.5994 53.8993V54.0998L52.7114 56.1111H52.3238L53.2103 54.1909H52.0598V53.8993H53.5994Z" fill="#AAC7FF"/>
<path d="M55.3481 54.8199V55.1814C55.3481 55.3546 55.3308 55.5024 55.2962 55.625C55.2626 55.7465 55.2138 55.8452 55.1497 55.9212C55.0856 55.9972 55.0088 56.0529 54.9193 56.0883C54.8308 56.1237 54.7316 56.1415 54.6218 56.1415C54.5343 56.1415 54.4529 56.1303 54.3776 56.108C54.3034 56.0858 54.2362 56.0508 54.1762 56.0032C54.1162 55.9556 54.0648 55.8944 54.0221 55.8194C53.9804 55.7435 53.9478 55.6528 53.9244 55.5475C53.9021 55.4422 53.8909 55.3201 53.8909 55.1814V54.8199C53.8909 54.6457 53.9082 54.4988 53.9427 54.3793C53.9773 54.2588 54.0267 54.1611 54.0908 54.0861C54.1548 54.0102 54.2311 53.955 54.3196 53.9205C54.4092 53.8861 54.5089 53.8689 54.6187 53.8689C54.7072 53.8689 54.7886 53.88 54.8629 53.9023C54.9381 53.9236 55.0053 53.9575 55.0643 54.0041C55.1243 54.0507 55.1751 54.1114 55.2169 54.1864C55.2596 54.2603 55.2921 54.3499 55.3145 54.4553C55.3369 54.5596 55.3481 54.6811 55.3481 54.8199ZM54.9803 55.233V54.7652C54.9803 54.6771 54.9753 54.5996 54.9651 54.5327C54.9549 54.4649 54.9397 54.4077 54.9193 54.3611C54.9 54.3135 54.8756 54.275 54.8461 54.2456C54.8166 54.2153 54.783 54.1935 54.7454 54.1803C54.7077 54.1661 54.6655 54.159 54.6187 54.159C54.5617 54.159 54.5109 54.1702 54.4661 54.1925C54.4214 54.2137 54.3837 54.2482 54.3532 54.2958C54.3227 54.3434 54.2993 54.4062 54.283 54.4841C54.2678 54.5611 54.2601 54.6548 54.2601 54.7652V55.233C54.2601 55.3222 54.2652 55.4007 54.2754 55.4685C54.2856 55.5364 54.3008 55.5946 54.3212 55.6432C54.3415 55.6908 54.3659 55.7303 54.3944 55.7617C54.4239 55.7921 54.4575 55.8144 54.4951 55.8285C54.5338 55.8427 54.576 55.8498 54.6218 55.8498C54.6797 55.8498 54.7311 55.8387 54.7759 55.8164C54.8206 55.7941 54.8583 55.7587 54.8888 55.71C54.9193 55.6604 54.9422 55.5961 54.9575 55.5171C54.9727 55.4381 54.9803 55.3434 54.9803 55.233Z" fill="#AAC7FF"/>
<path d="M56.3719 55.8498C56.432 55.8498 56.4859 55.8382 56.5337 55.8149C56.5825 55.7906 56.6217 55.7571 56.6512 55.7146C56.6817 55.6721 56.6985 55.6229 56.7015 55.5672H57.0479C57.0459 55.6736 57.0143 55.7703 56.9533 55.8574C56.8923 55.9445 56.8114 56.0139 56.7107 56.0655C56.61 56.1161 56.4986 56.1415 56.3765 56.1415C56.2504 56.1415 56.1405 56.1202 56.0469 56.0777C55.9533 56.0341 55.8755 55.9744 55.8135 55.8984C55.7514 55.8225 55.7046 55.7349 55.6731 55.6356C55.6426 55.5364 55.6273 55.43 55.6273 55.3166V55.2634C55.6273 55.15 55.6426 55.0437 55.6731 54.9444C55.7046 54.8442 55.7514 54.756 55.8135 54.6801C55.8755 54.6041 55.9533 54.5449 56.0469 54.5024C56.1405 54.4588 56.2499 54.437 56.375 54.437C56.5072 54.437 56.6232 54.4634 56.7229 54.516C56.8226 54.5677 56.9009 54.6401 56.9579 54.7333C57.0159 54.8254 57.0459 54.9328 57.0479 55.0553H56.7015C56.6985 54.9945 56.6832 54.9399 56.6558 54.8912C56.6293 54.8416 56.5917 54.8021 56.5428 54.7728C56.495 54.7434 56.4376 54.7287 56.3704 54.7287C56.2962 54.7287 56.2346 54.7439 56.1858 54.7743C56.137 54.8036 56.0988 54.8442 56.0714 54.8958C56.0439 54.9464 56.024 55.0037 56.0118 55.0675C56.0007 55.1303 55.9951 55.1956 55.9951 55.2634V55.3166C55.9951 55.3844 56.0007 55.4503 56.0118 55.5141C56.023 55.5779 56.0424 55.6351 56.0698 55.6857C56.0983 55.7354 56.137 55.7754 56.1858 55.8057C56.2346 55.8351 56.2967 55.8498 56.3719 55.8498Z" fill="#AAC7FF"/>
<path d="M58.0123 56.1111H57.5377L57.5408 55.8088H58.0123C58.1496 55.8088 58.2645 55.7789 58.3571 55.7192C58.4507 55.6594 58.5209 55.5738 58.5677 55.4624C58.6155 55.351 58.6394 55.2184 58.6394 55.0644V54.9444C58.6394 54.8249 58.6257 54.7191 58.5982 54.6269C58.5718 54.5348 58.5321 54.4573 58.4792 54.3945C58.4273 54.3317 58.3632 54.2841 58.2869 54.2517C58.2116 54.2193 58.1247 54.2031 58.026 54.2031H57.5286V53.8993H58.026C58.1735 53.8993 58.3083 53.9241 58.4304 53.9737C58.5524 54.0223 58.6577 54.0927 58.7462 54.1849C58.8357 54.277 58.9044 54.3874 58.9522 54.516C59 54.6446 59.0239 54.7885 59.0239 54.9475V55.0644C59.0239 55.2234 59 55.3672 58.9522 55.4958C58.9044 55.6245 58.8357 55.7349 58.7462 55.827C58.6567 55.9182 58.5499 55.9885 58.4258 56.0382C58.3027 56.0868 58.1649 56.1111 58.0123 56.1111ZM57.7498 53.8993V56.1111H57.3668V53.8993H57.7498Z" fill="#AAC7FF"/>
<path d="M60.8397 55.8194V56.1111H59.3505V55.8604L60.0737 55.0751C60.1531 54.9859 60.2156 54.909 60.2614 54.8442C60.3072 54.7793 60.3392 54.7211 60.3575 54.6695C60.3769 54.6168 60.3865 54.5657 60.3865 54.516C60.3865 54.4462 60.3733 54.3849 60.3469 54.3322C60.3214 54.2785 60.2838 54.2365 60.2339 54.2061C60.1841 54.1747 60.1236 54.159 60.0524 54.159C59.97 54.159 59.9008 54.1768 59.8448 54.2122C59.7889 54.2477 59.7467 54.2968 59.7182 54.3596C59.6897 54.4213 59.6755 54.4922 59.6755 54.5722H59.3077C59.3077 54.4436 59.3372 54.3261 59.3962 54.2198C59.4552 54.1125 59.5407 54.0274 59.6526 53.9646C59.7645 53.9008 59.8993 53.8689 60.0569 53.8689C60.2055 53.8689 60.3316 53.8937 60.4354 53.9433C60.5391 53.993 60.618 54.0633 60.6719 54.1545C60.7268 54.2456 60.7543 54.3535 60.7543 54.4781C60.7543 54.5469 60.7431 54.6153 60.7207 54.6831C60.6983 54.751 60.6663 54.8188 60.6246 54.8867C60.5839 54.9535 60.5356 55.0209 60.4796 55.0887C60.4237 55.1556 60.3621 55.2234 60.295 55.2923L59.8143 55.8194H60.8397Z" fill="#AAC7FF"/>
<path d="M61.5126 55.0827L61.2197 55.0113L61.3402 53.8993H62.538V54.2092H61.6454L61.5844 54.7515C61.6189 54.7312 61.6667 54.7115 61.7278 54.6922C61.7888 54.672 61.8585 54.6619 61.9368 54.6619C62.0416 54.6619 62.1352 54.6791 62.2176 54.7135C62.301 54.7469 62.3717 54.7961 62.4297 54.8609C62.4877 54.9247 62.5319 55.0026 62.5624 55.0948C62.593 55.186 62.6082 55.2887 62.6082 55.4032C62.6082 55.5055 62.593 55.6012 62.5624 55.6903C62.5329 55.7794 62.4882 55.8579 62.4282 55.9258C62.3681 55.9936 62.2924 56.0468 62.2008 56.0853C62.1103 56.1227 62.003 56.1415 61.8788 56.1415C61.7863 56.1415 61.6973 56.1283 61.6118 56.102C61.5274 56.0746 61.4516 56.0346 61.3845 55.982C61.3173 55.9283 61.2634 55.8625 61.2227 55.7845C61.182 55.7055 61.1586 55.6148 61.1525 55.5126H61.5126C61.5218 55.5845 61.5416 55.6457 61.5721 55.6964C61.6037 55.746 61.6454 55.784 61.6973 55.8103C61.7491 55.8366 61.8092 55.8498 61.8773 55.8498C61.9394 55.8498 61.9928 55.8392 62.0375 55.8179C62.0823 55.7956 62.1194 55.7642 62.1489 55.7237C62.1794 55.6822 62.2018 55.6336 62.2161 55.5779C62.2313 55.5222 62.239 55.4604 62.239 55.3926C62.239 55.3277 62.2303 55.2685 62.213 55.2148C62.1967 55.1611 62.1718 55.1146 62.1382 55.0751C62.1057 55.0356 62.0645 55.0052 62.0146 54.9839C61.9648 54.9616 61.9073 54.9505 61.8422 54.9505C61.7547 54.9505 61.6876 54.9632 61.6408 54.9885C61.595 55.0138 61.5523 55.0452 61.5126 55.0827Z" fill="#AAC7FF"/>
<path d="M63.4215 56.1111H63.0538V54.3094C63.0538 54.1869 63.0767 54.0841 63.1224 54.0011C63.1692 53.917 63.2359 53.8537 63.3223 53.8112C63.4088 53.7676 63.511 53.7458 63.629 53.7458C63.6656 53.7458 63.7018 53.7484 63.7374 53.7534C63.773 53.7575 63.8076 53.7641 63.8411 53.7732L63.832 54.0557C63.8116 54.0507 63.7892 54.0471 63.7648 54.0451C63.7414 54.0431 63.716 54.0421 63.6885 54.0421C63.6326 54.0421 63.5843 54.0527 63.5436 54.074C63.5039 54.0942 63.4734 54.1241 63.452 54.1636C63.4317 54.2031 63.4215 54.2517 63.4215 54.3094V56.1111ZM63.7618 54.4674V54.7348H62.8005V54.4674H63.7618Z" fill="#AAC7FF"/>
<path d="M64.3035 55.8225H64.334C64.4744 55.8225 64.5913 55.8042 64.6849 55.7678C64.7795 55.7303 64.8548 55.6786 64.9108 55.6128C64.9667 55.547 65.0069 55.4695 65.0313 55.3804C65.0557 55.2913 65.0679 55.1946 65.0679 55.0903V54.709C65.0679 54.6188 65.0583 54.5398 65.0389 54.472C65.0206 54.4031 64.9942 54.3459 64.9596 54.3003C64.926 54.2537 64.8869 54.2188 64.8421 54.1955C64.7984 54.1722 64.7511 54.1606 64.7002 54.1606C64.6442 54.1606 64.5939 54.1732 64.5491 54.1985C64.5054 54.2228 64.4683 54.2568 64.4377 54.3003C64.4082 54.3429 64.3854 54.393 64.3691 54.4507C64.3538 54.5074 64.3462 54.5682 64.3462 54.633C64.3462 54.6938 64.3533 54.7525 64.3676 54.8092C64.3828 54.8649 64.4052 54.9145 64.4347 54.9581C64.4642 55.0016 64.5013 55.0361 64.5461 55.0614C64.5908 55.0867 64.6432 55.0994 64.7032 55.0994C64.7602 55.0994 64.8126 55.0887 64.8604 55.0675C64.9082 55.0452 64.9499 55.0153 64.9855 54.9778C65.0211 54.9404 65.0491 54.8983 65.0695 54.8518C65.0898 54.8052 65.101 54.7576 65.103 54.709L65.2434 54.7515C65.2434 54.8285 65.2271 54.9044 65.1946 54.9794C65.163 55.0533 65.1188 55.1211 65.0618 55.1829C65.0059 55.2437 64.9403 55.2923 64.865 55.3287C64.7907 55.3652 64.7099 55.3834 64.6224 55.3834C64.5166 55.3834 64.423 55.3637 64.3416 55.3242C64.2613 55.2837 64.1941 55.229 64.1402 55.1601C64.0873 55.0913 64.0476 55.0123 64.0212 54.9231C63.9947 54.834 63.9815 54.7404 63.9815 54.6421C63.9815 54.5358 63.9978 54.436 64.0303 54.3429C64.0629 54.2497 64.1102 54.1677 64.1722 54.0968C64.2343 54.0249 64.3096 53.9692 64.3981 53.9297C64.4876 53.8892 64.5888 53.8689 64.7017 53.8689C64.8218 53.8689 64.927 53.8922 65.0176 53.9388C65.1081 53.9854 65.1844 54.0497 65.2465 54.1317C65.3085 54.2137 65.3553 54.3089 65.3868 54.4173C65.4184 54.5257 65.4341 54.6421 65.4341 54.7667V54.8958C65.4341 55.0264 65.4224 55.1525 65.399 55.2741C65.3757 55.3946 65.3375 55.5065 65.2846 55.6098C65.2327 55.7121 65.1641 55.8022 65.0786 55.8802C64.9942 55.9571 64.8904 56.0174 64.7673 56.061C64.6453 56.1035 64.5018 56.1248 64.337 56.1248H64.3035V55.8225Z" fill="#AAC7FF"/>
<path d="M66.7067 54.194L66.043 56.1111H65.6417L66.4778 53.8993H66.7342L66.7067 54.194ZM67.2621 56.1111L66.5969 54.194L66.5679 53.8993H66.8257L67.665 56.1111H67.2621ZM67.2301 55.2908V55.5931H66.0216V55.2908H67.2301Z" fill="#AAC7FF"/>
<path d="M69.3083 55.508C69.3083 55.6457 69.2763 55.7617 69.2122 55.8559C69.1481 55.9501 69.0606 56.0215 68.9498 56.0701C68.8399 56.1177 68.7158 56.1415 68.5775 56.1415C68.4391 56.1415 68.3145 56.1177 68.2036 56.0701C68.0927 56.0215 68.0052 55.9501 67.9412 55.8559C67.8771 55.7617 67.845 55.6457 67.845 55.508C67.845 55.4169 67.8628 55.3343 67.8984 55.2604C67.934 55.1854 67.9844 55.1211 68.0495 55.0675C68.1156 55.0128 68.1929 54.9707 68.2814 54.9414C68.371 54.912 68.4686 54.8973 68.5744 54.8973C68.7148 54.8973 68.8404 54.9231 68.9513 54.9748C69.0622 55.0264 69.1491 55.0978 69.2122 55.189C69.2763 55.2801 69.3083 55.3865 69.3083 55.508ZM68.9391 55.4898C68.9391 55.4158 68.9238 55.351 68.8933 55.2953C68.8628 55.2396 68.8201 55.1966 68.7651 55.1662C68.7102 55.1358 68.6466 55.1206 68.5744 55.1206C68.5012 55.1206 68.4376 55.1358 68.3837 55.1662C68.3298 55.1966 68.2875 55.2396 68.257 55.2953C68.2275 55.351 68.2128 55.4158 68.2128 55.4898C68.2128 55.5647 68.2275 55.6295 68.257 55.6842C68.2865 55.7379 68.3287 55.7789 68.3837 55.8073C68.4386 55.8356 68.5032 55.8498 68.5775 55.8498C68.6517 55.8498 68.7158 55.8356 68.7697 55.8073C68.8236 55.7789 68.8653 55.7379 68.8948 55.6842C68.9243 55.6295 68.9391 55.5647 68.9391 55.4898ZM69.258 54.4811C69.258 54.5915 69.2285 54.6897 69.1695 54.7758C69.1115 54.8619 69.0311 54.9297 68.9284 54.9794C68.8257 55.028 68.7087 55.0523 68.5775 55.0523C68.4452 55.0523 68.3272 55.028 68.2234 54.9794C68.1207 54.9297 68.0398 54.8619 67.9808 54.7758C67.9229 54.6897 67.8939 54.5915 67.8939 54.4811C67.8939 54.3494 67.9229 54.2385 67.9808 54.1484C68.0398 54.0573 68.1207 53.9879 68.2234 53.9403C68.3262 53.8927 68.4437 53.8689 68.5759 53.8689C68.7082 53.8689 68.8257 53.8927 68.9284 53.9403C69.0311 53.9879 69.1115 54.0573 69.1695 54.1484C69.2285 54.2385 69.258 54.3494 69.258 54.4811ZM68.8903 54.4932C68.8903 54.4274 68.877 54.3697 68.8506 54.3201C68.8252 54.2694 68.789 54.2299 68.7422 54.2016C68.6955 54.1732 68.64 54.159 68.5759 54.159C68.5118 54.159 68.4564 54.1727 68.4096 54.2001C68.3628 54.2274 68.3267 54.2659 68.3013 54.3155C68.2758 54.3651 68.2631 54.4244 68.2631 54.4932C68.2631 54.5611 68.2758 54.6203 68.3013 54.671C68.3267 54.7206 68.3628 54.7596 68.4096 54.788C68.4574 54.8163 68.5134 54.8305 68.5775 54.8305C68.6415 54.8305 68.697 54.8163 68.7438 54.788C68.7906 54.7596 68.8267 54.7206 68.8521 54.671C68.8775 54.6203 68.8903 54.5611 68.8903 54.4932Z" fill="#AAC7FF"/>
<path d="M70.6359 53.8917V56.1111H70.2681V54.3261L69.7234 54.51V54.2077L70.5916 53.8917H70.6359Z" fill="#AAC7FF"/>
<path d="M72.9201 55.8088V56.1111H71.7406V55.8088H72.9201ZM71.8489 53.8993V56.1111H71.4659V53.8993H71.8489ZM72.766 54.8229V55.1206H71.7406V54.8229H72.766ZM72.9125 53.8993V54.2031H71.7406V53.8993H72.9125Z" fill="#AAC7FF"/>
<path d="M74.6276 55.508C74.6276 55.6457 74.5955 55.7617 74.5314 55.8559C74.4673 55.9501 74.3799 56.0215 74.269 56.0701C74.1591 56.1177 74.035 56.1415 73.8967 56.1415C73.7583 56.1415 73.6337 56.1177 73.5228 56.0701C73.4119 56.0215 73.3245 55.9501 73.2604 55.8559C73.1963 55.7617 73.1642 55.6457 73.1642 55.508C73.1642 55.4169 73.182 55.3343 73.2177 55.2604C73.2533 55.1854 73.3036 55.1211 73.3687 55.0675C73.4348 55.0128 73.5121 54.9707 73.6006 54.9414C73.6902 54.912 73.7878 54.8973 73.8936 54.8973C74.034 54.8973 74.1596 54.9231 74.2705 54.9748C74.3814 55.0264 74.4684 55.0978 74.5314 55.189C74.5955 55.2801 74.6276 55.3865 74.6276 55.508ZM74.2583 55.4898C74.2583 55.4158 74.243 55.351 74.2125 55.2953C74.182 55.2396 74.1393 55.1966 74.0844 55.1662C74.0294 55.1358 73.9658 55.1206 73.8936 55.1206C73.8204 55.1206 73.7568 55.1358 73.7029 55.1662C73.649 55.1966 73.6068 55.2396 73.5762 55.2953C73.5467 55.351 73.532 55.4158 73.532 55.4898C73.532 55.5647 73.5467 55.6295 73.5762 55.6842C73.6057 55.7379 73.6479 55.7789 73.7029 55.8073C73.7578 55.8356 73.8224 55.8498 73.8967 55.8498C73.9709 55.8498 74.035 55.8356 74.0889 55.8073C74.1428 55.7789 74.1846 55.7379 74.2141 55.6842C74.2435 55.6295 74.2583 55.5647 74.2583 55.4898ZM74.5772 54.4811C74.5772 54.5915 74.5477 54.6897 74.4887 54.7758C74.4307 54.8619 74.3504 54.9297 74.2476 54.9794C74.1449 55.028 74.0279 55.0523 73.8967 55.0523C73.7644 55.0523 73.6464 55.028 73.5427 54.9794C73.4399 54.9297 73.3591 54.8619 73.3 54.7758C73.2421 54.6897 73.2131 54.5915 73.2131 54.4811C73.2131 54.3494 73.2421 54.2385 73.3 54.1484C73.3591 54.0573 73.4399 53.9879 73.5427 53.9403C73.6454 53.8927 73.7629 53.8689 73.8951 53.8689C74.0274 53.8689 74.1449 53.8927 74.2476 53.9403C74.3504 53.9879 74.4307 54.0573 74.4887 54.1484C74.5477 54.2385 74.5772 54.3494 74.5772 54.4811ZM74.2095 54.4932C74.2095 54.4274 74.1962 54.3697 74.1698 54.3201C74.1444 54.2694 74.1083 54.2299 74.0615 54.2016C74.0147 54.1732 73.9592 54.159 73.8951 54.159C73.8311 54.159 73.7756 54.1727 73.7288 54.2001C73.682 54.2274 73.6459 54.2659 73.6205 54.3155C73.5951 54.3651 73.5823 54.4244 73.5823 54.4932C73.5823 54.5611 73.5951 54.6203 73.6205 54.671C73.6459 54.7206 73.682 54.7596 73.7288 54.788C73.7766 54.8163 73.8326 54.8305 73.8967 54.8305C73.9608 54.8305 74.0162 54.8163 74.063 54.788C74.1098 54.7596 74.1459 54.7206 74.1713 54.671C74.1968 54.6203 74.2095 54.5611 74.2095 54.4932Z" fill="#AAC7FF"/>
<path d="M75.2471 55.8225H75.2776C75.418 55.8225 75.535 55.8042 75.6285 55.7678C75.7231 55.7303 75.7984 55.6786 75.8544 55.6128C75.9103 55.547 75.9505 55.4695 75.9749 55.3804C75.9993 55.2913 76.0115 55.1946 76.0115 55.0903V54.709C76.0115 54.6188 76.0019 54.5398 75.9825 54.472C75.9642 54.4031 75.9378 54.3459 75.9032 54.3003C75.8696 54.2537 75.8305 54.2188 75.7857 54.1955C75.742 54.1722 75.6947 54.1606 75.6438 54.1606C75.5878 54.1606 75.5375 54.1732 75.4927 54.1985C75.449 54.2228 75.4119 54.2568 75.3813 54.3003C75.3518 54.3429 75.329 54.393 75.3127 54.4507C75.2974 54.5074 75.2898 54.5682 75.2898 54.633C75.2898 54.6938 75.2969 54.7525 75.3112 54.8092C75.3264 54.8649 75.3488 54.9145 75.3783 54.9581C75.4078 55.0016 75.4449 55.0361 75.4897 55.0614C75.5344 55.0867 75.5868 55.0994 75.6469 55.0994C75.7038 55.0994 75.7562 55.0887 75.804 55.0675C75.8518 55.0452 75.8935 55.0153 75.9291 54.9778C75.9647 54.9404 75.9927 54.8983 76.0131 54.8518C76.0334 54.8052 76.0446 54.7576 76.0466 54.709L76.187 54.7515C76.187 54.8285 76.1707 54.9044 76.1382 54.9794C76.1066 55.0533 76.0624 55.1211 76.0054 55.1829C75.9495 55.2437 75.8839 55.2923 75.8086 55.3287C75.7343 55.3652 75.6535 55.3834 75.566 55.3834C75.4602 55.3834 75.3666 55.3637 75.2852 55.3242C75.2049 55.2837 75.1377 55.229 75.0838 55.1601C75.0309 55.0913 74.9912 55.0123 74.9648 54.9231C74.9383 54.834 74.9251 54.7404 74.9251 54.6421C74.9251 54.5358 74.9414 54.436 74.9739 54.3429C75.0065 54.2497 75.0538 54.1677 75.1158 54.0968C75.1779 54.0249 75.2532 53.9692 75.3417 53.9297C75.4312 53.8892 75.5324 53.8689 75.6453 53.8689C75.7654 53.8689 75.8706 53.8922 75.9612 53.9388C76.0517 53.9854 76.128 54.0497 76.1901 54.1317C76.2521 54.2137 76.2989 54.3089 76.3304 54.4173C76.362 54.5257 76.3777 54.6421 76.3777 54.7667V54.8958C76.3777 55.0264 76.366 55.1525 76.3427 55.2741C76.3193 55.3946 76.2811 55.5065 76.2282 55.6098C76.1763 55.7121 76.1077 55.8022 76.0222 55.8802C75.9378 55.9571 75.834 56.0174 75.7109 56.061C75.5889 56.1035 75.4454 56.1248 75.2806 56.1248H75.2471V55.8225Z" fill="#AAC7FF"/>
<path d="M78.1752 54.8199V55.1814C78.1752 55.3546 78.1579 55.5024 78.1234 55.625C78.0898 55.7465 78.041 55.8452 77.9769 55.9212C77.9128 55.9972 77.836 56.0529 77.7465 56.0883C77.658 56.1237 77.5588 56.1415 77.4489 56.1415C77.3614 56.1415 77.28 56.1303 77.2048 56.108C77.1305 56.0858 77.0634 56.0508 77.0034 56.0032C76.9433 55.9556 76.892 55.8944 76.8492 55.8194C76.8075 55.7435 76.775 55.6528 76.7516 55.5475C76.7292 55.4422 76.718 55.3201 76.718 55.1814V54.8199C76.718 54.6457 76.7353 54.4988 76.7699 54.3793C76.8045 54.2588 76.8538 54.1611 76.9179 54.0861C76.982 54.0102 77.0583 53.955 77.1468 53.9205C77.2363 53.8861 77.336 53.8689 77.4459 53.8689C77.5344 53.8689 77.6157 53.88 77.69 53.9023C77.7653 53.9236 77.8324 53.9575 77.8914 54.0041C77.9514 54.0507 78.0023 54.1114 78.044 54.1864C78.0867 54.2603 78.1193 54.3499 78.1417 54.4553C78.164 54.5596 78.1752 54.6811 78.1752 54.8199ZM77.8075 55.233V54.7652C77.8075 54.6771 77.8024 54.5996 77.7922 54.5327C77.7821 54.4649 77.7668 54.4077 77.7465 54.3611C77.7271 54.3135 77.7027 54.275 77.6732 54.2456C77.6437 54.2153 77.6101 54.1935 77.5725 54.1803C77.5349 54.1661 77.4927 54.159 77.4459 54.159C77.3889 54.159 77.338 54.1702 77.2933 54.1925C77.2485 54.2137 77.2109 54.2482 77.1804 54.2958C77.1498 54.3434 77.1264 54.4062 77.1102 54.4841C77.0949 54.5611 77.0873 54.6548 77.0873 54.7652V55.233C77.0873 55.3222 77.0924 55.4007 77.1025 55.4685C77.1127 55.5364 77.128 55.5946 77.1483 55.6432C77.1687 55.6908 77.1931 55.7303 77.2216 55.7617C77.2511 55.7921 77.2846 55.8144 77.3223 55.8285C77.3609 55.8427 77.4031 55.8498 77.4489 55.8498C77.5069 55.8498 77.5583 55.8387 77.603 55.8164C77.6478 55.7941 77.6854 55.7587 77.7159 55.71C77.7465 55.6604 77.7693 55.5961 77.7846 55.5171C77.7999 55.4381 77.8075 55.3434 77.8075 55.233Z" fill="#AAC7FF"/>
<path d="M79.9788 53.8993V54.0998L79.0908 56.1111H78.7032L79.5897 54.1909H78.4392V53.8993H79.9788Z" fill="#AAC7FF"/>
<path d="M80.5754 55.8225H80.606C80.7463 55.8225 80.8633 55.8042 80.9569 55.7678C81.0515 55.7303 81.1268 55.6786 81.1827 55.6128C81.2387 55.547 81.2789 55.4695 81.3033 55.3804C81.3277 55.2913 81.3399 55.1946 81.3399 55.0903V54.709C81.3399 54.6188 81.3302 54.5398 81.3109 54.472C81.2926 54.4031 81.2662 54.3459 81.2316 54.3003C81.198 54.2537 81.1588 54.2188 81.1141 54.1955C81.0703 54.1722 81.023 54.1606 80.9722 54.1606C80.9162 54.1606 80.8659 54.1732 80.8211 54.1985C80.7774 54.2228 80.7402 54.2568 80.7097 54.3003C80.6802 54.3429 80.6573 54.393 80.6411 54.4507C80.6258 54.5074 80.6182 54.5682 80.6182 54.633C80.6182 54.6938 80.6253 54.7525 80.6395 54.8092C80.6548 54.8649 80.6772 54.9145 80.7067 54.9581C80.7362 55.0016 80.7733 55.0361 80.8181 55.0614C80.8628 55.0867 80.9152 55.0994 80.9752 55.0994C81.0322 55.0994 81.0846 55.0887 81.1324 55.0675C81.1802 55.0452 81.2219 55.0153 81.2575 54.9778C81.2931 54.9404 81.3211 54.8983 81.3414 54.8518C81.3618 54.8052 81.373 54.7576 81.375 54.709L81.5154 54.7515C81.5154 54.8285 81.4991 54.9044 81.4666 54.9794C81.435 55.0533 81.3908 55.1211 81.3338 55.1829C81.2779 55.2437 81.2122 55.2923 81.137 55.3287C81.0627 55.3652 80.9818 55.3834 80.8943 55.3834C80.7886 55.3834 80.695 55.3637 80.6136 55.3242C80.5332 55.2837 80.4661 55.229 80.4122 55.1601C80.3593 55.0913 80.3196 55.0123 80.2932 54.9231C80.2667 54.834 80.2535 54.7404 80.2535 54.6421C80.2535 54.5358 80.2698 54.436 80.3023 54.3429C80.3349 54.2497 80.3822 54.1677 80.4442 54.0968C80.5063 54.0249 80.5815 53.9692 80.67 53.9297C80.7596 53.8892 80.8608 53.8689 80.9737 53.8689C81.0937 53.8689 81.199 53.8922 81.2896 53.9388C81.3801 53.9854 81.4564 54.0497 81.5184 54.1317C81.5805 54.2137 81.6273 54.3089 81.6588 54.4173C81.6903 54.5257 81.7061 54.6421 81.7061 54.7667V54.8958C81.7061 55.0264 81.6944 55.1525 81.671 55.2741C81.6476 55.3946 81.6095 55.5065 81.5566 55.6098C81.5047 55.7121 81.436 55.8022 81.3506 55.8802C81.2662 55.9571 81.1624 56.0174 81.0393 56.061C80.9172 56.1035 80.7738 56.1248 80.609 56.1248H80.5754V55.8225Z" fill="#AAC7FF"/>
<defs>
<linearGradient id="paint0_linear_469_14090" x1="1285.67" y1="1356.99" x2="1520.54" y2="1713.81" gradientUnits="userSpaceOnUse">
<stop offset="0.02" stop-color="white" stop-opacity="0"/>
<stop offset="0.32" stop-color="white" stop-opacity="0.39"/>
<stop offset="0.68" stop-color="white" stop-opacity="0.68"/>
<stop offset="1" stop-color="white"/>
</linearGradient>
<linearGradient id="paint1_linear_469_14090" x1="24.0016" y1="71.3589" x2="9.35696" y2="84.1479" gradientUnits="userSpaceOnUse">
<stop stop-opacity="0"/>
<stop offset="0.99"/>
</linearGradient>
</defs>
</svg>
