<svg width="103" height="93" viewBox="0 0 103 93" fill="none" xmlns="http://www.w3.org/2000/svg">
<path d="M23.1385 3.36111C23.2008 2.63989 26.3215 -0.0197851 29.5797 1.8371C32.8382 3.69396 30.4813 9.307 34.0247 9.852C31.7301 12.1364 24.2564 14.9266 21.9585 12.3061C19.6607 9.68557 19.3655 2.34618 23.1385 3.36111Z" fill="#3E3E54"/>
<path d="M36.2621 21.46C36.3475 22.6672 36.4752 23.9466 36.6457 25.167C36.7983 26.3698 37.0437 27.559 37.38 28.7242C37.4193 28.8644 37.4685 28.9983 37.5143 29.1289L37.6389 29.4747C37.6647 29.5499 37.7024 29.6204 37.7504 29.6835C37.8259 29.7945 38.2619 29.8956 38.7731 29.8305C39.9415 29.6324 41.075 29.2686 42.1397 28.7501L42.9724 29.9675C42.7074 30.1993 42.4307 30.4171 42.143 30.6202C41.861 30.8224 41.5725 31.0184 41.2678 31.1947C40.6352 31.5801 39.9541 31.8796 39.242 32.0854C38.8299 32.2002 38.4046 32.2617 37.9766 32.2683C37.4457 32.2721 36.9221 32.1455 36.4524 31.8996C35.9448 31.6224 35.5283 31.2053 35.2527 30.6986L35.164 30.5256L35.1083 30.4015L34.9938 30.147C34.915 29.9806 34.8395 29.8207 34.7805 29.6444C34.2907 28.344 33.9316 26.9982 33.7087 25.6272C33.48 24.2953 33.3364 22.9501 33.2793 21.6002L36.2621 21.46Z" fill="#E6A078"/>
<path d="M34.6592 18.216C37.3178 20.2393 37.2097 24.0575 37.2097 24.0575L32.4467 25.1899C32.4467 25.1899 30.9881 21.3522 31.5814 19.9456C32.2073 18.4803 33.1646 17.0738 34.6592 18.216Z" fill="#26262D"/>
<path d="M41.8818 29.0342L43.6289 27.2915L44.5698 30.0165C44.5698 30.0165 43.0947 30.8096 41.6816 30.0591L41.8818 29.0342Z" fill="#E6A078"/>
<path d="M46.0481 27.0239L46.3693 29.1747L44.5697 30.0132L43.6289 27.2915L46.0481 27.0239Z" fill="#E6A078"/>
<path d="M19.2559 90.2295L21.9307 90.4872L24.7136 84.1531L22.0388 83.8921L19.2559 90.2295Z" fill="#FFC3BD"/>
<path d="M2.03711 80.8634L4.04323 82.74L8.38 77.9983L6.37059 76.1187L2.03711 80.8634Z" fill="#9FA7B4"/>
<path d="M4.97167 81.8396L3.46381 79.134C3.43858 79.0873 3.39704 79.0509 3.34697 79.0323C3.29686 79.0137 3.24168 79.014 3.19172 79.0329L0.867654 79.914C0.810139 79.9384 0.758389 79.9744 0.715753 80.0198C0.673118 80.0652 0.640557 80.119 0.620159 80.1778C0.599761 80.2366 0.591992 80.2989 0.597345 80.3609C0.602726 80.4227 0.621092 80.4828 0.651291 80.5375C1.19545 81.4706 1.50356 81.895 2.16901 83.0862C2.57546 83.817 3.372 85.4976 3.93582 86.5094C4.49964 87.521 5.5322 87.0184 5.38795 86.5485C4.73236 84.4339 4.86677 83.2592 5.06016 82.3258C5.08997 82.1582 5.05857 81.9858 4.97167 81.8396Z" fill="#26262D"/>
<path d="M22.2867 89.665H19.0088C18.9495 89.665 18.8921 89.6847 18.8454 89.7208C18.7985 89.7566 18.765 89.8072 18.7499 89.864L18.0254 92.4518C18.0078 92.5127 18.0051 92.5769 18.0171 92.6393C18.029 92.7016 18.0556 92.7601 18.0946 92.8104C18.1333 92.8604 18.1835 92.9008 18.2412 92.9282C18.2985 92.9555 18.3617 92.9689 18.4254 92.9675C19.5823 92.9675 20.1297 92.9675 21.5754 92.9675H25.9875C27.1872 92.9675 27.4395 91.76 26.9415 91.6622C24.7156 91.1727 23.434 90.497 22.7455 89.8509C22.6214 89.7339 22.4578 89.6675 22.2867 89.665Z" fill="#26262D"/>
<path opacity="0.2" d="M24.7123 84.1563L23.2798 87.4197H20.4902L22.0375 83.8953L24.7123 84.1563Z" fill="black"/>
<path opacity="0.2" d="M6.37227 76.1218L8.37839 77.9984L6.14281 80.4427L4.13672 78.5661L6.37227 76.1218Z" fill="black"/>
<path d="M33.8569 17.8212C33.8569 17.8212 35.0698 18.3368 31.028 34.2296L19.8305 33.267C20.4139 28.7439 20.6599 25.947 19.293 16.4473C20.8886 16.2596 22.4957 16.1876 24.1018 16.2319C25.8047 16.2582 27.5035 16.4043 29.1859 16.6692C30.7612 16.9751 32.3203 17.3595 33.8569 17.8212Z" fill="#26262D"/>
<path d="M26.1035 21.8679C26.0938 21.8711 26.0834 21.8711 26.0741 21.8679C23.6516 19.8838 22.1405 16.8227 22.6256 16.1015C22.6317 16.0912 22.6418 16.0836 22.6534 16.0806C22.6649 16.0775 22.6775 16.0792 22.6879 16.0851C22.6984 16.0919 22.7061 16.1024 22.7091 16.1145C22.7121 16.1267 22.7105 16.1395 22.7041 16.1504C22.2649 16.8259 23.7663 19.8315 26.0807 21.7503C26.6641 19.998 27.6573 19.2963 27.6669 19.2898C27.6774 19.2852 27.6892 19.2843 27.7002 19.2874C27.7111 19.2903 27.7205 19.297 27.7271 19.3062C27.7337 19.3155 27.7369 19.3267 27.7361 19.338C27.7353 19.3492 27.7306 19.3599 27.7227 19.3681C27.7227 19.3681 26.7198 20.0763 26.146 21.8449C26.1438 21.852 26.14 21.858 26.135 21.8632C26.1298 21.8684 26.1235 21.8722 26.1166 21.8744L26.1035 21.8679Z" fill="white"/>
<path d="M29.9793 21.9756C29.9714 21.974 29.9639 21.9699 29.9582 21.9642C29.9524 21.9584 29.9483 21.951 29.9466 21.9431C29.4385 20.1221 28.4257 19.3976 28.4158 19.3911C28.4084 19.3818 28.4043 19.3703 28.4043 19.3584C28.4043 19.3466 28.4084 19.3351 28.4158 19.3258C28.4249 19.3178 28.4364 19.3134 28.4488 19.3134C28.4609 19.3134 28.4724 19.3178 28.4814 19.3258C28.4814 19.3258 29.5008 20.0535 30.0254 21.8453C31.2414 20.3603 30.5498 17.5375 30.0779 16.813C30.0716 16.8021 30.0699 16.7892 30.0729 16.7771C30.0759 16.765 30.0836 16.7545 30.0941 16.7477C30.1026 16.7399 30.1138 16.7356 30.1254 16.7356C30.1369 16.7356 30.1479 16.7399 30.1564 16.7477C30.6448 17.5016 31.3627 20.4582 30.0383 21.9691C30.0304 21.9759 30.0205 21.9803 30.0101 21.9817C29.9994 21.9828 29.9889 21.9806 29.9793 21.9756Z" fill="white"/>
<path d="M25.1014 10.5764C25.2785 12.231 25.3408 15.2431 24.1016 16.2319C25.3057 17.3437 26.6501 18.2948 28.1007 19.0613C30.048 17.7233 29.1857 16.6692 29.1857 16.6692C27.3993 16.0785 27.5467 14.7372 27.9926 13.4972L25.1014 10.5764Z" fill="#E6A078"/>
<path opacity="0.2" d="M26.2782 11.7676L27.9894 13.4972C27.8859 13.7846 27.8079 14.0805 27.7566 14.3816C27.0683 14.2216 26.0718 13.5102 26.0586 12.776C26.0731 12.4298 26.1475 12.0887 26.2782 11.7676Z" fill="black"/>
<path d="M23.6352 7.98854C24.3301 10.6352 24.5662 11.7676 26.1953 12.8836C28.6472 14.5513 31.7678 13.1251 31.876 10.3252C31.9776 7.8058 30.827 3.90279 27.9817 3.35126C27.356 3.22729 26.7087 3.26449 26.1014 3.45936C25.4939 3.65424 24.9467 4.00031 24.5113 4.46478C24.0759 4.92926 23.767 5.49674 23.6136 6.11343C23.4604 6.73008 23.4678 7.37555 23.6352 7.98854Z" fill="#E6A078"/>
<path d="M24.3918 9.96953C25.2931 11.2749 27.6434 3.49821 24.5982 3.74297C21.5531 3.98772 21.9201 7.28047 24.3918 9.96953Z" fill="#3E3E54"/>
<path d="M24.7964 4.18677C26.5567 5.07767 31.6801 6.1448 30.9787 4.72523C30.5957 4.01307 30.0258 3.41793 29.3295 3.00347C28.633 2.58901 27.8366 2.37085 27.0254 2.3723C25.3537 2.3462 23.2425 3.40355 24.7964 4.18677Z" fill="#3E3E54"/>
<path d="M23.4174 10.2306C23.5396 10.4632 23.7068 10.6694 23.9091 10.8374C24.1117 11.0054 24.3456 11.1319 24.5974 11.2096C25.2728 11.4119 25.6236 10.8147 25.4465 10.1751C25.2892 9.59748 24.7484 8.79795 24.0664 8.86975C23.9174 8.88938 23.7754 8.94584 23.6538 9.03402C23.5322 9.12219 23.4347 9.23922 23.3702 9.37451C23.3057 9.50978 23.2763 9.65898 23.2846 9.80851C23.2928 9.95804 23.3384 10.1031 23.4174 10.2306Z" fill="#E6A078"/>
<path d="M31.0279 34.2295C31.0279 34.2295 34.8173 50.9152 32.2899 62.6799C30.5952 70.5577 24.4851 86.4732 24.4851 86.4732L19.709 86.3526C19.709 86.3526 24.3344 69.6505 25.2815 63.0811C26.9205 51.8453 22.8231 33.5247 22.8231 33.5247L31.0279 34.2295Z" fill="#9FA7B4"/>
<path opacity="0.5" d="M26.66 37.5908L24.2734 41.3437C24.9933 45.7906 25.4496 50.2757 25.6404 54.7759C28.9971 48.7941 27.4073 40.7695 26.66 37.5908Z" fill="#5C5C6A"/>
<path d="M25.1562 86.7214L19.2559 86.5713L19.6001 84.7666L25.6182 85.0506L25.1562 86.7214Z" fill="#26262D"/>
<path d="M28.5793 34.0534C28.5793 34.0534 26.3566 51.7476 21.5382 61.4071C17.6472 69.2133 7.26258 80.3184 7.26258 80.3184L4.60742 77.5968C4.60742 77.5968 11.6223 65.5222 14.5134 60.3401C21.6069 47.6323 15.8246 37.9336 19.8303 33.2539L28.5793 34.0534Z" fill="#9FA7B4"/>
<path d="M7.53094 80.6842L4.10547 77.3588L5.24293 75.8184L8.87491 79.4311L7.53094 80.6842Z" fill="#26262D"/>
<path d="M19.7197 32.598L19.1297 33.5507C19.0839 33.6259 19.169 33.7106 19.2969 33.7237L31.0419 34.7353C31.1435 34.7353 31.2319 34.6995 31.2418 34.6374L31.4287 33.6584C31.4287 33.5901 31.3598 33.5248 31.2516 33.5149L19.91 32.5359C19.8754 32.5294 19.84 32.5315 19.8068 32.5425C19.7735 32.5534 19.7436 32.5723 19.7197 32.598Z" fill="#5C5C6A"/>
<path d="M21.1311 34.0011L20.8296 33.9749C20.7673 33.9749 20.7248 33.9325 20.7311 33.8967L20.987 32.6108C20.987 32.575 21.0493 32.549 21.1113 32.5523L21.413 32.5782C21.4754 32.5782 21.5179 32.6206 21.5113 32.6567L21.2557 33.9424C21.2491 33.9686 21.1934 34.0011 21.1311 34.0011Z" fill="#26262D"/>
<path d="M30.1787 34.7681L29.8737 34.7419C29.8147 34.7419 29.7688 34.7028 29.7787 34.6637L30.031 33.3811C30.031 33.342 30.0966 33.3157 30.1556 33.3223L30.4604 33.3485C30.5194 33.3485 30.5622 33.3876 30.5556 33.4267L30.2998 34.7094C30.2934 34.7485 30.2377 34.7747 30.1787 34.7681Z" fill="#26262D"/>
<path d="M25.6546 34.3796L25.3496 34.3534C25.2905 34.3534 25.248 34.3143 25.2546 34.2752L25.5102 32.9926C25.5102 32.9535 25.5725 32.9275 25.6315 32.9338L25.9363 32.96C25.9986 32.96 26.0414 32.9991 26.0348 33.0352L25.7789 34.3209C25.7674 34.3427 25.749 34.3602 25.7265 34.3709C25.7043 34.3816 25.6787 34.3846 25.6546 34.3796Z" fill="#26262D"/>
<path d="M28.1367 7.89408C28.1792 8.11273 28.3302 8.26609 28.4645 8.23673C28.599 8.20735 28.6907 8.01155 28.6481 7.79289C28.6056 7.57427 28.4546 7.42088 28.3203 7.44698C28.1858 7.47309 28.0908 7.67867 28.1367 7.89408Z" fill="#263238"/>
<path d="M30.6104 7.41106C30.6532 7.62972 30.8039 7.78635 30.9382 7.75697C31.0727 7.72762 31.1611 7.52853 31.1185 7.30988C31.076 7.09125 30.9252 6.93787 30.7907 6.96722C30.6565 6.9966 30.5678 7.19566 30.6104 7.41106Z" fill="#263238"/>
<path d="M30.7324 6.99118L31.2274 6.73877C31.2274 6.73877 31.0372 7.20095 30.7324 6.99118Z" fill="#263238"/>
<path d="M29.7598 7.95605C30.051 8.41588 30.4041 8.83417 30.8085 9.19943C30.7124 9.30003 30.5957 9.37869 30.4662 9.42997C30.3366 9.48124 30.1971 9.5039 30.0579 9.49638L29.7598 7.95605Z" fill="#ED847E"/>
<path d="M29.0505 10.5349C28.5887 10.541 28.1423 10.3716 27.8014 10.0612C27.7912 10.0507 27.7852 10.0366 27.7852 10.0219C27.7852 10.0072 27.7912 9.99315 27.8014 9.98272C27.8063 9.97769 27.8123 9.97369 27.8186 9.97096C27.8252 9.96822 27.8321 9.9668 27.8392 9.9668C27.8461 9.9668 27.8532 9.96822 27.8596 9.97096C27.8661 9.97369 27.8719 9.97769 27.8769 9.98272C28.0869 10.1662 28.3372 10.2981 28.6077 10.3678C28.8778 10.4376 29.1609 10.4434 29.434 10.3846C29.4483 10.3817 29.4631 10.3845 29.4755 10.3925C29.4876 10.4004 29.4963 10.4129 29.4994 10.4271C29.501 10.434 29.501 10.4411 29.4996 10.4479C29.498 10.4548 29.4952 10.4614 29.4914 10.4672C29.4873 10.473 29.4823 10.4779 29.4763 10.4817C29.4705 10.4855 29.4637 10.488 29.4568 10.4892C29.3231 10.5179 29.1869 10.5332 29.0505 10.5349Z" fill="#263238"/>
<path d="M26.6497 7.05207C26.6313 7.05677 26.6121 7.05677 26.5939 7.05207C26.5813 7.04471 26.5706 7.03493 26.5621 7.02334C26.5536 7.01175 26.5473 6.99858 26.544 6.98458C26.5407 6.97059 26.5401 6.95608 26.5423 6.94186C26.5448 6.92768 26.55 6.9141 26.5577 6.90196C26.6582 6.72534 26.8001 6.57554 26.9714 6.46531C27.1427 6.35508 27.3382 6.28768 27.5411 6.26885C27.5554 6.26841 27.5697 6.27076 27.5828 6.27579C27.596 6.28079 27.6084 6.28836 27.6185 6.29807C27.629 6.30777 27.6372 6.31941 27.6432 6.33231C27.649 6.34521 27.6523 6.35913 27.6526 6.37328C27.6531 6.38741 27.6506 6.40152 27.6457 6.41475C27.6405 6.42797 27.6331 6.44008 27.6232 6.45039C27.6136 6.46072 27.6018 6.469 27.5889 6.47479C27.576 6.48062 27.562 6.48381 27.5477 6.48422C27.3799 6.50223 27.2188 6.55993 27.078 6.65245C26.9371 6.74499 26.8207 6.86968 26.7381 7.01615C26.7271 7.02851 26.7134 7.03815 26.698 7.04439C26.6826 7.05059 26.6662 7.05324 26.6497 7.05207Z" fill="#263238"/>
<path d="M31.2991 6.17794C31.2807 6.18251 31.2617 6.18251 31.2433 6.17794C31.0992 6.09165 30.9367 6.04097 30.7689 6.03016C30.6015 6.01938 30.4334 6.04874 30.2797 6.11585C30.2539 6.12871 30.224 6.13112 30.1965 6.12258C30.1691 6.11407 30.146 6.09524 30.132 6.07012C30.1251 6.05747 30.121 6.04363 30.1197 6.02934C30.1183 6.01508 30.1196 6.00066 30.124 5.98698C30.1284 5.9733 30.1353 5.96057 30.1446 5.9496C30.1537 5.93862 30.1652 5.92962 30.1779 5.92308C30.3645 5.83907 30.5685 5.80114 30.7728 5.81252C30.977 5.82388 31.1755 5.88422 31.3515 5.98843C31.3641 5.99524 31.3751 6.00447 31.3839 6.01558C31.393 6.02666 31.3995 6.03941 31.4034 6.05309C31.4075 6.06675 31.4086 6.08106 31.407 6.09521C31.4053 6.10933 31.4009 6.12302 31.394 6.13547C31.3828 6.14972 31.3685 6.16105 31.3518 6.16844C31.3353 6.17586 31.3172 6.17912 31.2991 6.17794Z" fill="#263238"/>
<path d="M20.89 20.6212C20.4507 21.3457 19.9854 22.0897 19.5494 22.8337C19.1134 23.5779 18.6643 24.3153 18.2382 25.0626C17.8121 25.8101 17.4154 26.5573 17.0778 27.3013C16.9861 27.4874 16.9139 27.6703 16.8288 27.8528C16.7434 28.0357 16.6909 28.2087 16.622 28.388C16.5907 28.4694 16.5677 28.5536 16.5534 28.6395C16.5534 28.6818 16.5534 28.6687 16.5336 28.6621C16.5139 28.6556 16.5894 28.7862 16.8614 28.9005C17.1777 29.0256 17.508 29.1134 17.8448 29.1615C18.6522 29.2776 19.4681 29.3244 20.2835 29.302C22.0068 29.2552 23.7259 29.1137 25.4333 28.8775L25.7611 30.3102C24.0194 30.8536 22.2325 31.2403 20.4213 31.4655C19.4703 31.588 18.51 31.6197 17.553 31.5601C17.0099 31.5251 16.4732 31.421 15.9566 31.2502C15.6411 31.1433 15.3413 30.9952 15.0651 30.8096C14.7071 30.5748 14.4123 30.2564 14.2066 29.8822C14.0009 29.5078 13.8905 29.0888 13.885 28.6621C13.8809 28.3079 13.9295 27.9548 14.0292 27.6148C14.1014 27.3765 14.1702 27.1286 14.2489 26.9001C14.3275 26.6716 14.4062 26.4431 14.4947 26.2211C14.8422 25.34 15.2257 24.5113 15.6419 23.702C16.0584 22.8924 16.4878 22.0995 16.9336 21.3195C17.3792 20.5396 17.8448 19.7792 18.3596 19.0156L20.89 20.6212Z" fill="#E6A078"/>
<path d="M24.7635 29.2104L26.9499 28.0583L27.0317 30.4832C27.0317 30.4832 25.5042 31.0315 24.5996 30.3266L24.7635 29.2104Z" fill="#E6A078"/>
<path d="M28.2793 28.2314L27.9515 30.3788L27.0304 30.4832L26.9453 28.0583L28.2793 28.2314Z" fill="#E6A078"/>
<path d="M19.2919 16.4475C17.9184 16.7053 15.9941 20.6214 15.9941 20.6214L20.2555 24.2928C20.2555 24.2928 22.2058 20.7486 22.0617 18.9668C21.937 17.4428 21.039 16.1407 19.2919 16.4475Z" fill="#26262D"/>
<path d="M5.50269 83.2947C5.46606 83.2941 5.42969 83.2887 5.39452 83.2785C5.06672 83.1676 4.85036 82.5605 4.73892 82.2112C4.73338 82.2025 4.73047 82.1924 4.73047 82.182C4.73047 82.1716 4.73338 82.1615 4.73892 82.1525C4.74837 82.1473 4.75913 82.1443 4.77006 82.1443C4.78098 82.1443 4.79172 82.1473 4.80119 82.1525C4.89953 82.205 5.78458 82.6715 5.80426 83.0142C5.80846 83.0517 5.80212 83.0894 5.7859 83.1233C5.76967 83.1575 5.74425 83.1862 5.71249 83.2067C5.65302 83.2564 5.57991 83.287 5.50269 83.2947ZM4.89297 82.3157C5.04704 82.8022 5.24371 83.1219 5.43056 83.184C5.47287 83.1966 5.51776 83.1982 5.56083 83.1883C5.60393 83.1785 5.64374 83.158 5.67641 83.1285C5.69319 83.1184 5.70672 83.1039 5.71545 83.0867C5.72418 83.0692 5.7277 83.0498 5.72558 83.0304C5.70919 82.8084 5.19455 82.4758 4.89297 82.2995V82.3157Z" fill="#9FA7B4"/>
<path d="M5.63832 82.4437C5.33959 82.4426 5.04494 82.3747 4.77622 82.2445C4.76815 82.239 4.7615 82.2319 4.75695 82.2234C4.75236 82.2146 4.74997 82.2051 4.75 82.1955C4.75058 82.1859 4.75357 82.1769 4.75876 82.1687C4.76392 82.1607 4.77106 82.1542 4.77949 82.1498C4.809 82.1334 5.50393 81.7511 5.87763 81.8852C5.9237 81.9002 5.96581 81.9254 6.00098 81.9588C6.03612 81.9921 6.06341 82.0327 6.08084 82.0778C6.10423 82.1216 6.11209 82.1717 6.10316 82.2204C6.09424 82.2691 6.06904 82.3132 6.03167 82.3457C5.9153 82.4215 5.77677 82.456 5.63832 82.4437ZM4.92373 82.1955C5.22201 82.323 5.79895 82.4013 5.96285 82.2642C5.98907 82.2412 6.01529 82.202 5.96285 82.1202C5.9508 82.0896 5.93229 82.0617 5.90854 82.0384C5.8848 82.0154 5.85638 81.9976 5.82517 81.9864C5.58588 81.898 5.12367 82.1008 4.9139 82.1955H4.92373Z" fill="#9FA7B4"/>
<path d="M23.7436 90.1936C23.4411 90.1871 23.1402 90.1499 22.8454 90.0827C22.8344 90.0794 22.8242 90.0731 22.8168 90.0644C22.8091 90.0556 22.8045 90.0449 22.8028 90.0335C22.8023 90.0223 22.805 90.0108 22.8108 90.0009C22.8168 89.9911 22.8253 89.9832 22.8355 89.978C22.97 89.9162 24.1467 89.3679 24.4745 89.5702C24.5022 89.5885 24.5239 89.6142 24.5379 89.644C24.5516 89.6741 24.5571 89.7071 24.5533 89.7399C24.5508 89.7995 24.5346 89.8577 24.5063 89.9105C24.478 89.963 24.4379 90.0083 24.3894 90.0433C24.1958 90.1608 23.9693 90.2133 23.7436 90.1936ZM23.0323 90.0075C23.3862 90.0761 24.0418 90.1608 24.3106 89.9586C24.3471 89.9332 24.3764 89.8993 24.397 89.8602C24.4176 89.8211 24.4283 89.7776 24.4286 89.7334C24.4286 89.6877 24.4286 89.6713 24.3992 89.6615C24.232 89.5472 23.5273 89.8052 23.0323 90.0075Z" fill="#9FA7B4"/>
<path d="M22.8587 90.0827C22.8471 90.0874 22.8342 90.0874 22.8227 90.0827C22.8172 90.0751 22.8145 90.0661 22.8145 90.0568C22.8145 90.0472 22.8172 90.0382 22.8227 90.0305C22.8227 89.9816 23.1046 88.8099 23.7504 88.8851C23.911 88.9047 23.9568 88.9829 23.9634 89.0482C24.0059 89.3453 23.2554 89.9458 22.8946 90.0926L22.8587 90.0827ZM23.6749 88.9763C23.2619 88.9763 23.0193 89.6585 22.9407 89.9294C23.3306 89.7271 23.8651 89.2409 23.8388 89.0482C23.8388 89.0482 23.8388 88.9927 23.7207 88.9796L23.6749 88.9763Z" fill="#9FA7B4"/>
<path d="M28.2539 7.47736L28.7522 7.22168C28.7522 7.22168 28.5622 7.68713 28.2539 7.47736Z" fill="#263238"/>
<path d="M85.7577 18.066C85.7415 18.2912 85.7217 18.4511 85.6987 18.6371C85.6759 18.8232 85.6495 18.9896 85.6201 19.1626C85.5611 19.5117 85.4922 19.8544 85.417 20.1971C85.2635 20.8798 85.0744 21.5541 84.8498 22.2172C84.3924 23.557 83.7714 24.8361 83.001 26.0256L82.6993 26.4694L82.6241 26.5771L82.578 26.6422L82.5094 26.7337C82.4094 26.8513 82.2996 26.9606 82.1816 27.0601C81.7961 27.405 81.3363 27.6573 80.8374 27.7975C80.0723 28.0025 79.2767 28.0719 78.4871 28.003C77.0928 27.8885 75.722 27.5764 74.416 27.0762L74.7699 25.6697C76.0028 25.7952 77.2437 25.8203 78.4805 25.7449C79.0038 25.7153 79.5191 25.6052 80.0083 25.4185C80.1349 25.3663 80.2474 25.2846 80.3361 25.1802C80.2999 25.2291 80.5195 24.8539 80.6639 24.6191C81.2372 23.5652 81.6997 22.455 82.0437 21.3065C82.2208 20.7257 82.3715 20.1383 82.5028 19.5509C82.5684 19.2539 82.6274 18.957 82.6798 18.6633L82.7485 18.2227L82.8075 17.8213L85.7577 18.066Z" fill="#E6A078"/>
<path d="M86.4392 16.1503C86.5114 17.9778 85.8001 21.2738 85.8001 21.2738L81.2568 20.7256C81.2568 20.7256 81.0896 15.9023 81.9714 14.7372C83.4498 12.789 86.3736 14.4207 86.4392 16.1503Z" fill="#26262D"/>
<path d="M75.3886 25.8623L72.668 24.8994L73.2349 26.9293C73.2349 26.9293 74.5068 27.6703 75.2346 26.8282L75.3886 25.8623Z" fill="#E6A078"/>
<path d="M71.733 25.4184L71.3594 26.8512L73.2378 26.9293L72.6706 24.8994L71.733 25.4184Z" fill="#E6A078"/>
<path d="M58.9555 34.9021C60.8493 34.9305 62.7296 34.5839 64.4872 33.8823C66.245 33.1804 67.845 32.138 69.1941 30.8149C70.5435 29.492 71.6147 27.915 72.3461 26.1759C73.0774 24.4368 73.4541 22.5703 73.4541 20.685C73.4541 18.7996 73.0774 16.9331 72.3461 15.194C71.6147 13.4549 70.5435 11.878 69.1941 10.555C67.845 9.23199 66.245 8.18931 64.4872 7.48768C62.7296 6.78603 60.8493 6.43938 58.9555 6.46794H57.1035V34.9021H58.9555Z" fill="#407BFF"/>
<path d="M57.1042 34.9017C64.9922 34.9017 71.3864 28.5359 71.3864 20.6832C71.3864 12.8305 64.9922 6.4646 57.1042 6.4646C49.2165 6.4646 42.8223 12.8305 42.8223 20.6832C42.8223 28.5359 49.2165 34.9017 57.1042 34.9017Z" fill="#407BFF"/>
<path opacity="0.4" d="M57.1042 34.9017C64.9922 34.9017 71.3864 28.5359 71.3864 20.6832C71.3864 12.8305 64.9922 6.4646 57.1042 6.4646C49.2165 6.4646 42.8223 12.8305 42.8223 20.6832C42.8223 28.5359 49.2165 34.9017 57.1042 34.9017Z" fill="black"/>
<path d="M66.0581 29.5998C71.0034 24.6765 71.0034 16.6946 66.0581 11.7715C61.1129 6.84832 53.0953 6.84832 48.1501 11.7715C43.2052 16.6946 43.2052 24.6765 48.1501 29.5998C53.0953 34.523 61.1129 34.523 66.0581 29.5998Z" fill="#407BFF"/>
<path d="M72.8244 6.778C72.8244 6.99012 72.7033 7.16308 72.5655 7.16633C72.4279 7.16961 72.3132 6.99666 72.3165 6.78779C72.3198 6.57895 72.4342 6.40271 72.5754 6.39946C72.7162 6.39618 72.8277 6.56913 72.8244 6.778Z" fill="#263238"/>
<path d="M72.6393 6.41301L72.1113 6.26221C72.1113 6.26221 72.3834 6.66542 72.6393 6.41301Z" fill="#263238"/>
<path d="M72.641 6.98682C72.4427 7.47351 72.1792 7.93126 71.8574 8.34766C71.9675 8.42266 72.0922 8.47317 72.2234 8.49569C72.3546 8.51824 72.4894 8.51225 72.6179 8.47817L72.641 6.98682Z" fill="#A02724"/>
<path d="M72.5567 5.37507C72.5762 5.37992 72.5966 5.37992 72.6158 5.37507C72.7668 5.32097 72.9282 5.30258 73.0874 5.32127C73.2467 5.33999 73.3996 5.39532 73.5335 5.4829C73.5602 5.50282 73.5937 5.51144 73.6263 5.50684C73.6428 5.50457 73.6585 5.49912 73.6725 5.4908C73.6867 5.48248 73.6991 5.47148 73.709 5.45838C73.7189 5.44529 73.7263 5.43038 73.7304 5.41454C73.7345 5.39866 73.7353 5.38213 73.7331 5.36591C73.7307 5.34968 73.7252 5.33405 73.7169 5.31993C73.7087 5.30578 73.6974 5.29344 73.6845 5.28356C73.5171 5.1738 73.3265 5.10374 73.1275 5.07881C72.9287 5.05388 72.7267 5.07476 72.5373 5.13981C72.5213 5.1446 72.5068 5.15251 72.4942 5.1631C72.4815 5.17369 72.4714 5.18672 72.464 5.20138C72.4565 5.21605 72.4524 5.23206 72.4513 5.24845C72.4505 5.26482 72.453 5.28121 72.4585 5.29664C72.4664 5.31725 72.4796 5.33537 72.4969 5.34916C72.5142 5.36292 72.5348 5.37187 72.5567 5.37507Z" fill="#263238"/>
<path d="M79.1097 9.03296C78.9686 10.6222 79.5028 13.2232 80.7091 14.1075C80.7091 14.1075 79.8012 15.7784 76.8936 16.1668C73.6944 16.5943 75.1956 14.8027 75.1956 14.8027C76.8969 14.15 76.7165 12.887 76.2839 11.7253L79.1097 9.03296Z" fill="#E6A078"/>
<path d="M73.2975 18.0301C72.95 19.6843 72.5124 21.3184 71.9863 22.9253C71.4721 24.5436 70.8569 26.1282 70.1439 27.6703L70.0097 27.9638C69.9539 28.0781 69.8817 28.212 69.8161 28.3325C69.6876 28.5586 69.5452 28.7764 69.39 28.9852C69.1056 29.3575 68.7957 29.7095 68.4624 30.0394C67.8386 30.653 67.1751 31.2253 66.4761 31.7526C65.1218 32.7742 63.6893 33.6885 62.1917 34.4874L61.3887 33.2736C62.631 32.2421 63.8732 31.1652 65.0205 30.0624C65.5863 29.5269 66.1225 28.9617 66.6268 28.3686C66.8572 28.0953 67.0697 27.8075 67.2627 27.5071C67.3453 27.3762 67.4208 27.2412 67.4889 27.1023L67.5677 26.9162L67.6758 26.6388C67.9641 25.9014 68.22 25.1443 68.4789 24.3872C68.7377 23.6301 68.964 22.8599 69.1902 22.1028C69.6327 20.5625 70.0489 18.9797 70.4127 17.4492L73.2975 18.0301Z" fill="#E6A078"/>
<path d="M62.3393 34.3731L60.8313 35.3521L60.084 34.0763C60.084 34.0763 61.5657 32.314 62.4604 33.5671L62.3393 34.3731Z" fill="#E6A078"/>
<path d="M61.95 33.058L61.0975 32.9309L60.1405 33.1332L59.8945 33.4106L60.5174 33.5019L60.6814 33.7468L60.8911 33.8804L61.95 33.058Z" fill="#E6A078"/>
<path d="M59.3333 35.4797L58.5039 34.8139L60.0839 34.083L60.8312 35.3589L59.3333 35.4797Z" fill="#E6A078"/>
<path d="M83.8343 89.6128L81.1889 89.8085L80.4023 83.7614L83.0475 83.5657L83.8343 89.6128Z" fill="#E6A078"/>
<path d="M100.77 81.9309L98.4791 83.3177L94.6699 78.5792L96.9612 77.1924L100.77 81.9309Z" fill="#E6A078"/>
<path d="M97.7935 82.8086L99.9667 80.7264C100.003 80.6898 100.051 80.6674 100.102 80.6638C100.154 80.6603 100.205 80.6756 100.245 80.707L102.097 82.1296C102.142 82.1693 102.178 82.2176 102.203 82.272C102.227 82.3264 102.24 82.3852 102.24 82.4448C102.24 82.5041 102.227 82.5631 102.203 82.6172C102.178 82.6716 102.142 82.72 102.097 82.7596C101.327 83.4743 100.921 83.781 99.9637 84.698C99.3767 85.2627 98.5737 86.1438 97.7608 86.9236C96.9479 87.7037 96.1578 86.9662 96.4266 86.5713C97.6395 84.8024 97.4558 84.1401 97.5673 83.236C97.5898 83.0715 97.6699 82.9201 97.7935 82.8086Z" fill="#26262D"/>
<path d="M81.0232 89.4334H83.9961C84.0475 89.4328 84.0972 89.4506 84.1364 89.4837C84.1754 89.5165 84.2012 89.5624 84.2092 89.6129L84.6092 91.9528C84.6177 92.0113 84.6133 92.0706 84.5965 92.1274C84.5798 92.184 84.5512 92.2365 84.5123 92.281C84.4733 92.3256 84.4252 92.3614 84.3714 92.3857C84.3173 92.4103 84.2586 92.4229 84.1993 92.4226C83.1602 92.4226 82.6589 92.3445 81.351 92.3445C80.5477 92.3445 78.8859 92.4259 77.7746 92.4259C76.6633 92.4259 76.5782 91.3326 77.0369 91.2348C79.099 90.7909 79.902 90.1773 80.5839 89.6031C80.7053 89.4962 80.8609 89.4358 81.0232 89.4334Z" fill="#26262D"/>
<path opacity="0.2" d="M80.4043 83.7615L80.8403 87.1228L83.453 86.6855L83.0497 83.5688L80.4043 83.7615Z" fill="black"/>
<path opacity="0.2" d="M96.9612 77.1924L94.6699 78.5825L96.2466 80.5405L98.5873 79.2125L96.9612 77.1924Z" fill="black"/>
<path d="M85.1667 29.9741L74.4543 31.4068C70.3044 16.4473 71.5305 16.0427 71.5305 16.0427C72.3321 15.6662 73.1566 15.3392 73.9988 15.0636L74.1463 15.018C74.8378 14.8123 74.9822 14.783 75.9033 14.5741C77.4865 14.2967 78.955 14.0814 80.7678 13.9214L81.0956 13.8953C81.4234 13.8725 81.7512 13.8562 82.079 13.8464C82.292 13.8464 82.5018 13.8464 82.7016 13.8301H83.7474C83.9524 13.8348 84.1539 13.8818 84.3398 13.9681C84.5257 14.0544 84.6912 14.1782 84.8266 14.3315C84.9619 14.4849 85.0638 14.6645 85.1255 14.8591C85.1876 15.0536 85.2082 15.2588 85.1865 15.4618C84.2753 23.3625 84.5668 25.947 85.1667 29.9741Z" fill="#26262D"/>
<path opacity="0.2" d="M73.4212 20.6213C73.6345 22.1682 73.4355 23.7439 72.8442 25.19C72.1298 22.2726 71.7463 20.2949 71.5527 18.9243C72.359 18.8884 73.2115 19.2017 73.4212 20.6213Z" fill="black"/>
<path d="M71.6219 16.0002C69.7896 17.0445 68.5144 19.5345 68.1309 20.9803L72.035 24.5372C72.035 24.5372 74.5591 19.7009 73.9003 18.3923C73.2117 17.0314 72.317 15.6053 71.6219 16.0002Z" fill="#26262D"/>
<path d="M80.0124 6.09925C79.8125 8.70997 79.7862 9.79993 78.4357 11.151C76.4066 13.1841 73.2138 12.4563 72.6205 9.88151C72.0895 7.558 72.4994 3.68106 75.0955 2.63024C75.6508 2.38324 76.2611 2.28457 76.8665 2.34394C77.4718 2.4033 78.0514 2.61868 78.5475 2.96879C79.0438 3.31894 79.44 3.79178 79.697 4.34071C79.9536 4.88964 80.0624 5.49572 80.0124 6.09925Z" fill="#E6A078"/>
<path d="M74.6077 7.14668C74.8765 6.22315 72.7917 5.17233 72.5688 3.756C72.2802 1.91872 73.7094 0.433869 75.0437 1.29867C75.5845 0.0683633 79.2559 -0.4505 81.2718 1.07348C83.5401 2.78352 80.7604 4.59145 83.0223 6.10565C84.8252 7.31311 85.0709 8.06369 83.9565 9.5094C83.1107 10.6091 85.2971 10.3742 84.7431 12.2343C84.1891 14.0945 72.8801 14.7765 74.3815 10.6026C75.7155 6.91499 74.0765 9.03292 74.6077 7.14668Z" fill="#3E3E54"/>
<path d="M75.2456 6.94115C75.2296 7.42525 75.0635 7.89257 74.7703 8.27915C74.3637 8.82739 73.8885 8.68054 73.7869 8.17471C73.6821 7.72109 73.7705 6.88892 74.2852 6.51038C74.8 6.13181 75.2423 6.39941 75.2456 6.94115Z" fill="#E6A078"/>
<path d="M83.8423 9.60737C83.8325 9.6072 83.8229 9.60382 83.8149 9.59772C83.8072 9.59163 83.8014 9.58313 83.7987 9.57356C83.7962 9.56397 83.7968 9.5538 83.8006 9.54459C83.8045 9.53538 83.8111 9.52761 83.8196 9.5225C84.5309 9.11458 84.9111 8.54348 84.8946 7.94954C84.8752 7.18592 84.2391 6.41574 83.1999 5.89035C81.9609 5.26377 82.0559 4.41529 82.1509 3.60597C82.2462 2.79665 82.3412 1.92857 81.1316 1.23019C81.1209 1.22347 81.1132 1.21319 81.1096 1.20119C81.106 1.18922 81.1069 1.17635 81.1118 1.16495C81.1187 1.1544 81.1294 1.14683 81.1415 1.1438C81.1535 1.14076 81.1664 1.14249 81.1774 1.14861C82.4428 1.87962 82.3412 2.76074 82.2429 3.61575C82.1446 4.47077 82.0592 5.2246 83.2263 5.8218C84.2981 6.36026 84.9504 7.15979 84.9734 7.95933C84.9734 8.612 84.5932 9.19291 83.8522 9.61387C83.8487 9.61221 83.8454 9.61002 83.8423 9.60737Z" fill="#263238"/>
<path d="M77.2852 31.0282C77.2852 31.0282 81.4449 48.5265 83.3887 58.581C85.4375 69.187 95.278 80.2369 95.278 80.2369L98.6183 78.3833C98.6183 78.3833 92.4261 68.2995 90.4234 58.3951C86.3454 38.2924 89.1122 34.246 85.1786 29.9773L77.2852 31.0282Z" fill="#9FA7B4"/>
<path d="M94.9438 80.5469L99.1135 78.2333L98.5037 77.0061L93.8262 79.1503L94.9438 80.5469Z" fill="#26262D"/>
<path opacity="0.2" d="M79.4941 34.8302C82.7295 37.6268 82.3787 47.5575 82.041 52.0153C80.6839 45.6582 79.0516 38.5831 78.1074 34.4875C78.4352 34.233 78.9008 34.3276 79.4941 34.8302Z" fill="black"/>
<path d="M96.8828 84.016C96.9141 84.0211 96.9462 84.0211 96.9778 84.016C97.3056 84.016 97.6957 83.507 97.8923 83.2067C97.8989 83.1966 97.9022 83.1845 97.9022 83.1725C97.9022 83.1605 97.8989 83.1484 97.8923 83.1383C97.8857 83.1274 97.8758 83.1189 97.864 83.1143C97.8522 83.1096 97.839 83.1088 97.827 83.1121C97.7218 83.1318 96.7747 83.3308 96.65 83.644C96.6363 83.6784 96.6316 83.7159 96.6368 83.7525C96.6421 83.7891 96.6569 83.8238 96.6797 83.8528C96.7263 83.929 96.7983 83.9864 96.8828 84.016ZM97.699 83.2753C97.4237 83.6669 97.1582 83.8987 96.9745 83.902C96.9353 83.902 96.8968 83.8916 96.8628 83.8722C96.829 83.8528 96.8007 83.8246 96.7813 83.791C96.7708 83.7784 96.7637 83.7634 96.7609 83.7473C96.7582 83.7314 96.7593 83.7148 96.7648 83.6995C96.8337 83.533 97.3221 83.3666 97.699 83.2785V83.2753Z" fill="#9FA7B4"/>
<path d="M74.6157 31.4133C74.6157 31.4133 72.744 52.1914 73.7504 60.1083C74.8123 68.3518 80.2177 86.2841 80.2177 86.2841L84.0302 85.7945C84.0302 85.7945 80.9323 68.0221 80.3816 59.8636C79.7817 50.9642 82.4469 30.3591 82.4469 30.3591L74.6157 31.4133Z" fill="#9FA7B4"/>
<path d="M79.4191 86.5094L84.8574 85.8111L84.772 84.2119L78.875 84.7799L79.4191 86.5094Z" fill="#26262D"/>
<path d="M97.0232 83.2007C97.2945 83.274 97.5783 83.2886 97.8556 83.2434C97.8666 83.2404 97.8768 83.2344 97.8847 83.2264C97.8927 83.2185 97.8985 83.2084 97.9015 83.1974C97.904 83.187 97.9037 83.1764 97.9007 83.1662C97.8979 83.1558 97.8924 83.1465 97.8853 83.1386C97.8622 83.1159 97.3444 82.5833 96.9609 82.5995C96.9112 82.6003 96.8626 82.6121 96.8184 82.634C96.774 82.6561 96.7353 82.6879 96.7051 82.727C96.6691 82.7615 96.6463 82.8075 96.6403 82.8567C96.6342 82.9063 96.6455 82.9563 96.6724 82.9982C96.763 83.1036 96.8865 83.175 97.0232 83.2007ZM97.7082 83.1419C97.3804 83.178 96.8755 83.0833 96.7773 82.9328C96.7608 82.9068 96.7479 82.8707 96.8003 82.8055C96.8204 82.7804 96.8456 82.7598 96.8744 82.7459C96.9035 82.7317 96.9351 82.724 96.9675 82.7237C97.2519 82.7831 97.5108 82.9292 97.7082 83.1419Z" fill="#9FA7B4"/>
<path d="M80.0404 89.8941C80.3193 89.8892 80.5971 89.8574 80.8697 89.7994C80.8824 89.7969 80.8939 89.7904 80.9027 89.7811C80.9115 89.7718 80.9172 89.76 80.9189 89.7471C80.9211 89.7343 80.9192 89.7209 80.9131 89.7091C80.9073 89.6973 80.8977 89.6877 80.8862 89.6817C80.7649 89.6196 79.6931 89.0805 79.3749 89.2636C79.3452 89.2794 79.3202 89.303 79.3024 89.3317C79.2846 89.3604 79.2744 89.3933 79.2733 89.4269C79.2675 89.4836 79.2755 89.5408 79.2966 89.5939C79.3178 89.6467 79.3513 89.6938 79.3947 89.7307C79.5855 89.856 79.8128 89.9135 80.0404 89.8941ZM80.66 89.7113C80.0766 89.806 79.6406 89.783 79.4767 89.6393C79.449 89.6136 79.4276 89.5821 79.4139 89.5471C79.4001 89.5121 79.3949 89.4743 79.3979 89.4368C79.3979 89.4234 79.4018 89.4103 79.4087 89.3988C79.4155 89.3873 79.4254 89.3777 79.4372 89.3714C79.611 89.2734 80.2207 89.5022 80.66 89.7113Z" fill="#9FA7B4"/>
<path d="M80.8562 89.8053C80.8691 89.8083 80.8826 89.8083 80.8955 89.8053C80.904 89.7982 80.9106 89.7892 80.9144 89.7788C80.9186 89.7687 80.9199 89.7575 80.9183 89.7465C80.9183 89.7009 80.7939 88.624 80.2006 88.624H80.1482C79.9777 88.6401 79.9286 88.7252 79.9187 88.7968C79.8696 89.0939 80.5087 89.6648 80.8332 89.8086L80.8562 89.8053ZM80.2006 88.738C80.5842 88.738 80.7349 89.3647 80.7807 89.6323C80.4529 89.4366 80.017 88.9796 80.0433 88.8099C80.0433 88.7935 80.0433 88.7511 80.1644 88.7413L80.2006 88.738Z" fill="#9FA7B4"/>
<path d="M85.26 29.3312L85.8434 30.2157C85.8893 30.2843 85.8107 30.369 85.6861 30.3854L74.4526 31.8864C74.3573 31.8864 74.2722 31.8635 74.2591 31.805L74.0625 30.8716C74.0625 30.8063 74.1248 30.7377 74.233 30.7246L85.0764 29.2757C85.1093 29.2686 85.1433 29.27 85.1755 29.2796C85.2076 29.2894 85.2367 29.3072 85.26 29.3312Z" fill="#5C5C6A"/>
<path d="M83.9312 30.7378L84.223 30.6987C84.2788 30.6987 84.3213 30.6563 84.3114 30.6202L84.046 29.4064C84.046 29.3737 83.9837 29.351 83.9246 29.3572L83.6361 29.3966C83.5773 29.3966 83.5345 29.439 83.5444 29.4748L83.8099 30.6888C83.8198 30.7085 83.8722 30.7378 83.9312 30.7378Z" fill="#26262D"/>
<path d="M76.5952 31.7167L76.8837 31.6776C76.9428 31.6776 76.982 31.635 76.9754 31.5992L76.7067 30.3851C76.7067 30.3493 76.6477 30.3266 76.5886 30.3362L76.2971 30.3723C76.2413 30.3723 76.1988 30.4179 76.2084 30.4537L76.4741 31.6645C76.4838 31.7167 76.5362 31.7167 76.5952 31.7167Z" fill="#26262D"/>
<path d="M54.3683 18.578L57.478 15.4834L60.5889 18.5805L62.3973 16.7789L57.478 11.8801L52.5586 16.7776L54.3683 18.578Z" fill="white"/>
<path d="M49.4707 19.8509L51.2791 18.0493L53.0888 19.8509L51.2791 21.6513L49.4707 19.8509Z" fill="white"/>
<path d="M54.3683 21.1224L57.478 24.2182L60.5889 21.1211L62.3986 22.9202L57.4792 27.819L52.5586 22.924L54.3683 21.1224Z" fill="white"/>
<path d="M61.8652 19.8509L63.6736 18.0493L65.4833 19.8497L63.6736 21.6526L61.8652 19.8509Z" fill="white"/>
<path d="M59.3125 19.8495L57.4775 18.0215L56.1206 19.3724L55.9638 19.5272L55.6426 19.847L57.4775 21.6726L59.3125 19.8508V19.8495Z" fill="white"/>
</svg>
