<svg width="14" height="14" viewBox="0 0 14 14" fill="none" xmlns="http://www.w3.org/2000/svg">
<path d="M6.3304 8.75778C6.3304 8.3652 6.38307 8.05232 6.48841 7.81913C6.59374 7.58594 6.80122 7.33062 7.11084 7.05316C7.42365 6.77275 7.62156 6.57351 7.70455 6.45544C7.83223 6.27538 7.89607 6.08057 7.89607 5.871C7.89607 5.59354 7.82106 5.38249 7.67103 5.23785C7.5242 5.09027 7.30715 5.01647 7.01987 5.01647C6.74536 5.01647 6.52352 5.08879 6.35434 5.23343C6.18836 5.37511 6.10537 5.56845 6.10537 5.81344H4.94189C4.94828 5.29098 5.1398 4.87774 5.51645 4.57372C5.89629 4.26969 6.39743 4.11768 7.01987 4.11768C7.66146 4.11768 8.161 4.26821 8.5185 4.56929C8.8792 4.87036 9.05954 5.29098 9.05954 5.83115C9.05954 6.31228 8.81695 6.78603 8.33177 7.2524L7.74285 7.78814C7.53218 8.00952 7.42365 8.33273 7.41727 8.75778H6.3304ZM6.24901 10.1348C6.24901 9.9606 6.30806 9.8204 6.42616 9.71413C6.54427 9.60492 6.70386 9.55031 6.90496 9.55031C7.10925 9.55031 7.27044 9.6064 7.38854 9.71856C7.50665 9.82778 7.5657 9.96651 7.5657 10.1348C7.5657 10.2971 7.50824 10.4329 7.39333 10.5421C7.27842 10.6513 7.11563 10.7059 6.90496 10.7059C6.69429 10.7059 6.5315 10.6513 6.41659 10.5421C6.30487 10.4329 6.24901 10.2971 6.24901 10.1348Z" fill="#9FA7B4"/>
<circle cx="7" cy="7" r="6.5" stroke="#9FA7B4"/>
</svg>
