<svg width="32" height="22" viewBox="0 0 32 22" fill="none" xmlns="http://www.w3.org/2000/svg">
<path d="M19.7824 9.25321C20.836 8.18066 21.9098 7.12874 22.9634 6.0562C24.7463 4.28237 26.4888 2.46729 28.2515 0.693468C29.3659 -0.420329 31.0881 -0.152193 31.7769 1.20912C31.9188 1.49788 31.9998 1.80727 31.9998 2.13728V19.8343C31.9998 20.9893 31.1286 21.9175 29.994 22H7.44336C7.48388 21.9587 7.48388 21.8969 7.50414 21.8762L9.28712 20.0612C9.69234 19.7105 10.057 19.3186 10.3812 18.8855C10.4623 18.8236 10.523 18.7617 10.6041 18.6999L12.9139 16.3485C13.157 16.101 13.1367 16.101 13.3191 16.3898C13.7851 17.1529 14.2308 17.8748 14.6968 18.638C14.7576 18.7411 14.7981 18.803 14.9197 18.803C15.5478 18.803 16.1354 18.803 16.7635 18.7617C17.2903 18.803 17.817 18.8236 18.3438 18.803C18.8301 18.8236 19.3164 18.803 19.8026 18.7617C19.8634 18.7617 19.9242 18.803 19.985 18.803H28.7175C28.9404 18.803 28.9607 18.6999 28.9607 18.5142V4.77739C28.9607 4.67426 29.0214 4.59176 28.8999 4.52988C28.7783 4.468 28.7378 4.59176 28.677 4.65364L23.247 10.1814C22.0921 11.3158 20.9778 12.4915 19.8229 13.6465C19.8026 13.5846 19.7824 13.5228 19.7824 13.4609V9.45947C19.7621 9.43884 19.7621 9.33571 19.7824 9.25321Z" fill="#1D2939"/>
<path d="M19.7617 18.2744C19.2755 18.3156 18.7892 18.3156 18.3029 18.3156C17.7762 18.3362 17.2494 18.3156 16.7226 18.2744V8.84834C16.6213 8.88959 16.52 8.97209 16.4389 9.07522C15.1827 10.354 13.9468 11.6122 12.6704 12.891C10.9887 14.603 9.26649 16.3149 7.58482 18.0681C7.52404 18.13 7.42273 18.1712 7.46325 18.2537C7.50378 18.3362 7.62534 18.3156 7.70639 18.3156H10.0769C10.1782 18.3156 10.2593 18.2744 10.3606 18.3775C10.0364 18.79 9.67171 19.1819 9.26649 19.5532L7.48352 21.3682C7.44299 21.4095 7.44299 21.4301 7.42273 21.492H0.2503C0.148994 21.492 0.0274282 21.5539 0.00716711 21.4301C-0.0333551 21.3064 0.108473 21.2651 0.169257 21.2032L12.9743 8.16768C14.0076 7.11576 15.0206 6.08447 16.054 5.05317C16.4794 4.55815 17.0873 4.31064 17.7356 4.33127C18.85 4.3519 19.7415 5.25943 19.782 6.39386C19.8225 7.19827 19.782 7.9408 19.8225 8.74521C19.8225 8.84834 19.782 8.93084 19.782 8.99272V12.9735C19.782 13.0354 19.782 13.0973 19.8225 13.1591V16.2943C19.7617 16.9337 19.7617 17.6143 19.7617 18.2744Z" fill="#3DD4ED"/>
</svg>
