<svg width="32" height="30" viewBox="0 0 32 30" fill="none" xmlns="http://www.w3.org/2000/svg">
<path fill-rule="evenodd" clip-rule="evenodd" d="M11.5822 6.2627L10.0715 12.1486L0 13.4946L11.5822 6.2627Z" fill="#57BAE5"/>
<path fill-rule="evenodd" clip-rule="evenodd" d="M14.3061 30.0001L16.8126 19.3119L13.5508 17.9316L14.3061 30.0001Z" fill="#005472"/>
<path fill-rule="evenodd" clip-rule="evenodd" d="M10.0715 12.1484L7.41628 17.715L0 13.483L10.0715 12.1484Z" fill="#34AFE4"/>
<path fill-rule="evenodd" clip-rule="evenodd" d="M14.3058 30L13.5619 17.9316L7.41602 17.7148L14.3058 30Z" fill="#0076A7"/>
<path fill-rule="evenodd" clip-rule="evenodd" d="M10.0712 12.1484L13.5619 17.9317L7.41602 17.715L10.0712 12.1484Z" fill="#009DE2"/>
<path fill-rule="evenodd" clip-rule="evenodd" d="M11.582 6.2627L19.9368 7.33494L10.0713 12.1486L11.582 6.2627Z" fill="#7ACDF2"/>
<path fill-rule="evenodd" clip-rule="evenodd" d="M29.082 3.58203L23.8174 9.84437L24.1836 4.04971L29.082 3.58203Z" fill="#7ACDF2"/>
<path fill-rule="evenodd" clip-rule="evenodd" d="M32.0005 0L29.082 3.58174L31.3596 3.86691L32.0005 0Z" fill="#7ACDF2"/>
<path fill-rule="evenodd" clip-rule="evenodd" d="M26.2432 6.84438L31.359 3.8672L29.0815 3.58203L26.2432 6.84438Z" fill="#00ABE7"/>
<path fill-rule="evenodd" clip-rule="evenodd" d="M16.8236 19.3118L17.0754 12.1255L13.5732 17.9316L16.8236 19.3118Z" fill="#0076A7"/>
<path fill-rule="evenodd" clip-rule="evenodd" d="M17.0641 12.1255L13.562 17.9316L10.0713 12.1483L17.0641 12.1255Z" fill="#008DBE"/>
<path fill-rule="evenodd" clip-rule="evenodd" d="M19.9368 7.33398L17.0641 12.1248L10.0713 12.1477L19.9368 7.33398Z" fill="#57BAE5"/>
<path fill-rule="evenodd" clip-rule="evenodd" d="M17.0643 12.1255L16.8125 19.3118L23.2216 26.0304L17.0643 12.1255Z" fill="#00698D"/>
<path fill-rule="evenodd" clip-rule="evenodd" d="M26.5869 22.2777L23.1992 13.6655L23.2336 26.0419L26.5869 22.2777Z" fill="#09A1CB"/>
<path fill-rule="evenodd" clip-rule="evenodd" d="M23.8287 9.84424L23.2106 13.6541L17.0762 12.1142L23.8287 9.84424Z" fill="#09A1CB"/>
<path fill-rule="evenodd" clip-rule="evenodd" d="M26.9303 15.0229L23.1992 13.6541L23.8172 9.84424L26.9303 15.0229Z" fill="#8BDAFF"/>
<path fill-rule="evenodd" clip-rule="evenodd" d="M28.269 22.0377L24.2061 15.3647H26.5294L28.269 22.0377Z" fill="#7ACDF2"/>
<path fill-rule="evenodd" clip-rule="evenodd" d="M20.7041 5.91986L23.8286 9.85521L24.1948 4.06055L20.7041 5.91986Z" fill="#57BAE5"/>
<path fill-rule="evenodd" clip-rule="evenodd" d="M23.1989 13.6654L17.0645 12.1255L23.2332 26.0304L23.1989 13.6654Z" fill="#008DBE"/>
<path fill-rule="evenodd" clip-rule="evenodd" d="M26.587 22.2773L27.9375 23.053L23.2451 26.0302L26.587 22.2773Z" fill="#0076A7"/>
<path fill-rule="evenodd" clip-rule="evenodd" d="M28.2686 21.958L23.21 13.6538L26.5976 22.266L28.2686 21.958Z" fill="#57BAE5"/>
<path fill-rule="evenodd" clip-rule="evenodd" d="M20.7042 5.91992L17.0762 12.1252L23.8287 9.84387L20.7042 5.91992Z" fill="#7ACDF2"/>
</svg>
