<svg width="32" height="25" viewBox="0 0 32 25" fill="none" xmlns="http://www.w3.org/2000/svg">
<path d="M15.0039 0.0337759C17.7785 -0.147975 20.5966 0.405932 23.0842 1.64357C26.7547 3.43511 29.6772 6.68066 31.0602 10.5061C31.669 12.1938 31.9996 13.9853 31.9996 15.7769V22.4411C31.9996 22.7094 32.0083 22.995 31.9474 23.2546C31.7995 23.9297 31.3211 24.5182 30.6775 24.8038C30.2339 25.0115 29.7294 25.0375 29.2597 24.9596C28.2334 24.7692 27.4506 23.8172 27.4332 22.7873C27.4245 20.7188 27.4332 18.6589 27.4332 16.5818C27.4506 15.9932 27.4506 15.3701 27.1287 14.8508C26.6156 13.8988 25.3544 13.4401 24.3454 13.8468C23.493 14.1498 22.8668 15.0066 22.8581 15.9153C22.8494 18.0185 22.8581 20.1129 22.8581 22.2074C22.8581 22.5969 22.8755 23.0036 22.7624 23.3758C22.545 24.1114 21.9274 24.7086 21.1881 24.9163C20.2139 25.1846 19.0919 24.7606 18.5961 23.8605C18.2569 23.3152 18.283 22.6661 18.2917 22.0689C18.283 19.9831 18.3004 17.8973 18.283 15.8115C18.2656 14.7556 17.3871 13.8036 16.326 13.6651C15.6388 13.5612 14.9169 13.7863 14.4211 14.2709C13.9688 14.695 13.7166 15.3008 13.7166 15.9153V21.991C13.7079 22.5016 13.7688 23.0296 13.5774 23.5056C13.273 24.3711 12.3945 25.0115 11.4638 24.9856C10.5158 25.0375 9.58508 24.3884 9.28066 23.4969C9.1154 23.0556 9.15019 22.5882 9.15019 22.1208C9.15019 20.0264 9.15889 17.9319 9.15019 15.8288C9.14149 14.7902 8.33259 13.8468 7.30623 13.6564C6.38426 13.4574 5.35791 13.9247 4.88822 14.7556C4.68817 15.1018 4.58379 15.4999 4.58379 15.898V22.718C4.59249 23.3844 4.27937 24.0335 3.77489 24.4576C3.00078 25.1327 1.75698 25.1673 0.939373 24.5528C0.347916 24.1547 0 23.471 0 22.7613V15.8721C0.0086979 13.267 0.669738 10.6619 1.91354 8.37701C2.93989 6.50757 4.34025 4.83719 6.01895 3.50435C8.58483 1.45316 11.7596 0.232836 15.0039 0.0337759Z" fill="#5841D8"/>
</svg>
